<svg xmlns="http://www.w3.org/2000/svg" viewBox="0 0 35.5 50.48"><title>bs</title><g id="Layer_2" data-name="Layer 2"><g id="Layer_1-2" data-name="Layer 1"><path d="M0,50.46H4.71c2.2,0,4.88,0,6,0l1,0c4.12-.11,10.23-.26,14.89-2.45a17.25,17.25,0,0,0,8.93-10.8"/><path d="M24.51,17.46A12.18,12.18,0,0,0,33,13.73c2.21-2.4,2.5-4.57,2.5-9.52"/><path d="M11.81,10.84V4c0-2.2.89-4,2-4L15.2,0c3-.1,4-.06,5.61,1.42,1.18,1.09,1,2.82,1,3.46"/><path d="M11.81,35.44v-6.8c0-2.2.89-4,2-4l1.42,0c3-.1,4-.06,5.61,1.42,1.18,1.09,1,2.82,1,3.46"/></g></g></svg>