<svg xmlns="http://www.w3.org/2000/svg" viewBox="0 0 31.29 57.03"><title>gs</title><g id="Layer_2" data-name="Layer 2"><g id="Layer_1-2" data-name="Layer 1"><path d="M10.06,42.46"/><path d="M31.29,0V6.56a4,4,0,0,1-4,4H25.67c-2.2,0-4.59,0-5.31-.05l-.87.05C9.81,11.13,2.45,19.8,2,29c-.37,7.56,5.83,12.45,8.07,13.46"/><path d="M0,52.48C5.81,56.8,16.05,56.84,19.32,57l1.63.06c1.1,0,3.79-.06,6-.06h.35a4,4,0,0,0,4-4V30.52"/><path d="M28.17,42.46"/><line x1="15.72" y1="40.07" x2="21" y2="40.07"/></g></g></svg>