<svg xmlns="http://www.w3.org/2000/svg" viewBox="0 0 34.55 56.98"><title>js</title><g id="Layer_2" data-name="Layer 2"><g id="Layer_1-2" data-name="Layer 1"><path d="M0,0V6.4a4,4,0,0,0,4,4H9.89a4,4,0,0,1,4,4V26.62c0,2.2,0,4.88,0,5.94v1c-.11,8.54,0,11.8-1.51,12.88"/><line x1="25.28" y1="10.07" x2="34.55" y2="10.07"/><path d="M0,42.08s0,3.27,0,4.36a9.61,9.61,0,0,0,4.2,8.32c4.09,2.71,11.81,3.08,19,.32"/><line x1="23.24" y1="10.09" x2="34.55" y2="10.09"/><path d="M23.24,10.07c0,2.32,2.44,3.14,5.65,3.14,2.8,0,5.65-.6,5.65-3.11"/></g></g></svg>