<svg xmlns="http://www.w3.org/2000/svg" viewBox="0 0 38.73 57"><title>qs</title><g id="Layer_2" data-name="Layer 2"><g id="Layer_1-2" data-name="Layer 1"><path d="M15.91,12.77a24.86,24.86,0,0,0-6.08.42C4.37,14.65,0,19.54,0,27.74S3.08,40.93,8.32,43.15c3,1.29,7.59.89,7.59.89"/><path d="M31.39,50c4.46-4.56,7.34-11.34,7.34-20.32,0-14.76-5.6-23.94-15.11-28A21.16,21.16,0,0,0,13.25.11"/><path d="M31.39,50"/><path d="M30.65,50.74"/><path d="M31.39,50l2.32,3.6c1.19,1.85.37,3.37-1.83,3.37H26"/></g></g></svg>