<svg xmlns="http://www.w3.org/2000/svg" viewBox="0 0 32.91 56"><title>ss</title><g id="Layer_2" data-name="Layer 2"><g id="Layer_1-2" data-name="Layer 1"><path d="M31.71,0s-.43,7.93-2.34,9.07c-.79.48-5.86-1.53-5.86-1.53a25.16,25.16,0,0,0-7.72-1.47H14.2A9.83,9.83,0,0,0,7.89,8.54a9.28,9.28,0,0,0-2.27,5.55,15.47,15.47,0,0,0,.91,5L7.41,21"/><path d="M2.3,30c1.09,1.45,2.77,5.75,8,7.47,4.79,1.56,10.2,0,11.9-.46"/><path d="M0,53.33c.67.43,12.55,5.71,22.89.13,7.55-4.07,10.31-11.85,10-21.24,0,0-9.65,11.61-13.91,14.44C14.39,49.7,0,53.33,0,53.33Z"/></g></g></svg>