<svg width="48" height="47" viewBox="0 0 48 47" fill="none" xmlns="http://www.w3.org/2000/svg">
<path fill-rule="evenodd" clip-rule="evenodd" d="M48 24C48 34.7646 40.913 43.874 31.1503 46.9168C30.429 46.1842 30 45.1838 30 44.1097V37C30 36.0989 29.702 35.2674 29.1992 34.5986C35.4172 33.5355 39.6027 30.254 40 23.5C40.2054 20.0079 39.1449 17.3597 37.1652 15.4514C37.8442 12.4243 36.6832 9.26255 36.3866 9.09129C36.0692 8.90809 32.2935 9.57932 30.0281 12.0593C28.1868 11.6806 26.1579 11.5 24 11.5C21.8849 11.5 19.8951 11.6735 18.0849 12.037C16.0418 9.45525 11.9577 8.89759 11.6222 9.09129C11.3085 9.27242 9.92496 12.6205 10.7394 15.5565C8.83021 17.4565 7.80954 20.0715 8.00001 23.5C8.37529 30.2549 12.5749 33.5364 18.8004 34.599C18.2978 35.2677 18 36.0991 18 37L18 37.5C17.5 37.625 15.743 38.0619 15 38L14.9972 37.9998C14.4991 37.9583 13.8 37.9 13 37.5C12.3187 37.1594 11.4054 35.8905 10.7343 34.9581C10.4203 34.5219 10.1594 34.1594 10 34C9.20944 33.2094 7.00001 32.5 6.5 33C6.17117 33.6577 7.12897 34.4071 7.97271 35.0672C8.41189 35.4108 8.82018 35.7303 9 36C9.2849 36.4274 9.52921 36.9359 9.77919 37.4562C10.4066 38.7622 11.0698 40.1424 12.5 40.5C14.5 41 15.5 41 18 40.5V44.1097C18 45.1838 17.571 46.1842 16.8497 46.9168C7.08699 43.874 0 34.7646 0 24C0 10.7452 10.7452 0 24 0C37.2548 0 48 10.7452 48 24Z" fill="white"/>
</svg>
