<svg width="48" height="48" viewBox="0 0 48 48" fill="none" xmlns="http://www.w3.org/2000/svg">
<path d="M8.00003 1.5H28C38.2173 1.5 46.5 9.78273 46.5 20V40C46.5 43.5898 43.5899 46.5 40 46.5H20C9.78276 46.5 1.50003 38.2173 1.50003 28V8C1.50003 4.41015 4.41018 1.5 8.00003 1.5Z" stroke="white" stroke-width="3"/>
<path d="M24 24L24 47.52" stroke="white" stroke-width="3"/>
<path d="M0 24H24" stroke="white" stroke-width="3"/>
<path d="M24 24C34.5 24 45 33.8824 45 44" stroke="white" stroke-width="3"/>
<path d="M45 10C45 9.17157 44.3284 8.5 43.5 8.5C42.6716 8.5 42 9.17157 42 10L45 10ZM42 10C42 10.713 41.6365 11.8622 40.7343 13.2809C39.8564 14.6614 38.5562 16.1572 36.9108 17.5378C33.6123 20.3056 29.0673 22.4974 24.0006 22.4952L23.9994 25.4952C29.9327 25.4978 35.1377 22.942 38.8392 19.836C40.6938 18.2797 42.2061 16.5571 43.2657 14.8908C44.301 13.2628 45 11.537 45 10L42 10Z" fill="white"/>
<path d="M24 24C13.5025 24 2.78459 14.1167 3.00329 4" stroke="white" stroke-width="3"/>
</svg>
