<svg width="48" height="48" viewBox="0 0 48 48" fill="none" xmlns="http://www.w3.org/2000/svg">
<path fill-rule="evenodd" clip-rule="evenodd" d="M47.9524 31C47.9524 21.6112 40.3412 14 30.9524 14C28.7358 14 26.6184 14.4242 24.6768 15.1958C25.6232 14.9564 26.6142 14.8292 27.635 14.8292C34.2759 14.8292 39.6594 20.2127 39.6594 26.8536C39.6594 33.4945 34.2759 38.878 27.635 38.878C20.9941 38.878 15.6106 33.4945 15.6106 26.8536C15.6106 24.9013 16.0759 23.0576 16.9016 21.4275C15.0406 24.1539 13.9524 27.4499 13.9524 31C13.9524 40.3888 21.5635 48 30.9524 48C40.3412 48 47.9524 40.3888 47.9524 31Z" fill="white"/>
<path d="M11.4729 21.7846C11.4729 36.9231 9.9235 46.5231 7.29054 46.5231C4.65758 46.5231 11.3185 41.3538 5.74157 32.8615C5.13539 31.9384 4.03794 30.8308 3.26311 28.0615C3.26311 31.0154 2.17786 32.2238 1.86898 32.6769C-2.15819 38.5846 0.630017 48 7.29054 48C12.7121 48 13 33.7154 13 31.5V20L48 0H11.473L11.4729 21.7846Z" fill="white"/>
</svg>
