<svg width="48" height="48" viewBox="0 0 48 48" fill="none" xmlns="http://www.w3.org/2000/svg">
<path d="M29.2783 13.6055L29.2783 20.9928C39.8222 19.6238 41.2686 12.5505 32.3556 8.44037C23.4425 4.33026 4.25951 9.69414 11.8822 16.6913C4.6464 18.4587 -4.59805 3.28998 21.7131 0.311939C40.0109 -1.75912 48 6.95762 48 12.4373C48 19.9137 34.8686 25.1265 22.2995 25.1265L29.2783 25.4883L29.2783 43.7C29.2783 47.4373 18.1904 47.6911 8.34186 48C13.2466 46.6667 16.2512 45.5648 16.2512 43.5735V25.4883C7.20451 25.7878 5.44688 27.8173 7.8766 30.1677C2.7609 29.8896 -0.305577 28.1405 0.0241681 26.4771C0.526129 23.945 6.53405 23.481 16.2512 22.4999C16.2512 17.873 16.7164 16.1303 29.2783 13.6055Z" fill="white"/>
</svg>
