<svg width="50" height="50" viewBox="0 0 50 50" fill="none" xmlns="http://www.w3.org/2000/svg">
<path d="M7.46154 1H3C1.89543 1 1 1.89543 1 3V47C1 48.1046 1.89543 49 3 49H11.0465M7.46154 1V15.3077C7.46154 16.4123 8.35697 17.3077 9.46154 17.3077H26.0698C27.1743 17.3077 28.0698 16.4123 28.0698 15.3077V1M7.46154 1H28.0698M28.0698 1H36.3929C36.9572 1 37.4953 1.23838 37.8744 1.65637L48.4814 13.3513C48.8152 13.7193 49 14.1982 49 14.695V47C49 48.1046 48.1046 49 47 49H41.4651M11.0465 49V33.4615C11.0465 32.357 11.9419 31.4615 13.0465 31.4615H39.4651C40.5697 31.4615 41.4651 32.357 41.4651 33.4615V49M11.0465 49H41.4651" stroke="white" stroke-width="2"/>
<path d="M17 37.9233H35.7693M17 43.4617H35.7693" stroke="white" stroke-width="2" stroke-linecap="round"/>
<rect x="7.7692" y="1" width="13.5385" height="16" rx="2" fill="white"/>
</svg>
