<svg width="44" height="49" viewBox="0 0 44 49" fill="none" xmlns="http://www.w3.org/2000/svg">
<circle cx="22" cy="26" r="21" stroke="white" stroke-width="2"/>
<path fill-rule="evenodd" clip-rule="evenodd" d="M13.4133 11.0821C14.4903 9.77935 17.0688 8.02974 21.6122 8.14544C25.7316 8.25034 28.5363 9.63427 30.0262 10.7892C30.7343 11.3381 31.0236 12.2268 31.0236 13.1228V20.9237C31.0236 23.1328 29.2327 24.9224 27.0236 24.9224H16.969C14.7599 24.9224 12.969 26.7133 12.969 28.9224V29.8245C12.969 32.0336 11.1778 33.8245 8.96865 33.8245H8.09279C7.14811 33.8245 6.21742 33.5034 5.6153 32.7755C4.40232 31.3091 2.98138 28.8137 2.98138 25.7784C2.98138 22.7783 4.3695 20.1104 5.57295 18.4681C6.19387 17.6208 7.2165 17.2187 8.26699 17.2187H20.9341C21.3123 17.2187 21.6122 16.9121 21.6122 16.5339C21.6122 16.1557 21.3056 15.8492 20.9274 15.8492H16.2817C14.4522 15.8492 12.969 14.366 12.969 12.5364C12.969 12.0133 13.08 11.4854 13.4133 11.0821ZM16.2343 13.7948C17.0829 13.7948 17.7708 13.1817 17.7708 12.4253C17.7708 11.6689 17.0829 11.0557 16.2343 11.0557C15.3856 11.0557 14.6977 11.6689 14.6977 12.4253C14.6977 13.1817 15.3856 13.7948 16.2343 13.7948Z" fill="#FFFEFE"/>
<path fill-rule="evenodd" clip-rule="evenodd" d="M31.1554 39.6187C30.0785 40.9215 27.5 42.6711 22.9566 42.5554C18.8372 42.4505 16.0325 41.0665 14.5426 39.9116C13.8345 39.3627 13.5452 38.474 13.5452 37.578L13.5452 29.7771C13.5452 27.568 15.3361 25.7784 17.5452 25.7784L27.5998 25.7784C29.8089 25.7784 31.5998 23.9875 31.5998 21.7784L31.5998 20.8763C31.5998 18.6672 33.391 16.8763 35.6001 16.8763L36.476 16.8763C37.4207 16.8763 38.3514 17.1974 38.9535 17.9253C40.1665 19.3917 41.5874 21.8871 41.5874 24.9224C41.5874 27.9225 40.1993 30.5904 38.9958 32.2327C38.3749 33.0801 37.3523 33.4821 36.3018 33.4821L23.6347 33.4821C23.2565 33.4821 22.9566 33.7887 22.9566 34.1669C22.9566 34.5451 23.2632 34.8516 23.6414 34.8516L28.2871 34.8517C30.1166 34.8517 31.5998 36.3348 31.5998 38.1644C31.5998 38.6875 31.4888 39.2154 31.1554 39.6187ZM28.3346 36.906C27.486 36.906 26.798 37.5191 26.798 38.2755C26.798 39.0319 27.486 39.6451 28.3346 39.6451C29.1832 39.6451 29.8712 39.0319 29.8712 38.2755C29.8712 37.5191 29.1832 36.906 28.3346 36.906Z" fill="#FFFEFE"/>
<path d="M24.5676 4.31666C24.5676 5.17999 23.4525 5.17999 22.0769 5.17999C20.7013 5.17999 19.5862 5.17999 19.5862 4.31666C19.5862 1.93263 21.4791 0 22.0769 0C22.6747 0 24.5676 1.93263 24.5676 4.31666Z" fill="white"/>
<path d="M36.8468 10.1878C35.998 11.0001 34.8853 10.0763 33.5127 8.9368C32.14 7.79729 31.0273 6.87353 31.8761 6.06128C34.2199 3.8183 38.0089 3.56808 38.6054 4.06327C39.2019 4.55845 39.1907 7.94483 36.8468 10.1878Z" fill="white"/>
<path d="M7.45298 10.1878C8.30177 11.0001 9.41451 10.0763 10.7871 8.9368C12.1598 7.79729 13.2725 6.87353 12.4237 6.06128C10.0799 3.8183 6.29092 3.56808 5.69443 4.06327C5.09794 4.55845 5.10912 7.94483 7.45298 10.1878Z" fill="white"/>
<path d="M4.89725 39.9025C5.84034 39 7.07672 40.0264 8.60187 41.2925C10.127 42.5586 11.3634 43.585 10.4203 44.4875C7.81602 46.9797 3.60607 47.2577 2.9433 46.7075C2.28054 46.1573 2.29296 42.3947 4.89725 39.9025Z" fill="white"/>
<path d="M39.1028 39.9025C38.1597 39 36.9233 40.0264 35.3981 41.2925C33.873 42.5586 32.6366 43.585 33.5797 44.4875C36.184 46.9797 40.3939 47.2577 41.0567 46.7075C41.7195 46.1573 41.707 42.3947 39.1028 39.9025Z" fill="white"/>
</svg>
