<svg xmlns="http://www.w3.org/2000/svg" xmlns:xlink="http://www.w3.org/1999/xlink" viewBox="0 0 213.97 74.22"><defs><style>.cls-1,.cls-10,.cls-2,.cls-3,.cls-4,.cls-5,.cls-6,.cls-7,.cls-8,.cls-9{fill:#231f20;}.cls-1,.cls-10,.cls-11,.cls-2,.cls-3,.cls-4,.cls-5,.cls-6,.cls-7,.cls-8,.cls-9{stroke:#fff;stroke-miterlimit:10;}.cls-2{stroke-width:2.25px;}.cls-3{stroke-width:2px;}.cls-4{stroke-width:1.75px;}.cls-5{stroke-width:3.25px;}.cls-6{stroke-width:2.75px;}.cls-7{stroke-width:2.5px;}.cls-8{stroke-width:1.5px;}.cls-9{stroke-width:1.25px;}.cls-10{stroke-width:0.75px;}.cls-11{stroke-width:0.5px;fill:url(#radial-gradient);}.cls-12{fill:#fff;}.cls-13{fill:#b86cac;}.cls-14{fill:#0099cd;}.cls-15{fill:#52b848;}.cls-16{fill:#f9f06d;}.cls-17{fill:#ffcc67;}</style><radialGradient id="radial-gradient" cx="106.99" cy="37.11" r="31.25" gradientUnits="userSpaceOnUse"><stop offset="0.08" stop-color="#a8aaad"/><stop offset="0.22" stop-color="#7d7f82"/><stop offset="0.38" stop-color="#5a5b5d"/><stop offset="0.88"/></radialGradient></defs><title>aii</title><g id="Layer_2" data-name="Layer 2"><g id="Layer_1-2" data-name="Layer 1"><path class="cls-1" d="M.32,37.11q4.61,3.81,9.5,7.23,3.78,2.64,7.7,5t7.67,4.39q3.66,2,7.43,3.73,3.57,1.68,7.22,3.19c2.44,1,4.89,1.94,7.38,2.83s5.24,1.8,7.9,2.61c2.86.86,5.75,1.66,8.67,2.38s5.64,1.32,8.49,1.87q5,1,10.08,1.67,7.5,1,15.06,1.42a184.08,184.08,0,0,0,18.94,0q7.62-.39,15.17-1.42,5-.68,9.86-1.62,4.35-.84,8.64-1.9t8.76-2.4c2.71-.81,5.39-1.7,8.05-2.65q3.67-1.32,7.27-2.8t7.22-3.18c2.51-1.17,5-2.42,7.43-3.72q3.9-2.1,7.68-4.4,3.93-2.41,7.71-5c3.26-2.27,6.43-4.69,9.5-7.23"/><path class="cls-1" d="M.32,37.11q4.61-3.81,9.5-7.23,3.79-2.65,7.76-5.08c2.47-1.51,5-2.95,7.54-4.32s5-2.58,7.52-3.77,4.83-2.2,7.28-3.21,4.9-1.95,7.38-2.83,5.22-1.79,7.86-2.59C58.05,7.2,61,6.4,63.92,5.68s5.69-1.32,8.55-1.88q4.95-1,10-1.64C87.23,1.51,92.07,1,96.92.78a182.64,182.64,0,0,1,19-.06q7.65.38,15.25,1.39c3.42.46,6.82,1,10.2,1.67,2.88.55,5.73,1.18,8.57,1.87S155.74,7.16,158.6,8s5.48,1.72,8.18,2.69c2.43.86,4.83,1.79,7.21,2.77s4.92,2.09,7.34,3.22,5,2.45,7.49,3.77,5.15,2.85,7.66,4.39,5.2,3.29,7.73,5.06q4.86,3.39,9.44,7.19"/><text></text><path class="cls-2" d="M39.84,60.69a72.1,72.1,0,0,1,.08-47.19"/><path class="cls-2" d="M174,13.48a71.48,71.48,0,0,1,.12,47.21"/><path class="cls-3" d="M47.22,63.52a65.71,65.71,0,0,1-5.5-26.41A64.93,64.93,0,0,1,47.3,10.67"/><path class="cls-3" d="M166.78,10.71a65.58,65.58,0,0,1,5.48,26.4,65.31,65.31,0,0,1-5.42,26.38"/><path class="cls-4" d="M55.12,66.13a60.27,60.27,0,0,1,0-58"/><path class="cls-4" d="M158.6,8a58.92,58.92,0,0,1,7.69,29.09,59.9,59.9,0,0,1-7.5,29"/><path class="cls-5" d="M9.82,44.34c-.18-2.4-.3-4.78-.3-7.23,0-2.7.09-4.59.3-7.23"/><path class="cls-5" d="M204.21,29.92c.16,2.31.24,4.83.24,7.19s-.14,4.92-.3,7.23"/><path class="cls-3" d="M17.52,49.38a92,92,0,0,1-.78-12.27,90.89,90.89,0,0,1,.84-12.31"/><path class="cls-3" d="M196.48,24.86a93.5,93.5,0,0,1,.75,12.25,92.23,92.23,0,0,1-.79,12.28"/><path class="cls-6" d="M25.19,53.77a82.36,82.36,0,0,1-1.62-16.66,79.24,79.24,0,0,1,1.55-16.63"/><path class="cls-6" d="M188.82,20.47a84.45,84.45,0,0,1,1.58,16.64,84.1,84.1,0,0,1-1.64,16.68"/><path class="cls-7" d="M32.62,57.5a78.23,78.23,0,0,1,0-40.75"/><path class="cls-7" d="M181.33,16.7a78.45,78.45,0,0,1,0,40.81"/><path class="cls-8" d="M150,5.65A53.36,53.36,0,0,1,150,68.54"/><path class="cls-8" d="M63.79,68.51a53.65,53.65,0,0,1,.15-62.76"/><path class="cls-9" d="M141.38,3.78a47.6,47.6,0,0,1,0,66.66"/><path class="cls-9" d="M72.28,70.38A48.52,48.52,0,0,1,59,37.11,47.78,47.78,0,0,1,72.47,3.8"/><path class="cls-1" d="M82.36,72.05a42.77,42.77,0,0,1-18-34.94A42,42,0,0,1,82.42,2.16"/><path class="cls-1" d="M131.25,2a42.72,42.72,0,0,1,.28,70.06"/><path class="cls-10" d="M98,73.56A37.55,37.55,0,0,1,69.45,37.11C69.45,20.37,81.78,5.62,96.92.78"/><path class="cls-10" d="M115.93.72a37.51,37.51,0,0,1,.43,72.76"/><circle class="cls-11" cx="106.99" cy="37.11" r="31.25"/><path d="M107,55.59a.3.3,0,0,1,.06.11s0,0,0,0l-.1-.07Z"/><circle class="cls-12" cx="111.58" cy="22.79" r="11.43"/><circle class="cls-12" cx="111.63" cy="33.47" r="11.43"/><circle class="cls-13" cx="107" cy="25.41" r="11.43"/><circle class="cls-13" cx="102.33" cy="22.77" r="11.43"/><circle class="cls-13" cx="97.7" cy="25.49" r="11.43"/><circle class="cls-14" cx="97.69" cy="30.78" r="11.43"/><circle class="cls-14" cx="93.06" cy="33.5" r="11.43"/><circle class="cls-14" cx="93.11" cy="39.38" r="11.43"/><circle class="cls-15" cx="97.68" cy="41.52" r="11.43"/><circle class="cls-15" cx="97.67" cy="46.78" r="11.43"/><circle class="cls-15" cx="102.23" cy="49.42" r="11.43"/><circle class="cls-16" cx="106.98" cy="46.9" r="11.43"/><circle class="cls-16" cx="111.65" cy="49.54" r="11.43"/><circle class="cls-16" cx="116.27" cy="46.82" r="11.43"/><circle class="cls-17" cx="116.29" cy="41.54" r="11.43"/><circle class="cls-17" cx="120.91" cy="38.81" r="11.43"/><circle class="cls-17" cx="120.86" cy="33.45" r="11.43"/><circle class="cls-12" cx="116.25" cy="25.43" r="11.43"/><circle class="cls-12" cx="116.3" cy="30.79" r="11.43"/><circle class="cls-17" cx="111.63" cy="38.84" r="11.43"/><circle class="cls-13" cx="106.99" cy="30.79" r="11.43"/><circle class="cls-16" cx="106.99" cy="41.52" r="11.43"/><circle class="cls-15" cx="102.34" cy="38.84" r="11.43"/><circle class="cls-14" cx="102.34" cy="33.47" r="11.43"/></g></g></svg>