<svg xmlns="http://www.w3.org/2000/svg" xmlns:xlink="http://www.w3.org/1999/xlink" viewBox="0 0 150.87 110.45"><defs><style>.cls-1,.cls-9{fill:none;}.cls-2{fill:#828282;}.cls-3{fill:#a3a3a3;}.cls-4{fill:#212121;}.cls-5{fill:#5b5b5b;}.cls-6{fill:url(#radial-gradient);}.cls-7{fill:url(#radial-gradient-2);}.cls-10,.cls-8{fill:#fff;}.cls-10,.cls-9{stroke:#000;stroke-miterlimit:10;}.cls-11{fill:#bababa;}.cls-12{fill:#ddd;}.cls-13{fill:#999;}.cls-14{fill:#707070;}.cls-15{fill:#4c4c4c;}.cls-16{fill:#282828;}.cls-17{fill:url(#mixy);}.cls-18{fill:url(#New_Pattern);}.cls-19{fill:url(#New_Pattern-3);}.cls-20{fill:url(#mixy-3);}</style><radialGradient id="radial-gradient" cx="40.07" cy="60.14" r="5.62" gradientUnits="userSpaceOnUse"><stop offset="0.04"/><stop offset="0.19" stop-color="#a2a2a2"/><stop offset="0.37"/><stop offset="0.54" stop-color="#767676"/><stop offset="0.66" stop-color="#bfc0c2"/><stop offset="0.81"/><stop offset="0.97" stop-color="#fbfbfb"/></radialGradient><radialGradient id="radial-gradient-2" cx="3948.33" cy="60.39" r="5.62" gradientTransform="matrix(-1, 0, 0, 1, 4059.13, -0.25)" xlink:href="#radial-gradient"/><pattern id="mixy" data-name="mixy" width="51.42" height="77.13" patternTransform="translate(42.71 13.08) scale(0.29)" patternUnits="userSpaceOnUse" viewBox="0 0 51.42 77.13"><rect class="cls-1" width="51.42" height="77.13"/><path d="M51.29,76c7.08-5.46,7-7.29,3.48-10.76,6.41.87,9.47.71,17.5-3.34-7.37,4.89-8.28,5-4.89,1.64-5.45,3.56-6.3,3.58-10.78,2.49C58.35,68.88,58.84,70.71,51.29,76Z"/><path d="M51.1,76c5.23-6.9,4.64-8.64.58-11.29,6.22-.62,9.14-1.57,16-7.76-6,6.83-6.88,7.22-4.3,2.85-4.54,5.05-5.35,5.29-9.77,5.2C55.88,67.47,56.83,69.11,51.1,76Z"/><path d="M51.07,76.12c2.76-8,1.73-9.57-2.36-11.06,5.33-2.22,7.9-3.89,13.48-11.64-4.58,8.15-5.29,8.74-3.41,3.86-3.59,6-4.31,6.48-8.09,7.56C53,66.63,54.31,68,51.07,76.12Z"/><path d="M51.21,76.35c-.19-8.69-1.58-9.9-5.14-10.07,3.8-3.74,5.85-6,10-14.74-3.08,8.85-3.62,9.6-2.29,4.62-2.68,6.55-3.26,7.17-5.87,9.39C49.82,66.48,51.46,67.44,51.21,76.35Z"/><path d="M51.27,76.64c-2.94-8.76-4.6-9.57-7.57-8.39a82.18,82.18,0,0,0,5.85-16.83c-1.21,8.92-1.53,9.79-1,5-1.4,6.6-1.8,7.35-3.23,10.59C46.86,67.05,48.69,67.55,51.27,76.64Z"/><path d="M50.62,77c-4.06-8.23-5.87-8.59-9.48-6.14,1.86-5.95,2.5-8.95,1.29-17.77,2.2,8.4,2.11,9.32.32,5.14,1.41,6.21,1.21,7-.38,11.07C44.93,68.31,46.83,68.31,50.62,77Z"/><path d="M50.31,77.26c-5.46-7.07-7.29-7-10.76-3.48.86-6.4.71-9.46-3.34-17.5,4.89,7.37,5,8.28,1.64,4.89,3.56,5.46,3.58,6.3,2.49,10.79C43.17,70.2,45,69.71,50.31,77.26Z"/><path d="M50.28,77.45c-6.9-5.23-8.64-4.64-11.29-.58-.62-6.22-1.57-9.13-7.76-16,6.83,6,7.22,6.88,2.85,4.29,5.05,4.54,5.29,5.35,5.2,9.78C41.76,72.67,43.4,71.72,50.28,77.45Z"/><path d="M50.41,77.48c-8-2.75-9.57-1.73-11.06,2.36-2.23-5.33-3.89-7.9-11.64-13.48,8.14,4.58,8.73,5.29,3.86,3.41,6,3.59,6.48,4.31,7.56,8.1C40.92,75.58,42.27,74.24,50.41,77.48Z"/><path d="M50.64,77.34c-8.69.19-9.9,1.58-10.07,5.15-3.74-3.8-6-5.86-14.74-10,8.85,3.09,9.6,3.62,4.62,2.3C37,77.45,37.62,78,39.84,80.64,40.77,78.74,41.73,77.09,50.64,77.34Z"/><path d="M.49,77c8.76-2.94,9.57-4.6,8.39-7.57a82.18,82.18,0,0,0,16.83,5.85c-8.92-1.21-9.79-1.53-5.05-1-6.6-1.4-7.35-1.81-10.59-3.24C10.08,72.57,9.59,74.4.49,77Z"/><path d="M.17,76.33c8.23-4.06,8.59-5.86,6.15-9.48,5.94,1.86,8.94,2.51,17.76,1.29-8.39,2.2-9.31,2.11-5.14.32-6.21,1.41-7,1.21-11.07-.38C8.82,70.64,8.82,72.54.17,76.33Z"/><path d="M-.13,76c7.07-5.46,7-7.29,3.48-10.76,6.4.87,9.46.71,17.5-3.34-7.37,4.89-8.28,5-4.89,1.64-5.45,3.56-6.3,3.58-10.79,2.49C6.93,68.88,7.42,70.71-.13,76Z"/><path d="M-.32,76c5.23-6.9,4.64-8.64.58-11.29,6.22-.62,9.13-1.57,16-7.76-6.05,6.83-6.89,7.22-4.3,2.85C7.46,64.84,6.65,65.08,2.22,65,4.46,67.47,5.41,69.11-.32,76Z"/><path d="M-.35,76.12c2.76-8,1.73-9.57-2.36-11.06,5.33-2.22,7.9-3.89,13.48-11.64-4.58,8.15-5.29,8.74-3.41,3.86-3.59,6-4.31,6.48-8.1,7.56C1.55,66.63,2.89,68-.35,76.12Z"/><path d="M-.21,76.35c-.19-8.69-1.58-9.9-5.14-10.07,3.8-3.74,5.85-6,10-14.74C1.56,60.39,1,61.14,2.36,56.16-.32,62.71-.9,63.33-3.51,65.55-1.6,66.48,0,67.44-.21,76.35Z"/><path d="M1.11,77c5.46,7.08,7.3,7,10.76,3.49C11,86.89,11.16,90,15.21,98c-4.89-7.37-5-8.28-1.64-4.89C10,87.64,10,86.79,11.08,82.31,8.25,84.06,6.42,84.55,1.11,77Z"/><path d="M1.14,76.81c6.9,5.24,8.64,4.64,11.29.58.63,6.22,1.57,9.14,7.76,16-6.83-6-7.22-6.88-2.85-4.3-5.05-4.54-5.29-5.35-5.2-9.77C9.66,81.59,8,82.54,1.14,76.81Z"/><path d="M1,76.78c8,2.76,9.57,1.73,11.06-2.36C14.3,79.75,16,82.33,23.71,87.91c-8.14-4.59-8.73-5.3-3.86-3.42-6-3.59-6.48-4.31-7.55-8.09C10.5,78.68,9.15,80,1,76.78Z"/><path d="M.78,76.92c8.69-.19,9.9-1.58,10.07-5.14,3.74,3.8,6,5.85,14.74,10C16.74,78.7,16,78.16,21,79.49c-6.55-2.68-7.16-3.26-9.39-5.87C10.65,75.53,9.7,77.17.78,76.92Z"/><path d="M26.2,38.41c8.76-2.94,9.57-4.59,8.39-7.57a81.8,81.8,0,0,0,16.83,5.85c-8.92-1.2-9.79-1.52-5.05-1-6.6-1.4-7.35-1.8-10.59-3.23C35.79,34,35.3,35.84,26.2,38.41Z"/><path d="M25.88,37.77c8.23-4.06,8.59-5.87,6.15-9.49C38,30.15,41,30.79,49.79,29.58c-8.39,2.19-9.31,2.11-5.14.32-6.21,1.4-7,1.21-11.07-.39C34.53,32.08,34.53,34,25.88,37.77Z"/><path d="M25.58,37.45c7.08-5.45,7-7.29,3.48-10.75,6.4.86,9.46.7,17.5-3.35-7.37,4.89-8.28,5-4.89,1.64-5.45,3.56-6.3,3.59-10.78,2.5C32.64,30.31,33.13,32.15,25.58,37.45Z"/><path d="M25.39,37.42c5.23-6.9,4.64-8.64.58-11.29,6.22-.62,9.13-1.56,16-7.76-6,6.84-6.88,7.22-4.3,2.85-4.54,5.06-5.35,5.3-9.77,5.2C30.17,28.9,31.12,30.55,25.39,37.42Z"/><path d="M25.36,37.55c2.76-8,1.73-9.56-2.36-11,5.33-2.23,7.9-3.89,13.48-11.65-4.58,8.15-5.29,8.74-3.41,3.87-3.59,6-4.31,6.48-8.1,7.55C27.26,28.07,28.6,29.41,25.36,37.55Z"/><path d="M25.5,37.78c-.19-8.68-1.58-9.89-5.14-10.06,3.8-3.75,5.85-6,10-14.74-3.09,8.84-3.62,9.6-2.29,4.61-2.68,6.55-3.26,7.17-5.87,9.39C24.11,27.92,25.75,28.87,25.5,37.78Z"/><path d="M25.56,38.08C22.62,29.31,21,28.5,18,29.68a82.27,82.27,0,0,0,5.85-16.82c-1.21,8.92-1.53,9.78-1,5.05-1.4,6.6-1.8,7.34-3.23,10.59C21.15,28.49,23,29,25.56,38.08Z"/><path d="M24.91,38.4c-4.06-8.24-5.87-8.59-9.48-6.15,1.86-5.95,2.5-8.94,1.29-17.77,2.2,8.4,2.11,9.32.32,5.15,1.41,6.2,1.21,7-.38,11.06C19.22,29.74,21.12,29.75,24.91,38.4Z"/><path d="M24.6,38.7c-5.46-7.08-7.3-7-10.76-3.49.86-6.4.71-9.46-3.34-17.49,4.89,7.37,5,8.28,1.64,4.88,3.56,5.46,3.58,6.31,2.49,10.79C17.46,31.64,19.29,31.15,24.6,38.7Z"/><path d="M24.57,38.89c-6.9-5.24-8.64-4.64-11.29-.59-.63-6.21-1.57-9.13-7.76-16,6.83,6,7.22,6.88,2.85,4.3,5.05,4.53,5.29,5.35,5.2,9.77C16.05,34.1,17.69,33.16,24.57,38.89Z"/><path d="M24.7,38.91c-8-2.75-9.57-1.72-11.06,2.36C11.41,36,9.75,33.37,2,27.79c8.14,4.59,8.73,5.3,3.86,3.42,6,3.59,6.48,4.31,7.55,8.09C15.21,37,16.56,35.67,24.7,38.91Z"/><path d="M24.93,38.78c-8.69.19-9.9,1.58-10.07,5.14-3.74-3.8-6-5.85-14.74-10C9,37,9.72,37.54,4.74,36.21c6.55,2.68,7.17,3.26,9.39,5.86C15.06,40.17,16,38.53,24.93,38.78Z"/><path d="M25.22,38.72c-8.76,2.94-9.57,4.59-8.39,7.57A81.58,81.58,0,0,0,0,40.44c8.92,1.2,9.79,1.53,5.05,1,6.6,1.4,7.35,1.81,10.59,3.24C15.63,43.13,16.12,41.29,25.22,38.72Z"/><path d="M25.54,39.36c-8.23,4.07-8.59,5.87-6.15,9.49-5.94-1.86-8.94-2.51-17.76-1.3,8.4-2.19,9.31-2.1,5.14-.31,6.21-1.41,7-1.21,11.07.38C16.89,45.06,16.89,43.16,25.54,39.36Z"/><path d="M25.84,39.68c-7.07,5.46-6.95,7.29-3.48,10.75-6.4-.86-9.46-.7-17.5,3.35,7.37-4.89,8.28-5.05,4.89-1.64,5.45-3.56,6.3-3.59,10.79-2.49C18.78,46.82,18.29,45,25.84,39.68Z"/><path d="M26,39.71c-5.23,6.9-4.64,8.64-.58,11.29-6.22.62-9.13,1.56-16,7.76,6.05-6.83,6.89-7.22,4.3-2.85,4.54-5,5.35-5.3,9.78-5.2C21.25,48.23,20.3,46.59,26,39.71Z"/><path d="M26.06,39.58c-2.76,8-1.73,9.56,2.36,11.05-5.33,2.23-7.9,3.9-13.48,11.65,4.58-8.15,5.29-8.74,3.41-3.86,3.59-6,4.31-6.49,8.1-7.56C24.16,49.07,22.82,47.72,26.06,39.58Z"/><path d="M25.92,39.35c.19,8.68,1.58,9.89,5.14,10.07-3.8,3.74-5.85,6-10,14.74,3.09-8.85,3.62-9.61,2.29-4.62C26,53,26.61,52.37,29.22,50.15,27.32,49.21,25.67,48.26,25.92,39.35Z"/><path d="M25.86,39.06c2.95,8.76,4.6,9.57,7.57,8.39a82.18,82.18,0,0,0-5.85,16.83c1.21-8.93,1.53-9.79,1-5.06,1.4-6.6,1.8-7.34,3.23-10.59C30.27,48.65,28.44,48.15,25.86,39.06Z"/><path d="M26.51,38.73C30.57,47,32.38,47.32,36,44.88c-1.86,5.95-2.5,8.95-1.29,17.77-2.2-8.4-2.11-9.32-.32-5.15-1.4-6.2-1.21-7,.38-11.06C32.2,47.39,30.3,47.39,26.51,38.73Z"/><path d="M26.82,38.44c5.46,7.07,7.3,7,10.76,3.48-.86,6.4-.71,9.46,3.35,17.5-4.9-7.38-5-8.29-1.64-4.89-3.57-5.46-3.59-6.3-2.5-10.79C34,45.49,32.13,46,26.82,38.44Z"/><path d="M26.85,38.25c6.9,5.23,8.65,4.63,11.29.58.63,6.21,1.57,9.13,7.76,16-6.83-6-7.22-6.88-2.85-4.29-5-4.54-5.29-5.35-5.2-9.78C35.38,43,33.73,44,26.85,38.25Z"/><path d="M26.72,38.22c8,2.75,9.57,1.73,11.06-2.36,2.23,5.33,3.89,7.9,11.64,13.48-8.14-4.59-8.73-5.3-3.86-3.41-6-3.6-6.48-4.32-7.55-8.1C36.21,40.12,34.87,41.46,26.72,38.22Z"/><path d="M26.49,38.35c8.69-.19,9.9-1.57,10.07-5.14,3.74,3.8,6,5.86,14.74,10-8.85-3.09-9.6-3.62-4.62-2.3-6.55-2.67-7.16-3.25-9.39-5.86C36.36,37,35.41,38.6,26.49,38.35Z"/><path d="M50.31.13C44.85-6.94,43-6.82,39.55-3.35c.86-6.4.71-9.46-3.34-17.5,4.89,7.37,5,8.28,1.64,4.89,3.56,5.45,3.58,6.3,2.49,10.79C43.17-6.93,45-7.42,50.31.13Z"/><path d="M50.28.32C43.38-4.91,41.64-4.32,39-.26c-.62-6.22-1.57-9.13-7.76-16,6.83,6.05,7.22,6.89,2.85,4.3,5.05,4.54,5.29,5.35,5.2,9.78C41.76-4.46,43.4-5.41,50.28.32Z"/><path d="M50.41.35c-8-2.76-9.57-1.73-11.06,2.36-2.23-5.33-3.89-7.9-11.64-13.48,8.14,4.58,8.73,5.29,3.86,3.41,6,3.59,6.48,4.31,7.56,8.1C40.92-1.55,42.27-2.89,50.41.35Z"/><path d="M50.64.21C42,.4,40.74,1.79,40.57,5.35c-3.74-3.8-6-5.85-14.74-10,8.85,3.09,9.6,3.62,4.62,2.29C37,.32,37.62.9,39.84,3.51,40.77,1.6,41.73,0,50.64.21Z"/><path d="M50.93.15c-8.76,3-9.57,4.6-8.39,7.57A82.18,82.18,0,0,0,25.71,1.87c8.92,1.21,9.79,1.53,5.05,1,6.6,1.4,7.35,1.8,10.59,3.23C41.34,4.56,41.83,2.73,50.93.15Z"/><path d="M51.25.8C43,4.86,42.66,6.67,45.1,10.28,39.16,8.42,36.16,7.78,27.34,9c8.4-2.2,9.32-2.11,5.14-.32,6.21-1.41,7-1.21,11.07.38C42.6,6.49,42.6,4.59,51.25.8Z"/><path d="M51.55,1.11c-7.07,5.46-6.95,7.3-3.48,10.76-6.4-.86-9.46-.71-17.5,3.34,7.37-4.89,8.28-5,4.89-1.63,5.46-3.57,6.3-3.59,10.79-2.5C44.49,8.25,44,6.42,51.55,1.11Z"/><path d="M51.74,1.14C46.51,8,47.1,9.78,51.16,12.43c-6.22.63-9.13,1.57-16,7.76,6.05-6.83,6.89-7.22,4.3-2.85,4.54-5.05,5.35-5.29,9.78-5.2C47,9.66,46,8,51.74,1.14Z"/><path d="M51.77,1C49,9.05,50,10.58,54.13,12.07,48.8,14.3,46.23,16,40.65,23.71c4.58-8.14,5.29-8.73,3.41-3.86,3.59-6,4.31-6.48,8.1-7.55C49.87,10.5,48.53,9.15,51.77,1Z"/><path d="M51.63.78c.19,8.69,1.58,9.9,5.14,10.07-3.79,3.74-5.85,6-10,14.74,3.09-8.85,3.62-9.6,2.29-4.62,2.68-6.55,3.26-7.16,5.87-9.39C53,10.65,51.38,9.7,51.63.78Z"/><path d="M.13,1.11c-7.07,5.46-6.95,7.3-3.48,10.76-6.4-.86-9.46-.71-17.5,3.34,7.37-4.89,8.28-5,4.89-1.63C-10.51,10-9.66,10-5.17,11.08-6.93,8.25-7.42,6.42.13,1.11Z"/><path d="M.32,1.14C-4.91,8-4.32,9.78-.26,12.43c-6.22.63-9.13,1.57-16,7.76,6.05-6.83,6.89-7.22,4.3-2.85,4.54-5.05,5.35-5.29,9.78-5.2C-4.46,9.66-5.41,8,.32,1.14Z"/><path d="M.35,1c-2.76,8-1.73,9.57,2.36,11.06C-2.62,14.3-5.19,16-10.77,23.71c4.58-8.14,5.29-8.73,3.41-3.86,3.59-6,4.31-6.48,8.1-7.55C-1.55,10.5-2.89,9.15.35,1Z"/><path d="M.21.78c.19,8.69,1.58,9.9,5.14,10.07-3.8,3.74-5.85,6-10,14.74C-1.56,16.74-1,16-2.36,21,.32,14.42.9,13.81,3.51,11.58,1.6,10.65,0,9.7.21.78Z"/><path d="M.15.49c3,8.76,4.6,9.57,7.57,8.39A82.18,82.18,0,0,0,1.87,25.71c1.21-8.92,1.53-9.79,1-5.05,1.4-6.6,1.8-7.35,3.23-10.59C4.56,10.08,2.73,9.59.15.49Z"/><path d="M.8.17C4.86,8.4,6.67,8.76,10.28,6.32,8.42,12.26,7.78,15.26,9,24.08c-2.2-8.39-2.11-9.31-.32-5.14-1.41-6.21-1.21-7,.38-11.07C6.49,8.82,4.59,8.82.8.17Z"/><path d="M1.11-.13c5.46,7.07,7.3,7,10.76,3.48-.86,6.4-.71,9.46,3.34,17.5-4.89-7.37-5-8.28-1.64-4.89C10,10.51,10,9.66,11.08,5.17,8.25,6.93,6.42,7.42,1.11-.13Z"/><path d="M1.14-.32C8,4.91,9.78,4.32,12.43.26c.63,6.22,1.57,9.13,7.76,16C13.36,10.25,13,9.41,17.34,12c-5.05-4.54-5.29-5.35-5.2-9.78C9.66,4.46,8,5.41,1.14-.32Z"/><path d="M1-.35c8,2.76,9.57,1.73,11.06-2.36C14.3,2.62,16,5.19,23.71,10.77,15.57,6.19,15,5.48,19.85,7.36c-6-3.59-6.48-4.31-7.55-8.1C10.5,1.55,9.15,2.89,1-.35Z"/><path d="M.78-.21c8.69-.19,9.9-1.58,10.07-5.14,3.74,3.8,6,5.85,14.74,10C16.74,1.56,16,1,21,2.36,14.42-.32,13.81-.9,11.58-3.51,10.65-1.6,9.7,0,.78-.21Z"/></pattern><pattern id="New_Pattern" data-name="New Pattern" width="29.68" height="53.19" patternTransform="translate(32.66 -2.73) scale(0.29)" patternUnits="userSpaceOnUse" viewBox="0 0 29.68 53.19"><rect class="cls-1" width="29.68" height="53.19"/><polygon class="cls-2" points="34.49 38.6 35.88 45.59 35.76 45.51 27.58 39.05 34.49 38.6"/><polygon class="cls-2" points="35.76 45.51 35.88 45.59 33.15 68.78 21.81 48.38 21.93 48.16 22.19 48.31 35.67 45.63 35.76 45.51"/><polygon class="cls-3" points="27.58 39.05 35.76 45.51 35.67 45.63 22.19 48.31 21.93 48.16 26.99 39.17 27.58 39.05"/><polygon class="cls-4" points="21.81 48.38 33.15 68.78 15.97 49.54 21.81 48.38"/><polygon class="cls-2" points="26.99 39.17 21.93 48.16 21.81 48.38 20.42 41.38 26.99 39.17"/><polygon class="cls-5" points="20.42 41.38 21.81 48.38 15.97 49.54 20.42 41.38"/><polygon class="cls-5" points="4.81 38.6 12.21 44.4 6.2 45.59 4.81 38.6"/><polygon class="cls-4" points="12.21 44.4 3.47 68.78 6.2 45.59 12.21 44.4"/><polygon class="cls-2" points="4.81 38.6 6.2 45.59 6.08 45.51 -2.1 39.05 4.81 38.6"/><polygon class="cls-2" points="6.08 45.51 6.2 45.59 3.47 68.78 -7.87 48.38 -7.75 48.16 -7.49 48.31 5.99 45.63 6.08 45.51"/><polygon class="cls-3" points="-2.1 39.05 6.08 45.51 5.99 45.63 -7.49 48.31 -7.75 48.16 -2.69 39.17 -2.1 39.05"/><polygon class="cls-4" points="-7.87 48.38 3.47 68.78 -13.71 49.54 -7.87 48.38"/><polygon class="cls-5" points="19.65 12 27.05 17.81 21.04 19 19.65 12"/><polygon class="cls-4" points="27.05 17.81 18.31 42.19 21.04 19 27.05 17.81"/><polygon class="cls-2" points="19.65 12 21.04 19 20.92 18.92 12.74 12.46 19.65 12"/><polygon class="cls-2" points="20.92 18.92 21.04 19 18.31 42.19 6.97 21.79 7.09 21.57 7.35 21.71 20.83 19.04 20.92 18.92"/><polygon class="cls-3" points="12.74 12.46 20.92 18.92 20.83 19.04 7.35 21.71 7.09 21.57 12.15 12.58 12.74 12.46"/><polygon class="cls-4" points="6.97 21.79 18.31 42.19 1.13 22.95 6.97 21.79"/><polygon class="cls-2" points="12.15 12.58 7.09 21.57 6.97 21.79 5.58 14.79 12.15 12.58"/><polygon class="cls-5" points="5.58 14.79 6.97 21.79 1.13 22.95 5.58 14.79"/><polygon class="cls-2" points="35.76 -7.68 35.88 -7.59 33.15 15.6 21.81 -4.8 21.93 -5.03 22.19 -4.88 35.67 -7.55 35.76 -7.68"/><polygon class="cls-4" points="21.81 -4.8 33.15 15.6 15.97 -3.65 21.81 -4.8"/><polygon class="cls-4" points="12.21 -8.78 3.47 15.6 6.2 -7.59 12.21 -8.78"/><polygon class="cls-2" points="6.08 -7.68 6.2 -7.59 3.47 15.6 -7.87 -4.8 -7.75 -5.03 -7.49 -4.88 5.99 -7.55 6.08 -7.68"/><polygon class="cls-4" points="-7.87 -4.8 3.47 15.6 -13.71 -3.65 -7.87 -4.8"/></pattern><pattern id="New_Pattern-3" data-name="New Pattern" width="29.68" height="53.19" patternTransform="matrix(-0.29, 0, 0, 0.29, 34, -2.73)" patternUnits="userSpaceOnUse" viewBox="0 0 29.68 53.19"><rect class="cls-1" width="29.68" height="53.19"/><polygon class="cls-2" points="34.49 38.6 35.88 45.59 35.76 45.51 27.58 39.05 34.49 38.6"/><polygon class="cls-2" points="35.76 45.51 35.88 45.59 33.15 68.78 21.81 48.38 21.93 48.16 22.19 48.31 35.67 45.63 35.76 45.51"/><polygon class="cls-3" points="27.58 39.05 35.76 45.51 35.67 45.63 22.19 48.31 21.93 48.16 26.99 39.17 27.58 39.05"/><polygon class="cls-4" points="21.81 48.38 33.15 68.78 15.97 49.54 21.81 48.38"/><polygon class="cls-2" points="26.99 39.17 21.93 48.16 21.81 48.38 20.42 41.38 26.99 39.17"/><polygon class="cls-5" points="20.42 41.38 21.81 48.38 15.97 49.54 20.42 41.38"/><polygon class="cls-5" points="4.81 38.6 12.21 44.4 6.2 45.59 4.81 38.6"/><polygon class="cls-4" points="12.21 44.4 3.47 68.78 6.2 45.59 12.21 44.4"/><polygon class="cls-2" points="4.81 38.6 6.2 45.59 6.08 45.51 -2.1 39.05 4.81 38.6"/><polygon class="cls-2" points="6.08 45.51 6.2 45.59 3.47 68.78 -7.87 48.38 -7.75 48.16 -7.49 48.31 5.99 45.63 6.08 45.51"/><polygon class="cls-3" points="-2.1 39.05 6.08 45.51 5.99 45.63 -7.49 48.31 -7.75 48.16 -2.69 39.17 -2.1 39.05"/><polygon class="cls-4" points="-7.87 48.38 3.47 68.78 -13.71 49.54 -7.87 48.38"/><polygon class="cls-5" points="19.65 12 27.05 17.81 21.04 19 19.65 12"/><polygon class="cls-4" points="27.05 17.81 18.31 42.19 21.04 19 27.05 17.81"/><polygon class="cls-2" points="19.65 12 21.04 19 20.92 18.92 12.74 12.46 19.65 12"/><polygon class="cls-2" points="20.92 18.92 21.04 19 18.31 42.19 6.97 21.79 7.09 21.57 7.35 21.71 20.83 19.04 20.92 18.92"/><polygon class="cls-3" points="12.74 12.46 20.92 18.92 20.83 19.04 7.35 21.71 7.09 21.57 12.15 12.58 12.74 12.46"/><polygon class="cls-4" points="6.97 21.79 18.31 42.19 1.13 22.95 6.97 21.79"/><polygon class="cls-2" points="12.15 12.58 7.09 21.57 6.97 21.79 5.58 14.79 12.15 12.58"/><polygon class="cls-5" points="5.58 14.79 6.97 21.79 1.13 22.95 5.58 14.79"/><polygon class="cls-2" points="35.76 -7.68 35.88 -7.59 33.15 15.6 21.81 -4.8 21.93 -5.03 22.19 -4.88 35.67 -7.55 35.76 -7.68"/><polygon class="cls-4" points="21.81 -4.8 33.15 15.6 15.97 -3.65 21.81 -4.8"/><polygon class="cls-4" points="12.21 -8.78 3.47 15.6 6.2 -7.59 12.21 -8.78"/><polygon class="cls-2" points="6.08 -7.68 6.2 -7.59 3.47 15.6 -7.87 -4.8 -7.75 -5.03 -7.49 -4.88 5.99 -7.55 6.08 -7.68"/><polygon class="cls-4" points="-7.87 -4.8 3.47 15.6 -13.71 -3.65 -7.87 -4.8"/></pattern><pattern id="mixy-3" data-name="mixy" width="51.42" height="77.13" patternTransform="matrix(-0.29, 0, 0, 0.29, 42.93, 13.08)" patternUnits="userSpaceOnUse" viewBox="0 0 51.42 77.13"><rect class="cls-1" width="51.42" height="77.13"/><path d="M51.29,76c7.08-5.46,7-7.29,3.48-10.76,6.41.87,9.47.71,17.5-3.34-7.37,4.89-8.28,5-4.89,1.64-5.45,3.56-6.3,3.58-10.78,2.49C58.35,68.88,58.84,70.71,51.29,76Z"/><path d="M51.1,76c5.23-6.9,4.64-8.64.58-11.29,6.22-.62,9.14-1.57,16-7.76-6,6.83-6.88,7.22-4.3,2.85-4.54,5.05-5.35,5.29-9.77,5.2C55.88,67.47,56.83,69.11,51.1,76Z"/><path d="M51.07,76.12c2.76-8,1.73-9.57-2.36-11.06,5.33-2.22,7.9-3.89,13.48-11.64-4.58,8.15-5.29,8.74-3.41,3.86-3.59,6-4.31,6.48-8.09,7.56C53,66.63,54.31,68,51.07,76.12Z"/><path d="M51.21,76.35c-.19-8.69-1.58-9.9-5.14-10.07,3.8-3.74,5.85-6,10-14.74-3.08,8.85-3.62,9.6-2.29,4.62-2.68,6.55-3.26,7.17-5.87,9.39C49.82,66.48,51.46,67.44,51.21,76.35Z"/><path d="M51.27,76.64c-2.94-8.76-4.6-9.57-7.57-8.39a82.18,82.18,0,0,0,5.85-16.83c-1.21,8.92-1.53,9.79-1,5-1.4,6.6-1.8,7.35-3.23,10.59C46.86,67.05,48.69,67.55,51.27,76.64Z"/><path d="M50.62,77c-4.06-8.23-5.87-8.59-9.48-6.14,1.86-5.95,2.5-8.95,1.29-17.77,2.2,8.4,2.11,9.32.32,5.14,1.41,6.21,1.21,7-.38,11.07C44.93,68.31,46.83,68.31,50.62,77Z"/><path d="M50.31,77.26c-5.46-7.07-7.29-7-10.76-3.48.86-6.4.71-9.46-3.34-17.5,4.89,7.37,5,8.28,1.64,4.89,3.56,5.46,3.58,6.3,2.49,10.79C43.17,70.2,45,69.71,50.31,77.26Z"/><path d="M50.28,77.45c-6.9-5.23-8.64-4.64-11.29-.58-.62-6.22-1.57-9.13-7.76-16,6.83,6,7.22,6.88,2.85,4.29,5.05,4.54,5.29,5.35,5.2,9.78C41.76,72.67,43.4,71.72,50.28,77.45Z"/><path d="M50.41,77.48c-8-2.75-9.57-1.73-11.06,2.36-2.23-5.33-3.89-7.9-11.64-13.48,8.14,4.58,8.73,5.29,3.86,3.41,6,3.59,6.48,4.31,7.56,8.1C40.92,75.58,42.27,74.24,50.41,77.48Z"/><path d="M50.64,77.34c-8.69.19-9.9,1.58-10.07,5.15-3.74-3.8-6-5.86-14.74-10,8.85,3.09,9.6,3.62,4.62,2.3C37,77.45,37.62,78,39.84,80.64,40.77,78.74,41.73,77.09,50.64,77.34Z"/><path d="M.49,77c8.76-2.94,9.57-4.6,8.39-7.57a82.18,82.18,0,0,0,16.83,5.85c-8.92-1.21-9.79-1.53-5.05-1-6.6-1.4-7.35-1.81-10.59-3.24C10.08,72.57,9.59,74.4.49,77Z"/><path d="M.17,76.33c8.23-4.06,8.59-5.86,6.15-9.48,5.94,1.86,8.94,2.51,17.76,1.29-8.39,2.2-9.31,2.11-5.14.32-6.21,1.41-7,1.21-11.07-.38C8.82,70.64,8.82,72.54.17,76.33Z"/><path d="M-.13,76c7.07-5.46,7-7.29,3.48-10.76,6.4.87,9.46.71,17.5-3.34-7.37,4.89-8.28,5-4.89,1.64-5.45,3.56-6.3,3.58-10.79,2.49C6.93,68.88,7.42,70.71-.13,76Z"/><path d="M-.32,76c5.23-6.9,4.64-8.64.58-11.29,6.22-.62,9.13-1.57,16-7.76-6.05,6.83-6.89,7.22-4.3,2.85C7.46,64.84,6.65,65.08,2.22,65,4.46,67.47,5.41,69.11-.32,76Z"/><path d="M-.35,76.12c2.76-8,1.73-9.57-2.36-11.06,5.33-2.22,7.9-3.89,13.48-11.64-4.58,8.15-5.29,8.74-3.41,3.86-3.59,6-4.31,6.48-8.1,7.56C1.55,66.63,2.89,68-.35,76.12Z"/><path d="M-.21,76.35c-.19-8.69-1.58-9.9-5.14-10.07,3.8-3.74,5.85-6,10-14.74C1.56,60.39,1,61.14,2.36,56.16-.32,62.71-.9,63.33-3.51,65.55-1.6,66.48,0,67.44-.21,76.35Z"/><path d="M1.11,77c5.46,7.08,7.3,7,10.76,3.49C11,86.89,11.16,90,15.21,98c-4.89-7.37-5-8.28-1.64-4.89C10,87.64,10,86.79,11.08,82.31,8.25,84.06,6.42,84.55,1.11,77Z"/><path d="M1.14,76.81c6.9,5.24,8.64,4.64,11.29.58.63,6.22,1.57,9.14,7.76,16-6.83-6-7.22-6.88-2.85-4.3-5.05-4.54-5.29-5.35-5.2-9.77C9.66,81.59,8,82.54,1.14,76.81Z"/><path d="M1,76.78c8,2.76,9.57,1.73,11.06-2.36C14.3,79.75,16,82.33,23.71,87.91c-8.14-4.59-8.73-5.3-3.86-3.42-6-3.59-6.48-4.31-7.55-8.09C10.5,78.68,9.15,80,1,76.78Z"/><path d="M.78,76.92c8.69-.19,9.9-1.58,10.07-5.14,3.74,3.8,6,5.85,14.74,10C16.74,78.7,16,78.16,21,79.49c-6.55-2.68-7.16-3.26-9.39-5.87C10.65,75.53,9.7,77.17.78,76.92Z"/><path d="M26.2,38.41c8.76-2.94,9.57-4.59,8.39-7.57a81.8,81.8,0,0,0,16.83,5.85c-8.92-1.2-9.79-1.52-5.05-1-6.6-1.4-7.35-1.8-10.59-3.23C35.79,34,35.3,35.84,26.2,38.41Z"/><path d="M25.88,37.77c8.23-4.06,8.59-5.87,6.15-9.49C38,30.15,41,30.79,49.79,29.58c-8.39,2.19-9.31,2.11-5.14.32-6.21,1.4-7,1.21-11.07-.39C34.53,32.08,34.53,34,25.88,37.77Z"/><path d="M25.58,37.45c7.08-5.45,7-7.29,3.48-10.75,6.4.86,9.46.7,17.5-3.35-7.37,4.89-8.28,5-4.89,1.64-5.45,3.56-6.3,3.59-10.78,2.5C32.64,30.31,33.13,32.15,25.58,37.45Z"/><path d="M25.39,37.42c5.23-6.9,4.64-8.64.58-11.29,6.22-.62,9.13-1.56,16-7.76-6,6.84-6.88,7.22-4.3,2.85-4.54,5.06-5.35,5.3-9.77,5.2C30.17,28.9,31.12,30.55,25.39,37.42Z"/><path d="M25.36,37.55c2.76-8,1.73-9.56-2.36-11,5.33-2.23,7.9-3.89,13.48-11.65-4.58,8.15-5.29,8.74-3.41,3.87-3.59,6-4.31,6.48-8.1,7.55C27.26,28.07,28.6,29.41,25.36,37.55Z"/><path d="M25.5,37.78c-.19-8.68-1.58-9.89-5.14-10.06,3.8-3.75,5.85-6,10-14.74-3.09,8.84-3.62,9.6-2.29,4.61-2.68,6.55-3.26,7.17-5.87,9.39C24.11,27.92,25.75,28.87,25.5,37.78Z"/><path d="M25.56,38.08C22.62,29.31,21,28.5,18,29.68a82.27,82.27,0,0,0,5.85-16.82c-1.21,8.92-1.53,9.78-1,5.05-1.4,6.6-1.8,7.34-3.23,10.59C21.15,28.49,23,29,25.56,38.08Z"/><path d="M24.91,38.4c-4.06-8.24-5.87-8.59-9.48-6.15,1.86-5.95,2.5-8.94,1.29-17.77,2.2,8.4,2.11,9.32.32,5.15,1.41,6.2,1.21,7-.38,11.06C19.22,29.74,21.12,29.75,24.91,38.4Z"/><path d="M24.6,38.7c-5.46-7.08-7.3-7-10.76-3.49.86-6.4.71-9.46-3.34-17.49,4.89,7.37,5,8.28,1.64,4.88,3.56,5.46,3.58,6.31,2.49,10.79C17.46,31.64,19.29,31.15,24.6,38.7Z"/><path d="M24.57,38.89c-6.9-5.24-8.64-4.64-11.29-.59-.63-6.21-1.57-9.13-7.76-16,6.83,6,7.22,6.88,2.85,4.3,5.05,4.53,5.29,5.35,5.2,9.77C16.05,34.1,17.69,33.16,24.57,38.89Z"/><path d="M24.7,38.91c-8-2.75-9.57-1.72-11.06,2.36C11.41,36,9.75,33.37,2,27.79c8.14,4.59,8.73,5.3,3.86,3.42,6,3.59,6.48,4.31,7.55,8.09C15.21,37,16.56,35.67,24.7,38.91Z"/><path d="M24.93,38.78c-8.69.19-9.9,1.58-10.07,5.14-3.74-3.8-6-5.85-14.74-10C9,37,9.72,37.54,4.74,36.21c6.55,2.68,7.17,3.26,9.39,5.86C15.06,40.17,16,38.53,24.93,38.78Z"/><path d="M25.22,38.72c-8.76,2.94-9.57,4.59-8.39,7.57A81.58,81.58,0,0,0,0,40.44c8.92,1.2,9.79,1.53,5.05,1,6.6,1.4,7.35,1.81,10.59,3.24C15.63,43.13,16.12,41.29,25.22,38.72Z"/><path d="M25.54,39.36c-8.23,4.07-8.59,5.87-6.15,9.49-5.94-1.86-8.94-2.51-17.76-1.3,8.4-2.19,9.31-2.1,5.14-.31,6.21-1.41,7-1.21,11.07.38C16.89,45.06,16.89,43.16,25.54,39.36Z"/><path d="M25.84,39.68c-7.07,5.46-6.95,7.29-3.48,10.75-6.4-.86-9.46-.7-17.5,3.35,7.37-4.89,8.28-5.05,4.89-1.64,5.45-3.56,6.3-3.59,10.79-2.49C18.78,46.82,18.29,45,25.84,39.68Z"/><path d="M26,39.71c-5.23,6.9-4.64,8.64-.58,11.29-6.22.62-9.13,1.56-16,7.76,6.05-6.83,6.89-7.22,4.3-2.85,4.54-5,5.35-5.3,9.78-5.2C21.25,48.23,20.3,46.59,26,39.71Z"/><path d="M26.06,39.58c-2.76,8-1.73,9.56,2.36,11.05-5.33,2.23-7.9,3.9-13.48,11.65,4.58-8.15,5.29-8.74,3.41-3.86,3.59-6,4.31-6.49,8.1-7.56C24.16,49.07,22.82,47.72,26.06,39.58Z"/><path d="M25.92,39.35c.19,8.68,1.58,9.89,5.14,10.07-3.8,3.74-5.85,6-10,14.74,3.09-8.85,3.62-9.61,2.29-4.62C26,53,26.61,52.37,29.22,50.15,27.32,49.21,25.67,48.26,25.92,39.35Z"/><path d="M25.86,39.06c2.95,8.76,4.6,9.57,7.57,8.39a82.18,82.18,0,0,0-5.85,16.83c1.21-8.93,1.53-9.79,1-5.06,1.4-6.6,1.8-7.34,3.23-10.59C30.27,48.65,28.44,48.15,25.86,39.06Z"/><path d="M26.51,38.73C30.57,47,32.38,47.32,36,44.88c-1.86,5.95-2.5,8.95-1.29,17.77-2.2-8.4-2.11-9.32-.32-5.15-1.4-6.2-1.21-7,.38-11.06C32.2,47.39,30.3,47.39,26.51,38.73Z"/><path d="M26.82,38.44c5.46,7.07,7.3,7,10.76,3.48-.86,6.4-.71,9.46,3.35,17.5-4.9-7.38-5-8.29-1.64-4.89-3.57-5.46-3.59-6.3-2.5-10.79C34,45.49,32.13,46,26.82,38.44Z"/><path d="M26.85,38.25c6.9,5.23,8.65,4.63,11.29.58.63,6.21,1.57,9.13,7.76,16-6.83-6-7.22-6.88-2.85-4.29-5-4.54-5.29-5.35-5.2-9.78C35.38,43,33.73,44,26.85,38.25Z"/><path d="M26.72,38.22c8,2.75,9.57,1.73,11.06-2.36,2.23,5.33,3.89,7.9,11.64,13.48-8.14-4.59-8.73-5.3-3.86-3.41-6-3.6-6.48-4.32-7.55-8.1C36.21,40.12,34.87,41.46,26.72,38.22Z"/><path d="M26.49,38.35c8.69-.19,9.9-1.57,10.07-5.14,3.74,3.8,6,5.86,14.74,10-8.85-3.09-9.6-3.62-4.62-2.3-6.55-2.67-7.16-3.25-9.39-5.86C36.36,37,35.41,38.6,26.49,38.35Z"/><path d="M50.31.13C44.85-6.94,43-6.82,39.55-3.35c.86-6.4.71-9.46-3.34-17.5,4.89,7.37,5,8.28,1.64,4.89,3.56,5.45,3.58,6.3,2.49,10.79C43.17-6.93,45-7.42,50.31.13Z"/><path d="M50.28.32C43.38-4.91,41.64-4.32,39-.26c-.62-6.22-1.57-9.13-7.76-16,6.83,6.05,7.22,6.89,2.85,4.3,5.05,4.54,5.29,5.35,5.2,9.78C41.76-4.46,43.4-5.41,50.28.32Z"/><path d="M50.41.35c-8-2.76-9.57-1.73-11.06,2.36-2.23-5.33-3.89-7.9-11.64-13.48,8.14,4.58,8.73,5.29,3.86,3.41,6,3.59,6.48,4.31,7.56,8.1C40.92-1.55,42.27-2.89,50.41.35Z"/><path d="M50.64.21C42,.4,40.74,1.79,40.57,5.35c-3.74-3.8-6-5.85-14.74-10,8.85,3.09,9.6,3.62,4.62,2.29C37,.32,37.62.9,39.84,3.51,40.77,1.6,41.73,0,50.64.21Z"/><path d="M50.93.15c-8.76,3-9.57,4.6-8.39,7.57A82.18,82.18,0,0,0,25.71,1.87c8.92,1.21,9.79,1.53,5.05,1,6.6,1.4,7.35,1.8,10.59,3.23C41.34,4.56,41.83,2.73,50.93.15Z"/><path d="M51.25.8C43,4.86,42.66,6.67,45.1,10.28,39.16,8.42,36.16,7.78,27.34,9c8.4-2.2,9.32-2.11,5.14-.32,6.21-1.41,7-1.21,11.07.38C42.6,6.49,42.6,4.59,51.25.8Z"/><path d="M51.55,1.11c-7.07,5.46-6.95,7.3-3.48,10.76-6.4-.86-9.46-.71-17.5,3.34,7.37-4.89,8.28-5,4.89-1.63,5.46-3.57,6.3-3.59,10.79-2.5C44.49,8.25,44,6.42,51.55,1.11Z"/><path d="M51.74,1.14C46.51,8,47.1,9.78,51.16,12.43c-6.22.63-9.13,1.57-16,7.76,6.05-6.83,6.89-7.22,4.3-2.85,4.54-5.05,5.35-5.29,9.78-5.2C47,9.66,46,8,51.74,1.14Z"/><path d="M51.77,1C49,9.05,50,10.58,54.13,12.07,48.8,14.3,46.23,16,40.65,23.71c4.58-8.14,5.29-8.73,3.41-3.86,3.59-6,4.31-6.48,8.1-7.55C49.87,10.5,48.53,9.15,51.77,1Z"/><path d="M51.63.78c.19,8.69,1.58,9.9,5.14,10.07-3.79,3.74-5.85,6-10,14.74,3.09-8.85,3.62-9.6,2.29-4.62,2.68-6.55,3.26-7.16,5.87-9.39C53,10.65,51.38,9.7,51.63.78Z"/><path d="M.13,1.11c-7.07,5.46-6.95,7.3-3.48,10.76-6.4-.86-9.46-.71-17.5,3.34,7.37-4.89,8.28-5,4.89-1.63C-10.51,10-9.66,10-5.17,11.08-6.93,8.25-7.42,6.42.13,1.11Z"/><path d="M.32,1.14C-4.91,8-4.32,9.78-.26,12.43c-6.22.63-9.13,1.57-16,7.76,6.05-6.83,6.89-7.22,4.3-2.85,4.54-5.05,5.35-5.29,9.78-5.2C-4.46,9.66-5.41,8,.32,1.14Z"/><path d="M.35,1c-2.76,8-1.73,9.57,2.36,11.06C-2.62,14.3-5.19,16-10.77,23.71c4.58-8.14,5.29-8.73,3.41-3.86,3.59-6,4.31-6.48,8.1-7.55C-1.55,10.5-2.89,9.15.35,1Z"/><path d="M.21.78c.19,8.69,1.58,9.9,5.14,10.07-3.8,3.74-5.85,6-10,14.74C-1.56,16.74-1,16-2.36,21,.32,14.42.9,13.81,3.51,11.58,1.6,10.65,0,9.7.21.78Z"/><path d="M.15.49c3,8.76,4.6,9.57,7.57,8.39A82.18,82.18,0,0,0,1.87,25.71c1.21-8.92,1.53-9.79,1-5.05,1.4-6.6,1.8-7.35,3.23-10.59C4.56,10.08,2.73,9.59.15.49Z"/><path d="M.8.17C4.86,8.4,6.67,8.76,10.28,6.32,8.42,12.26,7.78,15.26,9,24.08c-2.2-8.39-2.11-9.31-.32-5.14-1.41-6.21-1.21-7,.38-11.07C6.49,8.82,4.59,8.82.8.17Z"/><path d="M1.11-.13c5.46,7.07,7.3,7,10.76,3.48-.86,6.4-.71,9.46,3.34,17.5-4.89-7.37-5-8.28-1.64-4.89C10,10.51,10,9.66,11.08,5.17,8.25,6.93,6.42,7.42,1.11-.13Z"/><path d="M1.14-.32C8,4.91,9.78,4.32,12.43.26c.63,6.22,1.57,9.13,7.76,16C13.36,10.25,13,9.41,17.34,12c-5.05-4.54-5.29-5.35-5.2-9.78C9.66,4.46,8,5.41,1.14-.32Z"/><path d="M1-.35c8,2.76,9.57,1.73,11.06-2.36C14.3,2.62,16,5.19,23.71,10.77,15.57,6.19,15,5.48,19.85,7.36c-6-3.59-6.48-4.31-7.55-8.1C10.5,1.55,9.15,2.89,1-.35Z"/><path d="M.78-.21c8.69-.19,9.9-1.58,10.07-5.14,3.74,3.8,6,5.85,14.74,10C16.74,1.56,16,1,21,2.36,14.42-.32,13.81-.9,11.58-3.51,10.65-1.6,9.7,0,.78-.21Z"/></pattern></defs><title>blackFace</title><g id="Layer_2" data-name="Layer 2"><g id="Layer_1-2" data-name="Layer 1"><circle class="cls-6" cx="40.07" cy="60.14" r="5.62"/><circle class="cls-7" cx="110.8" cy="60.14" r="5.62"/><path class="cls-8" d="M102.7,81.07c.35,2.4,12.29,4.15,24.62,12.29,11.9,7.87,16.37,17.92,18.34,17.32,2.56-.78,9.51-37.27,1.39-57.33-2-5-14.52,15.16-19.33,17.67C118.6,75.77,102.43,79.17,102.7,81.07Z" transform="translate(0 -0.25)"/><path class="cls-8" d="M48.17,81.07c-.35,2.4-12.29,4.15-24.61,12.29-11.91,7.87-16.38,17.92-18.35,17.32-2.56-.78-9.5-37.27-1.39-57.33,2-5,14.52,15.16,19.33,17.67C32.27,75.77,48.44,79.17,48.17,81.07Z" transform="translate(0 -0.25)"/><path class="cls-9" d="M43.74,56c.23.19,4.65,3.79,6.47,7.19,1.47,2.76.59,4.17-2.24,3.34" transform="translate(0 -0.25)"/><path class="cls-9" d="M45.69,60.39a5.62,5.62,0,1,1-5.62-5.62,6.09,6.09,0,0,1,4.36,2.07A5.88,5.88,0,0,1,45.69,60.39Z" transform="translate(0 -0.25)"/><path class="cls-9" d="M36.4,64.77c-.23-.19-4.65-3.79-6.46-7.2-1.47-2.75-.59-4.16,2.24-3.33" transform="translate(0 -0.25)"/><path d="M51.88,65.17S49.21,53.94,40.33,50C37.91,49,33.77,47.9,33.16,49c-.34.57.41,1.71,1.09,2.34,1.11,1,2.26.9,5,1.56,0,0,.57.13,3.12.93C47.65,55.44,51.83,65.2,51.88,65.17Z" transform="translate(0 -0.25)"/><path d="M27.89,55.42c-.05,0,3.08,11.13,12.09,14.7,2.46,1,6.64,1.9,7.21.83.31-.58-.48-1.69-1.18-2.29-1.14-1-2.29-.82-5-1.38,0,0-.57-.12-3.15-.83C32.47,65,27.94,55.39,27.89,55.42Z" transform="translate(0 -0.25)"/><path class="cls-9" d="M107.13,56c-.23.19-4.65,3.79-6.47,7.19-1.47,2.76-.59,4.17,2.25,3.34" transform="translate(0 -0.25)"/><path class="cls-9" d="M105.18,60.39a5.62,5.62,0,1,0,5.62-5.62,6.09,6.09,0,0,0-4.36,2.07A5.88,5.88,0,0,0,105.18,60.39Z" transform="translate(0 -0.25)"/><path class="cls-9" d="M114.47,64.77c.23-.19,4.65-3.79,6.46-7.2,1.47-2.75.59-4.16-2.24-3.33" transform="translate(0 -0.25)"/><path d="M99,65.17S101.66,53.94,110.54,50C113,49,117.1,47.9,117.71,49c.34.57-.41,1.71-1.09,2.34-1.11,1-2.26.9-5,1.56,0,0-.56.13-3.12.93C103.23,55.44,99,65.2,99,65.17Z" transform="translate(0 -0.25)"/><path d="M123,55.42s-3.08,11.13-12.09,14.7c-2.46,1-6.63,1.9-7.21.83-.31-.58.48-1.69,1.18-2.29,1.14-1,2.29-.82,5-1.38,0,0,.57-.12,3.16-.83C118.4,65,122.93,55.39,123,55.42Z" transform="translate(0 -0.25)"/><path class="cls-10" d="M78,44.66A5.61,5.61,0,1,1,80,37a6.07,6.07,0,0,1,.39,4.81A5.93,5.93,0,0,1,78,44.66Z" transform="translate(0 -0.25)"/><path class="cls-9" d="M69.51,38.81c0-.29,1-5.92,3-9.2,1.65-2.64,3.31-2.59,4,.28" transform="translate(0 -0.25)"/><path d="M76.9,52.42s8.39-7.93,7.33-17.57c-.29-2.63-1.43-6.75-2.64-6.76-.66,0-1.28,1.22-1.48,2.12-.34,1.47.35,2.4,1.14,5.1,0,0,.17.56.75,3.17C83.21,43.88,76.85,52.39,76.9,52.42Z" transform="translate(0 -0.25)"/><path class="cls-11" d="M11.63,73A12,12,0,0,1,13,75.38l-.31.41c-.25-.47-.46-.81-.54-.81-.31,0-.62,2.1-.71,2.81a30.71,30.71,0,0,0-.18,6c0,2.68.43,5.2.77,5.28s2.46-2.35,4.11-3.64C19,83.19,22.8,83,22.78,82.14c0-.17-.3-.26-.78-.34l.08-.52c1.63.29,2.82.32,2.83.71,0,1.06-4.7,1.33-8.28,4.12-2.06,1.61-4.57,4.71-5.15,4.57s-.91-3.27-1-6.63a38.85,38.85,0,0,1,.22-7.51C10.84,75.64,11.24,73,11.63,73Z" transform="translate(0 -0.25)"/><path class="cls-11" d="M12.73,75.79l.31-.41c.16.29.31.57.46.8,1.32,2.18,2.49,2.59,3.88,3.46a12.8,12.8,0,0,0,4.7,1.64L22,81.8a13.24,13.24,0,0,1-5.23-1.54,7.12,7.12,0,0,1-3.09-2.76C13.39,77,13,76.33,12.73,75.79Z" transform="translate(0 -0.25)"/><path class="cls-12" d="M12.4,75.07a9.68,9.68,0,0,1,1.1,1.86l-.24.31c-.2-.36-.36-.63-.42-.63-.25,0-.49,1.65-.56,2.21a23.36,23.36,0,0,0-.14,4.7c0,2.1.33,4.08.61,4.14s1.92-1.85,3.21-2.85c2.23-1.75,5.18-1.92,5.16-2.58,0-.14-.23-.21-.61-.27l.06-.4c1.28.22,2.21.25,2.22.55,0,.84-3.68,1-6.48,3.24-1.62,1.26-3.58,3.69-4,3.58s-.71-2.56-.76-5.2a29.67,29.67,0,0,1,.18-5.89C11.78,77.13,12.09,75.07,12.4,75.07Z" transform="translate(0 -0.25)"/><path class="cls-12" d="M13.26,77.24l.24-.31.36.62a7,7,0,0,0,3,2.72,10.24,10.24,0,0,0,3.68,1.29l-.06.4a10.28,10.28,0,0,1-4.09-1.21A5.53,5.53,0,0,1,14,78.59C13.77,78.22,13.49,77.67,13.26,77.24Z" transform="translate(0 -0.25)"/><path class="cls-13" d="M10.91,70.86a14.66,14.66,0,0,1,1.73,2.9l-.38.5c-.31-.57-.56-1-.66-1-.38,0-.77,2.57-.87,3.45A36.89,36.89,0,0,0,10.51,84c.06,3.28.52,6.37,1,6.47s3-2.88,5-4.46a19.19,19.19,0,0,1,5.87-2.81l.08.8A20.07,20.07,0,0,0,17,86.9c-2.52,2-5.6,5.75-6.3,5.58-.53-.12-1.11-4-1.19-8.1-.08-5-.21-5.13.28-9.19C10,74.08,10.44,70.87,10.91,70.86Z" transform="translate(0 -0.25)"/><path class="cls-13" d="M23.71,81c2,.34,3.45.38,3.46.86,0,.79-2.09,1.22-4.74,2.19l-.08-.8c1.32-.44,2.23-.75,2.22-1.21,0-.21-.37-.32-1-.41Z" transform="translate(0 -0.25)"/><path class="cls-13" d="M12.26,74.26l.38-.5c.2.36.39.69.56,1C14.83,77.41,16.25,77.92,18,79a16,16,0,0,0,5.76,2l-.11.63a16.12,16.12,0,0,1-6.39-1.89,8.66,8.66,0,0,1-3.79-3.37C13.07,75.78,12.63,74.92,12.26,74.26Z" transform="translate(0 -0.25)"/><path class="cls-14" d="M10,68c.25,0,1.24,1.95,2.15,3.61l-.47.61A4.07,4.07,0,0,0,10.83,71c-.48,0-1,3.19-1.09,4.28-.47,4-.36,4.13-.27,9.11.07,4.08.65,7.9,1.18,8,.69.17,3.74-3.58,6.24-5.53,4.34-3.39,10.08-3.72,10.05-5,0-.26-.46-.39-1.2-.52l.13-.78c2.48.43,4.29.48,4.3,1.08,0,1.61-7.15,2-12.6,6.27-3.13,2.45-7,7.15-7.83,6.94-.66-.16-1.38-5-1.47-10.08-.11-6.24-.26-6.37.34-11.42C8.77,72,9.38,68,10,68Z" transform="translate(0 -0.25)"/><path class="cls-14" d="M11.65,72.23l.47-.61c.24.43.47.85.69,1.2,2,3.33,3.8,4,5.9,5.26a19.44,19.44,0,0,0,7.16,2.51l-.13.78c-1.73-.28-5-.52-7.94-2.34-1.68-1-3.1-1.54-4.71-4.19C12.65,74.12,12.1,73.05,11.65,72.23Z" transform="translate(0 -0.25)"/><path class="cls-15" d="M9,64.63c.31,0,1.52,2.4,2.63,4.43l-.57.75c-.48-.86-.87-1.51-1-1.51-.58,0-1.18,3.92-1.34,5.27-.58,4.94-.44,5.07-.33,11.19.09,5,.79,9.72,1.45,9.87.85.21,4.6-4.4,7.67-6.8,5.34-4.17,12.39-4.57,12.35-6.14,0-.33-.56-.48-1.47-.63l.16-1c3.05.52,5.27.58,5.29,1.31.05,2-8.79,2.48-15.49,7.71-3.86,3-8.55,8.79-9.62,8.53C7.9,97.46,7,91.55,6.9,85.27c-.13-7.68-.32-7.84.42-14C7.52,69.54,8.27,64.64,9,64.63Z" transform="translate(0 -0.25)"/><path class="cls-15" d="M11.06,69.81l.57-.75c.3.54.59,1,.85,1.48C15,74.63,17.15,75.4,19.74,77a24.38,24.38,0,0,0,8.8,3.09l-.16,1c-2.13-.36-6.19-.65-9.77-2.88-2.06-1.29-3.8-1.9-5.78-5.16C12.29,72.13,11.61,70.82,11.06,69.81Z" transform="translate(0 -0.25)"/><path class="cls-16" d="M7.7,60.79c.38,0,1.84,2.92,3.19,5.39l-.7.92c-.58-1-1-1.84-1.22-1.84-.7,0-1.42,4.77-1.61,6.41-.71,6-.54,6.17-.4,13.62.1,6.09,1,11.82,1.74,12C9.74,97.55,14.26,92,18,89c6.45-5.07,15-5.55,14.92-7.47,0-.39-.68-.59-1.78-.78l.2-1.16c3.68.64,6.36.71,6.38,1.61.07,2.4-10.61,3-18.7,9.37C14.33,94.25,8.66,101.29,7.36,101c-1-.23-2.05-7.42-2.19-15.06-.16-9.34-.38-9.54.51-17.09C5.92,66.78,6.82,60.81,7.7,60.79Z" transform="translate(0 -0.25)"/><path class="cls-16" d="M10.19,67.1l.7-.92c.36.65.71,1.28,1,1.81,3,5,5.64,5.91,8.77,7.87a29.22,29.22,0,0,0,10.63,3.75l-.2,1.16c-2.57-.42-7.48-.78-11.79-3.49-2.49-1.57-4.6-2.32-7-6.28C11.68,69.92,10.86,68.33,10.19,67.1Z" transform="translate(0 -0.25)"/><path d="M6.17,55.5c.47,0,2.27,3.63,3.93,6.7l-.86,1.13C8.54,62,8,61.05,7.74,61.06c-.87,0-1.75,5.92-2,8-.88,7.47-.66,7.66-.5,16.91.13,7.57,1.19,14.69,2.16,14.93,1.28.31,6.85-6.65,11.44-10.28,8-6.31,18.47-6.9,18.41-9.29,0-.49-.84-.73-2.2-1l.26-1.45c4.54.8,7.85.9,7.88,2,.07,3-13.11,3.74-23.09,11.65-5.76,4.55-12.75,13.28-14.36,12.89-1.21-.29-2.54-9.22-2.7-18.72-.21-11.6-.48-11.84.62-21.21C4,62.94,5.08,55.52,6.17,55.5Z" transform="translate(0 -0.25)"/><path d="M9.24,63.33l.86-1.13c.44.81.87,1.59,1.27,2.25,3.71,6.17,7,7.33,10.82,9.77a35.61,35.61,0,0,0,13.13,4.66l-.26,1.45c-3.17-.53-9.23-1-14.55-4.35-3.08-1.94-5.67-2.87-8.63-7.79C11.08,66.84,10.07,64.87,9.24,63.33Z" transform="translate(0 -0.25)"/><path class="cls-17" d="M63.1,4.89c5.34-.75-5.87,20.15-5.63,25.57.44,10.27,5.58,26,3.8,26.69-2.25.9-9.73-8.57-23-15.17-12.76-6.37-23.7-5.22-24.16-7.23C13.55,32.14,41.68,7.89,63.1,4.89Z" transform="translate(0 -0.25)"/><path class="cls-18" d="M38.32,42c13.22,6.6,20.7,16.07,23,15.17,1.78-.71-3.36-16.42-3.8-26.69C57.23,25,68.44,4.14,63.1,4.89c-21.42,3-49.55,27.25-48.94,29.86C14.62,36.76,25.56,35.61,38.32,42ZM73,.27c.31,0-.69,1.48-1.39,2.81-3,5.66-6,16-6.69,20.28-1.15,6.58-3.21,15.63-1,27.38A94.46,94.46,0,0,0,66,60.65c1.39,4.54,2.6,6.89,2.1,7.09s-2.68-3.42-3.27-4.13c-3.9-4.68-13.92-11.28-22.71-16.07a72.33,72.33,0,0,0-16.45-6.39,87.32,87.32,0,0,0-13-2.45c-2.77-.13-5.27,0-5.41-.2s.55-1.25,1.17-2.27a125.21,125.21,0,0,1,15.73-17C33.91,10.4,44.49,6.51,49.69,4.59,60.42.64,71.77.12,73,.27Z" transform="translate(0 -0.25)"/><path class="cls-19" d="M77.85.27c-.3,0,.71,1.49,1.4,2.81,3,5.66,6,16,6.69,20.28,1.15,6.58,3.21,15.63,1,27.39a94.79,94.79,0,0,1-2.11,9.9c-1.38,4.54-2.6,6.89-2.1,7.1s2.68-3.43,3.27-4.14c3.9-4.68,13.92-11.28,22.7-16.07a72.71,72.71,0,0,1,16.46-6.39,88.37,88.37,0,0,1,13-2.45c2.77-.13,5.27,0,5.41-.2s-.55-1.25-1.17-2.26a124.41,124.41,0,0,0-15.73-17C117,10.4,106.38,6.51,101.18,4.59,90.46.64,79.1.12,77.85.27ZM93.4,30.46c.24-5.42-11-26.32-5.63-25.57,21.43,3,49.55,27.25,49,29.86-.47,2-11.41.86-24.17,7.23-13.21,6.6-20.7,16.07-23,15.17C87.82,56.44,93,40.73,93.4,30.46Z" transform="translate(0 -0.25)"/><path class="cls-20" d="M87.77,4.89C82.43,4.14,93.64,25,93.4,30.46c-.44,10.27-5.58,26-3.8,26.69,2.25.9,9.74-8.57,23-15.17,12.76-6.37,23.7-5.22,24.17-7.23C137.32,32.14,109.2,7.89,87.77,4.89Z" transform="translate(0 -0.25)"/><path class="cls-11" d="M100.89,21.48a12,12,0,0,0,1.34,2.41l.51-.07c-.27-.45-.47-.8-.43-.87.16-.26,2.13.5,2.79.79a30.37,30.37,0,0,1,5.28,2.84c2.29,1.38,4.29,3,4.18,3.31s-3.26.95-5.2,1.74a15.52,15.52,0,0,0-4.39,3l.54.38a16.08,16.08,0,0,1,4.22-2.65c2.43-1,6.36-1.61,6.53-2.18S113.89,27.76,111,26a38.88,38.88,0,0,0-6.62-3.56C103.56,22.11,101.09,21.15,100.89,21.48Z" transform="translate(0 -0.25)"/><path class="cls-11" d="M102.82,34.67c-.57,1.55-1.13,2.6-.8,2.8.55.34,1.72-1,3.49-2.46l-.54-.38c-.85.75-1.43,1.27-1.76,1.07-.15-.09-.07-.39.1-.85Z" transform="translate(0 -0.25)"/><path class="cls-11" d="M102.74,23.82l-.51.07c.17.28.34.55.47.79a8.87,8.87,0,0,1,1,5.09,12.85,12.85,0,0,1-.93,4.9l.49.18a13,13,0,0,0,1.28-5.29,7,7,0,0,0-.84-4.06C103.48,25,103.06,24.35,102.74,23.82Z" transform="translate(0 -0.25)"/><path class="cls-12" d="M102.28,23.17a9.77,9.77,0,0,0,1.06,1.89l.39,0c-.21-.36-.36-.63-.33-.69s1.67.4,2.19.63a23.77,23.77,0,0,1,4.14,2.22c1.8,1.09,3.37,2.33,3.29,2.6s-2.57.74-4.08,1.35c-2.63,1.06-4.25,3.53-4.82,3.19-.11-.07-.06-.31.08-.67l-.39-.14c-.44,1.22-.88,2-.62,2.19.71.44,2.74-2.66,6-4,1.9-.77,5-1.25,5.12-1.7s-1.86-1.9-4.13-3.25A29.75,29.75,0,0,0,105,24C104.38,23.67,102.44,22.91,102.28,23.17Z" transform="translate(0 -0.25)"/><path class="cls-12" d="M103.73,25l-.39,0c.13.22.26.43.36.62a6.94,6.94,0,0,1,.84,4,10,10,0,0,1-.73,3.84l.39.14a10.24,10.24,0,0,0,1-4.14,5.58,5.58,0,0,0-.67-3.18C104.32,25.94,104,25.42,103.73,25Z" transform="translate(0 -0.25)"/><path class="cls-13" d="M99.38,19.78A15.58,15.58,0,0,0,101,22.73l.62-.08c-.34-.55-.58-1-.53-1.07.2-.32,2.61.62,3.43,1A37.73,37.73,0,0,1,111,26c2.81,1.69,5.25,3.63,5.13,4s-4,1.17-6.37,2.12c-4.12,1.66-6.65,5.53-7.53,5-.18-.11-.09-.48.12-1l-.6-.21c-.7,1.89-1.39,3.17-1,3.42,1.11.68,4.28-4.17,9.44-6.26,3-1.2,7.79-2,8-2.66.16-.53-2.9-3-6.43-5.09-4.31-2.58-4.34-2.74-8.09-4.35C102.65,20.56,99.63,19.38,99.38,19.78Z" transform="translate(0 -0.25)"/><path class="cls-13" d="M101.65,22.65l-.62.08c.21.34.41.68.57,1,1.5,2.75,1.22,4.24,1.29,6.23a15.93,15.93,0,0,1-1.14,6l.6.21a16.09,16.09,0,0,0,1.57-6.48c-.06-1.59.17-2.77-1-5C102.56,24.11,102,23.3,101.65,22.65Z" transform="translate(0 -0.25)"/><path class="cls-14" d="M97.38,17.54c-.13.22,1.08,2.05,2.06,3.66l.76-.1a3.72,3.72,0,0,1-.66-1.32c.25-.41,3.25.77,4.26,1.2,3.72,1.6,3.75,1.75,8,4.32,3.49,2.1,6.52,4.51,6.37,5-.2.69-5,1.45-7.92,2.64a23.7,23.7,0,0,0-6.67,4.57l.81.59a24.68,24.68,0,0,1,6.43-4c3.69-1.49,9.67-2.45,9.93-3.31.19-.66-3.61-3.68-8-6.32-5.36-3.22-5.39-3.41-10.06-5.41C101.45,18.5,97.69,17,97.38,17.54Z" transform="translate(0 -0.25)"/><path class="cls-14" d="M100.33,37.6c-.87,2.36-1.73,4-1.22,4.27.83.5,2.61-1.51,5.3-3.74l-.81-.59c-1.3,1.15-2.19,1.93-2.68,1.63-.22-.14-.11-.59.15-1.29Z" transform="translate(0 -0.25)"/><path class="cls-14" d="M100.2,21.1l-.76.1c.25.43.5.84.7,1.2,1.86,3.42,1.52,5.27,1.6,7.75a19.55,19.55,0,0,1-1.41,7.45l.74.28c.62-1.64,2.06-4.63,2-8.05-.07-2,.21-3.45-1.28-6.17C101.33,22.91,100.68,21.91,100.2,21.1Z" transform="translate(0 -0.25)"/><path class="cls-15" d="M94.94,15c-.16.26,1.32,2.52,2.52,4.49l.94-.12c-.51-.84-.88-1.5-.8-1.63.3-.49,4,.95,5.23,1.48,4.57,2,4.61,2.16,9.85,5.31,4.3,2.58,8,5.55,7.83,6.19-.25.85-6.11,1.78-9.72,3.24a29.13,29.13,0,0,0-8.21,5.61l1,.73a30.43,30.43,0,0,1,7.9-5c4.54-1.84,11.89-3,12.2-4.07.24-.81-4.43-4.53-9.82-7.77-6.58-4-6.62-4.19-12.36-6.65C99.94,16.19,95.32,14.38,94.94,15Z" transform="translate(0 -0.25)"/><path class="cls-15" d="M98.56,39.68c-1.07,2.89-2.12,4.85-1.5,5.23,1,.62,3.21-1.85,6.52-4.6l-1-.73C101,41,99.89,42,99.29,41.59c-.28-.17-.14-.73.19-1.59Z" transform="translate(0 -0.25)"/><path class="cls-15" d="M98.4,19.38l-.94.12c.32.53.62,1,.86,1.48,2.3,4.2,1.87,6.48,2,9.52a24.45,24.45,0,0,1-1.74,9.18l.92.32c.76-2,2.53-5.68,2.39-9.89-.09-2.43.26-4.24-1.58-7.59C99.79,21.61,99,20.37,98.4,19.38Z" transform="translate(0 -0.25)"/><path class="cls-16" d="M92.27,12c-.2.32,1.61,3,3.07,5.45l1.15-.15c-.63-1-1.08-1.82-1-2,.36-.59,4.84,1.16,6.35,1.81,5.56,2.39,5.61,2.63,12,6.46,5.23,3.14,9.76,6.74,9.53,7.52-.3,1-7.41,2.13-11.8,3.89-4.23,1.69-7.55,4.64-10,6.76l1.23.88a36.47,36.47,0,0,1,9.57-6c5.5-2.2,14.43-3.59,14.8-4.88.29-1-5.4-5.49-12-9.43-8-4.81-8.06-5.1-15-8.1C98.34,13.42,92.72,11.21,92.27,12Z" transform="translate(0 -0.25)"/><path class="cls-16" d="M96.76,41.83c-1.29,3.5-2.56,5.86-1.8,6.33,1.24.75,3.88-2.23,7.9-5.54l-1.23-.88c-1.92,1.7-3.25,2.86-4,2.42-.33-.21-.17-.89.22-1.93Z" transform="translate(0 -0.25)"/><path class="cls-16" d="M96.49,17.27l-1.15.15c.39.64.76,1.26,1,1.8,2.81,5.08,2.3,7.83,2.44,11.52a29,29,0,0,1-2.07,11.09l1.11.4c.92-2.44,3.06-6.87,2.86-12-.1-2.94.3-5.13-1.94-9.19C98.19,20,97.22,18.47,96.49,17.27Z" transform="translate(0 -0.25)"/><path d="M88.45,8c-.24.4,2,3.78,3.84,6.75l1.41-.17a7,7,0,0,1-1.22-2.44c.45-.74,6,1.45,7.89,2.26,6.91,3,7,3.26,14.9,8,6.49,3.9,12.12,8.38,11.85,9.33-.38,1.27-9.19,2.62-14.63,4.78-9.44,3.74-15.21,12.54-17.25,11.29-.42-.25-.22-1.09.26-2.38l-1.37-.51c-1.58,4.33-3.16,7.25-2.21,7.83,2.55,1.56,9.79-9.48,21.63-14.17,6.82-2.71,17.88-4.4,18.34-6,.36-1.2-6.71-6.81-14.86-11.7-9.94-6-10-6.33-18.68-10.06C96,9.81,89,7.06,88.45,8Z" transform="translate(0 -0.25)"/><path d="M93.7,14.57l-1.41.17c.48.8.94,1.56,1.31,2.23,3.5,6.3,2.87,9.7,3.06,14.26a36,36,0,0,1-2.53,13.69l1.37.51c1.13-3,3.77-8.48,3.52-14.78-.15-3.63.35-6.34-2.44-11.36C95.82,17.92,94.61,16.06,93.7,14.57Z" transform="translate(0 -0.25)"/><path class="cls-11" d="M139.24,73a12.57,12.57,0,0,0-1.41,2.37l.31.41c.25-.46.46-.81.54-.81.31,0,.63,2.1.71,2.82a29.81,29.81,0,0,1,.18,6c0,2.68-.43,5.2-.77,5.28s-2.46-2.35-4.11-3.64c-2.85-2.23-6.62-2.44-6.6-3.28,0-.17.3-.26.79-.34l-.1-.51c-1.62.28-2.81.31-2.82.7,0,1.06,4.7,1.33,8.28,4.12,2.07,1.61,4.58,4.7,5.15,4.57s.91-3.27,1-6.63a38.71,38.71,0,0,0-.22-7.5C140,75.64,139.63,73,139.24,73Z" transform="translate(0 -0.25)"/><path class="cls-11" d="M138.14,75.79l-.31-.41c-.16.29-.31.57-.45.8-1.33,2.18-2.5,2.59-3.88,3.46a13.17,13.17,0,0,1-4.72,1.65l.1.51a13.25,13.25,0,0,0,5.22-1.54,7.12,7.12,0,0,0,3.09-2.76C137.48,77,137.84,76.33,138.14,75.79Z" transform="translate(0 -0.25)"/><path class="cls-12" d="M138.47,75.07a9.34,9.34,0,0,0-1.1,1.86l.24.31c.2-.36.36-.63.42-.63.25,0,.49,1.64.56,2.21a23.36,23.36,0,0,1,.14,4.7c0,2.1-.33,4.08-.6,4.14s-1.93-1.85-3.21-2.85A12.1,12.1,0,0,0,131.16,83l0,.52a12.3,12.3,0,0,1,3.45,1.83c1.62,1.26,3.58,3.69,4,3.58s.71-2.56.76-5.2a30.53,30.53,0,0,0-.17-5.89C139.09,77.13,138.78,75.07,138.47,75.07Z" transform="translate(0 -0.25)"/><path class="cls-12" d="M130.29,81.56c-1.27.22-2.2.25-2.21.55,0,.51,1.34.78,3,1.41l0-.52c-.84-.28-1.42-.48-1.41-.77s.23-.21.61-.27Z" transform="translate(0 -0.25)"/><path class="cls-12" d="M137.61,77.24l-.24-.31c-.12.22-.24.44-.35.62a7,7,0,0,1-3,2.72,10.22,10.22,0,0,1-3.69,1.29l.07.4a10.28,10.28,0,0,0,4.09-1.21,5.53,5.53,0,0,0,2.42-2.16C137.1,78.22,137.38,77.67,137.61,77.24Z" transform="translate(0 -0.25)"/><path class="cls-13" d="M140,70.86a14.66,14.66,0,0,0-1.73,2.9l.38.5c.31-.57.56-1,.66-1,.38,0,.77,2.57.87,3.45a37.66,37.66,0,0,1,.22,7.32c-.06,3.28-.52,6.36-1,6.47s-3-2.88-5-4.46c-3.5-2.73-8.11-3-8.09-4,0-.21.37-.32,1-.41l-.11-.63c-2,.34-3.45.38-3.46.86,0,1.3,5.75,1.63,10.14,5.05,2.52,2,5.59,5.75,6.3,5.58.53-.13,1.12-4,1.19-8.1.09-5,.2-5.13-.28-9.19C140.92,74.08,140.43,70.87,140,70.86Z" transform="translate(0 -0.25)"/><path class="cls-13" d="M138.61,74.26l-.38-.5-.56,1c-1.62,2.67-3,3.17-4.74,4.23a16,16,0,0,1-5.77,2l.11.63a16.12,16.12,0,0,0,6.39-1.89,8.66,8.66,0,0,0,3.79-3.37C137.8,75.77,138.25,74.92,138.61,74.26Z" transform="translate(0 -0.25)"/><path class="cls-14" d="M140.9,68c-.25,0-1.24,1.95-2.14,3.61l.46.61c.39-.7.7-1.23.82-1.23.48,0,1,3.19,1.09,4.28.48,4,.36,4.13.27,9.11-.07,4.08-.65,7.9-1.17,8-.7.17-3.75-3.58-6.25-5.53-4.34-3.4-10.08-3.72-10-5,0-.26.45-.4,1.19-.52l-.14-.78c-2.47.43-4.28.48-4.29,1.08,0,1.61,7.15,2,12.6,6.27,3.14,2.45,6.95,7.15,7.83,6.94.66-.16,1.38-5,1.47-10.08.11-6.24.26-6.37-.34-11.42C142.1,72,141.49,68,140.9,68Z" transform="translate(0 -0.25)"/><path class="cls-14" d="M139.22,72.23l-.46-.61c-.25.43-.48.85-.7,1.2-2,3.33-3.8,4-5.9,5.27a19.64,19.64,0,0,1-7.17,2.5l.14.78c1.73-.28,5-.52,8-2.34,1.67-1,3.09-1.54,4.7-4.19C138.22,74.12,138.77,73.05,139.22,72.23Z" transform="translate(0 -0.25)"/><path class="cls-15" d="M141.88,64.63c-.32,0-1.53,2.4-2.64,4.43l.58.75c.47-.86.86-1.51,1-1.51.58,0,1.18,3.92,1.34,5.27.58,4.94.44,5.07.33,11.19-.09,5-.79,9.72-1.44,9.87-.86.21-4.6-4.4-7.68-6.8C128,83.66,121,83.27,121,81.69c0-.33.57-.49,1.47-.64l-.16-1c-3,.53-5.27.59-5.29,1.32-.05,2,8.79,2.48,15.49,7.71,3.86,3,8.55,8.79,9.63,8.53.81-.19,1.7-6.1,1.81-12.38.13-7.68.32-7.84-.42-14C143.35,69.55,142.61,64.64,141.88,64.63Z" transform="translate(0 -0.25)"/><path class="cls-15" d="M139.82,69.81l-.58-.75c-.3.54-.59,1-.85,1.48-2.49,4.09-4.67,4.86-7.26,6.47a24.1,24.1,0,0,1-8.8,3.08l.16,1c2.13-.35,6.19-.64,9.77-2.87,2.06-1.29,3.8-1.9,5.78-5.16C138.58,72.13,139.26,70.82,139.82,69.81Z" transform="translate(0 -0.25)"/><path class="cls-16" d="M143.17,60.79c-.38,0-1.84,2.92-3.19,5.39l.7.92c.57-1,1-1.84,1.22-1.84.7,0,1.42,4.77,1.61,6.41.71,6,.53,6.17.41,13.61-.11,6.1-1,11.83-1.75,12-1,.25-5.56-5.36-9.27-8.28s-7.8-4.21-10.83-5.23l-.15,1.5a36.44,36.44,0,0,1,10,5.3c4.66,3.67,10.33,10.7,11.63,10.38,1-.24,2.06-7.42,2.19-15.07.16-9.33.38-9.53-.51-17.07C145,66.78,144.05,60.81,143.17,60.79Z" transform="translate(0 -0.25)"/><path class="cls-16" d="M119.55,79.61c-3.68.64-6.35.72-6.38,1.6,0,1.46,3.87,2.26,8.75,4.08l.15-1.5C119.64,83,118,82.4,118,81.55c0-.4.69-.59,1.78-.77Z" transform="translate(0 -0.25)"/><path class="cls-16" d="M140.68,67.1l-.7-.92c-.36.66-.71,1.28-1,1.81-3,5-5.64,5.91-8.76,7.87a29.25,29.25,0,0,1-10.65,3.75l.21,1.17c2.57-.43,7.48-.79,11.79-3.5,2.49-1.57,4.6-2.31,7-6.28C139.19,69.92,140,68.33,140.68,67.1Z" transform="translate(0 -0.25)"/><path d="M144.7,55.5c-.46,0-2.27,3.63-3.93,6.7l.86,1.13c.71-1.3,1.29-2.28,1.5-2.28.87,0,1.76,5.93,2,8,.88,7.47.66,7.66.5,16.91-.13,7.57-1.19,14.69-2.16,14.93-1.28.31-6.85-6.65-11.44-10.28-4.42-3.5-9.62-5.24-13.37-6.51l-.18,1.87a44.7,44.7,0,0,1,12.3,6.59c5.75,4.55,12.74,13.28,14.35,12.89,1.22-.29,2.54-9.22,2.7-18.72.2-11.6.47-11.84-.62-21.21C146.9,62.94,145.79,55.52,144.7,55.5Z" transform="translate(0 -0.25)"/><path d="M115.55,78.88c-4.54.8-7.85.89-7.87,2-.05,1.81,4.77,2.8,10.79,5.06l.18-1.87c-3-1-5.06-1.72-5-2.78,0-.49.84-.74,2.2-1Z" transform="translate(0 -0.25)"/><path d="M141.63,63.33l-.86-1.13c-.45.82-.88,1.59-1.27,2.25-3.7,6.17-7,7.33-10.81,9.77a35.83,35.83,0,0,1-13.14,4.66l.26,1.44c3.17-.52,9.22-1,14.55-4.34C133.43,74,136,73.11,139,68.19,139.79,66.85,140.8,64.87,141.63,63.33Z" transform="translate(0 -0.25)"/><path class="cls-11" d="M49.94,21.41a11.72,11.72,0,0,1-1.34,2.41l-.5-.06a2.39,2.39,0,0,0,.42-.88c-.16-.26-2.13.51-2.79.79a30.37,30.37,0,0,0-5.28,2.84c-2.29,1.38-4.28,3-4.18,3.31s3.27,1,5.21,1.76a15.68,15.68,0,0,1,4.41,3l-.54.38a16.52,16.52,0,0,0-4.24-2.67c-2.43-1-6.37-1.64-6.54-2.21s2.37-2.42,5.25-4.15a37.46,37.46,0,0,1,6.61-3.56C47.27,22,49.74,21.08,49.94,21.41Z" transform="translate(0 -0.25)"/><path class="cls-11" d="M48,34.66c.57,1.56,1.14,2.61.81,2.81-.55.34-1.72-1-3.5-2.48l.54-.38c.85.76,1.44,1.28,1.76,1.08.15-.09.07-.39-.1-.85Z" transform="translate(0 -0.25)"/><path class="cls-11" d="M48.1,23.76l.5.06c-.17.29-.33.56-.46.8-1.22,2.25-1,3.47-1,5.11A13,13,0,0,0,48,34.66l-.49.18a13.49,13.49,0,0,1-1.3-5.32,7.09,7.09,0,0,1,.84-4.08C47.35,25,47.78,24.29,48.1,23.76Z" transform="translate(0 -0.25)"/><path class="cls-12" d="M48.46,22.91a9.36,9.36,0,0,1-1.05,1.92L47,24.77a2,2,0,0,0,.33-.69c-.13-.22-1.68.38-2.21.61A23.28,23.28,0,0,0,41,26.92c-1.81,1.09-3.37,2.34-3.29,2.62s2.6.79,4.14,1.43a12.57,12.57,0,0,1,3.49,2.44l-.42.3a13,13,0,0,0-3.36-2.16c-1.93-.8-5-1.34-5.19-1.79s1.86-1.92,4.13-3.29a29.34,29.34,0,0,1,5.2-2.79C46.35,23.4,48.3,22.64,48.46,22.91Z" transform="translate(0 -0.25)"/><path class="cls-12" d="M47,33.46c.47,1.24.92,2.09.66,2.25-.43.26-1.37-.81-2.78-2l.42-.3c.68.61,1.15,1,1.4.87s.06-.31-.08-.68Z" transform="translate(0 -0.25)"/><path class="cls-12" d="M47,24.77l.39.06c-.13.22-.25.44-.35.63a7,7,0,0,0-.8,4.06A10.54,10.54,0,0,0,47,33.46l-.38.14a10.85,10.85,0,0,1-1.06-4.25,5.71,5.71,0,0,1,.64-3.24C46.44,25.72,46.77,25.19,47,24.77Z" transform="translate(0 -0.25)"/><path class="cls-13" d="M51.47,19.75a15.29,15.29,0,0,1-1.65,2.95l-.61-.08a3,3,0,0,0,.52-1.07c-.2-.33-2.61.62-3.42,1A36.93,36.93,0,0,0,39.85,26C37,27.68,34.6,29.62,34.73,30s4,1.18,6.37,2.14c4.12,1.67,6.66,5.55,7.54,5,.18-.11.09-.48-.12-1l.59-.21c.7,1.9,1.4,3.18,1,3.43-1.11.68-4.29-4.19-9.45-6.28-3-1.21-7.79-2-8-2.68-.16-.53,2.9-3,6.43-5.08,4.31-2.59,4.34-2.75,8.09-4.36C48.19,20.52,51.22,19.34,51.47,19.75Z" transform="translate(0 -0.25)"/><path class="cls-13" d="M49.21,22.62l.61.08c-.2.34-.4.68-.56,1C47.76,26.42,48,27.91,48,29.91a16.14,16.14,0,0,0,1.14,6l-.59.21a16.13,16.13,0,0,1-1.58-6.49,8.62,8.62,0,0,1,1-5C48.29,24.08,48.81,23.27,49.21,22.62Z" transform="translate(0 -0.25)"/><path class="cls-14" d="M53.48,17.54c.14.22-1.07,2.05-2,3.67l-.77-.11c.42-.68.72-1.22.65-1.32-.24-.4-3.24.77-4.25,1.2-3.72,1.6-3.75,1.75-8,4.32-3.49,2.1-6.52,4.51-6.37,5,.21.69,5,1.45,7.92,2.64a23.7,23.7,0,0,1,6.67,4.57l-.81.59a24.68,24.68,0,0,0-6.43-4c-3.69-1.49-9.67-2.45-9.93-3.31-.19-.66,3.61-3.68,8-6.32,5.36-3.21,5.39-3.41,10.06-5.41C49.42,18.5,53.18,17,53.48,17.54Z" transform="translate(0 -0.25)"/><path class="cls-14" d="M50.54,37.6c.87,2.36,1.73,3.95,1.22,4.27-.83.5-2.61-1.51-5.3-3.74l.81-.59c1.3,1.14,2.19,1.93,2.68,1.63.22-.14.11-.59-.15-1.29Z" transform="translate(0 -0.25)"/><path class="cls-14" d="M50.67,21.1l.77.11c-.26.42-.5.84-.7,1.2-1.87,3.41-1.53,5.26-1.61,7.74a19.74,19.74,0,0,0,1.41,7.45l-.74.28c-.62-1.64-2.07-4.63-1.95-8.05.07-2-.21-3.45,1.28-6.17C49.54,22.92,50.18,21.91,50.67,21.1Z" transform="translate(0 -0.25)"/><path class="cls-15" d="M55.93,15c.16.26-1.32,2.52-2.52,4.5l-.94-.13c.51-.84.88-1.5.8-1.62-.3-.5-4,.94-5.22,1.47-4.58,2-4.62,2.15-9.87,5.31-4.29,2.58-8,5.55-7.82,6.19.25.84,6.11,1.78,9.73,3.24,6.28,2.54,10.14,8.45,11.49,7.63.28-.17.14-.73-.18-1.6l.91-.34c1.06,2.91,2.12,4.86,1.5,5.24-1.69,1-6.55-6.37-14.42-9.55-4.54-1.84-11.89-3-12.2-4.07-.24-.81,4.43-4.53,9.82-7.77,6.58-4,6.62-4.19,12.36-6.65C50.93,16.19,55.55,14.38,55.93,15Z" transform="translate(0 -0.25)"/><path class="cls-15" d="M52.47,19.38l.94.13c-.31.52-.62,1-.86,1.47-2.3,4.2-1.87,6.48-2,9.52a24.12,24.12,0,0,0,1.73,9.16L51.4,40c-.77-2-2.54-5.68-2.4-9.89.09-2.43-.25-4.24,1.58-7.59C51.07,21.61,51.87,20.37,52.47,19.38Z" transform="translate(0 -0.25)"/><path class="cls-16" d="M58.6,12c.2.32-1.61,3-3.07,5.45l-1.14-.15a5.57,5.57,0,0,0,1-2c-.37-.59-4.84,1.16-6.36,1.81-5.56,2.39-5.61,2.63-12,6.46-5.23,3.14-9.76,6.74-9.53,7.52.3,1,7.41,2.13,11.8,3.89,4.23,1.69,7.54,4.64,10,6.76L48,42.62a36.53,36.53,0,0,0-9.58-6c-5.5-2.2-14.43-3.59-14.8-4.88-.29-1,5.39-5.49,12-9.43,8-4.8,8.06-5.1,15-8.1C52.53,13.42,58.14,11.21,58.6,12Z" transform="translate(0 -0.25)"/><path class="cls-16" d="M54.12,41.83c1.28,3.5,2.55,5.86,1.79,6.33-1.24.75-3.89-2.23-7.89-5.54l1.22-.88c1.92,1.7,3.25,2.86,4,2.42.34-.21.17-.89-.22-1.93Z" transform="translate(0 -0.25)"/><path class="cls-16" d="M54.39,17.27l1.14.15c-.39.64-.76,1.25-1.06,1.79-2.8,5.09-2.29,7.84-2.43,11.53a29.2,29.2,0,0,0,2.08,11.09l-1.12.4c-.91-2.44-3-6.87-2.87-12,.12-2.94-.29-5.13,1.94-9.19C52.69,20,53.66,18.47,54.39,17.27Z" transform="translate(0 -0.25)"/><path d="M62.42,8c.24.4-2,3.78-3.84,6.75l-1.41-.17c.77-1.26,1.34-2.25,1.22-2.44-.45-.74-6,1.45-7.88,2.26-6.92,3-7,3.26-14.91,8-6.49,3.9-12.12,8.38-11.85,9.33.38,1.27,9.2,2.62,14.63,4.78,9.44,3.74,15.21,12.54,17.25,11.29.42-.25.22-1.09-.26-2.38l1.37-.51c1.58,4.33,3.16,7.25,2.21,7.83-2.55,1.56-9.79-9.48-21.63-14.17-6.81-2.71-17.88-4.4-18.34-6-.36-1.2,6.71-6.81,14.86-11.7,9.94-6,10-6.33,18.68-10.06C54.88,9.81,61.86,7.06,62.42,8Z" transform="translate(0 -0.25)"/><path d="M57.17,14.57l1.41.17c-.48.8-.94,1.56-1.31,2.23-3.49,6.3-2.87,9.7-3.06,14.26a36,36,0,0,0,2.53,13.69l-1.37.51c-1.13-3-3.77-8.48-3.52-14.78C52,27,51.5,24.31,54.29,19.29,55.05,17.92,56.26,16.06,57.17,14.57Z" transform="translate(0 -0.25)"/><ellipse class="cls-9" cx="39.46" cy="59.69" rx="9.13" ry="14.89" transform="translate(-30.65 45.13) rotate(-45)"/><path d="M73.35,26.77S65.25,35,66.66,44.58c.38,2.62,1.67,6.7,2.89,6.67.66,0,1.23-1.27,1.4-2.17.28-1.49-.44-2.39-1.33-5.06,0,0-.18-.55-.86-3.14C67.35,35.52,73.4,26.79,73.35,26.77Z" transform="translate(0 -0.25)"/></g></g></svg>