<svg xmlns="http://www.w3.org/2000/svg" viewBox="0 0 148.11 148.11"><defs><style>.cls-1{fill:#cc7aea;}.cls-2{fill:#611282;}.cls-3{fill:#c400ff;}.cls-4{fill:#ede972;}.cls-5{fill:#f9ff2e;}.cls-6{fill:#b2b20f;}.cls-7{fill:#a01d1a;}.cls-8{fill:#a36307;}.cls-9{fill:#fc9b00;}.cls-10{fill:#edb85a;}</style></defs><title>dodec</title><g id="Layer_2" data-name="Layer 2"><g id="Layer_1-2" data-name="Layer 1"><polygon class="cls-1" points="10.2 56.24 0 73.85 10.08 73.85 10.2 56.24"/><polygon class="cls-2" points="0 73.85 9.95 91.15 10.08 73.85 0 73.85"/><polygon class="cls-1" points="9.95 91.15 9.8 110.83 18.41 105.86 9.95 91.15"/><polygon class="cls-2" points="9.8 110.83 27 120.79 18.41 105.86 9.8 110.83"/><polygon class="cls-3" points="18.83 105.61 19.19 105.41 30.86 85.13 11.58 73.85 10.08 73.85 9.95 91.15 18.41 105.86 18.83 105.61"/><polygon class="cls-3" points="11.08 73.56 30.8 62.13 19.52 42.33 19.47 42.24 18.61 41.74 10.2 56.24 10.08 73.85 11.58 73.85 11.08 73.56"/><polygon class="cls-2" points="10.34 36.97 10.2 56.24 18.61 41.74 10.34 36.97"/><polygon class="cls-4" points="10.34 36.97 18.61 41.74 26.95 27.35 10.34 36.97"/><polygon class="cls-1" points="30.8 62.13 11.08 73.56 11.58 73.85 37.35 73.85 37.48 73.85 30.8 62.13"/><polygon class="cls-2" points="11.58 73.85 30.86 85.13 37.35 73.85 11.58 73.85"/><polygon class="cls-3" points="19.07 105.61 18.83 105.61 18.41 105.86 27 120.79 42.14 129.56 42.63 128.71 42.63 128.59 42.59 105.75 19.07 105.61"/><polygon class="cls-5" points="19.47 42.24 19.62 42.33 42.83 42.3 42.96 19.33 42.41 18.39 26.95 27.35 18.61 41.74 19.47 42.24"/><polygon class="cls-2" points="19.19 105.41 19.07 105.61 42.59 105.75 42.57 91.98 42.51 91.94 19.19 105.41"/><polygon class="cls-1" points="30.86 85.13 19.19 105.41 42.51 91.94 30.86 85.13"/><polygon class="cls-2" points="19.52 42.33 30.8 62.13 42.34 55.45 19.62 42.33 19.52 42.33"/><polygon class="cls-4" points="19.62 42.33 42.34 55.45 42.75 55.21 42.83 42.3 19.62 42.33"/><polygon class="cls-6" points="37.29 9.51 26.95 27.35 42.41 18.39 37.29 9.51"/><polygon class="cls-1" points="27 120.79 37.08 138.32 42.14 129.56 27 120.79"/><polygon class="cls-3" points="42.34 55.45 30.8 62.13 37.48 73.85 37.93 73.85 42.78 65.45 42.78 55.7 42.34 55.45"/><polygon class="cls-3" points="37.35 73.85 30.86 85.13 42.51 91.94 42.79 91.78 42.79 83.28 37.35 73.85"/><polygon class="cls-2" points="42.14 129.56 37.08 138.32 57 138.17 42.14 129.56"/><polygon class="cls-4" points="37.29 9.51 42.41 18.39 57.49 9.65 37.29 9.51"/><polygon class="cls-2" points="37.35 73.85 42.79 83.28 42.79 73.85 37.93 73.85 37.71 74.25 37.48 73.85 37.35 73.85"/><polygon class="cls-1" points="37.93 73.85 42.79 73.85 42.78 65.45 37.93 73.85"/><polygon class="cls-3" points="42.63 128.71 42.14 129.56 57 138.17 74.15 138.05 74.15 137.68 74.15 137.62 62.39 117.33 42.73 128.53 42.63 128.71"/><polygon class="cls-5" points="42.96 18.72 63.12 30.32 74.15 11.46 74.15 9.77 57.49 9.65 42.41 18.39 42.96 19.33 42.96 18.72"/><polygon class="cls-3" points="42.79 92.11 42.57 91.98 42.59 105.75 55.81 105.83 50.4 96.46 42.79 92.07 42.79 92.11"/><polygon class="cls-1" points="42.59 105.75 42.63 128.59 42.73 128.53 55.78 105.93 55.83 105.84 55.81 105.83 42.59 105.75"/><polygon class="cls-2" points="55.78 105.93 42.73 128.53 62.39 117.33 55.79 105.94 55.78 105.93"/><polygon class="cls-5" points="42.83 42.3 42.75 55.21 42.78 55.19 42.78 55.44 51.45 50.43 56.04 42.49 56 42.49 56.13 42.27 42.83 42.3"/><polygon class="cls-4" points="42.78 55.7 47 58.14 51.45 50.43 42.78 55.44 42.78 55.7"/><polygon class="cls-2" points="47 58.14 42.78 55.7 42.78 65.45 47 58.14"/><polygon class="cls-3" points="42.78 65.45 42.79 73.85 73.84 73.85 74.04 73.74 47 58.14 42.78 65.45"/><polygon class="cls-3" points="42.79 73.85 42.79 83.28 46.47 89.66 73.84 73.85 42.79 73.85"/><polygon class="cls-1" points="42.79 83.28 42.79 91.78 46.47 89.66 42.79 83.28"/><polygon class="cls-2" points="42.79 91.78 42.79 92.07 50.4 96.46 46.47 89.66 42.79 91.78"/><polygon class="cls-6" points="42.96 19.33 42.83 42.3 56.13 42.27 56.17 42.21 42.96 19.33"/><polygon class="cls-4" points="42.96 18.72 42.96 19.33 56.17 42.21 63.12 30.32 42.96 18.72"/><polygon class="cls-3" points="46.47 89.66 50.4 96.46 58.54 101.16 74.15 74.11 74.15 73.85 73.84 73.85 46.47 89.66"/><polygon class="cls-5" points="47 58.14 74.04 73.74 74.15 73.68 74.15 73.36 58.55 46.34 51.45 50.43 47 58.14"/><polygon class="cls-1" points="58.54 101.16 50.4 96.46 55.81 105.83 55.83 105.84 58.54 101.16"/><polygon class="cls-6" points="51.45 50.43 58.55 46.34 56.33 42.49 56.04 42.49 51.45 50.43"/><polygon class="cls-2" points="55.78 105.93 55.79 105.94 66.81 105.94 58.54 101.16 55.83 105.84 55.78 105.93"/><polygon class="cls-3" points="55.79 105.94 62.39 117.33 74.15 110.63 74.15 110.17 66.81 105.94 55.79 105.94"/><polygon class="cls-5" points="63.12 30.32 56.17 42.21 56.33 42.49 65.21 42.49 74.15 37.32 74.15 36.66 63.12 30.32"/><polygon class="cls-4" points="56.33 42.49 58.55 46.34 65.21 42.49 56.33 42.49"/><polygon class="cls-1" points="57 138.17 74.15 148.11 74.15 138.05 57 138.17"/><polygon class="cls-6" points="57.49 9.65 74.15 9.77 74.15 0 57.49 9.65"/><polygon class="cls-3" points="58.54 101.16 66.81 105.94 74.15 105.94 74.15 74.11 58.54 101.16"/><polygon class="cls-5" points="65.21 42.49 58.55 46.34 74.15 73.36 74.15 42.49 65.21 42.49"/><polygon class="cls-1" points="62.39 117.33 74.15 137.62 74.15 110.77 74.15 110.77 74.15 110.76 74.15 110.63 62.39 117.33"/><polygon class="cls-6" points="74.15 11.46 63.12 30.32 74.15 36.66 74.15 11.46"/><polygon class="cls-6" points="65.21 42.49 74.15 42.49 74.15 37.32 65.21 42.49"/><polygon class="cls-1" points="66.81 105.94 74.15 110.17 74.15 105.94 66.81 105.94"/><polygon class="cls-7" points="74.15 110.77 74.15 110.77 74.15 110.76 74.15 110.77"/><polygon class="cls-8" points="74.15 138.05 74.15 148.11 91.86 137.92 74.15 138.05"/><polygon class="cls-9" points="74.17 137.65 74.15 137.68 74.15 138.05 91.86 137.92 106.55 129.47 105.92 128.38 105.91 129.04 85.93 117.54 74.17 137.65"/><polygon class="cls-8" points="74.15 110.77 74.15 137.62 74.17 137.65 85.93 117.54 74.15 110.77"/><polygon class="cls-9" points="74.15 110.76 74.15 110.77 85.93 117.54 92.59 106.15 92.55 106.15 92.68 105.93 82.51 105.93 74.15 110.76"/><polygon class="cls-8" points="74.15 110.63 74.15 110.76 82.51 105.93 74.15 105.94 74.15 110.17 74.55 110.4 74.15 110.63"/><polygon class="cls-9" points="74.15 74.11 74.15 105.94 82.51 105.93 90.35 101.41 74.54 74.04 74.28 73.89 74.15 74.11"/><polygon class="cls-5" points="74.15 42.49 74.15 73.36 74.29 73.6 74.53 73.46 90.26 46.21 83.81 42.49 74.15 42.49"/><polygon class="cls-4" points="74.15 37.32 74.15 42.49 83.81 42.49 74.5 37.12 74.15 37.32"/><polygon class="cls-4" points="74.15 11.46 74.15 36.66 74.69 36.98 86 30.53 74.55 10.78 74.15 11.46"/><polygon class="cls-5" points="74.55 10.78 86 30.53 105.84 19.23 106.27 18.48 91.37 9.9 74.15 9.77 74.15 11.46 74.55 10.78"/><polygon class="cls-4" points="74.15 0 74.15 9.77 91.37 9.9 74.15 0"/><polygon class="cls-9" points="74.53 73.46 74.37 73.74 74.44 73.85 106.23 73.85 106.23 65.97 101.55 57.86 74.53 73.46"/><polygon class="cls-9" points="74.44 73.85 74.54 74.04 101.96 89.86 106.24 82.44 106.23 73.85 74.44 73.85"/><polygon class="cls-5" points="74.5 37.12 83.81 42.49 92.41 42.49 92.67 42.05 86 30.53 74.69 36.98 74.72 36.99 74.5 37.12"/><polygon class="cls-5" points="90.26 46.21 74.53 73.46 101.55 57.86 97.1 50.16 90.26 46.21"/><polygon class="cls-9" points="74.54 74.04 90.35 101.41 97.76 97.13 101.96 89.86 74.54 74.04"/><polygon class="cls-10" points="82.51 105.93 92.68 105.93 92.82 105.69 90.35 101.41 82.51 105.93"/><polygon class="cls-6" points="83.81 42.49 90.26 46.21 92.41 42.49 83.81 42.49"/><polygon class="cls-10" points="92.59 106.15 85.93 117.54 105.91 129.04 105.92 128.38 93.08 106.15 92.59 106.15"/><polygon class="cls-6" points="86 30.53 92.67 42.05 105.84 19.23 86 30.53"/><polygon class="cls-4" points="90.26 46.21 97.1 50.16 92.67 42.49 92.41 42.49 90.26 46.21"/><polygon class="cls-8" points="90.35 101.41 92.82 105.69 97.76 97.13 90.35 101.41"/><polygon class="cls-6" points="91.37 9.9 106.27 18.48 111.14 10.05 91.37 9.9"/><polygon class="cls-10" points="106.55 129.47 91.86 137.92 111.34 137.78 106.55 129.47"/><polygon class="cls-4" points="92.67 42.05 92.9 42.46 106.43 42.53 106.39 18.92 105.84 19.23 92.67 42.05"/><polygon class="cls-5" points="92.67 42.49 97.1 50.16 105.99 55.3 106.45 55.03 106.43 42.53 92.9 42.46 92.92 42.49 92.67 42.49"/><polygon class="cls-9" points="92.82 105.69 93.08 106.15 106.04 106.13 106.12 92.3 97.76 97.13 92.82 105.69"/><polygon class="cls-8" points="93.08 106.15 105.92 128.38 106.04 106.13 93.08 106.15"/><polygon class="cls-6" points="97.1 50.16 101.55 57.86 105.99 55.3 97.1 50.16"/><polygon class="cls-10" points="101.96 89.86 97.76 97.13 106.12 92.3 106.13 92.28 101.96 89.86"/><polygon class="cls-10" points="101.55 57.86 106.23 65.97 106.23 55.43 105.99 55.3 101.55 57.86"/><polygon class="cls-8" points="101.96 89.86 106.13 92.28 106.23 92.33 106.24 92.31 106.24 82.44 101.96 89.86"/><polygon class="cls-9" points="106.04 106.13 105.92 128.38 106.55 129.47 120.85 121.24 129.38 106.42 129.38 106.41 129.2 106.09 106.04 106.13"/><polygon class="cls-10" points="106.12 92.3 106.04 106.13 129.2 106.09 128.76 105.34 106.23 92.33 106.13 92.28 106.12 92.3"/><polygon class="cls-8" points="106.24 92.31 106.23 92.33 128.76 105.34 117.59 85.73 106.24 92.31"/><polygon class="cls-9" points="106.23 65.97 110.78 73.85 111.44 73.85 118.08 62.33 106.45 55.52 106.45 55.56 106.23 55.43 106.23 65.97"/><polygon class="cls-8" points="110.78 73.85 106.23 65.97 106.23 73.85 110.78 73.85"/><polygon class="cls-10" points="106.23 73.85 106.24 82.44 110.99 74.21 110.78 73.85 106.23 73.85"/><polygon class="cls-9" points="106.24 82.44 106.24 92.31 117.59 85.73 111.13 74.4 111.11 74.43 110.99 74.21 106.24 82.44"/><polygon class="cls-4" points="111.14 10.05 106.27 18.48 106.71 18.73 120.9 26.89 111.14 10.05"/><polygon class="cls-5" points="106.39 18.92 106.43 42.53 127.88 42.66 129.5 41.73 120.9 26.89 106.71 18.73 106.7 18.74 106.39 18.92"/><polygon class="cls-6" points="106.43 42.53 106.45 55.03 127.88 42.66 106.43 42.53"/><polygon class="cls-10" points="127.88 42.66 106.45 55.03 106.45 55.52 118.08 62.33 129.39 42.66 127.88 42.66"/><polygon class="cls-8" points="120.85 121.24 106.55 129.47 111.34 137.78 120.85 121.24"/><polygon class="cls-10" points="111.44 73.85 111.13 74.4 117.59 85.73 137.94 73.94 137.79 73.85 111.44 73.85"/><polygon class="cls-8" points="111.44 73.85 137.79 73.85 118.08 62.33 111.44 73.85"/><polygon class="cls-9" points="137.94 73.94 117.59 85.73 128.76 105.34 129.69 105.88 138.46 90.63 138.34 73.85 138.1 73.85 137.94 73.94"/><polygon class="cls-9" points="138.1 73.85 138.34 73.85 138.22 56.78 129.5 41.73 127.88 42.66 129.39 42.66 118.08 62.33 137.79 73.85 138.1 73.85"/><polygon class="cls-10" points="120.85 121.24 138.61 111.03 129.69 105.88 129.38 106.42 120.85 121.24"/><polygon class="cls-6" points="120.9 26.89 129.5 41.73 138.08 36.77 120.9 26.89"/><polygon class="cls-10" points="129.5 41.73 138.22 56.78 138.08 36.77 129.5 41.73"/><polygon class="cls-8" points="129.69 105.88 138.61 111.03 138.46 90.63 129.69 105.88"/><polygon class="cls-8" points="148.11 73.85 138.22 56.78 138.34 73.85 148.11 73.85"/><polygon class="cls-10" points="138.34 73.85 138.46 90.63 148.11 73.85 138.34 73.85"/></g></g></svg>