<svg xmlns="http://www.w3.org/2000/svg" viewBox="0 0 748.38 485.24"><defs><style>.cls-1,.cls-2,.cls-4,.cls-5{fill:none;stroke:#9f8730;stroke-miterlimit:10;}.cls-1{stroke-width:3px;}.cls-2{stroke-width:2px;}.cls-3{fill:#9f8730;}.cls-5{stroke-width:0.5px;}</style></defs><title>faces</title><g id="Layer_2" data-name="Layer 2"><g id="Layer_1-2" data-name="Layer 1"><path class="cls-1" d="M265.43,77.68c0,5.41,36.9,26.88,84,26.88,52.56,0,84-24.27,84-26.88" transform="translate(0 0)"/><path class="cls-2" d="M265.43,78.68c0-5.42,36.9-26.89,84-26.89,52.56,0,84,24.27,84,26.89" transform="translate(0 0)"/><path class="cls-3" d="M245.28,36.94a163,163,0,0,1,21.46-17.22,113.53,113.53,0,0,1,12.54-6c4.26-1.68,8.54-3.29,12.88-4.78,17.3-6,35.74-9.73,54.26-8.8S383,5.8,399.88,13A199.58,199.58,0,0,1,424.4,25.46,201.87,201.87,0,0,1,446,42.36c-7.73-4.85-15.55-9.46-23.63-13.52-2-1-3.88-2.28-5.88-3.31s-4-2.13-6-3.17c-4-2-8.1-3.94-12.24-5.7-16.54-7-34.16-11.73-52.07-12.52a122.23,122.23,0,0,0-13.4.13c-2.23.18-4.45.37-6.68.67s-4.46.59-6.66.95a165.24,165.24,0,0,0-26,6.83c-4.26,1.46-8.5,3.06-12.69,4.72a84.19,84.19,0,0,0-12,5.85C260.72,27.21,253,32.08,245.28,36.94Z" transform="translate(0 0)"/><path class="cls-3" d="M263.27,176.06a139.63,139.63,0,0,1-18.52-30.49,150.76,150.76,0,0,1-6.38-16.65c-1.7-5.7-3.11-11.45-4.29-17.27a140.72,140.72,0,0,1-2.52-17.6,107.47,107.47,0,0,1-.09-17.76,92.41,92.41,0,0,1,3-17.48A89.76,89.76,0,0,1,241,42.36a89.78,89.78,0,0,0-6.17,16.55,91.64,91.64,0,0,0-2.63,17.43A106.77,106.77,0,0,0,232.68,94a140.11,140.11,0,0,0,2.87,17.39c1.29,5.73,2.82,11.43,4.61,17a150.88,150.88,0,0,0,6.63,16.28,137,137,0,0,0,18.79,29.52Z" transform="translate(0 0)"/><path class="cls-3" d="M277.44,176.45a7.3,7.3,0,0,1,4,1.32,9.93,9.93,0,0,1,2.88,3.17,18,18,0,0,1,2.27,8.12,18.51,18.51,0,0,1-.24,4.26,15.08,15.08,0,0,1-1.25,4.14,12.44,12.44,0,0,1-6.11,6,25.42,25.42,0,0,1-16.2,1,19.36,19.36,0,0,1-7.31-4.07,19.89,19.89,0,0,1-2.85-3.15,18.76,18.76,0,0,1-1.16-1.82c-.17-.33-.34-.65-.5-1-.08-.18-.15-.37-.22-.58s-.07-.2-.11-.37l0-.24a2.17,2.17,0,0,1,0-.51l2.8.22a2.37,2.37,0,0,1-.36,1.2,5.58,5.58,0,0,1-.42.6c-.28.33-.55.6-.82.87a19.17,19.17,0,0,1-1.68,1.38,30.14,30.14,0,0,1-3.54,2.25,39.84,39.84,0,0,1-7.63,3.15,37.51,37.51,0,0,1-16.21,1.4v-.3A65.76,65.76,0,0,0,245,196.42c1.13-.62,2.25-1.23,3.3-1.93.52-.35,1-.71,1.47-1.08.22-.19.43-.38.6-.55a1.73,1.73,0,0,0,.17-.21c.05,0,0-.08,0,.27l2.81.22a.57.57,0,0,0,0-.26h0l0,.12a3.79,3.79,0,0,0,.12.36c.1.26.22.53.35.81a16,16,0,0,0,.9,1.61,20.54,20.54,0,0,0,2.28,3,17.27,17.27,0,0,0,6.17,4.42,16.93,16.93,0,0,0,7.64,1.19,14.67,14.67,0,0,0,7.3-2.37,12.59,12.59,0,0,0,4.5-5.66,19.75,19.75,0,0,0,.08-14.61,9.73,9.73,0,0,0-2-3.09,7.56,7.56,0,0,0-3.28-1.91Z" transform="translate(0 0)"/><circle class="cls-3" cx="349.44" cy="77.68" r="26.34"/><path class="cls-3" d="M249.2,73.85c2-.6,4-1.4,6-2.2s3.89-1.65,5.77-2.58c.94-.47,1.87-.95,2.75-1.48a11.1,11.1,0,0,0,2.38-1.86c1.51-1.46,3-3,4.5-4.51a74,74,0,0,1,10.54-7.51A99.35,99.35,0,0,1,292.66,48a159.45,159.45,0,0,1,24.4-7.86,176.64,176.64,0,0,1,25.28-4.22,142.79,142.79,0,0,1,50.83,5.29,172.41,172.41,0,0,1,24,8.9c3.8,2,7.48,4.17,11.07,6.46A97,97,0,0,1,438.63,64a151.18,151.18,0,0,0-22.7-11.17,158.37,158.37,0,0,0-23.58-8.8,140.22,140.22,0,0,0-49.75-5.19A174.74,174.74,0,0,0,317.76,43a157.89,157.89,0,0,0-23.94,7.7,96.43,96.43,0,0,0-11.2,5.56,74.63,74.63,0,0,0-10.15,7.2c-1.73,1.21-3.43,2.48-5.21,3.7a21,21,0,0,1-2.86,1.72c-1,.48-2,.89-3,1.28-2,.78-4,1.45-6.06,2.06S251.29,73.46,249.2,73.85Z" transform="translate(0 0)"/><path class="cls-3" d="M254,83.55a202.71,202.71,0,0,0,19.56,10.76,160.18,160.18,0,0,0,20.09,9.39,155.5,155.5,0,0,0,43.06,10c1.84.14,3.68.3,5.52.42l5.55.14c1.84.1,3.69,0,5.54,0s3.69,0,5.54-.21a150.33,150.33,0,0,0,22-2.87,159.33,159.33,0,0,0,21.36-5.91c3.58-1,7.1-2.15,10.61-3.38s7-2.62,10.43-4.07a146.11,146.11,0,0,1-20,10.28,162.31,162.31,0,0,1-21.76,6A151.94,151.94,0,0,1,359,117c-1.88.17-3.76.18-5.65.22s-3.76.13-5.65,0l-5.64-.15c-1.88-.11-3.76-.28-5.64-.42a158.9,158.9,0,0,1-43.89-10.16A167.4,167.4,0,0,1,272.11,97,141.92,141.92,0,0,1,254,83.55Z" transform="translate(0 0)"/><path class="cls-3" d="M416.37,67.27c-3.34-1.3,4,2.12,1.66,13.17-2.16,10.33-35.39,19.43-34.52,20.56,1.42,1.84,48.15-13.52,48.07-22.28C431.51,72,420.56,68.9,416.37,67.27Z" transform="translate(0 0)"/><path class="cls-3" d="M282.85,89.48c3.34,1.3-4-2.12-1.66-13.17,2.16-10.33,35.39-19.43,34.52-20.56-1.42-1.84-48.15,13.52-48.06,22.28C267.71,84.8,278.67,87.85,282.85,89.48Z" transform="translate(0 0)"/><path class="cls-3" d="M222.29,238.23A63.3,63.3,0,0,1,234,231.69a53,53,0,0,1,12.86-4,27.67,27.67,0,0,1,3.43-.35c.57,0,1.17,0,1.75,0l1.68.11,3.34.24,3.33.29a111.26,111.26,0,0,1,13.28,1.84,41.8,41.8,0,0,1,12.71,4.84,42.87,42.87,0,0,1,10.5,8.79,53.73,53.73,0,0,1,4.17,5.38,60.79,60.79,0,0,1,3.51,5.77,20.1,20.1,0,0,0,3.55,5.23c1.49,1.54,3.22,2.95,4.91,4.41l-.16.25a35.94,35.94,0,0,1-5.89-3.35,16.35,16.35,0,0,1-2.6-2.4c-.77-.91-1.41-1.86-2.05-2.77a110.87,110.87,0,0,0-7.85-10.42,46.47,46.47,0,0,0-9.55-8.55,50.63,50.63,0,0,0-24.6-8.09,56.27,56.27,0,0,0-6.62-.07l-1.66.08c-.52.07-1,.12-1.56.24-1,.18-2.08.49-3.13.77q-3.12.93-6.24,1.93c-2.1.62-4.16,1.37-6.24,2.07-4.15,1.44-8.25,3-12.44,4.59Z" transform="translate(0 0)"/><path class="cls-3" d="M232.13,72.67a48.75,48.75,0,0,1,2.79-18.44,52.55,52.55,0,0,1,9.42-16.34c.51-.6,1-1.19,1.55-1.79l1.63-1.7c.54-.58,1.11-1.12,1.68-1.66s1.13-1.1,1.73-1.61a63.65,63.65,0,0,1,7.53-5.67A55.82,55.82,0,0,1,266.73,21c1.45-.59,2.9-1.18,4.39-1.63a22.43,22.43,0,0,1,4.56-1,31.12,31.12,0,0,0-4.25,1.8c-1.37.67-2.71,1.41-4,2.18a77.74,77.74,0,0,0-7.6,5.06,79.5,79.5,0,0,0-13.17,12.42c-1,1.12-1.88,2.35-2.81,3.53s-1.73,2.46-2.52,3.74a59.66,59.66,0,0,0-4.23,8A70.72,70.72,0,0,0,232.13,72.67Z" transform="translate(0 0)"/><path class="cls-3" d="M221.48,259.41a127.28,127.28,0,0,1,21.87-3,149.17,149.17,0,0,1,21.87.3c7.24.67,14.4,1.76,21.5,3.11q5.31,1,10.6,2.2l5.27,1.2c1.76.38,3.5.84,5.28,1.1-1.8-.14-3.57-.47-5.35-.74l-5.34-.83q-5.34-.79-10.69-1.45c-7.14-.85-14.3-1.43-21.44-1.59a145.6,145.6,0,0,0-21.29,1.18,124.51,124.51,0,0,0-20.66,4.27Z" transform="translate(0 0)"/><path class="cls-3" d="M221.19,288.78a83.51,83.51,0,0,0,22.19-1.37,79.53,79.53,0,0,0,10.8-3,98.7,98.7,0,0,0,10.37-4.52,110,110,0,0,1,21.76-8,124.91,124.91,0,0,1,22.77-3.51,124,124,0,0,0-22.36,4.95,108.49,108.49,0,0,0-20.79,9.21,103.34,103.34,0,0,1-10.38,5.34,83.76,83.76,0,0,1-11.14,3.85,88.92,88.92,0,0,1-23.44,3Z" transform="translate(0 0)"/><path class="cls-3" d="M221.35,296.59c4-.65,19.36.29,28.46,8.22C262.07,315.5,261,334.09,261,333.67c0-9.83-4.89-19.6-11.14-24.77-9.12-7.53-23.68-8.48-27.92-8.26.06-2.24.06-2.87,0-3.89" transform="translate(0 0)"/><path class="cls-4" d="M236,360.39c0,1.78,12.16,8.86,27.68,8.86,17.33,0,27.69-8,27.69-8.86" transform="translate(0 0)"/><path class="cls-4" d="M236,360.89c0-1.79,12.16-8.87,27.68-8.87,17.33,0,27.69,8,27.69,8.87" transform="translate(0 0)"/><path class="cls-3" d="M229.39,347a48.88,48.88,0,0,1,6.9-6,37.06,37.06,0,0,1,4.17-2c1.42-.56,2.83-1.09,4.27-1.58a48,48,0,0,1,18-2.92,51.25,51.25,0,0,1,17.73,4.26,62.62,62.62,0,0,1,8.12,4.14,62.08,62.08,0,0,1,7,5.85c-2.63-1.49-5.25-2.92-8-4.16a69.58,69.58,0,0,0-7.9-4,49.3,49.3,0,0,0-17-4.1,45.94,45.94,0,0,0-17.28,2.81c-1.39.48-2.79,1-4.16,1.55a25.24,25.24,0,0,0-3.91,1.91C234.62,344,232,345.47,229.39,347Z" transform="translate(0 0)"/><path class="cls-3" d="M234.92,393.13a46.42,46.42,0,0,1-6-10.21,49.22,49.22,0,0,1-2.06-5.55c-.55-1.9-1-3.8-1.36-5.73a42.34,42.34,0,0,1-.74-11.72,30.54,30.54,0,0,1,1.06-5.77,29,29,0,0,1,2.21-5.41,29.05,29.05,0,0,0-2,5.47,29.39,29.39,0,0,0-.8,5.74,41.88,41.88,0,0,0,1.21,11.48c.45,1.87,1,3.74,1.58,5.56a47.18,47.18,0,0,0,2.23,5.3,44.14,44.14,0,0,0,6.24,9.57Z" transform="translate(0 0)"/><path class="cls-3" d="M240,392.94a2.8,2.8,0,0,1,2.25,1.48,5.9,5.9,0,0,1,.75,2.68,6,6,0,0,1-.49,2.76,4.13,4.13,0,0,1-2,2,7.31,7.31,0,0,1-2.65.61,7.44,7.44,0,0,1-2.69-.27,6.38,6.38,0,0,1-2.41-1.34,8.41,8.41,0,0,1-.94-1c-.13-.2-.27-.39-.38-.6l-.17-.34-.07-.19a1,1,0,0,1,0-.12l0-.08v-.17l.93.08a1,1,0,0,1-.26.59,2.42,2.42,0,0,1-.27.28,5.83,5.83,0,0,1-.55.46,8.51,8.51,0,0,1-1.17.74,12.28,12.28,0,0,1-2.52,1,14.12,14.12,0,0,1-2.65.52,11,11,0,0,1-2.69-.06v-.1a21.45,21.45,0,0,0,5-1.27,23.37,23.37,0,0,0,2.33-1.06c.37-.21.74-.41,1.08-.64a4.73,4.73,0,0,0,.49-.35l.19-.18c.06,0,.08-.17.06,0l.93.07v-.08h0a.1.1,0,0,1,0,0l0,.11c0,.09.07.18.11.27a5.54,5.54,0,0,0,.3.53,6,6,0,0,0,.75,1,5.77,5.77,0,0,0,2,1.45,5.41,5.41,0,0,0,4.92-.39,4,4,0,0,0,1.48-1.86,6.17,6.17,0,0,0,.48-2.38,6.07,6.07,0,0,0-.45-2.43A2.74,2.74,0,0,0,240,393Z" transform="translate(0 0)"/><circle class="cls-3" cx="263.71" cy="360.39" r="8.68"/><path class="cls-3" d="M230.68,359.12a32.56,32.56,0,0,0,3.78-1.76c.3-.17.59-.34.87-.53a2.6,2.6,0,0,0,.7-.63l1.37-1.62a27,27,0,0,1,7.41-4.44,57.9,57.9,0,0,1,16.52-4,47.46,47.46,0,0,1,16.94,1.76,59.92,59.92,0,0,1,8,2.95,37.54,37.54,0,0,1,6.84,5.07,58.29,58.29,0,0,0-7.7-3.21,49.12,49.12,0,0,0-7.69-2.89,45.66,45.66,0,0,0-16.22-1.68A55.61,55.61,0,0,0,245.58,352a25.94,25.94,0,0,0-6.91,4.12l-1.84,1.08a11,11,0,0,1-1,.54c-.34.15-.68.27-1,.39A25.68,25.68,0,0,1,230.68,359.12Z" transform="translate(0 0)"/><path class="cls-3" d="M232.26,362.32a63.41,63.41,0,0,0,6.45,3.54,51.44,51.44,0,0,0,35.35,5.54,53.57,53.57,0,0,0,7-1.95A58.39,58.39,0,0,0,288,367a48.44,48.44,0,0,1-6.61,3.39,54,54,0,0,1-7.17,2,51.92,51.92,0,0,1-14.82.86A52.53,52.53,0,0,1,245,369.89a53.64,53.64,0,0,1-6.74-3.15A49,49,0,0,1,232.26,362.32Z" transform="translate(0 0)"/><path class="cls-3" d="M285.77,357c-1.09-.42,1.32.7.55,4.34-.71,3.41-11.66,6.41-11.37,6.78.46.61,15.86-4.45,15.84-7.34C290.77,358.5,287.16,357.49,285.77,357Z" transform="translate(0 0)"/><path class="cls-3" d="M241.77,364.28c1.1.42-1.31-.7-.55-4.34.71-3.41,11.66-6.41,11.38-6.78-.47-.61-15.87,4.45-15.84,7.34C236.78,362.73,240.39,363.74,241.77,364.28Z" transform="translate(0 0)"/><path class="cls-3" d="M221.36,412.47a35.58,35.58,0,0,1,8.47-3,10.8,10.8,0,0,1,1.16-.16c.2,0,.41,0,.62,0l.56,0c.74,0,1.49.07,2.23.15a25.49,25.49,0,0,1,4.4.84,15.87,15.87,0,0,1,4.1,1.88,14.52,14.52,0,0,1,3.3,3,24.28,24.28,0,0,1,2.48,3.66,6.45,6.45,0,0,0,1.27,1.73,17,17,0,0,0,1.73,1.34,17,17,0,0,1-1.82-1.22,6.47,6.47,0,0,1-1.43-1.7,27.83,27.83,0,0,0-2.65-3.44,13.93,13.93,0,0,0-7.24-4.28,23.14,23.14,0,0,0-4.24-.58c-.71,0-1.43-.06-2.15,0h-.54a4.19,4.19,0,0,0-.47.05,7.77,7.77,0,0,0-1,.21,33.53,33.53,0,0,0-7.84,3.32Z" transform="translate(0 0)"/><path class="cls-3" d="M225.05,358.73A15.23,15.23,0,0,1,228.69,347a18.51,18.51,0,0,1,4.81-4.1,13,13,0,0,1,5.9-2,27.8,27.8,0,0,0-5,3.31,31.1,31.1,0,0,0-4.18,4.09,22.81,22.81,0,0,0-3.18,4.85A30.66,30.66,0,0,0,225.05,358.73Z" transform="translate(0 0)"/><path class="cls-3" d="M221.4,419.79a41.87,41.87,0,0,1,7.31-.87,48.81,48.81,0,0,1,7.26.22c2.39.27,4.76.67,7.09,1.16s4.64,1.1,6.95,1.61c-2.36-.26-4.7-.65-7.06-.87s-4.72-.39-7.06-.4a47.67,47.67,0,0,0-7,.52,39.67,39.67,0,0,0-6.71,1.52Z" transform="translate(0 0)"/><path class="cls-3" d="M221.46,429.45a27.23,27.23,0,0,0,7.21-.31,26.85,26.85,0,0,0,3.53-.9,31.78,31.78,0,0,0,3.42-1.42,36.25,36.25,0,0,1,7.25-2.53,41.18,41.18,0,0,1,7.54-1,41.4,41.4,0,0,0-7.33,1.75,35.92,35.92,0,0,0-6.77,3.14,32.67,32.67,0,0,1-3.42,1.83,28.72,28.72,0,0,1-3.7,1.35,30,30,0,0,1-7.83,1.12Z" transform="translate(0 0)"/><path class="cls-3" d="M221.5,432.54c1.33-.22,6.38.09,9.38,2.71,4,3.52,3.69,9.65,3.69,9.51a11.09,11.09,0,0,0-3.68-8.17c-3-2.48-7.8-2.79-9.2-2.72,0-.74,0-.94,0-1.28" transform="translate(0 0)"/><path class="cls-5" d="M227.18,455.36c0,.63,4.31,3.14,9.81,3.14,6.13,0,9.8-2.83,9.8-3.14" transform="translate(0 0)"/><path class="cls-5" d="M227.18,455.61c0-.63,4.31-3.14,9.81-3.14,6.13,0,9.8,2.84,9.8,3.14" transform="translate(0 0)"/><path class="cls-3" d="M224.83,450.6a16.82,16.82,0,0,1,2.37-2.24,19.55,19.55,0,0,1,3-1.28,17.1,17.1,0,0,1,6.44-1,18,18,0,0,1,6.33,1.52,20.65,20.65,0,0,1,2.89,1.47,21.72,21.72,0,0,1,2.39,2.2c-1-.48-1.91-1-2.89-1.35a22.6,22.6,0,0,0-2.78-1.4,17.18,17.18,0,0,0-6-1.44,15.77,15.77,0,0,0-6.06,1,15.29,15.29,0,0,0-2.83,1.22C226.74,449.62,225.8,450.13,224.83,450.6Z" transform="translate(0 0)"/><path class="cls-3" d="M226.68,467.05a16.41,16.41,0,0,1-2.13-3.66,17.42,17.42,0,0,1-1.19-4,15,15,0,0,1-.22-4.17,10.08,10.08,0,0,1,1.19-3.95,10,10,0,0,0-.94,4,15,15,0,0,0,.46,4.05,16.83,16.83,0,0,0,1.38,3.81,15.41,15.41,0,0,0,2.22,3.34Z" transform="translate(0 0)"/><path class="cls-3" d="M228.59,466.87a1,1,0,0,1,.89.49,2.19,2.19,0,0,1,.15,2.05,1.5,1.5,0,0,1-.82.73,3.89,3.89,0,0,1-2,.11,2.61,2.61,0,0,1-.93-.46,2.23,2.23,0,0,1-.37-.38,1.7,1.7,0,0,1-.15-.22.83.83,0,0,1-.07-.13.51.51,0,0,1-.06-.3l.7.06a.52.52,0,0,1-.07.23l-.06.09-.12.13-.21.18a2.42,2.42,0,0,1-.42.29,4.59,4.59,0,0,1-.93.36,3.72,3.72,0,0,1-2,0V470a13.34,13.34,0,0,0,1.72-.62l.79-.38.37-.2.15-.1.06,0h0a.25.25,0,0,0,0,.13l.7.06c0-.17,0-.07,0-.07l0,.08.09.17a2.19,2.19,0,0,0,.87.87,1.56,1.56,0,0,0,1.66-.14,1.46,1.46,0,0,0,.42-.64,2.11,2.11,0,0,0,.16-.77,1.41,1.41,0,0,0-.61-1.43Z" transform="translate(0 0)"/><circle class="cls-3" cx="236.99" cy="455.36" r="3.07"/><path class="cls-3" d="M225.29,454.91a10.84,10.84,0,0,0,1.31-.68,1.59,1.59,0,0,0,.53-.42l.44-.62a9.88,9.88,0,0,1,2.66-1.59,20.47,20.47,0,0,1,5.9-1.44,17.14,17.14,0,0,1,6.05.63,22.24,22.24,0,0,1,2.86,1,12.92,12.92,0,0,1,2.36,1.93,19.82,19.82,0,0,0-2.79-1,16.62,16.62,0,0,0-2.7-1,16.13,16.13,0,0,0-5.69-.59,19.61,19.61,0,0,0-5.6,1.36,9.42,9.42,0,0,0-2.41,1.43l-.69.35a3.61,3.61,0,0,1-.75.31A8.44,8.44,0,0,1,225.29,454.91Z" transform="translate(0 0)"/><path class="cls-3" d="M225.85,456.05a25.35,25.35,0,0,0,2.32,1.19,19.76,19.76,0,0,0,2.33,1.09,18.44,18.44,0,0,0,5,1.16,18.16,18.16,0,0,0,7.61-1,20.44,20.44,0,0,0,2.48-.8,16.7,16.7,0,0,1-2.31,1.27,18.91,18.91,0,0,1-2.55.71,17.93,17.93,0,0,1-5.27.3,18.29,18.29,0,0,1-5.15-1.19,19.18,19.18,0,0,1-2.39-1.11A16.61,16.61,0,0,1,225.85,456.05Z" transform="translate(0 0)"/><path class="cls-3" d="M244.8,454.15c-.39-.16.47.24.2,1.53s-4.14,2.27-4,2.4,5.62-1.58,5.61-2.6C246.57,454.69,245.29,454.34,244.8,454.15Z" transform="translate(0 0)"/><path class="cls-3" d="M229.22,456.74c.38.15-.47-.25-.2-1.54s4.13-2.27,4-2.4-5.62,1.58-5.61,2.6C227.45,456.19,228.73,456.55,229.22,456.74Z" transform="translate(0 0)"/><path class="cls-3" d="M221.92,473.68a12.56,12.56,0,0,1,3-1,3.11,3.11,0,0,1,.86-.05c.26,0,.53,0,.79.06a9.3,9.3,0,0,1,1.57.32,5.29,5.29,0,0,1,2.64,1.77c.72.79.94,1.9,1.91,2.41a2.91,2.91,0,0,1-1.18-1,10.27,10.27,0,0,0-.94-1.21,5,5,0,0,0-2.56-1.47,9.06,9.06,0,0,0-1.49-.19h-.75a2,2,0,0,0-.69.1,11.63,11.63,0,0,0-2.73,1.2Z" transform="translate(0 0)"/><path class="cls-3" d="M223.29,454.78a5.09,5.09,0,0,1,1.18-4.27,6.43,6.43,0,0,1,1.75-1.46,4.25,4.25,0,0,1,2.16-.61,12.39,12.39,0,0,0-1.71,1.26,13,13,0,0,0-1.43,1.45,8.72,8.72,0,0,0-1.14,1.66A16.18,16.18,0,0,0,223.29,454.78Z" transform="translate(0 0)"/><path class="cls-3" d="M222,476.43a16.86,16.86,0,0,1,5.15-.24c.85.09,1.68.23,2.51.4s1.64.38,2.47.56c-.84-.1-1.67-.24-2.51-.32s-1.67-.14-2.5-.14a16.35,16.35,0,0,0-4.85.7Z" transform="translate(0 0)"/><path class="cls-3" d="M222,479.85a9.55,9.55,0,0,0,2.56-.12,8.82,8.82,0,0,0,2.46-.83,13.54,13.54,0,0,1,5.24-1.27,13.33,13.33,0,0,0-5,1.72,9.52,9.52,0,0,1-2.52,1.11,10.28,10.28,0,0,1-2.76.39Z" transform="translate(0 0)"/><path class="cls-3" d="M222,480.91a5,5,0,0,1,3.32,1,4.58,4.58,0,0,1,1.3,3.37,3.88,3.88,0,0,0-1.3-2.89,5.36,5.36,0,0,0-3.26-1c0-.27,0-.34,0-.46" transform="translate(0 0)"/><path class="cls-1" d="M632,77.68c0,5.41-36.9,26.88-84,26.88-52.56,0-84-24.27-84-26.88" transform="translate(0 0)"/><path class="cls-2" d="M632,78.68c0-5.42-36.9-26.89-84-26.89-52.56,0-84,24.27-84,26.89" transform="translate(0 0)"/><path class="cls-3" d="M652.18,36.94c-7.73-4.86-15.43-9.73-23.48-13.65a84.71,84.71,0,0,0-12-5.85c-4.19-1.66-8.43-3.26-12.69-4.72a165.53,165.53,0,0,0-26-6.83c-2.2-.36-4.44-.68-6.66-.95s-4.45-.49-6.68-.67a122.23,122.23,0,0,0-13.4-.13c-17.91.79-35.54,5.49-52.07,12.52-4.14,1.76-8.22,3.67-12.24,5.7-2,1-4,2.08-6,3.17s-3.85,2.33-5.89,3.31c-8.07,4.06-15.89,8.67-23.63,13.52a203,203,0,0,1,21.64-16.9A199.58,199.58,0,0,1,497.59,13c16.89-7.18,35-12,53.46-12.84S588,3,605.31,8.94c4.34,1.49,8.61,3.1,12.88,4.78a113.53,113.53,0,0,1,12.54,6A162.9,162.9,0,0,1,652.18,36.94Z" transform="translate(0 0)"/><path class="cls-3" d="M631.88,174.15a136.6,136.6,0,0,0,18.79-29.52,148.93,148.93,0,0,0,6.64-16.28c1.79-5.58,3.32-11.28,4.61-17A140.11,140.11,0,0,0,664.79,94a107.88,107.88,0,0,0,.46-17.61,92.45,92.45,0,0,0-2.63-17.43,89.78,89.78,0,0,0-6.17-16.55A90.47,90.47,0,0,1,663,58.81a92.41,92.41,0,0,1,3,17.48,108.57,108.57,0,0,1-.09,17.76,142.6,142.6,0,0,1-2.52,17.6q-1.77,8.73-4.29,17.27a150.76,150.76,0,0,1-6.38,16.65,140,140,0,0,1-18.52,30.49Z" transform="translate(0 0)"/><path class="cls-3" d="M620.07,176.75a7.56,7.56,0,0,0-3.28,1.91,9.73,9.73,0,0,0-2,3.09,19.75,19.75,0,0,0,.08,14.61,12.53,12.53,0,0,0,4.5,5.66,14.64,14.64,0,0,0,7.3,2.37,17,17,0,0,0,7.64-1.19,17.24,17.24,0,0,0,6.16-4.42,20.61,20.61,0,0,0,2.29-3,18.26,18.26,0,0,0,.9-1.61c.13-.28.25-.55.35-.81a3.79,3.79,0,0,0,.12-.36s0-.12,0-.12h0a.57.57,0,0,0,0,.26l2.81-.22c0-.35-.07-.3,0-.27l.18.21c.17.17.38.36.6.55.45.37,1,.73,1.47,1.08,1.05.7,2.17,1.31,3.3,1.93a65.76,65.76,0,0,0,22.32,7.07v.3a37.51,37.51,0,0,1-16.21-1.4,39.84,39.84,0,0,1-7.63-3.15,30.14,30.14,0,0,1-3.54-2.25,19.17,19.17,0,0,1-1.68-1.38c-.27-.27-.54-.54-.82-.87a5.58,5.58,0,0,1-.42-.6,2.35,2.35,0,0,1-.37-1.2l2.81-.22a2.17,2.17,0,0,1,0,.51l0,.24a2.43,2.43,0,0,1-.1.37c-.07.21-.15.4-.23.58-.15.36-.32.68-.49,1a17.1,17.1,0,0,1-1.17,1.82A19,19,0,0,1,642,200.4a19.24,19.24,0,0,1-7.3,4.07,25.42,25.42,0,0,1-16.2-1,12.44,12.44,0,0,1-6.11-6,15.45,15.45,0,0,1-1.26-4.14,19.7,19.7,0,0,1-.24-4.26,18.15,18.15,0,0,1,2.28-8.12,9.82,9.82,0,0,1,2.88-3.17,7.3,7.3,0,0,1,4-1.32Z" transform="translate(0 0)"/><circle class="cls-3" cx="548.03" cy="77.68" r="26.34"/><path class="cls-3" d="M648.27,73.85c-2.09-.39-4.13-1-6.17-1.59S638,71,636,70.2c-1-.39-2-.8-3-1.28a20.94,20.94,0,0,1-2.85-1.72c-1.78-1.22-3.49-2.49-5.21-3.7a75.25,75.25,0,0,0-10.15-7.2,97.23,97.23,0,0,0-11.2-5.56A158,158,0,0,0,579.7,43a174.37,174.37,0,0,0-24.83-4.16,140.22,140.22,0,0,0-49.75,5.19,158.37,158.37,0,0,0-23.58,8.8A151.18,151.18,0,0,0,458.84,64a97.87,97.87,0,0,1,10.34-7.49c3.6-2.29,7.28-4.49,11.08-6.46a172.76,172.76,0,0,1,24-8.9,142.87,142.87,0,0,1,50.84-5.29,176.64,176.64,0,0,1,25.28,4.22A159.45,159.45,0,0,1,604.81,48a99.35,99.35,0,0,1,11.56,5.73,74,74,0,0,1,10.54,7.51c1.53,1.52,3,3,4.5,4.51a10.86,10.86,0,0,0,2.38,1.86c.88.53,1.81,1,2.75,1.48,1.88.93,3.82,1.77,5.77,2.58S646.24,73.25,648.27,73.85Z" transform="translate(0 0)"/><path class="cls-3" d="M643.46,83.55A141.92,141.92,0,0,1,625.36,97a168.24,168.24,0,0,1-20.47,9.53A158.75,158.75,0,0,1,561,116.65c-1.88.14-3.76.31-5.64.42l-5.65.15c-1.88.1-3.76,0-5.65,0s-3.76,0-5.64-.22A151.94,151.94,0,0,1,516,114.05a162.31,162.31,0,0,1-21.76-6,146.11,146.11,0,0,1-20-10.28c3.45,1.45,6.93,2.79,10.42,4.07s7,2.41,10.62,3.38a159.61,159.61,0,0,0,21.35,5.91,150.64,150.64,0,0,0,22,2.87c1.85.16,3.69.17,5.54.21s3.7.13,5.54,0l5.54-.14c1.85-.12,3.69-.28,5.53-.42a155.58,155.58,0,0,0,43.06-10,160.18,160.18,0,0,0,20.09-9.39A202.71,202.71,0,0,0,643.46,83.55Z" transform="translate(0 0)"/><path class="cls-3" d="M481.1,67.27c3.33-1.3-4,2.12-1.67,13.17C481.6,90.77,514.82,99.87,514,101c-1.42,1.84-48.15-13.52-48.07-22.28C466,72,476.91,68.9,481.1,67.27Z" transform="translate(0 0)"/><path class="cls-3" d="M614.61,89.48c-3.33,1.3,4-2.12,1.67-13.17C614.11,66,580.89,56.88,581.76,55.75c1.42-1.84,48.14,13.52,48.06,22.28C629.76,84.8,618.8,87.85,614.61,89.48Z" transform="translate(0 0)"/><path class="cls-3" d="M675,238.5c-4.19-1.55-8.29-3.15-12.44-4.59-2.08-.7-4.15-1.45-6.24-2.07s-4.17-1.31-6.24-1.93c-1-.28-2.09-.59-3.14-.77-.52-.12-1-.17-1.55-.24l-1.66-.08a56.24,56.24,0,0,0-6.62.07,50.63,50.63,0,0,0-24.6,8.09,46.22,46.22,0,0,0-9.55,8.55A112.72,112.72,0,0,0,595.14,256c-.63.91-1.27,1.86-2,2.77a16.35,16.35,0,0,1-2.6,2.4,35.94,35.94,0,0,1-5.89,3.35l-.16-.25c1.69-1.46,3.42-2.87,4.91-4.41a20.07,20.07,0,0,0,3.54-5.23,60.88,60.88,0,0,1,3.52-5.77,53.73,53.73,0,0,1,4.17-5.38,42.87,42.87,0,0,1,10.5-8.79,41.84,41.84,0,0,1,12.7-4.84A111.42,111.42,0,0,1,637.08,228l3.33-.29,3.34-.24,1.68-.11c.58,0,1.18,0,1.75,0a27.67,27.67,0,0,1,3.43.35,53,53,0,0,1,12.86,4,64,64,0,0,1,11.71,6.54Z" transform="translate(0 0)"/><path class="cls-3" d="M665.34,72.67a71.15,71.15,0,0,0-4.94-17.6,59.66,59.66,0,0,0-4.23-8c-.79-1.28-1.66-2.51-2.52-3.74s-1.79-2.41-2.81-3.53A79.5,79.5,0,0,0,637.67,27.4a77.74,77.74,0,0,0-7.6-5.06c-1.32-.77-2.66-1.51-4-2.18a30.48,30.48,0,0,0-4.24-1.8,22.58,22.58,0,0,1,4.56,1c1.49.45,2.94,1,4.39,1.63A55.82,55.82,0,0,1,639,25.46a64.48,64.48,0,0,1,7.53,5.67c.6.51,1.15,1.07,1.73,1.61s1.14,1.08,1.68,1.66l1.63,1.7c.52.6,1,1.19,1.54,1.79a52.39,52.39,0,0,1,9.43,16.34A48.94,48.94,0,0,1,665.34,72.67Z" transform="translate(0 0)"/><path class="cls-3" d="M674.37,265.18a124.51,124.51,0,0,0-20.66-4.27,145.6,145.6,0,0,0-21.29-1.18c-7.15.16-14.3.74-21.44,1.59q-5.36.65-10.69,1.45l-5.34.83c-1.78.27-3.56.6-5.35.74,1.78-.26,3.52-.72,5.28-1.1l5.27-1.2q5.28-1.19,10.6-2.2c7.1-1.35,14.26-2.44,21.5-3.11a149.17,149.17,0,0,1,21.87-.3,127.42,127.42,0,0,1,21.87,3Z" transform="translate(0 0)"/><path class="cls-3" d="M676.5,294.78a88.87,88.87,0,0,1-23.44-3,83.27,83.27,0,0,1-11.14-3.85,103.34,103.34,0,0,1-10.38-5.34,108.49,108.49,0,0,0-20.79-9.21,124,124,0,0,0-22.36-4.95A124.91,124.91,0,0,1,611.16,272a110.27,110.27,0,0,1,21.76,8,97.8,97.8,0,0,0,10.37,4.52,79.14,79.14,0,0,0,10.8,3,83.51,83.51,0,0,0,22.19,1.37Z" transform="translate(0 0)"/><path class="cls-3" d="M676.12,296.59c-4-.65-19.36.29-28.46,8.22-12.26,10.69-11.19,29.28-11.19,28.86,0-9.83,4.89-19.6,11.14-24.77,9.12-7.53,23.68-8.48,27.92-8.26-.06-2.24-.07-2.87,0-3.89" transform="translate(0 0)"/><path class="cls-4" d="M661.44,360.39c0,1.78-12.16,8.86-27.69,8.86-17.32,0-27.69-8-27.69-8.86" transform="translate(0 0)"/><path class="cls-4" d="M661.44,360.89c0-1.79-12.16-8.87-27.69-8.87-17.32,0-27.69,8-27.69,8.87" transform="translate(0 0)"/><path class="cls-3" d="M668.08,347c-2.63-1.49-5.23-3-7.91-4.2a25.24,25.24,0,0,0-3.91-1.91c-1.38-.55-2.77-1.07-4.17-1.55a45.86,45.86,0,0,0-17.27-2.81,49.3,49.3,0,0,0-17,4.1,70.57,70.57,0,0,0-7.91,4c-2.7,1.24-5.32,2.67-8,4.16a61.2,61.2,0,0,1,7-5.85,62.62,62.62,0,0,1,8.12-4.14,51.25,51.25,0,0,1,17.73-4.26,48.27,48.27,0,0,1,18,2.91c1.44.5,2.85,1,4.26,1.59a38.06,38.06,0,0,1,4.18,2A48.88,48.88,0,0,1,668.08,347Z" transform="translate(0 0)"/><path class="cls-3" d="M661,391.86a44.51,44.51,0,0,0,6.24-9.57,49.11,49.11,0,0,0,2.23-5.3c.61-1.82,1.13-3.69,1.57-5.56A41.5,41.5,0,0,0,672.26,360a30.17,30.17,0,0,0-.8-5.74,29.77,29.77,0,0,0-2-5.47,29.68,29.68,0,0,1,2.21,5.41,30.54,30.54,0,0,1,1.06,5.77,42.34,42.34,0,0,1-.74,11.72c-.37,1.93-.81,3.83-1.36,5.73a49.22,49.22,0,0,1-2.06,5.55,46.08,46.08,0,0,1-6.06,10.21Z" transform="translate(0 0)"/><path class="cls-3" d="M657.5,393a2.74,2.74,0,0,0-1.75,1.65,6.07,6.07,0,0,0-.45,2.43,6.17,6.17,0,0,0,.48,2.38,4,4,0,0,0,1.48,1.86,5.41,5.41,0,0,0,4.92.39,5.77,5.77,0,0,0,2-1.45,6.61,6.61,0,0,0,.75-1,3.92,3.92,0,0,0,.29-.53,1.59,1.59,0,0,0,.12-.27l0-.11v0h0a.11.11,0,0,0,0,.08l.93-.07c0-.19,0-.06.06,0l.19.18a4.73,4.73,0,0,0,.49.35c.34.23.71.43,1.08.64a23.37,23.37,0,0,0,2.33,1.06,21.49,21.49,0,0,0,5,1.27v.1a11,11,0,0,1-2.69.06,14.38,14.38,0,0,1-2.66-.52,12.43,12.43,0,0,1-2.51-1,8.51,8.51,0,0,1-1.17-.74,5.83,5.83,0,0,1-.55-.46,2.42,2.42,0,0,1-.27-.28,1,1,0,0,1-.26-.59l.93-.08v.17l0,.08a1,1,0,0,1,0,.12l-.08.19a3.54,3.54,0,0,1-.16.34,5.58,5.58,0,0,1-.39.6,8.33,8.33,0,0,1-.93,1,6.38,6.38,0,0,1-2.41,1.34,7.46,7.46,0,0,1-2.69.27,7.31,7.31,0,0,1-2.65-.61,4.09,4.09,0,0,1-2-2,5.87,5.87,0,0,1-.5-2.76,6,6,0,0,1,.76-2.68,2.8,2.8,0,0,1,2.25-1.48Z" transform="translate(0 0)"/><circle class="cls-3" cx="633.75" cy="360.39" r="8.68"/><path class="cls-3" d="M666.79,359.12a25.68,25.68,0,0,1-4.11-1c-.34-.12-.68-.24-1-.39a9.82,9.82,0,0,1-1-.54l-1.84-1.08a26,26,0,0,0-6.92-4.12A55.45,55.45,0,0,0,636,348.11a45.6,45.6,0,0,0-16.21,1.68,49.12,49.12,0,0,0-7.69,2.89,57.74,57.74,0,0,0-7.7,3.21,37.54,37.54,0,0,1,6.84-5.07,59.92,59.92,0,0,1,8-2.95,47.46,47.46,0,0,1,16.94-1.76,57.9,57.9,0,0,1,16.52,4,27,27,0,0,1,7.41,4.44l1.37,1.62a2.6,2.6,0,0,0,.7.63c.27.19.57.36.87.53A32.56,32.56,0,0,0,666.79,359.12Z" transform="translate(0 0)"/><path class="cls-3" d="M665.2,362.32a48.13,48.13,0,0,1-6,4.42,54.31,54.31,0,0,1-6.74,3.15A52.62,52.62,0,0,1,638,373.24a51.89,51.89,0,0,1-14.82-.86,54.16,54.16,0,0,1-7.18-2,48.9,48.9,0,0,1-6.6-3.39,58.39,58.39,0,0,0,6.94,2.45,53.57,53.57,0,0,0,7,1.95,50.66,50.66,0,0,0,14.54.84,52.48,52.48,0,0,0,20.81-6.38A62.21,62.21,0,0,0,665.2,362.32Z" transform="translate(0 0)"/><path class="cls-3" d="M611.69,357c1.1-.42-1.31.7-.55,4.34.72,3.41,11.67,6.41,11.38,6.78-.46.61-15.87-4.45-15.84-7.34C606.7,358.5,610.31,357.49,611.69,357Z" transform="translate(0 0)"/><path class="cls-3" d="M655.7,364.28c-1.1.42,1.31-.7.55-4.34-.72-3.41-11.67-6.41-11.38-6.78.47-.61,15.87,4.45,15.84,7.34C660.69,362.73,657.08,363.74,655.7,364.28Z" transform="translate(0 0)"/><path class="cls-3" d="M675.17,414.23a33.53,33.53,0,0,0-7.84-3.32,7.77,7.77,0,0,0-1-.21,4.12,4.12,0,0,0-.48-.05h-.53c-.72,0-1.44,0-2.16,0a23.15,23.15,0,0,0-4.23.58,14,14,0,0,0-7.25,4.28A27.75,27.75,0,0,0,649,419a6.47,6.47,0,0,1-1.43,1.7,16.17,16.17,0,0,1-1.83,1.22,15.06,15.06,0,0,0,1.73-1.34,6,6,0,0,0,1.27-1.73,24.34,24.34,0,0,1,2.49-3.66,14.52,14.52,0,0,1,3.3-3,16,16,0,0,1,4.09-1.88,25.6,25.6,0,0,1,4.41-.84c.74-.08,1.48-.13,2.23-.15l.55,0c.21,0,.43,0,.63,0a10.8,10.8,0,0,1,1.16.16,35.58,35.58,0,0,1,8.47,3Z" transform="translate(0 0)"/><path class="cls-3" d="M672.42,358.73a30.66,30.66,0,0,0-2-5.65,22.81,22.81,0,0,0-3.18-4.85,31.7,31.7,0,0,0-4.18-4.09,27.53,27.53,0,0,0-5-3.31,13,13,0,0,1,5.91,2,18.68,18.68,0,0,1,4.81,4.1A15.23,15.23,0,0,1,672.42,358.73Z" transform="translate(0 0)"/><path class="cls-3" d="M675.26,422.68a39.67,39.67,0,0,0-6.71-1.52,47.67,47.67,0,0,0-7-.52c-2.34,0-4.7.16-7.06.4s-4.7.61-7.07.87c2.32-.51,4.62-1.14,7-1.61s4.69-.89,7.09-1.16a48.72,48.72,0,0,1,7.25-.22,41.76,41.76,0,0,1,7.31.87Z" transform="translate(0 0)"/><path class="cls-3" d="M676.11,432.45a29.92,29.92,0,0,1-7.83-1.12,28.72,28.72,0,0,1-3.7-1.35,32.67,32.67,0,0,1-3.42-1.83,36.21,36.21,0,0,0-6.77-3.14,41.4,41.4,0,0,0-7.33-1.75,41.18,41.18,0,0,1,7.54,1,36.25,36.25,0,0,1,7.25,2.53,31,31,0,0,0,3.42,1.42,26.85,26.85,0,0,0,3.53.9,27.23,27.23,0,0,0,7.21.31Z" transform="translate(0 0)"/><path class="cls-3" d="M676,432.54c-1.33-.22-6.38.09-9.38,2.71-4,3.52-3.69,9.65-3.69,9.51a11.05,11.05,0,0,1,3.68-8.17c3-2.48,7.8-2.79,9.2-2.72,0-.74,0-.94,0-1.28" transform="translate(0 0)"/><path class="cls-5" d="M670.29,455.36c0,.63-4.31,3.14-9.81,3.14-6.13,0-9.81-2.83-9.81-3.14" transform="translate(0 0)"/><path class="cls-5" d="M670.29,455.61c0-.63-4.31-3.14-9.81-3.14-6.13,0-9.81,2.84-9.81,3.14" transform="translate(0 0)"/><path class="cls-3" d="M672.64,450.6c-1-.47-1.91-1-2.88-1.35a15.29,15.29,0,0,0-2.83-1.22,15.77,15.77,0,0,0-6.06-1,17.18,17.18,0,0,0-6,1.44,22.6,22.6,0,0,0-2.78,1.4c-1,.39-1.93.87-2.9,1.35a21.82,21.82,0,0,1,2.4-2.2,20.65,20.65,0,0,1,2.89-1.47,17.86,17.86,0,0,1,6.33-1.52,17.09,17.09,0,0,1,6.43,1,19.25,19.25,0,0,1,3,1.28A16.82,16.82,0,0,1,672.64,450.6Z" transform="translate(0 0)"/><path class="cls-3" d="M670,466.41a15.41,15.41,0,0,0,2.22-3.34,16.83,16.83,0,0,0,1.38-3.81,15,15,0,0,0,.46-4.05,10,10,0,0,0-.94-4,10.08,10.08,0,0,1,1.19,3.95,14.59,14.59,0,0,1-.23,4.17,17.39,17.39,0,0,1-1.18,4,16.81,16.81,0,0,1-2.13,3.66Z" transform="translate(0 0)"/><path class="cls-3" d="M668.89,466.94a1.42,1.42,0,0,0-.62,1.43,2.35,2.35,0,0,0,.17.77,1.46,1.46,0,0,0,.42.64,1.55,1.55,0,0,0,1.66.14,1.84,1.84,0,0,0,.64-.53,2.54,2.54,0,0,0,.23-.34l.09-.17,0-.08s0-.1,0,.07l.7-.06a.18.18,0,0,0,0-.13h0l0,0,.16.1.37.2.79.38a13.19,13.19,0,0,0,1.71.62v.07a3.69,3.69,0,0,1-1.95,0,4.37,4.37,0,0,1-.93-.36,3,3,0,0,1-.43-.29,1.68,1.68,0,0,1-.21-.18l-.11-.13-.06-.09a.52.52,0,0,1-.07-.23l.7-.06a.51.51,0,0,1-.06.3l-.07.13a1.7,1.7,0,0,1-.15.22,2.23,2.23,0,0,1-.37.38,2.61,2.61,0,0,1-.93.46,3.93,3.93,0,0,1-2-.11,1.57,1.57,0,0,1-.82-.73,2,2,0,0,1-.17-1.05,2.11,2.11,0,0,1,.32-1,1,1,0,0,1,.9-.49Z" transform="translate(0 0)"/><circle class="cls-3" cx="660.48" cy="455.36" r="3.07"/><path class="cls-3" d="M672.18,454.91a8.44,8.44,0,0,1-1.48-.3,3.93,3.93,0,0,1-.76-.31l-.68-.35a9.31,9.31,0,0,0-2.42-1.43,19.47,19.47,0,0,0-5.59-1.36,16.13,16.13,0,0,0-5.69.59,16.62,16.62,0,0,0-2.7,1,19.82,19.82,0,0,0-2.79,1,12.92,12.92,0,0,1,2.36-1.93,22.24,22.24,0,0,1,2.86-1,17.11,17.11,0,0,1,6.05-.63,20.32,20.32,0,0,1,5.89,1.44,9.73,9.73,0,0,1,2.66,1.59l.45.62a1.5,1.5,0,0,0,.53.42A9.53,9.53,0,0,0,672.18,454.91Z" transform="translate(0 0)"/><path class="cls-3" d="M671.62,456.05a16.61,16.61,0,0,1-2.08,1.63,19.18,19.18,0,0,1-2.39,1.11A18.29,18.29,0,0,1,662,460a17.93,17.93,0,0,1-5.27-.3,18.91,18.91,0,0,1-2.55-.71,16.15,16.15,0,0,1-2.31-1.27,20.44,20.44,0,0,0,2.48.8,18.16,18.16,0,0,0,7.61,1,18.28,18.28,0,0,0,5-1.16,19.17,19.17,0,0,0,2.34-1.09C670.09,456.89,670.86,456.48,671.62,456.05Z" transform="translate(0 0)"/><path class="cls-3" d="M652.67,454.15c.39-.16-.47.24-.2,1.53s4.13,2.27,4,2.4-5.62-1.58-5.61-2.6C650.9,454.69,652.18,454.34,652.67,454.15Z" transform="translate(0 0)"/><path class="cls-3" d="M668.25,456.74c-.39.15.47-.25.2-1.54s-4.13-2.27-4-2.4,5.62,1.58,5.61,2.6C670,456.19,668.74,456.55,668.25,456.74Z" transform="translate(0 0)"/><path class="cls-3" d="M675.08,474.56a11.63,11.63,0,0,0-2.73-1.2,2,2,0,0,0-.69-.1h-.76a9.08,9.08,0,0,0-1.48.19,4.92,4.92,0,0,0-2.56,1.47,11.25,11.25,0,0,0-1,1.21,2.82,2.82,0,0,1-1.17,1c1-.51,1.19-1.62,1.91-2.41a5.26,5.26,0,0,1,2.63-1.77,9.62,9.62,0,0,1,1.58-.32c.26,0,.53,0,.79-.06a3,3,0,0,1,.85.05,12.49,12.49,0,0,1,3,1Z" transform="translate(0 0)"/><path class="cls-3" d="M674.17,454.78a13.52,13.52,0,0,0-.81-2,8.24,8.24,0,0,0-1.13-1.66,13,13,0,0,0-1.43-1.45,12.39,12.39,0,0,0-1.71-1.26,4.25,4.25,0,0,1,2.16.61,6.43,6.43,0,0,1,1.75,1.46A5.08,5.08,0,0,1,674.17,454.78Z" transform="translate(0 0)"/><path class="cls-3" d="M675.19,477.39a16.4,16.4,0,0,0-4.85-.7c-.84,0-1.67.06-2.51.14s-1.66.22-2.5.32c.82-.18,1.64-.4,2.47-.56s1.66-.31,2.51-.4a16.86,16.86,0,0,1,5.15.24Z" transform="translate(0 0)"/><path class="cls-3" d="M675.48,480.85a10.35,10.35,0,0,1-2.77-.39,9.81,9.81,0,0,1-2.52-1.11,13.22,13.22,0,0,0-5-1.72,13.45,13.45,0,0,1,5.23,1.27,9,9,0,0,0,2.47.83,9.53,9.53,0,0,0,2.56.12Z" transform="translate(0 0)"/><path class="cls-3" d="M675.43,480.91a5,5,0,0,0-3.32,1,4.61,4.61,0,0,0-1.31,3.37,3.91,3.91,0,0,1,1.3-2.89,5.4,5.4,0,0,1,3.26-1v-.46" transform="translate(0 0)"/><path class="cls-1" d="M423,200.15c0,3.14-21.41,15.6-48.74,15.6-30.49,0-48.73-14.08-48.73-15.6" transform="translate(0 0)"/><path class="cls-2" d="M423,201.15c0-3.14-21.41-15.6-48.74-15.6-30.49,0-48.73,14.09-48.73,15.6" transform="translate(0 0)"/><path class="cls-3" d="M434.71,176.52c-4.71-2.54-9.32-5.14-14-7.17a45.79,45.79,0,0,0-6.85-3.37c-2.42-.95-4.87-1.88-7.32-2.72a96.34,96.34,0,0,0-15-3.93c-2.53-.41-5.11-.74-7.65-.93a70.44,70.44,0,0,0-7.69-.07,86.58,86.58,0,0,0-29.91,7.2c-2.38,1-4.73,2.11-7.05,3.28-1.15.6-2.3,1.19-3.44,1.82s-2.19,1.4-3.4,1.9c-4.78,2.12-9.44,4.58-14.13,7.13a107,107,0,0,1,12.14-10.51,113.33,113.33,0,0,1,14.31-7.31A90.8,90.8,0,0,1,376,154.33c10.87-.55,21.68,1.66,31.78,5.15,2.54.87,5,1.8,7.51,2.79a72.44,72.44,0,0,1,7.39,3.51A82.89,82.89,0,0,1,434.71,176.52Z" transform="translate(0 0)"/><path class="cls-3" d="M422.44,255.72a78.69,78.69,0,0,0,11-16.93,85.59,85.59,0,0,0,3.9-9.36c1.06-3.21,2-6.51,2.75-9.81a81.49,81.49,0,0,0,1.73-10.05,62,62,0,0,0,.35-10.19,53.94,53.94,0,0,0-1.45-10.1,51.75,51.75,0,0,0-3.5-9.62,52.16,52.16,0,0,1,3.86,9.52,54.59,54.59,0,0,1,1.84,10.15,62.63,62.63,0,0,1,0,10.34,82.39,82.39,0,0,1-1.39,10.26c-.66,3.39-1.45,6.73-2.42,10.07a87.61,87.61,0,0,1-3.65,9.74,81.32,81.32,0,0,1-10.68,17.88Z" transform="translate(0 0)"/><path class="cls-3" d="M416.09,257.69a4.79,4.79,0,0,0-2.78,3,11.25,11.25,0,0,0-.59,4.12,11.47,11.47,0,0,0,.83,4,6.94,6.94,0,0,0,6.34,4.7,9,9,0,0,0,4.33-.76,10,10,0,0,0,3.34-2.64,13.8,13.8,0,0,0,1.2-1.7,9.7,9.7,0,0,0,.47-.9c.06-.14.13-.29.17-.42l.05-.17s0-.05,0,0v0a.81.81,0,0,0,0,.31l2.81-.22c0-.42-.1-.43-.1-.46s0,0,.06,0l.29.25c.25.18.52.38.82.56.58.37,1.22.71,1.86,1.05,1.29.67,2.61,1.3,4,1.88a52.68,52.68,0,0,0,8.65,2.76v.3a16.45,16.45,0,0,1-4.8.45,21.15,21.15,0,0,1-4.8-.75,19.82,19.82,0,0,1-4.55-1.81,16.5,16.5,0,0,1-2.1-1.38,9.9,9.9,0,0,1-1-.86,7.53,7.53,0,0,1-.52-.57,3.49,3.49,0,0,1-.3-.43,2,2,0,0,1-.29-1l2.8-.23a1.77,1.77,0,0,1,0,.46l0,.19a2.08,2.08,0,0,1-.08.26,3.77,3.77,0,0,1-.15.38c-.1.23-.21.43-.32.63a8.75,8.75,0,0,1-.73,1.1,11.22,11.22,0,0,1-1.77,1.87,11.56,11.56,0,0,1-4.48,2.28,14.47,14.47,0,0,1-4.84.4,15.68,15.68,0,0,1-4.82-.95,7.33,7.33,0,0,1-3.89-3.55,10.28,10.28,0,0,1-.88-5.12,10.46,10.46,0,0,1,1.52-4.86A5.84,5.84,0,0,1,413.6,258a4.17,4.17,0,0,1,2.44-.64Z" transform="translate(0 0)"/><circle class="cls-3" cx="374.28" cy="200.15" r="15.28"/><path class="cls-3" d="M432.43,197.93a46.68,46.68,0,0,1-7.19-1.88c-.6-.21-1.19-.43-1.78-.7a16.37,16.37,0,0,1-1.75-1l-3.17-2a46.31,46.31,0,0,0-12.24-7.29,89.06,89.06,0,0,0-13.79-4.45,101,101,0,0,0-14.31-2.39,80.44,80.44,0,0,0-28.64,3A88.72,88.72,0,0,0,336,186.34a99.84,99.84,0,0,0-13.44,5.9,67.58,67.58,0,0,1,12.15-8.68,103.8,103.8,0,0,1,14.05-5.18,83.25,83.25,0,0,1,29.72-3.09,101.82,101.82,0,0,1,14.75,2.47,92.4,92.4,0,0,1,14.25,4.59,48.06,48.06,0,0,1,13,7.78l2.46,2.78a5.21,5.21,0,0,0,1.29,1.11c.49.32,1,.61,1.54.9A56.09,56.09,0,0,0,432.43,197.93Z" transform="translate(0 0)"/><path class="cls-3" d="M429.64,203.56a75.92,75.92,0,0,1-10.19,8.34,102.08,102.08,0,0,1-11.95,5.56,93,93,0,0,1-25.63,5.93,91.52,91.52,0,0,1-26.27-1.52,95,95,0,0,1-12.71-3.52,75,75,0,0,1-11.42-6.56,120.83,120.83,0,0,0,12.42,3.74,93.75,93.75,0,0,0,12.3,3.4,88.55,88.55,0,0,0,25.42,1.47A91,91,0,0,0,418,209.24C421.94,207.58,425.79,205.63,429.64,203.56Z" transform="translate(0 0)"/><path class="cls-3" d="M335.45,194.11c1.94-.75-2.31,1.23-1,7.64,1.25,6,20.53,11.28,20,11.93-.83,1.07-27.94-7.84-27.89-12.92C326.67,196.83,333,195.06,335.45,194.11Z" transform="translate(0 0)"/><path class="cls-3" d="M412.91,207c-1.93.75,2.31-1.23,1-7.64-1.26-6-20.53-11.28-20-11.93.82-1.07,27.93,7.84,27.88,12.92C421.7,204.28,415.34,206.05,412.91,207Z" transform="translate(0 0)"/><path class="cls-3" d="M447.94,293.5c-2.55-.67-5-1.48-7.38-2.24s-4.82-1.48-7.16-2.32c-.58-.19-1.17-.4-1.75-.54-.3-.09-.57-.13-.86-.19l-1-.07a25.78,25.78,0,0,0-3.83-.07,25.27,25.27,0,0,0-7.42,1.58,33.66,33.66,0,0,0-6.56,3.41,26.79,26.79,0,0,0-5.33,4.93c-1.59,1.86-3.11,3.83-4.61,5.87-.39.51-.79,1.06-1.28,1.6a9.3,9.3,0,0,1-1.64,1.39,17.09,17.09,0,0,1-3.62,1.72l-.16-.25c.9-1,1.86-1.85,2.64-2.78a12.58,12.58,0,0,0,1.82-3.05,30.9,30.9,0,0,1,4.42-6.63,24.83,24.83,0,0,1,6.3-5.14,22.81,22.81,0,0,1,7.59-2.64c2.61-.46,5.2-.67,7.78-.92.65-.06,1.29-.13,1.94-.22s1.29-.11,1.94-.19l1-.12c.35,0,.72-.06,1.06-.05a15.22,15.22,0,0,1,2,.11,24.23,24.23,0,0,1,7.55,2.34,28.35,28.35,0,0,1,6.64,4.21Z" transform="translate(0 0)"/><path class="cls-3" d="M442.34,197.25a48.78,48.78,0,0,0-3.32-10,39.36,39.36,0,0,0-5.58-8.63,53.37,53.37,0,0,0-7.44-7.2,51.59,51.59,0,0,0-4.26-3.06,32.57,32.57,0,0,0-4.67-2.59,17.7,17.7,0,0,1,5.34,1.26,30.69,30.69,0,0,1,4.94,2.45,33.42,33.42,0,0,1,8.38,7.22,28.07,28.07,0,0,1,3.19,4.59,27,27,0,0,1,3.42,16Z" transform="translate(0 0)"/><path class="cls-3" d="M447.24,310.14a69.52,69.52,0,0,0-11.74-2.75,83.25,83.25,0,0,0-12.23-1c-4.12,0-8.27.22-12.42.61-2.07.19-4.15.43-6.22.69s-4.14.59-6.23.75c2-.41,4.05-1,6.09-1.49s4.08-1,6.13-1.43c4.11-.89,8.27-1.63,12.48-2.12a87,87,0,0,1,12.81-.49,74.86,74.86,0,0,1,12.94,1.45Z" transform="translate(0 0)"/><path class="cls-3" d="M448.85,327.36A53,53,0,0,1,435,325.29a48.88,48.88,0,0,1-6.54-2.43,58.43,58.43,0,0,1-6-3.27,62.12,62.12,0,0,0-11.86-5.6,72.13,72.13,0,0,0-12.88-3.17A72.33,72.33,0,0,1,411,312.55a64.34,64.34,0,0,1,12.83,4.38,54.52,54.52,0,0,0,6,2.44,44.53,44.53,0,0,0,6.2,1.53,47.2,47.2,0,0,0,12.61.46Z" transform="translate(0 0)"/><path class="cls-3" d="M448.59,327.15c-2.34-.38-11.23.17-16.51,4.77-7.11,6.2-6.49,17-6.49,16.74a19.45,19.45,0,0,1,6.46-14.37c5.29-4.37,13.74-4.92,16.2-4.79,0-1.3,0-1.67,0-2.26" transform="translate(0 0)"/><path class="cls-4" d="M440.08,364.16c0,1-7.06,5.14-16.07,5.14-10.05,0-16.06-4.64-16.06-5.14" transform="translate(0 0)"/><path class="cls-4" d="M440.08,364.66c0-1-7.06-5.14-16.07-5.14-10.05,0-16.06,4.64-16.06,5.14" transform="translate(0 0)"/><path class="cls-3" d="M443.93,356.37c-1.64-.72-3.22-1.49-4.8-2.06a13.48,13.48,0,0,0-2.22-1.1c-.79-.31-1.59-.61-2.39-.89a26.19,26.19,0,0,0-9.87-1.6,28.14,28.14,0,0,0-9.74,2.35,40.12,40.12,0,0,0-4.54,2.28c-1.61.61-3.2,1.32-4.83,2a33.85,33.85,0,0,1,3.83-3.74,35,35,0,0,1,4.76-2.44,30.08,30.08,0,0,1,10.43-2.5,28,28,0,0,1,10.61,1.71c.84.29,1.66.6,2.49.93a25.47,25.47,0,0,1,2.48,1.17A24.13,24.13,0,0,1,443.93,356.37Z" transform="translate(0 0)"/><path class="cls-3" d="M439.5,382.15a25.31,25.31,0,0,0,3.65-5.41,26,26,0,0,0,1.33-3c.37-1,.69-2.11,1-3.19a24.14,24.14,0,0,0,.81-6.61,16.27,16.27,0,0,0-1.51-6.51,16.52,16.52,0,0,1,2,6.48,25,25,0,0,1-.33,6.85c-.2,1.13-.44,2.24-.74,3.36a30.16,30.16,0,0,1-1.16,3.27,27.51,27.51,0,0,1-3.48,6.06Z" transform="translate(0 0)"/><path class="cls-3" d="M437.79,383.12c-1,.4-1.1,1.46-1.1,2.35a3.72,3.72,0,0,0,.27,1.3,2.23,2.23,0,0,0,.75,1.06,2.71,2.71,0,0,0,2.76.23,3.22,3.22,0,0,0,1.1-.86,4,4,0,0,0,.39-.56l.16-.29a1.21,1.21,0,0,0,.05-.14s0,0,0,0,0,0,0,.11l.93-.08c0-.23,0-.14,0-.14l.1.08a1.74,1.74,0,0,0,.26.19c.2.12.41.23.62.34a14.3,14.3,0,0,0,1.31.62,15.57,15.57,0,0,0,2.85.91v.1a6.84,6.84,0,0,1-4.67-.69,5.1,5.1,0,0,1-.69-.45l-.34-.29c-.05-.06-.11-.11-.17-.19a.73.73,0,0,1-.19-.47l.93-.07a.69.69,0,0,1,0,.29.89.89,0,0,1-.05.13,1,1,0,0,1-.11.21,2.25,2.25,0,0,1-.24.36,3.11,3.11,0,0,1-.58.62,3.92,3.92,0,0,1-1.48.75,4.78,4.78,0,0,1-1.59.13,5.1,5.1,0,0,1-1.6-.31,2.47,2.47,0,0,1-1.28-1.17,3.56,3.56,0,0,1-.29-1.69,3.49,3.49,0,0,1,.5-1.6,1.68,1.68,0,0,1,1.42-.83Z" transform="translate(0 0)"/><circle class="cls-3" cx="424.01" cy="364.16" r="5.04"/><path class="cls-3" d="M443.18,363.43a15.1,15.1,0,0,1-2.46-.43c-.2-.06-.41-.12-.62-.2s-.46-.23-.66-.29l-1.16-.52a15.08,15.08,0,0,0-3.91-2.32,32,32,0,0,0-9.11-2.22,26.19,26.19,0,0,0-9.26,1,25.52,25.52,0,0,0-4.39,1.65,41.6,41.6,0,0,0-4.65,1.47,19.39,19.39,0,0,1,3.79-3.32,35.89,35.89,0,0,1,4.71-1.73,28.13,28.13,0,0,1,10-1,34.07,34.07,0,0,1,9.72,2.37,16.09,16.09,0,0,1,4.4,2.64l.69,1a1.2,1.2,0,0,0,.34.39,4.07,4.07,0,0,0,.48.33A19,19,0,0,0,443.18,363.43Z" transform="translate(0 0)"/><path class="cls-3" d="M442.26,365.28A25.49,25.49,0,0,1,438.9,368a31.37,31.37,0,0,1-3.94,1.84,30.59,30.59,0,0,1-17.11,1.45,30.61,30.61,0,0,1-4.19-1.16A27.35,27.35,0,0,1,409.9,368a38.38,38.38,0,0,0,4.1,1.22,30,30,0,0,0,4.05,1.12,29.09,29.09,0,0,0,8.38.49,29.45,29.45,0,0,0,8.17-1.9,28.78,28.78,0,0,0,3.82-1.78A39.94,39.94,0,0,0,442.26,365.28Z" transform="translate(0 0)"/><path class="cls-3" d="M411.22,362.17c.63-.25-.77.4-.32,2.52s6.76,3.71,6.6,3.93-9.21-2.59-9.19-4.26C408.32,363.06,410.41,362.48,411.22,362.17Z" transform="translate(0 0)"/><path class="cls-3" d="M436.74,366.42c-.63.24.77-.41.32-2.52s-6.76-3.72-6.6-3.93c.27-.36,9.21,2.58,9.19,4.26C439.64,365.52,437.55,366.1,436.74,366.42Z" transform="translate(0 0)"/><path class="cls-3" d="M447.84,395.76a19.27,19.27,0,0,0-4.42-2c-.18,0-.37-.1-.54-.13l-.24,0h-.31q-.61,0-1.23,0a13.11,13.11,0,0,0-2.43.28,7.93,7.93,0,0,0-4.17,2.36,17.53,17.53,0,0,0-1.56,1.95,3.86,3.86,0,0,1-.87,1,9.32,9.32,0,0,1-1.08.68,4.51,4.51,0,0,0,1.69-1.81,13.21,13.21,0,0,1,1.41-2.17,8.73,8.73,0,0,1,4.32-3,14.55,14.55,0,0,1,2.59-.54c.44-.05.87-.09,1.31-.11l.33,0H443a5.29,5.29,0,0,1,.71.09,21.21,21.21,0,0,1,5.05,1.66Z" transform="translate(0 0)"/><path class="cls-3" d="M446.44,363.2A26.52,26.52,0,0,0,445,360a16.6,16.6,0,0,0-1.85-2.66,27,27,0,0,0-2.3-2.37,24.17,24.17,0,0,0-2.71-2.19,6.62,6.62,0,0,1,3.61.89,9.71,9.71,0,0,1,2.92,2.38A7.94,7.94,0,0,1,446.44,363.2Z" transform="translate(0 0)"/><path class="cls-3" d="M447.92,400.9a21.81,21.81,0,0,0-3.76-1,26.66,26.66,0,0,0-4-.46c-1.36-.05-2.72,0-4.09.07s-2.75.25-4.13.35c1.34-.34,2.66-.77,4-1.09s2.72-.62,4.12-.83a29,29,0,0,1,4.27-.28,25.34,25.34,0,0,1,4.37.36Z" transform="translate(0 0)"/><path class="cls-3" d="M448.61,406.6a18,18,0,0,1-4.67-.82,16.64,16.64,0,0,1-4.17-2,20.6,20.6,0,0,0-3.83-1.95,23.83,23.83,0,0,0-4.21-1.17,24.54,24.54,0,0,1,4.42.45,22,22,0,0,1,4.31,1.34,14.15,14.15,0,0,0,4,1.16,14.85,14.85,0,0,0,4.05,0Z" transform="translate(0 0)"/><path class="cls-3" d="M448.51,406a8.12,8.12,0,0,0-5.45,1.57c-2.34,2-2.14,5.6-2.14,5.52a6.47,6.47,0,0,1,2.13-4.74,8.92,8.92,0,0,1,5.34-1.58c0-.43,0-.55,0-.74" transform="translate(0 0)"/><path class="cls-5" d="M445.21,419.26c0,.36-2.5,1.82-5.69,1.82-3.56,0-5.69-1.65-5.69-1.82" transform="translate(0 0)"/><path class="cls-5" d="M445.21,419.51c0-.37-2.5-1.82-5.69-1.82-3.56,0-5.69,1.64-5.69,1.82" transform="translate(0 0)"/><path class="cls-3" d="M446.57,416.5c-.62-.21-1.2-.44-1.77-.6a8.07,8.07,0,0,0-1.61-.7,9.27,9.27,0,0,0-3.44-.56,9.9,9.9,0,0,0-3.4.82,15.76,15.76,0,0,0-1.59.8c-.59.18-1.17.39-1.78.6a10.89,10.89,0,0,1,1.28-1.45,11.83,11.83,0,0,1,1.7-.87,10.91,10.91,0,0,1,3.75-.9,10,10,0,0,1,3.81.62,11.67,11.67,0,0,1,1.78.75A7.78,7.78,0,0,1,446.57,416.5Z" transform="translate(0 0)"/><path class="cls-3" d="M444.89,425.54a9.52,9.52,0,0,0,2.15-4,8.73,8.73,0,0,0,.32-2.33,5.86,5.86,0,0,0-.5-2.31,6,6,0,0,1,.75,2.3,9.08,9.08,0,0,1-.08,2.44,10.22,10.22,0,0,1-1.87,4.57Z" transform="translate(0 0)"/><path class="cls-3" d="M444.4,426c-.29.23-.24.53-.23.82a1.93,1.93,0,0,0,.09.38.91.91,0,0,0,.16.35.71.71,0,0,0,.9.1,1.08,1.08,0,0,0,.31-.33,1.74,1.74,0,0,0,.1-.19l0-.09a0,0,0,0,0,0,0s0-.07,0,.11l.7-.05a.31.31,0,0,0,0-.15v0h0l.08,0,.2.1.42.22,1,.49v.07a1.79,1.79,0,0,1-1.18.13,1.71,1.71,0,0,1-.57-.21,1.1,1.1,0,0,1-.26-.18.71.71,0,0,1-.13-.12.36.36,0,0,1-.08-.09l-.05-.07a.47.47,0,0,1-.06-.21l.7-.06a.4.4,0,0,1-.05.25l0,.08-.11.15a1.31,1.31,0,0,1-.24.23,1.65,1.65,0,0,1-.6.24,3.81,3.81,0,0,1-1.21,0,.94.94,0,0,1-.56-.44,1.26,1.26,0,0,1-.11-.68,1.28,1.28,0,0,1,.24-.61.59.59,0,0,1,.6-.26Z" transform="translate(0 0)"/><circle class="cls-3" cx="439.52" cy="419.26" r="1.78"/><path class="cls-3" d="M446.31,419a5.51,5.51,0,0,1-.9-.1,2.51,2.51,0,0,1-.49-.16l-.44-.14a5.23,5.23,0,0,0-1.35-.8A11.21,11.21,0,0,0,440,417a8.84,8.84,0,0,0-3.23.34,8.59,8.59,0,0,0-1.53.58c-.56.1-1.13.22-1.71.38a6.36,6.36,0,0,1,1.28-1.31,14.17,14.17,0,0,1,1.69-.61A9.82,9.82,0,0,1,440,416a12.38,12.38,0,0,1,3.49.85,5.77,5.77,0,0,1,1.59,1l.21.41c.05.13.14.18.26.27A6.13,6.13,0,0,0,446.31,419Z" transform="translate(0 0)"/><path class="cls-3" d="M446,419.65a8.12,8.12,0,0,1-1.15,1,12.06,12.06,0,0,1-1.41.66,10.71,10.71,0,0,1-3,.69,11.06,11.06,0,0,1-3.09-.17,13.22,13.22,0,0,1-1.49-.42,8.8,8.8,0,0,1-1.31-.83A13.27,13.27,0,0,0,436,421a10,10,0,0,0,1.42.4,10.8,10.8,0,0,0,2.95.17,10.52,10.52,0,0,0,2.87-.67,10.91,10.91,0,0,0,1.34-.63A13.1,13.1,0,0,0,446,419.65Z" transform="translate(0 0)"/><path class="cls-3" d="M435,418.55c.22-.09-.27.15-.12.89s2.4,1.32,2.34,1.4-3.26-.92-3.25-1.51S434.7,418.66,435,418.55Z" transform="translate(0 0)"/><path class="cls-3" d="M444,420.06c-.23.08.27-.15.11-.9s-2.4-1.31-2.34-1.39,3.26.92,3.26,1.51S444.31,420,444,420.06Z" transform="translate(0 0)"/><path class="cls-3" d="M447.89,430.58a6.44,6.44,0,0,0-1.52-.73,1.1,1.1,0,0,0-.36-.07h-.43a6,6,0,0,0-.85.08,2.8,2.8,0,0,0-1.47.79,7.5,7.5,0,0,0-.56.68,1.72,1.72,0,0,1-.71.58c.55-.32.65-1,1.07-1.44a3.17,3.17,0,0,1,1.54-1.09,6,6,0,0,1,.93-.21l.47-.05a2.37,2.37,0,0,1,.53,0,7.63,7.63,0,0,1,1.83.57Z" transform="translate(0 0)"/><path class="cls-3" d="M447.46,418.92a9.87,9.87,0,0,0-1.28-2,18.86,18.86,0,0,0-1.67-1.71,2.16,2.16,0,0,1,1.35.22,3.19,3.19,0,0,1,1.08.85A2.61,2.61,0,0,1,447.46,418.92Z" transform="translate(0 0)"/><path class="cls-3" d="M448,432.24a9.57,9.57,0,0,0-2.75-.51,22,22,0,0,0-2.91.17,22.76,22.76,0,0,1,2.88-.67,9.77,9.77,0,0,1,3.05,0Z" transform="translate(0 0)"/><path class="cls-3" d="M448.23,434.26a6.57,6.57,0,0,1-1.65-.29,5.87,5.87,0,0,1-1.47-.7,7.53,7.53,0,0,0-2.86-1.09,8,8,0,0,1,3.09.64,4.85,4.85,0,0,0,1.41.42,5.79,5.79,0,0,0,1.44,0Z" transform="translate(0 0)"/><path class="cls-3" d="M448.19,434.08a2.88,2.88,0,0,0-1.92.56,2.66,2.66,0,0,0-.76,1.95,2.28,2.28,0,0,1,.75-1.67,3.13,3.13,0,0,1,1.89-.56v-.27" transform="translate(0 0)"/><path class="cls-1" d="M472,200.15c0,3.14,21.41,15.6,48.74,15.6,30.49,0,48.74-14.08,48.74-15.6" transform="translate(0 0)"/><path class="cls-2" d="M472,201.15c0-3.14,21.41-15.6,48.74-15.6,30.49,0,48.74,14.09,48.74,15.6" transform="translate(0 0)"/><path class="cls-3" d="M460.35,176.52a83.34,83.34,0,0,1,12-10.74,73.46,73.46,0,0,1,7.39-3.51c2.49-1,5-1.92,7.51-2.79,10.1-3.49,20.92-5.7,31.79-5.15a90.75,90.75,0,0,1,31.3,7.51,112.78,112.78,0,0,1,14.32,7.31,106.94,106.94,0,0,1,12.13,10.51c-4.69-2.55-9.34-5-14.13-7.13-1.21-.5-2.23-1.32-3.4-1.9s-2.29-1.22-3.44-1.82c-2.31-1.17-4.66-2.27-7-3.28a86.63,86.63,0,0,0-29.92-7.2,70.26,70.26,0,0,0-7.68.07c-2.54.19-5.12.52-7.66.93a95.93,95.93,0,0,0-15,3.93c-2.46.84-4.91,1.77-7.32,2.72a44.86,44.86,0,0,0-6.85,3.37C469.67,171.38,465.05,174,460.35,176.52Z" transform="translate(0 0)"/><path class="cls-3" d="M470.3,257.62a81,81,0,0,1-10.69-17.88A88.37,88.37,0,0,1,456,230c-1-3.34-1.76-6.68-2.42-10.07a82.39,82.39,0,0,1-1.39-10.26,63.75,63.75,0,0,1,0-10.34A53.77,53.77,0,0,1,454,189.18a52.16,52.16,0,0,1,3.86-9.52,51.75,51.75,0,0,0-3.5,9.62,53.11,53.11,0,0,0-1.44,10.1,61.94,61.94,0,0,0,.34,10.19A81.52,81.52,0,0,0,455,219.62c.77,3.3,1.68,6.6,2.74,9.81a87.61,87.61,0,0,0,3.9,9.36,78.69,78.69,0,0,0,11,16.93Z" transform="translate(0 0)"/><path class="cls-3" d="M479,257.39a4.15,4.15,0,0,1,2.44.64,5.84,5.84,0,0,1,1.84,1.86,11,11,0,0,1,.64,10,7.34,7.34,0,0,1-3.88,3.55,15.74,15.74,0,0,1-4.83.95,14.49,14.49,0,0,1-4.84-.4,11.59,11.59,0,0,1-4.47-2.28,10.46,10.46,0,0,1-1.77-1.87,8.75,8.75,0,0,1-.73-1.1c-.11-.2-.22-.4-.32-.63l-.16-.38c0-.09,0-.13-.07-.26l0-.19a1.77,1.77,0,0,1,0-.46l2.81.23a1.92,1.92,0,0,1-.3,1c-.11.19-.2.3-.29.43a7.53,7.53,0,0,1-.52.57,11.09,11.09,0,0,1-1,.86,17.24,17.24,0,0,1-2.1,1.38,20.18,20.18,0,0,1-4.55,1.81,21.32,21.32,0,0,1-4.81.75,16.38,16.38,0,0,1-4.79-.45v-.3a52.07,52.07,0,0,0,8.65-2.76c1.36-.58,2.69-1.21,4-1.88.64-.34,1.28-.68,1.87-1.05.29-.18.57-.38.81-.56s.23-.19.3-.25.06-.06,0,0a1,1,0,0,0-.09.46l2.8.22a1.09,1.09,0,0,0,0-.31v0s0,0,0,0,0,.1,0,.17l.17.42c.14.3.3.6.47.9a13.89,13.89,0,0,0,1.21,1.7,9.83,9.83,0,0,0,3.33,2.64,9,9,0,0,0,4.33.76,6.92,6.92,0,0,0,6.34-4.7,11.67,11.67,0,0,0,.24-8.08,4.77,4.77,0,0,0-2.77-3Z" transform="translate(0 0)"/><circle class="cls-3" cx="520.77" cy="200.15" r="15.28"/><path class="cls-3" d="M462.62,197.93a55.38,55.38,0,0,0,6.7-3c.53-.29,1.06-.58,1.55-.9a5.35,5.35,0,0,0,1.28-1.11l2.46-2.78a48.21,48.21,0,0,1,13-7.78,92.4,92.4,0,0,1,14.25-4.59,101.72,101.72,0,0,1,14.76-2.47,83.29,83.29,0,0,1,29.72,3.09,103.17,103.17,0,0,1,14,5.18,67.22,67.22,0,0,1,12.15,8.68,99.84,99.84,0,0,0-13.44-5.9,88.6,88.6,0,0,0-13.57-5.08,80.49,80.49,0,0,0-28.64-3,100.79,100.79,0,0,0-14.31,2.39,88.72,88.72,0,0,0-13.79,4.45,46,46,0,0,0-12.24,7.29l-3.17,2a17.57,17.57,0,0,1-1.76,1c-.59.27-1.18.49-1.77.7A46.8,46.8,0,0,1,462.62,197.93Z" transform="translate(0 0)"/><path class="cls-3" d="M465.41,203.56c3.85,2.07,7.71,4,11.66,5.68a89.85,89.85,0,0,0,61.79,9.69,93.89,93.89,0,0,0,12.31-3.4,120.66,120.66,0,0,0,12.41-3.74,74.86,74.86,0,0,1-11.41,6.56,95,95,0,0,1-12.71,3.52,91.54,91.54,0,0,1-26.27,1.52,92.81,92.81,0,0,1-25.63-5.93,103,103,0,0,1-12-5.56A75.92,75.92,0,0,1,465.41,203.56Z" transform="translate(0 0)"/><path class="cls-3" d="M559.6,194.11c-1.93-.75,2.31,1.23,1,7.64-1.26,6-20.53,11.28-20,11.93.82,1.07,27.93-7.84,27.88-12.92C568.38,196.83,562,195.06,559.6,194.11Z" transform="translate(0 0)"/><path class="cls-3" d="M482.14,207c1.94.75-2.31-1.23-1-7.64,1.25-6,20.53-11.28,20-11.93-.82-1.07-27.93,7.84-27.88,12.92C473.36,204.28,479.71,206.05,482.14,207Z" transform="translate(0 0)"/><path class="cls-3" d="M447,293.24a28.15,28.15,0,0,1,6.64-4.21,24.08,24.08,0,0,1,7.54-2.34,15.37,15.37,0,0,1,2-.11c.34,0,.71,0,1.06.05l1,.12c.65.08,1.3.14,1.95.19s1.29.16,1.93.22c2.59.25,5.17.46,7.79.92a22.84,22.84,0,0,1,7.58,2.64,24.66,24.66,0,0,1,6.3,5.14,30.53,30.53,0,0,1,4.42,6.63,12.58,12.58,0,0,0,1.82,3.05c.79.93,1.74,1.82,2.65,2.78l-.17.25a17.09,17.09,0,0,1-3.62-1.72,9.3,9.3,0,0,1-1.64-1.39c-.49-.54-.89-1.09-1.28-1.6-1.5-2-3-4-4.61-5.87a26.79,26.79,0,0,0-5.33-4.93,33.86,33.86,0,0,0-6.55-3.41,25.34,25.34,0,0,0-7.43-1.58,25.81,25.81,0,0,0-3.83.07l-1,.07c-.29.06-.57.1-.86.19-.58.14-1.17.35-1.76.54-2.34.84-4.75,1.54-7.16,2.32s-4.82,1.57-7.37,2.24Z" transform="translate(0 0)"/><path class="cls-3" d="M452.71,197.25a25.72,25.72,0,0,1,1.17-10.88,26.45,26.45,0,0,1,2.25-5.11,28.7,28.7,0,0,1,3.19-4.59,33.46,33.46,0,0,1,8.39-7.22,30.69,30.69,0,0,1,4.94-2.45,17.57,17.57,0,0,1,5.33-1.26,31.93,31.93,0,0,0-4.66,2.59,50.11,50.11,0,0,0-4.27,3.06,53.93,53.93,0,0,0-7.44,7.2,39.73,39.73,0,0,0-5.58,8.63A50,50,0,0,0,452.71,197.25Z" transform="translate(0 0)"/><path class="cls-3" d="M446.2,304.36a75,75,0,0,1,12.94-1.45,86.92,86.92,0,0,1,12.81.49c4.22.49,8.37,1.23,12.48,2.12q3.09.66,6.13,1.43c2,.49,4.05,1.08,6.1,1.49-2.09-.16-4.16-.51-6.23-.75s-4.15-.5-6.23-.69c-4.14-.39-8.3-.62-12.42-.61a83.36,83.36,0,0,0-12.23,1,69.52,69.52,0,0,0-11.74,2.75Z" transform="translate(0 0)"/><path class="cls-3" d="M446.41,321.36A47.27,47.27,0,0,0,459,320.9a44.05,44.05,0,0,0,6.19-1.53,54.66,54.66,0,0,0,6-2.44,64.25,64.25,0,0,1,12.82-4.38,72.33,72.33,0,0,1,13.3-1.73A72.24,72.24,0,0,0,484.47,314a61.75,61.75,0,0,0-11.85,5.6,57.57,57.57,0,0,1-6,3.27,48.24,48.24,0,0,1-6.53,2.43,53.06,53.06,0,0,1-13.86,2.07Z" transform="translate(0 0)"/><path class="cls-3" d="M446.46,327.15c2.35-.38,11.23.17,16.51,4.77,7.12,6.2,6.5,17,6.5,16.74A19.46,19.46,0,0,0,463,334.29c-5.29-4.37-13.74-4.92-16.19-4.79,0-1.3,0-1.67,0-2.26" transform="translate(0 0)"/><path class="cls-4" d="M455,364.16c0,1,7,5.14,16.06,5.14,10,0,16.06-4.64,16.06-5.14" transform="translate(0 0)"/><path class="cls-4" d="M455,364.66c0-1,7-5.14,16.06-5.14,10,0,16.06,4.64,16.06,5.14" transform="translate(0 0)"/><path class="cls-3" d="M451.13,356.37a24.06,24.06,0,0,1,3.78-3.84,25.64,25.64,0,0,1,2.49-1.17q1.23-.5,2.49-.93a28,28,0,0,1,10.6-1.71,30.08,30.08,0,0,1,10.43,2.5,34.43,34.43,0,0,1,4.76,2.44,32.26,32.26,0,0,1,3.83,3.74c-1.62-.73-3.21-1.44-4.83-2a40.12,40.12,0,0,0-4.54-2.28,28.09,28.09,0,0,0-9.74-2.35,26.14,26.14,0,0,0-9.86,1.6c-.81.28-1.61.58-2.4.89a13.39,13.39,0,0,0-2.21,1.1C454.35,354.88,452.76,355.65,451.13,356.37Z" transform="translate(0 0)"/><path class="cls-3" d="M454,383.42a27.08,27.08,0,0,1-3.47-6.06,30.16,30.16,0,0,1-1.16-3.27c-.3-1.12-.55-2.23-.75-3.36a25,25,0,0,1-.32-6.85,16.67,16.67,0,0,1,2-6.48,16.43,16.43,0,0,0-1.5,6.51,24.09,24.09,0,0,0,.8,6.61c.28,1.08.6,2.16,1,3.19a30,30,0,0,0,1.33,3,25.73,25.73,0,0,0,3.66,5.41Z" transform="translate(0 0)"/><path class="cls-3" d="M457.28,383a1.66,1.66,0,0,1,1.41.83,3.38,3.38,0,0,1,.5,1.6,3.44,3.44,0,0,1-.29,1.69,2.43,2.43,0,0,1-1.28,1.17,5,5,0,0,1-1.59.31,4.82,4.82,0,0,1-1.6-.13,3.81,3.81,0,0,1-1.47-.75,3.16,3.16,0,0,1-.59-.62,3.22,3.22,0,0,1-.24-.36,2,2,0,0,1-.11-.21l0-.13a.6.6,0,0,1,0-.29l.93.07a.77.77,0,0,1-.2.47,1.62,1.62,0,0,1-.17.19,3.07,3.07,0,0,1-.34.29,5.1,5.1,0,0,1-.69.45,6.27,6.27,0,0,1-1.5.6,6.39,6.39,0,0,1-3.16.09v-.1a16.08,16.08,0,0,0,2.85-.91c.45-.18.88-.4,1.31-.62.2-.11.42-.22.61-.34a1.85,1.85,0,0,0,.27-.19l.1-.08s0-.09,0,.14l.93.08c0-.08,0-.16,0-.11s0,0,0,0a1.47,1.47,0,0,0,.06.14,2.7,2.7,0,0,0,.15.29,4.12,4.12,0,0,0,.4.56,3.18,3.18,0,0,0,1.09.86,2.72,2.72,0,0,0,2.77-.23,2.28,2.28,0,0,0,.74-1.06,3.73,3.73,0,0,0,.28-1.3,2.29,2.29,0,0,0-1.11-2.35Z" transform="translate(0 0)"/><circle class="cls-3" cx="471.04" cy="364.16" r="5.04"/><path class="cls-3" d="M451.87,363.43a18.25,18.25,0,0,0,2.13-1.19,4,4,0,0,0,.47-.33,1.09,1.09,0,0,0,.34-.39l.7-1a15.8,15.8,0,0,1,4.4-2.64,34,34,0,0,1,9.71-2.37,28.21,28.21,0,0,1,10,1,35.76,35.76,0,0,1,4.7,1.73,19.1,19.1,0,0,1,3.79,3.32,42.12,42.12,0,0,0-4.64-1.47,27.75,27.75,0,0,0-13.66-2.63,31.91,31.91,0,0,0-9.1,2.22,14.76,14.76,0,0,0-3.91,2.32l-1.17.52c-.19.06-.45.23-.66.29s-.41.14-.62.2A14.91,14.91,0,0,1,451.87,363.43Z" transform="translate(0 0)"/><path class="cls-3" d="M452.79,365.28a41.28,41.28,0,0,0,3.85,1.87,28.08,28.08,0,0,0,3.81,1.78,29.52,29.52,0,0,0,8.18,1.9,29,29,0,0,0,8.37-.49,30.13,30.13,0,0,0,4.06-1.12,38.21,38.21,0,0,0,4.09-1.22,27.35,27.35,0,0,1-3.76,2.16,30.61,30.61,0,0,1-4.19,1.16,30,30,0,0,1-8.66.5,30.37,30.37,0,0,1-8.45-1.95,32,32,0,0,1-3.94-1.84A26.16,26.16,0,0,1,452.79,365.28Z" transform="translate(0 0)"/><path class="cls-3" d="M483.84,362.17c-.64-.25.76.4.32,2.52s-6.77,3.71-6.6,3.93,9.2-2.59,9.19-4.26C486.73,363.06,484.64,362.48,483.84,362.17Z" transform="translate(0 0)"/><path class="cls-3" d="M458.31,366.42c.64.24-.76-.41-.32-2.52s6.77-3.72,6.6-3.93c-.27-.36-9.2,2.58-9.19,4.26C455.41,365.52,457.51,366.1,458.31,366.42Z" transform="translate(0 0)"/><path class="cls-3" d="M446.27,394a20.92,20.92,0,0,1,5.05-1.66,5.14,5.14,0,0,1,.7-.09h.4l.33,0c.43,0,.87.06,1.3.11a14.37,14.37,0,0,1,2.59.54,8.72,8.72,0,0,1,4.33,3,13.15,13.15,0,0,1,1.4,2.17,4.66,4.66,0,0,0,1.69,1.81,9.32,9.32,0,0,1-1.08-.68,3.82,3.82,0,0,1-.86-1,16.53,16.53,0,0,0-1.57-1.95,7.93,7.93,0,0,0-4.17-2.36,13,13,0,0,0-2.42-.28q-.61,0-1.23,0h-.31l-.24,0c-.17,0-.36.08-.55.13a19.46,19.46,0,0,0-4.42,2Z" transform="translate(0 0)"/><path class="cls-3" d="M448.61,363.2a8,8,0,0,1,1.79-7.11,9.71,9.71,0,0,1,2.92-2.38,6.65,6.65,0,0,1,3.62-.89,24.3,24.3,0,0,0-2.72,2.19,26.85,26.85,0,0,0-2.29,2.37,16,16,0,0,0-1.86,2.66A28.2,28.2,0,0,0,448.61,363.2Z" transform="translate(0 0)"/><path class="cls-3" d="M446.32,398a25.34,25.34,0,0,1,4.37-.36,29,29,0,0,1,4.27.28c1.4.21,2.77.5,4.12.83s2.68.75,4,1.09c-1.38-.1-2.75-.27-4.12-.35s-2.74-.12-4.09-.07a26.51,26.51,0,0,0-4,.46,22.17,22.17,0,0,0-3.77,1Z" transform="translate(0 0)"/><path class="cls-3" d="M446.55,403.6a14.85,14.85,0,0,0,4.05,0,14.12,14.12,0,0,0,4-1.16,21.74,21.74,0,0,1,4.31-1.34,24.34,24.34,0,0,1,4.41-.45,24.07,24.07,0,0,0-4.21,1.17,20.51,20.51,0,0,0-3.82,1.95,16.81,16.81,0,0,1-4.17,2,18,18,0,0,1-4.68.82Z" transform="translate(0 0)"/><path class="cls-3" d="M446.55,406a8.11,8.11,0,0,1,5.44,1.57c2.34,2,2.14,5.6,2.14,5.52a6.39,6.39,0,0,0-2.13-4.74,8.9,8.9,0,0,0-5.34-1.58c0-.43,0-.55,0-.74" transform="translate(0 0)"/><path class="cls-5" d="M449.85,419.26c0,.36,2.5,1.82,5.69,1.82,3.55,0,5.68-1.65,5.68-1.82" transform="translate(0 0)"/><path class="cls-5" d="M449.85,419.51c0-.37,2.5-1.82,5.69-1.82,3.55,0,5.68,1.64,5.68,1.82" transform="translate(0 0)"/><path class="cls-3" d="M448.48,416.5a7.78,7.78,0,0,1,1.27-1.49,11.36,11.36,0,0,1,1.79-.75,10,10,0,0,1,3.81-.62,10.85,10.85,0,0,1,3.74.9,11.33,11.33,0,0,1,1.7.87,11.74,11.74,0,0,1,1.29,1.45c-.61-.21-1.2-.42-1.79-.6a15.76,15.76,0,0,0-1.59-.8,9.9,9.9,0,0,0-3.4-.82,9.34,9.34,0,0,0-3.44.56,7.74,7.74,0,0,0-1.6.7C449.69,416.06,449.1,416.29,448.48,416.5Z" transform="translate(0 0)"/><path class="cls-3" d="M449.39,426.17a10.32,10.32,0,0,1-1.86-4.57,8.69,8.69,0,0,1-.08-2.44,6,6,0,0,1,.74-2.3,5.84,5.84,0,0,0-.49,2.31,8.35,8.35,0,0,0,.32,2.33,9.5,9.5,0,0,0,2.14,4Z" transform="translate(0 0)"/><path class="cls-3" d="M450.66,425.92a.59.59,0,0,1,.6.26,1.11,1.11,0,0,1,.24.61,1.25,1.25,0,0,1-.1.68,1,1,0,0,1-.56.44,3.87,3.87,0,0,1-1.22,0,1.67,1.67,0,0,1-.59-.24,1.37,1.37,0,0,1-.25-.23c0-.05-.07-.09-.1-.15l-.05-.08a.45.45,0,0,1,0-.25l.7.06a.65.65,0,0,1-.07.21l0,.07-.08.09-.13.12a1.16,1.16,0,0,1-.27.18,1.66,1.66,0,0,1-.56.21,1.81,1.81,0,0,1-1.19-.13v-.07l.95-.49.43-.22.2-.1.08,0h0v0a.22.22,0,0,0,0,.15l.7.05c0-.18,0-.1,0-.11v0l0,.09a1.74,1.74,0,0,0,.1.19,1,1,0,0,0,.32.33.7.7,0,0,0,.89-.1.78.78,0,0,0,.16-.35,1.41,1.41,0,0,0,.09-.38c0-.29.06-.59-.23-.82Z" transform="translate(0 0)"/><circle class="cls-3" cx="455.54" cy="419.26" r="1.78"/><path class="cls-3" d="M448.75,419a7.06,7.06,0,0,0,.73-.48c.11-.09.21-.14.25-.27l.21-.41a5.82,5.82,0,0,1,1.6-1A12.31,12.31,0,0,1,455,416a9.89,9.89,0,0,1,3.59.38,14.83,14.83,0,0,1,1.69.61,6.62,6.62,0,0,1,1.28,1.31c-.59-.16-1.16-.28-1.71-.38a8.4,8.4,0,0,0-1.54-.58,8.81,8.81,0,0,0-3.22-.34,11.27,11.27,0,0,0-3.19.77,5,5,0,0,0-1.34.8l-.45.14a2.15,2.15,0,0,1-.49.16A5.51,5.51,0,0,1,448.75,419Z" transform="translate(0 0)"/><path class="cls-3" d="M449.07,419.65a14,14,0,0,0,1.4.6,10.91,10.91,0,0,0,1.34.63,10.5,10.5,0,0,0,2.88.67,10.75,10.75,0,0,0,2.94-.17,10.11,10.11,0,0,0,1.43-.4,13.11,13.11,0,0,0,1.47-.36,8.8,8.8,0,0,1-1.31.83,12.14,12.14,0,0,1-1.49.42,11,11,0,0,1-3.09.17,10.79,10.79,0,0,1-3-.69,11.92,11.92,0,0,1-1.4-.66A8.2,8.2,0,0,1,449.07,419.65Z" transform="translate(0 0)"/><path class="cls-3" d="M460.07,418.55c-.23-.09.27.15.11.89s-2.4,1.32-2.34,1.4,3.26-.92,3.26-1.51S460.35,418.66,460.07,418.55Z" transform="translate(0 0)"/><path class="cls-3" d="M451,420.06c.22.08-.27-.15-.12-.9s2.4-1.31,2.34-1.39-3.26.92-3.25,1.51S450.74,420,451,420.06Z" transform="translate(0 0)"/><path class="cls-3" d="M446.69,429.7a7.85,7.85,0,0,1,1.84-.57,2.35,2.35,0,0,1,.53,0l.47.05a6.22,6.22,0,0,1,.93.21,3.17,3.17,0,0,1,1.54,1.09c.42.48.52,1.12,1.06,1.44a1.64,1.64,0,0,1-.7-.58,7.59,7.59,0,0,0-.57-.68,2.73,2.73,0,0,0-1.47-.79,5.83,5.83,0,0,0-.84-.08h-.43a1.16,1.16,0,0,0-.37.07,6.37,6.37,0,0,0-1.51.73Z" transform="translate(0 0)"/><path class="cls-3" d="M447.59,418.92a2.64,2.64,0,0,1,.52-2.61,3.22,3.22,0,0,1,1.09-.85,2.12,2.12,0,0,1,1.34-.22,20.09,20.09,0,0,0-1.66,1.71A10.34,10.34,0,0,0,447.59,418.92Z" transform="translate(0 0)"/><path class="cls-3" d="M446.79,431.28a9.78,9.78,0,0,1,3,0,22.76,22.76,0,0,1,2.88.67,22,22,0,0,0-2.91-.17,9.57,9.57,0,0,0-2.75.51Z" transform="translate(0 0)"/><path class="cls-3" d="M446.86,433.26a5.78,5.78,0,0,0,1.44,0,5,5,0,0,0,1.42-.42,7.87,7.87,0,0,1,3.08-.64,7.54,7.54,0,0,0-2.85,1.09,5.93,5.93,0,0,1-1.48.7,6.49,6.49,0,0,1-1.64.29Z" transform="translate(0 0)"/><path class="cls-3" d="M446.86,434.08a2.91,2.91,0,0,1,1.93.56,2.66,2.66,0,0,1,.76,1.95,2.25,2.25,0,0,0-.76-1.67,3.11,3.11,0,0,0-1.89-.56,1.14,1.14,0,0,0,0-.27" transform="translate(0 0)"/><path class="cls-1" d="M180.61,77.8c0,5.41-36.91,26.88-84,26.88-52.56,0-84-24.27-84-26.88" transform="translate(0 0)"/><path class="cls-2" d="M180.61,78.8c0-5.42-36.91-26.89-84-26.89-52.56,0-84,24.27-84,26.89" transform="translate(0 0)"/><path class="cls-3" d="M200.75,37.05C193,32.2,185.32,27.33,177.27,23.4a85.81,85.81,0,0,0-12-5.85c-4.19-1.66-8.43-3.25-12.69-4.72a166.88,166.88,0,0,0-26-6.82c-2.21-.37-4.44-.69-6.67-1s-4.45-.49-6.67-.67a125,125,0,0,0-13.41-.14c-17.9.8-35.53,5.5-52.07,12.53-4.14,1.76-8.22,3.67-12.23,5.7-2,1-4,2.07-6,3.17S25.66,28,23.63,29C15.56,33,7.73,37.63,0,42.47A204.08,204.08,0,0,1,21.63,25.58,198.32,198.32,0,0,1,46.16,13.1c16.89-7.18,35-12,53.45-12.84s37,2.82,54.27,8.79c4.34,1.49,8.61,3.1,12.87,4.79a111.83,111.83,0,0,1,12.54,6A163.08,163.08,0,0,1,200.75,37.05Z" transform="translate(0 0)"/><path class="cls-3" d="M180.45,174.26a136.36,136.36,0,0,0,18.79-29.52,150.78,150.78,0,0,0,6.64-16.27c1.79-5.58,3.32-11.28,4.61-17a140.08,140.08,0,0,0,2.86-17.39,106.89,106.89,0,0,0,.46-17.62A91.88,91.88,0,0,0,211.18,59,89.33,89.33,0,0,0,205,42.47a89.79,89.79,0,0,1,6.54,16.45,93.19,93.19,0,0,1,3,17.48,107.59,107.59,0,0,1-.09,17.77,141.25,141.25,0,0,1-2.52,17.6c-1.18,5.82-2.59,11.56-4.29,17.27a151.53,151.53,0,0,1-6.38,16.65,139.28,139.28,0,0,1-18.51,30.48Z" transform="translate(0 0)"/><path class="cls-3" d="M168.64,176.86a7.76,7.76,0,0,0-3.28,1.91,9.59,9.59,0,0,0-2.05,3.09,18.89,18.89,0,0,0-1.36,7.38,18.64,18.64,0,0,0,1.45,7.24,12.57,12.57,0,0,0,4.49,5.66,14.7,14.7,0,0,0,7.3,2.37,17,17,0,0,0,7.65-1.19A17.48,17.48,0,0,0,189,198.9a21.94,21.94,0,0,0,2.29-3,18.43,18.43,0,0,0,.9-1.62c.12-.27.25-.54.34-.8a2.61,2.61,0,0,0,.12-.37s0-.11,0-.11h0a.77.77,0,0,0,0,.26l2.8-.22c0-.36-.06-.3,0-.28a2.31,2.31,0,0,0,.18.21,5.3,5.3,0,0,0,.59.55c.46.37,1,.74,1.48,1.09,1,.69,2.17,1.31,3.29,1.93a69.27,69.27,0,0,0,7.06,3.21,65.32,65.32,0,0,0,15.26,3.86v.3a37.78,37.78,0,0,1-16.2-1.4,40,40,0,0,1-7.63-3.16,28.07,28.07,0,0,1-3.54-2.24,17.93,17.93,0,0,1-1.68-1.39,7.67,7.67,0,0,1-.82-.87,3.76,3.76,0,0,1-.42-.59,2.39,2.39,0,0,1-.37-1.2l2.81-.22a2.9,2.9,0,0,1,0,.51l0,.24c0,.16-.07.24-.1.36s-.15.41-.23.58a9.49,9.49,0,0,1-.5,1,16.22,16.22,0,0,1-1.16,1.83,19,19,0,0,1-2.85,3.15,19.23,19.23,0,0,1-7.3,4.06,22.64,22.64,0,0,1-8.16.83,22.4,22.4,0,0,1-8-1.84,12.44,12.44,0,0,1-6.12-6,15.32,15.32,0,0,1-1.25-4.14,18.45,18.45,0,0,1-.24-4.26,17.9,17.9,0,0,1,2.28-8.11,10,10,0,0,1,2.87-3.18,7.34,7.34,0,0,1,4-1.31Z" transform="translate(0 0)"/><circle class="cls-3" cx="96.6" cy="77.8" r="26.34"/><path class="cls-3" d="M196.83,74c-2.08-.4-4.13-1-6.17-1.6s-4.06-1.28-6-2.05c-1-.39-2-.8-3-1.28a23.18,23.18,0,0,1-2.85-1.72c-1.78-1.22-3.49-2.5-5.21-3.7a73.86,73.86,0,0,0-10.16-7.2,94.1,94.1,0,0,0-11.2-5.56,156.78,156.78,0,0,0-23.94-7.7A173,173,0,0,0,103.44,39a140,140,0,0,0-49.76,5.19A156.06,156.06,0,0,0,30.11,53,150.81,150.81,0,0,0,7.4,64.16a96.59,96.59,0,0,1,10.35-7.49c3.6-2.29,7.27-4.49,11.07-6.46a172.93,172.93,0,0,1,24-8.91A143.3,143.3,0,0,1,103.7,36,176.53,176.53,0,0,1,129,40.24a159.92,159.92,0,0,1,24.41,7.86,96.14,96.14,0,0,1,11.55,5.73,72.15,72.15,0,0,1,10.54,7.51c1.53,1.51,3,3,4.5,4.51a10.57,10.57,0,0,0,2.39,1.85c.88.54,1.81,1,2.74,1.49,1.88.93,3.83,1.77,5.78,2.58S194.8,73.37,196.83,74Z" transform="translate(0 0)"/><path class="cls-3" d="M192,83.67a142.88,142.88,0,0,1-18.1,13.41,168.91,168.91,0,0,1-20.46,9.53,158.74,158.74,0,0,1-43.89,10.16c-1.87.14-3.75.3-5.63.42l-5.65.15c-1.88.09-3.77,0-5.65,0s-3.77-.06-5.65-.22a152.11,152.11,0,0,1-22.39-2.92,164.24,164.24,0,0,1-21.76-6,146.62,146.62,0,0,1-20-10.29c3.44,1.46,6.93,2.8,10.42,4.08s7,2.41,10.61,3.38a159.75,159.75,0,0,0,21.36,5.91,149.09,149.09,0,0,0,22,2.86c1.84.17,3.69.17,5.54.22s3.69.12,5.54,0l5.54-.15c1.84-.11,3.69-.27,5.53-.41a155.6,155.6,0,0,0,43.06-10,159.34,159.34,0,0,0,20.08-9.38A204.9,204.9,0,0,0,192,83.67Z" transform="translate(0 0)"/><path class="cls-3" d="M29.67,67.39c3.33-1.31-4,2.11-1.67,13.16C30.17,90.89,63.39,100,62.52,101.12,61.1,103,14.38,87.6,14.46,78.84,14.52,72.07,25.48,69,29.67,67.39Z" transform="translate(0 0)"/><path class="cls-3" d="M163.18,89.6c-3.33,1.3,4-2.12,1.67-13.17C162.68,66.1,129.46,57,130.32,55.87c1.42-1.84,48.15,13.52,48.07,22.27C178.32,84.91,167.37,88,163.18,89.6Z" transform="translate(0 0)"/><path class="cls-3" d="M223.61,238.61c-4.2-1.54-8.29-3.14-12.45-4.58-2.08-.71-4.14-1.45-6.24-2.07s-4.16-1.32-6.24-1.93c-1-.29-2.09-.59-3.13-.78-.53-.12-1-.16-1.56-.23l-1.65-.08a54.14,54.14,0,0,0-6.62.07,50.63,50.63,0,0,0-24.6,8.09,46.24,46.24,0,0,0-9.56,8.55,114.29,114.29,0,0,0-7.85,10.41c-.63.91-1.28,1.86-2,2.78a15.83,15.83,0,0,1-2.6,2.39,36.85,36.85,0,0,1-5.89,3.36l-.16-.26c1.69-1.45,3.42-2.87,4.91-4.4a20.54,20.54,0,0,0,3.54-5.24,60.09,60.09,0,0,1,3.52-5.77,53.3,53.3,0,0,1,4.16-5.38,43.29,43.29,0,0,1,10.51-8.78,41.33,41.33,0,0,1,12.7-4.84,111.45,111.45,0,0,1,13.29-1.85l3.33-.28,3.34-.24,1.67-.11a17.25,17.25,0,0,1,1.76,0,27.51,27.51,0,0,1,3.42.35,52.63,52.63,0,0,1,12.87,4,63.37,63.37,0,0,1,11.71,6.54Z" transform="translate(0 0)"/><path class="cls-3" d="M213.91,72.79A71,71,0,0,0,209,55.19a59.11,59.11,0,0,0-4.24-8c-.79-1.28-1.66-2.51-2.51-3.75s-1.8-2.41-2.82-3.52a79.17,79.17,0,0,0-13.17-12.43,77.59,77.59,0,0,0-7.59-5.06c-1.32-.77-2.66-1.5-4-2.18a31.31,31.31,0,0,0-4.25-1.8,23.68,23.68,0,0,1,4.56,1c1.5.46,3,1,4.4,1.63a58.28,58.28,0,0,1,8.27,4.45,64.73,64.73,0,0,1,7.52,5.68c.61.5,1.15,1.07,1.73,1.6s1.15,1.08,1.68,1.66l1.64,1.71c.52.59,1,1.18,1.54,1.79a52.53,52.53,0,0,1,9.43,16.33A49,49,0,0,1,213.91,72.79Z" transform="translate(0 0)"/><path class="cls-3" d="M222.94,265.3A123.84,123.84,0,0,0,202.27,261,147,147,0,0,0,181,259.84c-7.14.17-14.3.75-21.43,1.59q-5.36.65-10.69,1.46l-5.34.83c-1.78.26-3.56.6-5.36.74,1.78-.27,3.53-.72,5.29-1.11l5.27-1.2Q154,261,159.32,260c7.09-1.34,14.26-2.43,21.49-3.1a149.21,149.21,0,0,1,21.87-.31,129.28,129.28,0,0,1,21.87,3Z" transform="translate(0 0)"/><path class="cls-3" d="M225.06,294.89a88.55,88.55,0,0,1-23.44-3,84.26,84.26,0,0,1-11.14-3.85,103.47,103.47,0,0,1-10.38-5.35,108.21,108.21,0,0,0-20.79-9.21A124.42,124.42,0,0,0,137,268.56a125,125,0,0,1,22.78,3.5,110.62,110.62,0,0,1,21.75,8,98.85,98.85,0,0,0,10.38,4.52,80.88,80.88,0,0,0,10.79,3,84,84,0,0,0,22.2,1.37Z" transform="translate(0 0)"/><path class="cls-3" d="M224.69,296.7c-4.05-.64-19.36.3-28.46,8.23C184,315.61,185,334.21,185,333.78c0-9.82,4.89-19.59,11.15-24.76,9.11-7.53,23.68-8.48,27.91-8.27-.05-2.24-.06-2.86,0-3.89" transform="translate(0 0)"/><path class="cls-4" d="M688.85,360.39c0,1.78,12.17,8.86,27.69,8.86,17.33,0,27.69-8,27.69-8.86" transform="translate(0 0)"/><path class="cls-4" d="M688.85,360.89c0-1.79,12.17-8.87,27.69-8.87,17.33,0,27.69,8,27.69,8.87" transform="translate(0 0)"/><path class="cls-3" d="M682.21,347a49.44,49.44,0,0,1,6.9-6,38.06,38.06,0,0,1,4.18-2c1.41-.56,2.83-1.09,4.26-1.58a48.11,48.11,0,0,1,18-2.92,51.3,51.3,0,0,1,17.74,4.26,40.11,40.11,0,0,1,15.08,10c-2.63-1.49-5.26-2.92-8-4.16a69.58,69.58,0,0,0-7.9-4,49.3,49.3,0,0,0-17-4.1,45.92,45.92,0,0,0-17.27,2.81c-1.39.48-2.79,1-4.16,1.55a25.24,25.24,0,0,0-3.91,1.91C687.45,344,684.85,345.47,682.21,347Z" transform="translate(0 0)"/><path class="cls-3" d="M687.75,393.13a46,46,0,0,1-6-10.21,49.22,49.22,0,0,1-2.06-5.55c-.55-1.9-1-3.8-1.37-5.73a42.72,42.72,0,0,1-.73-11.72,29.76,29.76,0,0,1,1.06-5.77,29,29,0,0,1,2.21-5.41,29.05,29.05,0,0,0-2,5.47A30.18,30.18,0,0,0,678,360a42.28,42.28,0,0,0,1.22,11.48c.45,1.87,1,3.74,1.58,5.56a47.18,47.18,0,0,0,2.23,5.3,44.14,44.14,0,0,0,6.24,9.57Z" transform="translate(0 0)"/><path class="cls-3" d="M692.81,392.94a2.8,2.8,0,0,1,2.26,1.48,6.28,6.28,0,0,1,.26,5.44,4.13,4.13,0,0,1-2,2,7.31,7.31,0,0,1-2.65.61,7.44,7.44,0,0,1-2.69-.27,6.38,6.38,0,0,1-2.41-1.34,7.68,7.68,0,0,1-.94-1,5.48,5.48,0,0,1-.38-.6,3.59,3.59,0,0,1-.17-.34l-.07-.19,0-.12v-.08a.48.48,0,0,1,0-.17l.93.08a1,1,0,0,1-.26.59,2.42,2.42,0,0,1-.27.28c-.18.17-.37.32-.55.46a9.16,9.16,0,0,1-1.17.74,12.28,12.28,0,0,1-2.52,1,14.12,14.12,0,0,1-2.65.52,11,11,0,0,1-2.69-.06v-.1a21.45,21.45,0,0,0,5-1.27,23.2,23.2,0,0,0,2.32-1.06c.37-.21.75-.41,1.09-.64a4.73,4.73,0,0,0,.49-.35l.19-.18c.06,0,.08-.17.05,0l.94.07v-.08h0a.1.1,0,0,0,0,0l0,.11c0,.09.07.18.11.27s.19.36.29.53a6.06,6.06,0,0,0,.76,1,5.68,5.68,0,0,0,2,1.45,5.41,5.41,0,0,0,4.92-.39,4.07,4.07,0,0,0,1.48-1.86,6.17,6.17,0,0,0,.48-2.38,6.43,6.43,0,0,0-.45-2.43A2.74,2.74,0,0,0,692.8,393Z" transform="translate(0 0)"/><circle class="cls-3" cx="716.54" cy="360.39" r="8.68"/><path class="cls-3" d="M683.51,359.12a32.56,32.56,0,0,0,3.78-1.76c.3-.17.59-.34.86-.53a2.64,2.64,0,0,0,.71-.63l1.36-1.62a27.33,27.33,0,0,1,7.41-4.44,58,58,0,0,1,16.53-4,47.48,47.48,0,0,1,16.94,1.76,59.92,59.92,0,0,1,8,2.95,37.54,37.54,0,0,1,6.84,5.07,58.29,58.29,0,0,0-7.7-3.21,49.12,49.12,0,0,0-7.69-2.89,45.66,45.66,0,0,0-16.22-1.68A55.53,55.53,0,0,0,698.41,352a26.15,26.15,0,0,0-6.92,4.12l-1.83,1.08c-.31.16-.69.41-1,.54s-.68.27-1,.39A25.94,25.94,0,0,1,683.51,359.12Z" transform="translate(0 0)"/><path class="cls-3" d="M685.09,362.32a62.36,62.36,0,0,0,6.45,3.54,51.44,51.44,0,0,0,35.35,5.54,53.57,53.57,0,0,0,7-1.95,57.62,57.62,0,0,0,6.93-2.45,47.75,47.75,0,0,1-6.6,3.39,54,54,0,0,1-7.17,2,51.92,51.92,0,0,1-14.82.86,52.45,52.45,0,0,1-14.47-3.35,54.44,54.44,0,0,1-6.75-3.15A48.89,48.89,0,0,1,685.09,362.32Z" transform="translate(0 0)"/><path class="cls-3" d="M738.6,357c-1.1-.42,1.32.7.55,4.34-.71,3.41-11.66,6.41-11.38,6.78.47.61,15.87-4.45,15.85-7.34C743.59,358.5,740,357.49,738.6,357Z" transform="translate(0 0)"/><path class="cls-3" d="M694.6,364.28c1.1.42-1.32-.7-.55-4.34.71-3.41,11.66-6.41,11.38-6.78-.47-.61-15.87,4.45-15.84,7.34C689.61,362.73,693.22,363.74,694.6,364.28Z" transform="translate(0 0)"/><path class="cls-3" d="M674.18,412.47a35.81,35.81,0,0,1,8.48-3,10.8,10.8,0,0,1,1.16-.16c.19,0,.41,0,.62,0l.56,0c.74,0,1.49.07,2.23.15a25.49,25.49,0,0,1,4.4.84,15.65,15.65,0,0,1,4.09,1.88,14.57,14.57,0,0,1,3.31,3,24.28,24.28,0,0,1,2.48,3.66,6.24,6.24,0,0,0,1.27,1.73,15.06,15.06,0,0,0,1.73,1.34,18.18,18.18,0,0,1-1.83-1.22,6.43,6.43,0,0,1-1.42-1.7,27.83,27.83,0,0,0-2.65-3.44,13.93,13.93,0,0,0-7.24-4.28,23.14,23.14,0,0,0-4.24-.58c-.71,0-1.43-.06-2.15,0h-.54a4.19,4.19,0,0,0-.47.05,7.77,7.77,0,0,0-1,.21,33.53,33.53,0,0,0-7.84,3.32Z" transform="translate(0 0)"/><path class="cls-3" d="M677.88,358.73A15.23,15.23,0,0,1,681.52,347a18.51,18.51,0,0,1,4.81-4.1,13,13,0,0,1,5.9-2,27.45,27.45,0,0,0-5,3.31,31.1,31.1,0,0,0-4.18,4.09,22.81,22.81,0,0,0-3.18,4.85A29.94,29.94,0,0,0,677.88,358.73Z" transform="translate(0 0)"/><path class="cls-3" d="M674.23,419.79a41.87,41.87,0,0,1,7.31-.87,48.86,48.86,0,0,1,7.26.22c2.39.27,4.75.67,7.09,1.16s4.64,1.1,7,1.61c-2.36-.26-4.71-.65-7.06-.87s-4.72-.39-7.06-.4a47.67,47.67,0,0,0-7,.52,39.45,39.45,0,0,0-6.71,1.52Z" transform="translate(0 0)"/><path class="cls-3" d="M674.29,429.45a27.25,27.25,0,0,0,7.21-.31,26.85,26.85,0,0,0,3.53-.9,31.78,31.78,0,0,0,3.42-1.42,36.25,36.25,0,0,1,7.25-2.53,41.18,41.18,0,0,1,7.54-1,41.4,41.4,0,0,0-7.33,1.75,35.92,35.92,0,0,0-6.77,3.14,32.67,32.67,0,0,1-3.42,1.83,28.32,28.32,0,0,1-3.71,1.35,29.86,29.86,0,0,1-7.83,1.12Z" transform="translate(0 0)"/><path class="cls-3" d="M674.33,432.54c1.33-.22,6.38.09,9.38,2.71,4,3.52,3.68,9.65,3.69,9.51a11.09,11.09,0,0,0-3.68-8.17c-3-2.48-7.8-2.79-9.2-2.72,0-.74,0-.94,0-1.28" transform="translate(0 0)"/><path class="cls-5" d="M217.66,455.36c0,.63-4.31,3.14-9.81,3.14-6.13,0-9.8-2.83-9.8-3.14" transform="translate(0 0)"/><path class="cls-5" d="M217.66,455.61c0-.63-4.31-3.14-9.81-3.14-6.13,0-9.8,2.84-9.8,3.14" transform="translate(0 0)"/><path class="cls-3" d="M220,450.6c-1-.47-1.91-1-2.88-1.35A15.29,15.29,0,0,0,214.3,448a15.77,15.77,0,0,0-6.06-1,17.18,17.18,0,0,0-6,1.44,22.6,22.6,0,0,0-2.78,1.4c-1,.39-1.93.87-2.89,1.35a11.9,11.9,0,0,1,5.28-3.67,17.91,17.91,0,0,1,6.33-1.52,17.09,17.09,0,0,1,6.43,1,19.25,19.25,0,0,1,3,1.28A16.82,16.82,0,0,1,220,450.6Z" transform="translate(0 0)"/><path class="cls-3" d="M217.39,466.41a15.41,15.41,0,0,0,2.22-3.34,16.83,16.83,0,0,0,1.38-3.81,15,15,0,0,0,.46-4.05,10,10,0,0,0-.94-4,10.08,10.08,0,0,1,1.19,3.95,15,15,0,0,1-.22,4.17,17.92,17.92,0,0,1-1.19,4,16.41,16.41,0,0,1-2.13,3.66Z" transform="translate(0 0)"/><path class="cls-3" d="M216.26,466.94a1.41,1.41,0,0,0-.61,1.43,2.11,2.11,0,0,0,.16.77,1.46,1.46,0,0,0,.42.64,1.55,1.55,0,0,0,1.66.14,1.84,1.84,0,0,0,.64-.53,2.54,2.54,0,0,0,.23-.34l.09-.17,0-.08s0-.1,0,.07l.7-.06a.18.18,0,0,0,0-.13h0l.06,0,.15.1.37.2.79.38a13.34,13.34,0,0,0,1.72.62v.07a3.72,3.72,0,0,1-2,0,4.59,4.59,0,0,1-.93-.36,3,3,0,0,1-.43-.29l-.21-.18-.11-.13-.06-.09a.52.52,0,0,1-.07-.23l.7-.06a.51.51,0,0,1-.06.3.83.83,0,0,1-.07.13,1.7,1.7,0,0,1-.15.22,2.23,2.23,0,0,1-.37.38,2.61,2.61,0,0,1-.93.46,3.89,3.89,0,0,1-2-.11,1.5,1.5,0,0,1-.82-.73,1.92,1.92,0,0,1-.18-1.05,2,2,0,0,1,.33-1,1,1,0,0,1,.89-.49Z" transform="translate(0 0)"/><circle class="cls-3" cx="207.85" cy="455.36" r="3.07"/><path class="cls-3" d="M219.55,454.91a8.44,8.44,0,0,1-1.48-.3,3.93,3.93,0,0,1-.76-.31l-.68-.35a9.42,9.42,0,0,0-2.41-1.43,19.61,19.61,0,0,0-5.6-1.36,16.13,16.13,0,0,0-5.69.59,16.62,16.62,0,0,0-2.7,1,19.82,19.82,0,0,0-2.79,1,12.92,12.92,0,0,1,2.36-1.93,22.24,22.24,0,0,1,2.86-1,17.14,17.14,0,0,1,6.05-.63,20.47,20.47,0,0,1,5.9,1.44,10,10,0,0,1,2.66,1.59l.44.62a1.59,1.59,0,0,0,.53.42A10.14,10.14,0,0,0,219.55,454.91Z" transform="translate(0 0)"/><path class="cls-3" d="M219,456.05a16.61,16.61,0,0,1-2.08,1.63,19.18,19.18,0,0,1-2.39,1.11,18.29,18.29,0,0,1-5.15,1.19,17.93,17.93,0,0,1-5.27-.3,18.91,18.91,0,0,1-2.55-.71,16.7,16.7,0,0,1-2.31-1.27,20.44,20.44,0,0,0,2.48.8,18.16,18.16,0,0,0,7.61,1,18.44,18.44,0,0,0,5-1.16,19.76,19.76,0,0,0,2.33-1.09C217.46,456.89,218.23,456.48,219,456.05Z" transform="translate(0 0)"/><path class="cls-3" d="M200,454.15c.39-.16-.47.24-.2,1.53s4.14,2.27,4,2.4-5.62-1.58-5.61-2.6C198.27,454.69,199.55,454.34,200,454.15Z" transform="translate(0 0)"/><path class="cls-3" d="M215.62,456.74c-.39.15.47-.25.2-1.54s-4.13-2.27-4-2.4,5.62,1.58,5.61,2.6C217.39,456.19,216.11,456.55,215.62,456.74Z" transform="translate(0 0)"/><path class="cls-3" d="M222.45,474.56a11.63,11.63,0,0,0-2.73-1.2,2,2,0,0,0-.69-.1h-.76a9.08,9.08,0,0,0-1.48.19,4.92,4.92,0,0,0-2.56,1.47,11.25,11.25,0,0,0-.95,1.21,2.82,2.82,0,0,1-1.17,1c1-.51,1.19-1.62,1.91-2.41a5.3,5.3,0,0,1,2.63-1.77,9.62,9.62,0,0,1,1.58-.32c.26,0,.53,0,.79-.06a3,3,0,0,1,.85.05,12.49,12.49,0,0,1,3,1Z" transform="translate(0 0)"/><path class="cls-3" d="M221.55,454.78a16.18,16.18,0,0,0-.81-2,8.72,8.72,0,0,0-1.14-1.66,13,13,0,0,0-1.43-1.45,12.39,12.39,0,0,0-1.71-1.26,4.25,4.25,0,0,1,2.16.61,6.43,6.43,0,0,1,1.75,1.46A5.09,5.09,0,0,1,221.55,454.78Z" transform="translate(0 0)"/><path class="cls-3" d="M222.56,477.39a16.4,16.4,0,0,0-4.85-.7c-.84,0-1.67.06-2.5.14s-1.67.22-2.51.32c.82-.18,1.64-.4,2.47-.56s1.66-.31,2.51-.4a16.86,16.86,0,0,1,5.15.24Z" transform="translate(0 0)"/><path class="cls-3" d="M222.85,480.85a10.28,10.28,0,0,1-2.76-.39,9.73,9.73,0,0,1-2.53-1.11,13.22,13.22,0,0,0-5-1.72,13.45,13.45,0,0,1,5.23,1.27,9,9,0,0,0,2.47.83,9.55,9.55,0,0,0,2.56.12Z" transform="translate(0 0)"/><path class="cls-3" d="M222.8,480.91a5,5,0,0,0-3.32,1,4.61,4.61,0,0,0-1.31,3.37,3.92,3.92,0,0,1,1.31-2.89,5.35,5.35,0,0,1,3.25-1v-.46" transform="translate(0 0)"/></g></g></svg>