<svg xmlns="http://www.w3.org/2000/svg" viewBox="0 0 479.98 467.9"><defs><style>.cls-1{fill:#630;}.cls-2{fill:#600;}.cls-3{fill:#fff;}.cls-4{fill:#c00;}.cls-5{fill:#f60;}.cls-6{fill:#ff3;}.cls-7{fill:#c90;}.cls-8{fill:#393;}.cls-9{fill:none;stroke:#fff;stroke-miterlimit:10;stroke-width:4px;}</style></defs><title>pacha1</title><g id="Layer_2" data-name="Layer 2"><g id="Layer_1-2" data-name="Layer 1"><rect class="cls-1" width="479.98" height="467.9"/><rect class="cls-2" y="293.51" width="479.98" height="11.18"/><polygon class="cls-3" points="201.72 382.95 212.9 371.77 224.08 382.95 201.72 382.95"/><polygon class="cls-3" points="228.72 382.95 239.9 371.77 251.08 382.95 228.72 382.95"/><polygon class="cls-3" points="255.72 382.95 266.9 371.77 278.08 382.95 255.72 382.95"/><polygon class="cls-3" points="201.72 371.77 212.9 360.59 224.08 371.77 201.72 371.77"/><polygon class="cls-3" points="228.72 371.77 239.9 360.59 251.08 371.77 228.72 371.77"/><polygon class="cls-3" points="255.72 371.77 266.9 360.59 278.08 371.77 255.72 371.77"/><polygon class="cls-3" points="201.72 360.59 212.9 349.41 224.08 360.59 201.72 360.59"/><polygon class="cls-3" points="228.72 360.59 239.9 349.41 251.08 360.59 228.72 360.59"/><polygon class="cls-3" points="255.72 360.59 266.9 349.41 278.08 360.59 255.72 360.59"/><polygon class="cls-3" points="201.72 349.41 212.9 338.23 224.08 349.41 201.72 349.41"/><polygon class="cls-3" points="228.72 349.41 239.9 338.23 251.08 349.41 228.72 349.41"/><polygon class="cls-3" points="255.72 349.41 266.9 338.23 278.08 349.41 255.72 349.41"/><polygon class="cls-3" points="201.72 338.23 212.9 327.05 224.08 338.23 201.72 338.23"/><polygon class="cls-3" points="228.72 338.23 239.9 327.05 251.08 338.23 228.72 338.23"/><polygon class="cls-3" points="255.72 338.23 266.9 327.05 278.08 338.23 255.72 338.23"/><polygon class="cls-3" points="281.22 338.23 292.4 327.05 303.58 338.23 281.22 338.23"/><polygon class="cls-3" points="308.22 338.23 319.4 327.05 330.58 338.23 308.22 338.23"/><polygon class="cls-3" points="335.22 338.23 346.4 327.05 357.58 338.23 335.22 338.23"/><polygon class="cls-3" points="120.72 338.23 131.9 327.05 143.08 338.23 120.72 338.23"/><polygon class="cls-3" points="147.72 338.23 158.9 327.05 170.08 338.23 147.72 338.23"/><polygon class="cls-3" points="174.72 338.23 185.9 327.05 197.08 338.23 174.72 338.23"/><polygon class="cls-3" points="201.72 327.05 212.9 315.87 224.08 327.05 201.72 327.05"/><polygon class="cls-3" points="228.72 327.05 239.9 315.87 251.08 327.05 228.72 327.05"/><polygon class="cls-3" points="255.72 327.05 266.9 315.87 278.08 327.05 255.72 327.05"/><polygon class="cls-3" points="281.22 327.05 292.4 315.87 303.58 327.05 281.22 327.05"/><polygon class="cls-3" points="308.22 327.05 319.4 315.87 330.58 327.05 308.22 327.05"/><polygon class="cls-3" points="335.22 327.05 346.4 315.87 357.58 327.05 335.22 327.05"/><polygon class="cls-3" points="120.72 327.05 131.9 315.87 143.08 327.05 120.72 327.05"/><polygon class="cls-3" points="147.72 327.05 158.9 315.87 170.08 327.05 147.72 327.05"/><polygon class="cls-3" points="174.72 327.05 185.9 315.87 197.08 327.05 174.72 327.05"/><polygon class="cls-3" points="201.72 315.87 212.9 304.69 224.08 315.87 201.72 315.87"/><polygon class="cls-3" points="228.72 315.87 239.9 304.69 251.08 315.87 228.72 315.87"/><polygon class="cls-3" points="255.72 315.87 266.9 304.69 278.08 315.87 255.72 315.87"/><polygon class="cls-3" points="281.22 315.87 292.4 304.69 303.58 315.87 281.22 315.87"/><polygon class="cls-3" points="308.22 315.87 319.4 304.69 330.58 315.87 308.22 315.87"/><polygon class="cls-3" points="335.22 315.87 346.4 304.69 357.58 315.87 335.22 315.87"/><polygon class="cls-3" points="120.72 315.87 131.9 304.69 143.08 315.87 120.72 315.87"/><polygon class="cls-3" points="147.72 315.87 158.9 304.69 170.08 315.87 147.72 315.87"/><polygon class="cls-3" points="174.72 315.87 185.9 304.69 197.08 315.87 174.72 315.87"/><polygon class="cls-3" points="201.63 304.69 212.81 293.51 224.08 293.51 224 304.69 201.63 304.69"/><polygon class="cls-3" points="228.63 304.69 239.81 293.51 251 304.69 228.63 304.69"/><polygon class="cls-3" points="255.63 304.69 255.63 293.51 266.81 293.51 278 304.69 255.63 304.69"/><polygon class="cls-3" points="281.13 304.69 292.31 293.51 303.5 304.69 281.13 304.69"/><polygon class="cls-3" points="308.22 304.69 319.4 293.51 330.58 304.69 308.22 304.69"/><polygon class="cls-3" points="335.22 304.69 346.4 293.51 357.58 304.69 335.22 304.69"/><polygon class="cls-3" points="120.63 304.69 131.81 293.51 143 304.69 120.63 304.69"/><polygon class="cls-3" points="147.63 304.69 158.81 293.51 170 304.69 147.63 304.69"/><polygon class="cls-3" points="174.63 304.69 185.81 293.51 197 304.69 174.63 304.69"/><rect class="cls-4" y="282.33" width="479.98" height="11.18"/><rect class="cls-4" y="170.75" width="479.98" height="11.18"/><rect class="cls-5" y="271.15" width="479.98" height="11.18"/><rect class="cls-5" y="181.71" width="479.98" height="11.18"/><rect class="cls-6" y="259.97" width="479.98" height="11.18"/><rect class="cls-6" y="192.89" width="479.98" height="11.18"/><rect class="cls-7" y="248.79" width="479.98" height="11.18"/><rect class="cls-7" y="204.07" width="479.98" height="11.18"/><rect class="cls-8" y="237.61" width="479.98" height="11.18"/><rect class="cls-8" y="215.25" width="479.98" height="11.18"/><rect class="cls-2" y="226.43" width="479.98" height="11.18"/><rect class="cls-2" y="159.57" width="479.98" height="11.18"/><polygon class="cls-3" points="281.22 293.51 292.4 282.33 303.58 293.51 281.22 293.51"/><polygon class="cls-3" points="281.22 282.33 281.22 271.15 292.4 271.15 303.58 282.33 281.22 282.33"/><polygon class="cls-3" points="308.22 293.51 319.4 282.33 330.58 293.51 308.22 293.51"/><polygon class="cls-3" points="335.22 293.51 346.4 282.33 357.58 293.51 335.22 293.51"/><polygon class="cls-3" points="360.88 293.51 372.06 282.33 383.25 293.51 360.88 293.51"/><polygon class="cls-3" points="387.88 293.51 399.06 282.33 410.25 293.51 387.88 293.51"/><polygon class="cls-3" points="308.22 282.33 319.4 271.15 330.58 282.33 308.22 282.33"/><polygon class="cls-3" points="335.22 282.33 346.4 271.15 357.58 282.33 335.22 282.33"/><polygon class="cls-3" points="360.88 282.33 372.06 271.15 383.25 282.33 360.88 282.33"/><polygon class="cls-3" points="387.88 282.33 399.06 271.15 410.25 282.33 387.88 282.33"/><polygon class="cls-3" points="308.22 271.15 319.4 259.97 330.58 271.15 308.22 271.15"/><polygon class="cls-3" points="335.22 271.15 346.4 259.97 357.58 271.15 335.22 271.15"/><polygon class="cls-3" points="360.88 271.15 372.06 259.97 383.25 271.15 360.88 271.15"/><polygon class="cls-3" points="387.88 271.15 399.06 259.97 410.25 271.15 387.88 271.15"/><polygon class="cls-3" points="308.22 259.97 308.22 248.79 319.4 248.79 330.58 259.97 308.22 259.97"/><polygon class="cls-3" points="335.22 259.97 346.4 248.79 357.58 259.97 335.22 259.97"/><polygon class="cls-3" points="360.88 259.97 372.06 248.79 383.25 259.97 360.88 259.97"/><polygon class="cls-3" points="387.88 259.97 399.06 248.79 410.25 259.97 387.88 259.97"/><polygon class="cls-3" points="360.88 304.69 372.06 293.51 383.25 304.69 360.88 304.69"/><polygon class="cls-3" points="387.88 304.69 399.06 293.51 410.25 304.69 387.88 304.69"/><polygon class="cls-3" points="68.38 293.51 79.56 282.33 90.75 293.51 68.38 293.51"/><polygon class="cls-3" points="95.38 293.51 106.56 282.33 117.75 293.51 95.38 293.51"/><polygon class="cls-3" points="68.3 304.69 79.48 293.51 90.66 304.69 68.3 304.69"/><polygon class="cls-3" points="95.3 304.69 106.48 293.51 117.66 304.69 95.3 304.69"/><polygon class="cls-3" points="202.18 159.57 213.36 170.75 224.62 170.75 224.54 159.57 202.18 159.57"/><polygon class="cls-3" points="229.18 159.57 240.36 170.75 251.54 159.57 229.18 159.57"/><polygon class="cls-3" points="256.18 159.57 256.18 170.75 267.36 170.75 278.54 159.57 256.18 159.57"/><polygon class="cls-3" points="281.68 159.57 292.86 170.75 304.04 159.57 281.68 159.57"/><polygon class="cls-3" points="308.76 159.57 319.94 170.75 331.12 159.57 308.76 159.57"/><polygon class="cls-3" points="335.76 159.57 346.94 170.75 358.12 159.57 335.76 159.57"/><polygon class="cls-3" points="121.17 159.57 132.36 170.75 143.54 159.57 121.17 159.57"/><polygon class="cls-3" points="148.18 159.57 159.36 170.75 170.54 159.57 148.18 159.57"/><polygon class="cls-3" points="175.18 159.57 186.36 170.75 197.54 159.57 175.18 159.57"/><polygon class="cls-3" points="361.43 159.57 372.61 170.75 383.79 159.57 361.43 159.57"/><polygon class="cls-3" points="388.43 159.57 399.61 170.75 410.79 159.57 388.43 159.57"/><polygon class="cls-3" points="68.84 159.57 80.02 170.75 91.2 159.57 68.84 159.57"/><polygon class="cls-3" points="95.84 159.57 107.02 170.75 118.2 159.57 95.84 159.57"/><polygon class="cls-3" points="120.72 293.51 131.9 282.33 143.08 293.51 120.72 293.51"/><polygon class="cls-3" points="147.72 293.51 158.9 282.33 170.08 293.51 147.72 293.51"/><polygon class="cls-3" points="68.38 282.33 79.56 271.15 90.75 282.33 68.38 282.33"/><polygon class="cls-3" points="95.38 282.33 106.56 271.15 117.75 282.33 95.38 282.33"/><polygon class="cls-3" points="120.72 282.33 131.9 271.15 143.08 282.33 120.72 282.33"/><polygon class="cls-3" points="147.72 282.33 158.9 271.15 170.08 282.33 147.72 282.33"/><polygon class="cls-3" points="68.38 271.15 79.56 259.97 90.75 271.15 68.38 271.15"/><polygon class="cls-3" points="95.38 271.15 106.56 259.97 117.75 271.15 95.38 271.15"/><polygon class="cls-3" points="120.72 271.15 131.9 259.97 143.08 271.15 120.72 271.15"/><polygon class="cls-3" points="147.72 271.15 158.9 259.97 170.08 271.15 147.72 271.15"/><polygon class="cls-3" points="68.38 259.97 79.56 248.79 90.75 259.97 68.38 259.97"/><polygon class="cls-3" points="95.38 259.97 106.56 248.79 117.75 259.97 95.38 259.97"/><polygon class="cls-3" points="120.72 259.97 131.9 248.79 143.08 259.97 120.72 259.97"/><polygon class="cls-3" points="147.72 259.97 158.9 248.79 170.08 248.79 170.08 259.97 147.72 259.97"/><polygon class="cls-3" points="170.41 204.07 170.41 215.25 159.23 215.25 148.05 204.07 170.41 204.07"/><polygon class="cls-3" points="143.41 204.07 132.23 215.25 121.05 204.07 143.41 204.07"/><polygon class="cls-3" points="117.75 204.07 106.56 215.25 95.38 204.07 117.75 204.07"/><polygon class="cls-3" points="90.75 204.07 79.56 215.25 68.38 204.07 90.75 204.07"/><polygon class="cls-3" points="410.25 204.07 399.06 215.25 387.88 204.07 410.25 204.07"/><polygon class="cls-3" points="383.25 204.07 372.06 215.25 360.88 204.07 383.25 204.07"/><polygon class="cls-3" points="357.91 204.07 346.73 215.25 335.55 204.07 357.91 204.07"/><polygon class="cls-3" points="330.91 204.07 319.73 215.25 308.55 215.25 308.55 204.07 330.91 204.07"/><polygon class="cls-3" points="174.72 293.51 185.9 282.33 197.08 293.51 174.72 293.51"/><polygon class="cls-3" points="174.72 282.33 185.9 271.15 197.08 271.15 197.08 282.33 174.72 282.33"/><polygon class="cls-3" points="281.22 181.94 281.22 193.13 292.4 193.13 303.58 181.94 281.22 181.94"/><polygon class="cls-3" points="308.22 181.94 319.4 193.13 330.58 181.94 308.22 181.94"/><polygon class="cls-3" points="335.22 181.94 346.4 193.13 357.58 181.94 335.22 181.94"/><polygon class="cls-3" points="360.88 181.94 372.06 193.13 383.25 181.94 360.88 181.94"/><polygon class="cls-3" points="387.88 181.94 399.06 193.13 410.25 181.94 387.88 181.94"/><polygon class="cls-3" points="68.38 181.94 79.56 193.13 90.75 181.94 68.38 181.94"/><polygon class="cls-3" points="95.38 181.94 106.56 193.13 117.75 181.94 95.38 181.94"/><polygon class="cls-3" points="120.72 181.94 131.9 193.13 143.08 181.94 120.72 181.94"/><polygon class="cls-3" points="147.72 181.94 158.9 193.13 170.08 181.94 147.72 181.94"/><polygon class="cls-3" points="174.72 181.94 185.9 193.13 197.08 193.13 197.08 181.94 174.72 181.94"/><polygon class="cls-3" points="201.72 394.13 212.9 382.95 224.08 394.13 201.72 394.13"/><polygon class="cls-3" points="228.72 394.13 239.9 382.95 251.08 394.13 228.72 394.13"/><polygon class="cls-3" points="255.72 394.13 266.9 382.95 278.08 394.13 255.72 394.13"/><polygon class="cls-3" points="201.72 405.32 212.9 394.13 224.08 405.32 201.72 405.32"/><polygon class="cls-3" points="228.72 405.32 239.9 394.13 251.08 405.32 228.72 405.32"/><polygon class="cls-3" points="255.72 405.32 266.9 394.13 278.08 405.32 255.72 405.32"/><polygon class="cls-3" points="202.78 81.56 213.96 92.74 225.14 81.56 202.78 81.56"/><polygon class="cls-3" points="202.78 92.74 213.96 103.92 225.14 92.74 202.78 92.74"/><polygon class="cls-3" points="202.78 103.92 213.96 115.1 225.14 103.92 202.78 103.92"/><polygon class="cls-3" points="202.78 115.1 213.96 126.28 225.14 115.1 202.78 115.1"/><polygon class="cls-3" points="202.78 126.28 213.96 137.46 225.14 126.28 202.78 126.28"/><polygon class="cls-3" points="121.78 126.28 132.96 137.46 144.14 126.28 121.78 126.28"/><polygon class="cls-3" points="148.78 126.28 159.96 137.46 171.14 126.28 148.78 126.28"/><polygon class="cls-3" points="175.78 126.28 186.96 137.46 198.14 126.28 175.78 126.28"/><polygon class="cls-3" points="202.78 137.46 213.96 148.64 225.14 137.46 202.78 137.46"/><polygon class="cls-3" points="121.78 137.46 132.96 148.64 144.14 137.46 121.78 137.46"/><polygon class="cls-3" points="148.78 137.46 159.96 148.64 171.14 137.46 148.78 137.46"/><polygon class="cls-3" points="175.78 137.46 186.96 148.64 198.14 137.46 175.78 137.46"/><polygon class="cls-3" points="202.78 148.64 213.96 159.82 225.14 148.64 202.78 148.64"/><polygon class="cls-3" points="121.78 148.64 132.96 159.82 144.14 148.64 121.78 148.64"/><polygon class="cls-3" points="148.78 148.64 159.96 159.82 171.14 148.64 148.78 148.64"/><polygon class="cls-3" points="175.78 148.64 186.96 159.82 198.14 148.64 175.78 148.64"/><polygon class="cls-3" points="202.78 70.38 213.96 81.56 225.14 70.38 202.78 70.38"/><polygon class="cls-3" points="202.78 59.2 213.96 70.38 225.14 59.2 202.78 59.2"/><polygon class="cls-3" points="251.08 81.56 239.9 92.74 228.72 81.56 251.08 81.56"/><polygon class="cls-3" points="251.08 92.74 239.9 103.92 228.72 92.74 251.08 92.74"/><polygon class="cls-3" points="251.08 103.92 239.9 115.1 228.72 103.92 251.08 103.92"/><polygon class="cls-3" points="251.08 115.1 239.9 126.28 228.72 115.1 251.08 115.1"/><polygon class="cls-3" points="251.08 126.28 239.9 137.46 228.72 126.28 251.08 126.28"/><polygon class="cls-3" points="251.08 137.46 239.9 148.64 228.72 137.46 251.08 137.46"/><polygon class="cls-3" points="251.08 148.64 239.9 159.82 228.72 148.64 251.08 148.64"/><polygon class="cls-3" points="251.08 159.82 239.9 171 228.72 159.82 251.08 159.82"/><polygon class="cls-3" points="251.08 70.38 239.9 81.56 228.72 70.38 251.08 70.38"/><polygon class="cls-3" points="251.08 59.2 239.9 70.38 228.72 59.2 251.08 59.2"/><polygon class="cls-3" points="255.5 81.56 266.68 92.74 277.87 81.56 255.5 81.56"/><polygon class="cls-3" points="255.5 92.74 266.68 103.92 277.87 92.74 255.5 92.74"/><polygon class="cls-3" points="255.5 103.92 266.68 115.1 277.87 103.92 255.5 103.92"/><polygon class="cls-3" points="255.5 115.1 266.68 126.28 277.87 115.1 255.5 115.1"/><polygon class="cls-3" points="255.5 126.28 266.68 137.46 277.87 126.28 255.5 126.28"/><polygon class="cls-3" points="281 126.28 292.18 137.46 303.37 126.28 281 126.28"/><polygon class="cls-3" points="308 126.28 319.18 137.46 330.37 126.28 308 126.28"/><polygon class="cls-3" points="335 126.28 346.18 137.46 357.37 126.28 335 126.28"/><polygon class="cls-3" points="255.5 137.46 266.68 148.64 277.87 137.46 255.5 137.46"/><polygon class="cls-3" points="281 137.46 292.18 148.64 303.37 137.46 281 137.46"/><polygon class="cls-3" points="308 137.46 319.18 148.64 330.37 137.46 308 137.46"/><polygon class="cls-3" points="335 137.46 346.18 148.64 357.37 137.46 335 137.46"/><polygon class="cls-3" points="255.5 148.64 266.68 159.82 277.87 148.64 255.5 148.64"/><polygon class="cls-3" points="281 148.64 292.18 159.82 303.37 148.64 281 148.64"/><polygon class="cls-3" points="308 148.64 319.18 159.82 330.37 148.64 308 148.64"/><polygon class="cls-3" points="335 148.64 346.18 159.82 357.37 148.64 335 148.64"/><polygon class="cls-3" points="255.5 70.38 266.68 81.56 277.87 70.38 255.5 70.38"/><polygon class="cls-3" points="255.5 59.2 266.68 70.38 277.87 59.2 255.5 59.2"/><polygon class="cls-3" points="300.85 232.56 283.96 249.46 282.8 248.29 282.8 216.82 283.96 215.67 300.85 232.56"/><polygon class="cls-3" points="283.96 249.46 270.37 263.04 268.69 261.36 268.69 248.29 282.8 248.29 283.96 249.46"/><polygon class="cls-3" points="283.96 215.67 282.8 216.82 268.69 216.82 268.69 203.77 270.37 202.09 283.96 215.67"/><polygon class="cls-3" points="270.37 202.09 268.69 203.77 255.63 203.77 255.63 191.43 224.17 191.43 224.17 203.77 211.1 203.77 209.42 202.09 239.9 171.62 270.37 202.09"/><polygon class="cls-3" points="270.37 263.04 239.9 293.51 209.42 263.04 211.1 261.36 224.17 261.36 224.17 272.68 255.63 272.68 255.63 261.36 268.69 261.36 270.37 263.04"/><polygon class="cls-3" points="211.1 248.29 211.1 261.36 209.42 263.04 195.84 249.46 196.99 248.29 211.1 248.29"/><polygon class="cls-3" points="211.1 203.77 211.1 216.82 196.99 216.82 195.84 215.67 209.42 202.09 211.1 203.77"/><polygon class="cls-3" points="196.99 216.82 196.99 248.29 195.84 249.46 178.95 232.56 195.84 215.67 196.99 216.82"/><rect class="cls-3" x="223.03" y="216.01" width="33.74" height="33.74" transform="translate(-94.41 237.84) rotate(-45)"/><polygon class="cls-3" points="198.76 282.33 209.94 293.51 209.98 282.33 198.76 282.33"/><polygon class="cls-3" points="171.76 259.97 182.94 271.15 182.98 259.97 171.76 259.97"/><polygon class="cls-3" points="295.25 271.17 306.43 259.99 295.25 259.95 295.25 271.17"/><polygon class="cls-3" points="308.22 192.89 319.4 204.07 330.58 192.89 308.22 192.89"/><polygon class="cls-3" points="335.22 192.89 346.4 204.07 357.58 192.89 335.22 192.89"/><polygon class="cls-3" points="360.88 192.89 372.06 204.07 383.25 192.89 360.88 192.89"/><polygon class="cls-3" points="387.88 192.89 399.06 204.07 410.25 192.89 387.88 192.89"/><polygon class="cls-3" points="68.38 192.89 79.56 204.07 90.75 192.89 68.38 192.89"/><polygon class="cls-3" points="95.38 192.89 106.56 204.07 117.75 192.89 95.38 192.89"/><polygon class="cls-3" points="120.72 192.89 131.9 204.07 143.08 192.89 120.72 192.89"/><polygon class="cls-3" points="147.72 192.89 158.9 204.07 170.08 192.89 147.72 192.89"/><polygon class="cls-3" points="171.76 204.07 182.94 192.89 182.98 204.07 171.76 204.07"/><polygon class="cls-3" points="295.25 192.87 306.43 204.04 295.25 204.09 295.25 192.87"/><polygon class="cls-3" points="268.69 293.53 279.87 282.35 268.69 282.31 268.69 293.53"/><polygon class="cls-3" points="281.22 170.75 292.4 181.93 303.58 170.75 281.22 170.75"/><polygon class="cls-3" points="308.22 170.75 319.4 181.93 330.58 170.75 308.22 170.75"/><polygon class="cls-3" points="335.22 170.75 346.4 181.93 357.58 170.75 335.22 170.75"/><polygon class="cls-3" points="360.88 170.75 372.06 181.93 383.25 170.75 360.88 170.75"/><polygon class="cls-3" points="387.88 170.75 399.06 181.93 410.25 170.75 387.88 170.75"/><polygon class="cls-3" points="68.38 170.75 79.56 181.93 90.75 170.75 68.38 170.75"/><polygon class="cls-3" points="95.38 170.75 106.56 181.93 117.75 170.75 95.38 170.75"/><polygon class="cls-3" points="120.72 170.75 131.9 181.93 143.08 170.75 120.72 170.75"/><polygon class="cls-3" points="147.72 170.75 158.9 181.93 170.08 170.75 147.72 170.75"/><polygon class="cls-3" points="174.72 170.75 185.9 181.93 197.08 170.75 174.72 170.75"/><polygon class="cls-3" points="198.76 181.93 209.94 170.75 209.98 181.93 198.76 181.93"/><polygon class="cls-3" points="268.69 170.73 279.87 181.91 268.69 181.96 268.69 170.73"/><polygon class="cls-3" points="114.48 248.79 131.9 231.37 149.32 248.79 114.48 248.79"/><polygon class="cls-3" points="149.32 215.25 131.9 232.66 114.48 215.25 149.32 215.25"/><polygon class="cls-3" points="328.98 248.79 346.4 231.37 363.82 248.79 328.98 248.79"/><polygon class="cls-3" points="166.29 250.98 147.27 231.96 166.29 212.94 166.29 250.98"/><polygon class="cls-3" points="312.1 213 331.12 232.02 312.1 251.04 312.1 213"/><polygon class="cls-3" points="363.82 215.25 346.4 232.66 328.98 215.25 363.82 215.25"/><polygon class="cls-3" points="354.65 248.79 372.06 231.37 389.48 248.79 354.65 248.79"/><polygon class="cls-3" points="389.48 215.25 372.06 232.66 354.65 215.25 389.48 215.25"/><polygon class="cls-3" points="381.65 248.79 399.06 231.37 416.48 248.79 381.65 248.79"/><polygon class="cls-3" points="416.48 215.25 399.06 232.66 381.65 215.25 416.48 215.25"/><polygon class="cls-3" points="89.15 248.79 106.56 231.37 123.98 248.79 89.15 248.79"/><polygon class="cls-3" points="123.98 215.25 106.56 232.66 89.15 215.25 123.98 215.25"/><polygon class="cls-3" points="62.15 248.79 79.56 231.37 96.98 248.79 62.15 248.79"/><polygon class="cls-3" points="96.98 215.25 79.56 232.66 62.15 215.25 96.98 215.25"/><rect class="cls-9" x="24.66" y="18.66" width="430.48" height="430.48"/><rect class="cls-9" x="37.04" y="29.94" width="405.72" height="405.72"/><circle class="cls-3" cx="77.39" cy="70.38" r="17.33"/><circle class="cls-3" cx="402.4" cy="70.38" r="17.33"/><circle class="cls-3" cx="402.4" cy="395.39" r="17.33"/><circle class="cls-3" cx="77.39" cy="395.39" r="17.33"/><path class="cls-9" d="M56.9,89.9c10.54,11.06,26.41,13.42,37,7,13.44-8.15,17.89-30.17,5-46"/><path class="cls-9" d="M423.43,88.43c-10.54,11.06-26.41,13.42-37,7-13.44-8.15-17.89-30.17-5-46"/><path class="cls-9" d="M423.43,376.06c-10.54-11.06-26.41-13.42-37-7-13.44,8.15-17.89,30.17-5,46"/><path class="cls-9" d="M56.9,376.06c10.54-11.06,26.41-13.42,37-7,13.44,8.15,17.89,30.17,5,46"/></g></g></svg>