<svg xmlns="http://www.w3.org/2000/svg" viewBox="0 0 88.09 91.57"><defs><style>.cls-1{fill:#665865;}.cls-2{fill:#a65755;}.cls-3{fill:#f44832;}.cls-4{fill:#ff9b51;}.cls-5{fill:#fcfc69;}.cls-6{fill:#b1c8e8;}</style></defs><title>sunsetFL</title><g id="Layer_2" data-name="Layer 2"><g id="Layer_1-2" data-name="Layer 1"><path class="cls-1" d="M65.13,35.89C42.76,35.18,43.33,34.6,44,57,44.76,34.6,45.33,35.18,23,35.89,45.33,36.6,44.76,37.17,44,14.8,43.33,37.17,42.76,36.6,65.13,35.89Z"/><path class="cls-1" d="M54.77,44.12C44,24.49,44.81,24.69,25.9,36.66c19.63-10.75,19.43-10,7.46-28.87,10.75,19.63,10,19.43,28.87,7.46C42.59,26,42.8,25.21,54.77,44.12Z"/><path class="cls-1" d="M56.53,20.89c-22.38-.51-21.81-1.09-20.89,21.27.51-22.38,1.09-21.81-21.27-20.89C36.74,21.78,36.17,22.36,35.26,0,34.75,22.38,34.17,21.81,56.53,20.89Z"/><path class="cls-1" d="M37.3,7.76c-11.63,19.12-11.85,18.34,8,28.73-19.12-11.63-18.34-11.85-28.73,8,11.63-19.12,11.85-18.34-8-28.73C27.69,27.36,26.9,27.58,37.3,7.76Z"/><path class="cls-2" d="M48,35.67c-22.38-.51-21.81-1.09-20.89,21.27C27.58,34.56,28.16,35.13,5.8,36c22.38.51,21.81,1.09,20.89-21.27C26.18,37.15,25.6,36.58,48,35.67Z"/><path class="cls-2" d="M28.73,22.53c-11.63,19.12-11.85,18.34,8,28.73C17.58,39.63,18.37,39.41,8,59.24,19.61,40.11,19.82,40.9,0,30.5,19.12,42.13,18.34,42.35,28.73,22.53Z"/><path class="cls-2" d="M7.74,33.56C18.48,53.2,17.7,53,36.61,41,17,51.77,17.18,51,29.15,69.89,18.4,50.26,19.19,50.46.28,62.43,19.91,51.69,19.71,52.48,7.74,33.56Z"/><path class="cls-3" d="M37.24,37.33c-11.63,19.12-11.85,18.34,8,28.73C26.09,54.43,26.88,54.21,16.49,74c11.63-19.12,11.85-18.34-8-28.73C27.63,56.94,26.85,57.15,37.24,37.33Z"/><path class="cls-3" d="M16.16,47.23C26.9,66.87,26.12,66.66,45,54.69c-19.63,10.75-19.43,10-7.46,28.87-10.75-19.63-10-19.43-28.87-7.46C28.33,65.36,28.13,66.15,16.16,47.23Z"/><path class="cls-3" d="M14.19,70.45C36.57,71,36,71.54,35.09,49.17,34.58,71.55,34,71,56.36,70.07,34,69.56,34.55,69,35.47,91.34,36,69,36.56,69.53,14.19,70.45Z"/><path class="cls-4" d="M33.32,47.45c10.75,19.63,10,19.43,28.87,7.46-19.63,10.75-19.43,10-7.46,28.87C44,64.14,44.78,64.35,25.86,76.32,45.5,65.57,45.29,66.36,33.32,47.45Z"/><path class="cls-4" d="M31.56,70.68c22.38.51,21.81,1.09,20.89-21.27-.51,22.38-1.09,21.81,21.27,20.89-22.38-.51-21.81-1.09-20.89,21.27C53.34,69.19,53.93,69.76,31.56,70.68Z"/><path class="cls-4" d="M50.79,83.81c11.63-19.12,11.85-18.34-8-28.73,19.12,11.63,18.34,11.85,28.73-8-11.63,19.12-11.85,18.34,8,28.73C60.4,64.21,61.19,64,50.79,83.81Z"/><path class="cls-5" d="M40.12,55.91C62.5,56.41,61.93,57,61,34.63,60.51,57,59.93,56.44,82.29,55.53,59.92,55,60.49,54.44,61.4,76.8,61.91,54.42,62.49,55,40.12,55.91Z"/><path class="cls-5" d="M59.36,69C71,49.92,71.21,50.7,51.38,40.31c19.12,11.63,18.34,11.85,28.73-8-11.63,19.12-11.85,18.34,8,28.73C69,49.44,69.75,49.22,59.36,69Z"/><path class="cls-5" d="M80.35,59c-10.75-19.63-10-19.43-28.87-7.46,19.63-10.75,19.43-10,7.46-28.87,10.75,19.63,10,19.43,28.87,7.46C68.18,40.83,68.38,40,80.35,59Z"/><path class="cls-6" d="M71.84,44.15C61.1,24.52,61.89,24.72,43,36.69c19.63-10.75,19.43-10,7.46-28.87,10.75,19.63,10,19.43,28.87,7.46C59.67,26,59.87,25.24,71.84,44.15Z"/><path class="cls-6" d="M73.61,20.93C51.23,20.42,51.8,19.84,52.71,42.2c.51-22.38,1.09-21.81-21.27-20.89C53.81,21.81,53.24,22.4,52.33,0,51.82,22.41,51.24,21.84,73.61,20.93Z"/><path class="cls-6" d="M63.16,59.1c-10.57-19.73-9.78-19.52-28.8-7.72,19.73-10.57,19.52-9.78,7.72-28.8,10.57,19.73,9.78,19.52,28.8,7.72C51.15,40.86,51.36,40.08,63.16,59.1Z"/><path class="cls-6" d="M50.85,54.24c11.63-19.12,11.85-18.34-8-28.73C62,37.14,61.21,37.36,71.6,17.53,60,36.66,59.76,35.87,79.58,46.26,60.46,34.63,61.24,34.42,50.85,54.24Z"/><path class="cls-5" d="M42.08,69c11.8-19,12-18.23-7.72-28.8,19,11.8,18.23,12,28.8-7.72-11.8,19-12,18.23,7.72,28.8C51.86,49.48,52.65,49.27,42.08,69Z"/><path class="cls-4" d="M23,55.68C45.33,56.4,44.76,57,44,34.6,43.33,57,42.76,56.4,65.13,55.68,42.76,55,43.33,54.4,44,76.77,44.76,54.4,45.33,55,23,55.68Z"/><path class="cls-3" d="M24.93,32.47C35.5,52.2,34.71,52,53.73,40.19,34,50.76,34.21,50,46,69c-10.57-19.73-9.78-19.52-28.8-7.72C36.94,50.71,36.73,51.49,24.93,32.47Z"/><path class="cls-2" d="M46,22.58c-11.8,19-12,18.23,7.72,28.8-19-11.8-18.23-12-28.8,7.72,11.8-19,12-18.23-7.72-28.8C36.23,42.09,35.44,42.31,46,22.58Z"/></g></g></svg>