<svg xmlns="http://www.w3.org/2000/svg" viewBox="0 0 31.25 57.53"><defs><style>.cls-1{fill:none;stroke:#000;stroke-miterlimit:10;}</style></defs><title>co</title><g id="Layer_2" data-name="Layer 2"><g id="Layer_1-2" data-name="Layer 1"><path class="cls-1" d="M10.09,42.46"/><path class="cls-1" d="M30.75,0V6.56a4,4,0,0,1-4,4H25.39c-2.2,0-4.57,0-5.27-.05l-.84.05C9.85,11.13,2.69,19.8,2.25,29c-.36,7.56,5.67,12.45,7.85,13.46"/><path class="cls-1" d="M30.75,44.42V53a4,4,0,0,1-4,4h-.13c-2.2,0-4.87,0-5.94.06L19.1,57C15.92,56.84,6,56.8.3,52.48"/><path class="cls-1" d="M27.71,42.46"/></g></g></svg>