<svg xmlns="http://www.w3.org/2000/svg" viewBox="0 0 32.09 57.53"><defs><style>.cls-1{fill:none;stroke:#000;stroke-miterlimit:10;}</style></defs><title>go</title><g id="Layer_2" data-name="Layer 2"><g id="Layer_1-2" data-name="Layer 1"><path class="cls-1" d="M10.36,42.46"/><path class="cls-1" d="M31.59,0V6.56a4,4,0,0,1-4,4H26c-2.2,0-4.59,0-5.31-.05l-.87.05c-9.69.57-17,9.24-17.5,18.45-.37,7.56,5.83,12.45,8.07,13.46"/><path class="cls-1" d="M.3,52.48C6.11,56.8,16.35,56.84,19.61,57l1.63.06c1.1,0,3.79-.06,6-.06h.35a4,4,0,0,0,4-4V30.52"/><path class="cls-1" d="M28.46,42.46"/><line class="cls-1" x1="16.01" y1="40.07" x2="21.3" y2="40.07"/></g></g></svg>