<svg xmlns="http://www.w3.org/2000/svg" viewBox="0 0 39.55 58"><defs><style>.cls-1{fill:none;stroke:#000;stroke-miterlimit:10;}</style></defs><title>oo</title><g id="Layer_2" data-name="Layer 2"><g id="Layer_1-2" data-name="Layer 1"><path d="M7.9,4.69l-.18.17a2.14,2.14,0,0,1-.14-.22s.08-.09.1-.08A1.19,1.19,0,0,1,7.9,4.69Z"/><path class="cls-1" d="M16.34,13.3a24.59,24.59,0,0,0-6.05.42C4.85,15.19.5,20.08.5,28.3S3.57,41.52,8.79,43.75c3,1.29,7.56.89,7.56.89"/><path class="cls-1" d="M12.52,57.5c6,0,6.57-.17,8.76-.76,9.88-2.66,17.78-11.54,17.78-26.47s-5.57-24-15-28A20.94,20.94,0,0,0,13.69.61"/></g></g></svg>