<svg xmlns="http://www.w3.org/2000/svg" viewBox="0 0 35.78 54.5"><defs><style>.cls-1{fill:none;stroke:#000;stroke-miterlimit:10;}</style></defs><title>po</title><g id="Layer_2" data-name="Layer 2"><g id="Layer_1-2" data-name="Layer 1"><path class="cls-1" d="M0,54H6.32a4,4,0,0,0,4-4V29c0-2.2,1.07-4,2.38-3.9l1.6-.1a30.35,30.35,0,0,0,7.31-1.29c1.51-.48,5.79-1.86,8.51-4.8,5.55-6,5.3-16.16,5-17"/><path class="cls-1" d="M9.71,11.34V4.53c0-2.2.89-4,2-4l1.42,0c3-.1,4-.06,5.61,1.42,1.18,1.09,1,2.82,1,3.46"/></g></g></svg>