<svg xmlns="http://www.w3.org/2000/svg" viewBox="0 0 39.73 58"><defs><style>.cls-1{fill:none;stroke:#000;stroke-miterlimit:10;}</style></defs><title>qo</title><g id="Layer_2" data-name="Layer 2"><g id="Layer_1-2" data-name="Layer 1"><path class="cls-1" d="M16.41,13.27a24.86,24.86,0,0,0-6.08.42C4.87,15.15.5,20,.5,28.24S3.58,41.43,8.82,43.65c3,1.29,7.59.89,7.59.89"/><path class="cls-1" d="M31.89,50.52C36.35,46,39.23,39.17,39.23,30.2c0-14.76-5.6-23.94-15.11-28A21.16,21.16,0,0,0,13.75.61"/><path class="cls-1" d="M31.89,50.52"/><path class="cls-1" d="M31.15,51.24"/><path class="cls-1" d="M31.89,50.52l2.32,3.6c1.19,1.85.37,3.37-1.83,3.37H26.49"/><line class="cls-1" x1="19.9" y1="34.15" x2="24.39" y2="41.11"/></g></g></svg>