<svg xmlns="http://www.w3.org/2000/svg" viewBox="0 0 39.29 53.83"><defs><style>.cls-1{fill:none;stroke:#000;stroke-miterlimit:10;}</style></defs><title>ro</title><g id="Layer_2" data-name="Layer 2"><g id="Layer_1-2" data-name="Layer 1"><path class="cls-1" d="M0,53.33H9.79a4,4,0,0,0,4-4V29.07"/><path class="cls-1" d="M24.78,53.33h9.79a2.71,2.71,0,0,0,2.73-3.79L31.18,31.27c-.7-2.09-.59-4.16.24-4.61a7.16,7.16,0,0,0,2-1.59l.35-.3c4.86-4.21,5.64-8.11,4.57-16.51"/><path class="cls-1" d="M13.79,11.19V4.53c0-2.2.87-4,1.94-4l1.4,0c3-.1,4-.06,5.54,1.4,1.16,1.07.95,2.78,1,3.41"/></g></g></svg>