<svg xmlns="http://www.w3.org/2000/svg" viewBox="0 0 38.95 56.53"><defs><style>.cls-1{fill:none;stroke:#000;stroke-miterlimit:10;}</style></defs><title>so</title><g id="Layer_2" data-name="Layer 2"><g id="Layer_1-2" data-name="Layer 1"><path class="cls-1" d="M37.05,0S36.55,8,34.34,9.1C33.43,9.58,27,7.39,27,7.39A29,29,0,0,0,19.22,6.1H16.09A11.37,11.37,0,0,0,9.41,8.57a8.63,8.63,0,0,0-2.63,5.55,13.59,13.59,0,0,0,1.06,5l1,1.93"/><path class="cls-1" d="M2.91,30c1.27,1.45,3.22,5.75,9.32,7.47,5.56,1.56,11.84,0,13.81-.46"/><path class="cls-1" d="M36.4,33.37"/><path class="cls-1" d="M.24,53.36c.78.43,14.57,5.71,26.57.13,8.76-4.07,12-11.85,11.61-21.24"/><path class="cls-1" d="M14.47,45.49"/></g></g></svg>