<svg xmlns="http://www.w3.org/2000/svg" xmlns:xlink="http://www.w3.org/1999/xlink" viewBox="0 0 44.22 61.51"><defs><style>.cls-1{fill:none;}.cls-2{isolation:isolate;}.cls-3{fill:#b2b2b2;}.cls-4{fill:#666;}.cls-5{fill:#909090;}.cls-6{fill:#4d4d4d;}.cls-7{fill:#6c6c6c;}.cls-8{fill:#868686;}.cls-9{fill:#333;}.cls-10{fill:#484848;}.cls-11{fill:#595959;}.cls-12{fill:#555;}.cls-13{clip-path:url(#clip-path);}.cls-14{fill:#505050;}.cls-15{fill:#535353;}.cls-16{fill:#565656;}.cls-17{fill:#5c5c5c;}.cls-18{fill:#5f5f5f;}.cls-19{fill:#626262;}.cls-20{clip-path:url(#clip-path-2);}.cls-21{fill:#434343;}.cls-22{clip-path:url(#clip-path-3);}.cls-23{fill:#414141;}.cls-24{fill:#8b8b8b;}.cls-25{fill:#696969;}.cls-26{fill:#1a1a1a;}.cls-27{fill:#242424;}.cls-28{fill:#2d2d2d;}.cls-29{fill:#1c1c1c;}</style><clipPath id="clip-path"><path class="cls-1" d="M19.76,49.77l-6.84-3.72.09-.24,0-.07.08-.19,0-.06.11-.23,0,0,.1-.19,0-.07.13-.21.16-.24,0-.06.13-.17,0-.05.17-.21,0,0,.15-.17.05-.06.17-.18.22-.21,0,0,.17-.15,0,0,.22-.18.22-.16.05,0,.2-.13.26-.16,6.84,3.72-.26.16-.2.13-.05,0-.22.16-.22.18,0,0-.17.15,0,0-.22.21-.17.18-.05.06L21,47.7l0,0-.17.21,0,.05-.13.17,0,.06-.16.24-.13.21,0,.07-.1.19,0,0-.11.23,0,.06-.08.19,0,.07Z"/></clipPath><clipPath id="clip-path-2"><path class="cls-1" d="M24.32,45.55l-6.84-3.72h.06l.21,0,6.84,3.72-.21,0Z"/></clipPath><clipPath id="clip-path-3"><path class="cls-1" d="M22.79,46.16l-6.84-3.72,0,0,.16-.09.06,0,.15-.08.06,0,.18-.08h0l.21-.09,0,0,.17-.06.07,0,.14,0,.07,0,.15,0,6.84,3.72-.15,0-.07,0-.14,0-.07,0-.17.06,0,0-.21.09h0l-.18.08-.06,0L23,46l-.06,0-.16.09Z"/></clipPath></defs><title>ase</title><g id="Layer_2" data-name="Layer 2"><g id="Layer_1-2" data-name="Layer 1"><g class="cls-2"><path class="cls-3" d="M44.07,52.76a3,3,0,0,1-2.52,4l-4.16.58-.84-5.77,6.89-1Z"/><polygon class="cls-4" points="37.39 57.36 30.55 53.64 29.71 47.87 36.55 51.59 37.39 57.36"/><polygon class="cls-5" points="36.55 51.59 29.71 47.87 36.6 46.91 43.44 50.63 36.55 51.59"/><polygon class="cls-6" points="36.55 51.59 29.71 47.87 28.89 42.22 35.73 45.94 36.55 51.59"/><polygon class="cls-7" points="35.5 44.38 28.66 40.66 34.51 39.84 41.35 43.55 35.5 44.38"/><polygon class="cls-6" points="35.73 45.94 28.89 42.22 28.66 40.66 35.5 44.38 35.73 45.94"/><polygon class="cls-8" points="43.44 50.63 36.55 51.59 35.73 45.94 35.5 44.38 41.35 43.55 43.44 50.63"/></g><g class="cls-2"><polygon class="cls-9" points="35.5 44.38 28.66 40.66 28.14 37.05 34.98 40.77 35.5 44.38"/><polygon class="cls-10" points="34.98 40.77 28.14 37.05 33.47 36.3 40.31 40.02 34.98 40.77"/><polygon class="cls-11" points="41.35 43.55 35.5 44.38 34.98 40.77 40.31 40.02 41.35 43.55"/></g><g class="cls-2"><polygon class="cls-7" points="22.77 46.17 15.93 42.45 24.2 41.28 31.03 45.01 22.77 46.17"/><polygon class="cls-6" points="18.48 53.57 11.64 49.85 11.64 49.85 18.48 53.57 18.48 53.57"/><polygon class="cls-6" points="18.48 53.57 11.64 49.85 11.64 49.85 18.48 53.57 18.48 53.57"/><polygon class="cls-12" points="18.48 53.57 11.64 49.85 12.92 46.05 19.76 49.77 18.48 53.57"/><g class="cls-2"><g class="cls-13"><g class="cls-2"><path class="cls-14" d="M19.76,49.77l-6.84-3.72,0-.12,6.84,3.72,0,.12"/><path class="cls-15" d="M19.8,49.65,13,45.93l0-.12,0-.07.08-.19,0-.06.11-.23v0L20.11,49v0l-.11.23,0,.06-.08.19,0,.07,0,.12"/><path class="cls-16" d="M20.11,49l-6.84-3.72v0l6.84,3.72v0"/><path class="cls-15" d="M20.12,48.94l-6.84-3.72h0l0,0,6.84,3.72,0,0h0"/><path class="cls-16" d="M20.14,48.9,13.3,45.18l.09-.16,0-.07.13-.21.15-.22,6.84,3.72-.15.22-.13.21,0,.07-.09.16"/><path class="cls-11" d="M20.54,48.25l-6.84-3.72,0,0,0-.06.13-.17,0-.05.17-.21,0,0,.07-.08L21,47.62,21,47.7l0,0-.17.21,0,.05-.13.17,0,.06,0,0"/><path class="cls-17" d="M21,47.62,14.21,43.9l.08-.09.05-.06.17-.18.22-.21,0,0,0,0L21.65,47l0,0,0,0-.22.21-.17.18-.05.06-.08.09"/><path class="cls-18" d="M21.65,47l-6.84-3.72.13-.12,0,0,.22-.18.22-.16.05,0,.07,0,6.84,3.72-.07,0-.05,0-.22.16-.22.18,0,0-.13.12"/><path class="cls-19" d="M22.38,46.42,15.55,42.7l.13-.09.26-.16,6.84,3.72-.26.16-.13.09"/></g></g></g><path class="cls-8" d="M26.58,48l-8.1,5.52,1.28-3.8.09-.24,0-.07.08-.19,0-.06L20.1,49l0,0,.1-.19,0-.07.13-.21.16-.24,0-.06.13-.17,0-.05.17-.21,0,0,.15-.17.05-.06.17-.18.22-.21,0,0,.17-.15,0,0,.22-.18.22-.16.05,0,.2-.13.26-.16L31,45Z"/></g><g class="cls-2"><polygon class="cls-9" points="34.98 40.77 28.14 37.05 28.03 36.33 34.87 40.05 34.98 40.77"/><polygon class="cls-9" points="34.87 40.05 28.03 36.33 27.61 33.44 34.45 37.16 34.87 40.05"/><polygon class="cls-10" points="34.45 37.16 27.61 33.44 32.42 32.77 39.26 36.48 34.45 37.16"/><polygon class="cls-11" points="40.31 40.02 34.98 40.77 34.87 40.05 34.45 37.16 39.26 36.48 39.59 37.59 40.31 40.02"/></g><g class="cls-2"><polygon class="cls-10" points="24.59 45.5 17.75 41.78 24.96 40.76 31.8 44.48 24.59 45.5"/><g class="cls-2"><g class="cls-20"><g class="cls-2"><path class="cls-21" d="M24.32,45.55l-6.84-3.72h.06l.21,0,6.84,3.72-.21,0h-.06"/></g></g></g><g class="cls-2"><g class="cls-22"><g class="cls-2"><path class="cls-23" d="M22.79,46.16l-6.84-3.72,0,0,.16-.09.06,0,.15-.08.06,0h0l6.84,3.72h0l-.06,0L23,46l-.06,0-.16.09,0,0"/><path class="cls-21" d="M23.27,45.91l-6.84-3.72.16-.07h0l.21-.09,0,0,.17-.06.07,0,.14,0,.07,0,.15,0,6.84,3.72-.15,0-.07,0-.14,0-.07,0-.17.06,0,0-.21.09h0l-.16.07"/></g></g></g><path class="cls-11" d="M24.32,45.55h.06l.21,0,7.21-1L31,45l-8.25,1.16,0,0,.16-.09L23,46l.15-.08.06,0,.18-.08h0l.21-.09,0,0,.17-.06.07,0,.14,0,.07,0Z"/></g><g class="cls-2"><polygon class="cls-5" points="17.44 54.28 10.6 50.56 11.44 50.44 18.28 54.16 17.44 54.28"/><polygon class="cls-24" points="6.84 61.51 0 57.79 10.6 50.56 17.44 54.28 6.84 61.51"/><path class="cls-3" d="M17.44,54.28l.85-.12-.76,2.25a6.76,6.76,0,0,1-4.83,4.27l-5.86.82Z"/></g><g class="cls-2"><polygon class="cls-25" points="18.1 53.83 11.26 50.11 11.64 49.85 18.48 53.57 18.1 53.83"/><polygon class="cls-25" points="17.44 54.28 10.6 50.56 11.26 50.11 18.1 53.83 17.44 54.28"/><polygon class="cls-8" points="17.44 54.28 18.1 53.83 18.48 53.57 18.28 54.16 17.44 54.28"/></g><g class="cls-2"><polygon class="cls-26" points="34.45 37.16 27.61 33.44 26.56 26.22 33.4 29.94 34.45 37.16"/><polygon class="cls-27" points="33.4 29.94 26.56 26.22 30.34 25.69 37.17 29.41 33.4 29.94"/><polygon class="cls-28" points="37.17 29.41 39.26 36.48 34.45 37.16 33.4 29.94 37.17 29.41"/></g><g class="cls-2"><polygon points="33.4 29.94 26.56 26.22 26.2 23.71 33.03 27.43 33.4 29.94"/><polygon points="33.03 27.43 26.2 23.71 25.51 19 32.35 22.72 33.03 27.43"/><polygon points="32.35 22.72 25.51 19 28.25 18.61 35.08 22.33 32.35 22.72"/><polygon points="36.23 26.22 37.17 29.41 33.4 29.94 33.03 27.43 32.35 22.72 35.08 22.33 36.23 26.22"/></g><g class="cls-2"><polygon class="cls-4" points="32.35 22.72 25.51 19 24.86 14.56 31.7 18.27 32.35 22.72"/><polygon class="cls-4" points="31.7 18.27 24.86 14.56 24.46 11.78 31.3 15.5 31.7 18.27"/><polygon class="cls-3" points="35.08 22.33 32.35 22.72 31.7 18.27 31.3 15.5 32.99 15.26 34.51 20.39 35.08 22.33"/><polygon class="cls-5" points="31.3 15.5 24.46 11.78 26.16 11.54 32.99 15.26 31.3 15.5"/><polygon class="cls-7" points="30.25 8.29 23.41 4.57 24.07 4.47 30.91 8.19 30.25 8.29"/><polygon class="cls-6" points="31.3 15.5 24.46 11.78 23.41 4.57 30.25 8.29 31.3 15.5"/><polygon class="cls-8" points="30.91 8.19 32.99 15.26 31.3 15.5 30.25 8.29 30.91 8.19"/></g><g class="cls-2"><polygon class="cls-9" points="30.25 8.29 23.41 4.57 22.75 0 29.59 3.72 30.25 8.29"/><polygon class="cls-11" points="30.91 8.19 30.25 8.29 29.59 3.72 30.91 8.19"/></g><g class="cls-2"><path d="M27.93,24.87l-6.84-3.72,1.62-.23,6.84,3.72Z"/><polygon class="cls-27" points="24.24 31.23 17.4 27.51 18.73 27.32 25.57 31.04 24.24 31.23"/><polygon class="cls-28" points="24.24 31.23 25.57 31.04 22.8 35.51 24.24 31.23"/><polygon class="cls-29" points="22.8 35.51 15.96 31.79 17.4 27.51 24.24 31.23 22.8 35.51"/><polygon points="24.24 31.23 17.4 27.51 18.2 25.15 25.04 28.87 24.24 31.23"/><path d="M25,28.87,18.2,25.15c.7-2.08,2-3.88,2.89-4l6.84,3.72C27,25,25.74,26.79,25,28.87Z"/><path d="M25.57,31l-1.33.19.8-2.36c.7-2.08,2-3.88,2.89-4l1.62-.23Z"/></g></g></g></svg>