<svg xmlns="http://www.w3.org/2000/svg" xmlns:xlink="http://www.w3.org/1999/xlink" viewBox="0 0 38.51 54.39"><defs><style>.cls-1{fill:none;}.cls-2{isolation:isolate;}.cls-3{fill:#686868;}.cls-4{fill:#909090;}.cls-5{fill:#b2b2b2;}.cls-6{fill:#4e4e4e;}.cls-7{fill:#6a6a6a;}.cls-8{fill:#868686;}.cls-9{fill:#8e8e8e;}.cls-10{fill:#7e7e7e;}.cls-11{fill:#5e5e5e;}.cls-12{clip-path:url(#clip-path);}.cls-13{fill:#656565;}.cls-14{fill:#626262;}.cls-15{fill:#5f5f5f;}.cls-16{clip-path:url(#clip-path-2);}.cls-17{clip-path:url(#clip-path-3);}.cls-18{clip-path:url(#clip-path-4);}.cls-19{fill:#505050;}.cls-20{fill:#535353;}.cls-21{fill:#565656;}.cls-22{fill:#595959;}.cls-23{fill:#5c5c5c;}.cls-24{fill:#343434;}.cls-25{fill:#484848;}.cls-26{clip-path:url(#clip-path-5);}.cls-27{fill:#222;}.cls-28{fill:#212121;}.cls-29{fill:#202020;}.cls-30{fill:#1a1a1a;}.cls-31{fill:#2d2d2d;}.cls-32{clip-path:url(#clip-path-6);}.cls-33{clip-path:url(#clip-path-7);}.cls-34{clip-path:url(#clip-path-8);}.cls-35{fill:#1b1b1b;}.cls-36{fill:#1c1c1c;}.cls-37{fill:#1d1d1d;}.cls-38{fill:#1e1e1e;}.cls-39{fill:#1f1f1f;}.cls-40{clip-path:url(#clip-path-9);}</style><clipPath id="clip-path"><path class="cls-1" d="M17.74.37l6.84,3.72a2.88,2.88,0,0,0-.89-.32L16.85.05A2.88,2.88,0,0,1,17.74.37Z"/></clipPath><clipPath id="clip-path-2"><path class="cls-1" d="M23.46,3.74,16.62,0h0l.18,0,6.84,3.72-.18,0Z"/></clipPath><clipPath id="clip-path-3"><path class="cls-1" d="M19.19,4.27,12.35.55,13,.43l.58-.11.24,0h.07l.23,0,.23,0h.07l.17,0h0l.2,0h.05L15,.1l.18,0h.08l.23,0h1.11l6.84,3.72H22.35l-.23,0H22l-.18,0-.11,0h-.05l-.2,0h0l-.17,0h-.07L21,4l-.23,0h-.07l-.24,0-.58.11Z"/></clipPath><clipPath id="clip-path-4"><path class="cls-1" d="M17.43,8.32,10.59,4.6c0-.07,0-.13,0-.2v0c0-.05,0-.11,0-.16V3.27l0-.1V3.09l0-.1,0-.07,0-.11V2.75l0-.1,0-.07,0-.09,0-.07,0-.09,0-.06,0-.09,0-.06L11,2,11,2l0-.08,0-.06,0-.07,0-.06,0-.07,0-.05,0-.07,0-.05,0-.07,0,0,0-.06,0,0,0-.06,0,0,0-.05,0,0,0,0,0,0,0,0,0,0,0,0,0,0,0,0,0,0,0,0,0,0,0,0,0,0,0,0,0,0h.19l6.84,3.72H19l0,0,0,0,0,0,0,0,0,0,0,0,0,0,0,0,0,0,0,0,0,0,0,0,0,0,0,0,0,0,0,.05,0,0,0,.06,0,0,0,.06,0,0,0,.07,0,.05,0,.07,0,.05,0,.07,0,.06,0,.07,0,.06,0,.08,0,.06,0,.09,0,.06,0,.09,0,.06,0,.09,0,.07,0,.09,0,.07,0,.1v.06l0,.11,0,.07,0,.1v.08l0,.1v.94c0,.05,0,.11,0,.16v0C17.43,8.18,17.43,8.25,17.43,8.32Z"/></clipPath><clipPath id="clip-path-5"><path class="cls-1" d="M17.7,24l6.84,3.72a2.88,2.88,0,0,0-.89-.31L16.8,23.69A2.88,2.88,0,0,1,17.7,24Z"/></clipPath><clipPath id="clip-path-6"><path class="cls-1" d="M23.42,27.38l-6.84-3.72h0l.18,0,6.84,3.72-.18,0Z"/></clipPath><clipPath id="clip-path-7"><path class="cls-1" d="M23,27.36l-6.84-3.72h.39l6.84,3.72H23Z"/></clipPath><clipPath id="clip-path-8"><path class="cls-1" d="M19.15,27.9l-6.84-3.72L13.57,24l.24,0h.06l.47-.08h0l.18,0h0l.2,0h0l.13,0,.17,0h.08l.23,0h.72L23,27.36h-.72l-.23,0H22l-.17,0-.13,0h0l-.2,0h0l-.18,0h0l-.47.08h-.06l-.24,0Z"/></clipPath><clipPath id="clip-path-9"><path class="cls-1" d="M17.39,32l-6.84-3.72q0-.2,0-.39v-.61l0-.15v0l0-.13v-.08l0-.1,0-.09,0-.09,0-.08,0-.09,0-.08,0-.09,0-.08,0-.08,0-.08,0-.08,0-.08,0-.07,0-.07,0-.08,0-.06,0-.08,0-.06,0-.07,0-.07,0-.06,0-.07,0-.06,0-.05,0-.06,0,0,0-.06,0,0,0-.06,0,0,0-.05,0,0,0,0,0,0,0,0,0,0,0,0,0,0,0,0,0,0,0,0,0,0,0,0,0,0,0,0h.19l6.84,3.72H19l0,0,0,0,0,0,0,0,0,0,0,0,0,0,0,0,0,0,0,0,0,0,0,0,0,0,0,0,0,.05,0,0,0,.06,0,0,0,.06,0,0,0,.06,0,.05,0,.06,0,.07L18,29l0,.07,0,.07,0,.06,0,.08,0,.06,0,.08,0,.07,0,.07,0,.08,0,.08,0,.08,0,.08,0,.08,0,.09,0,.08,0,.09,0,.08,0,.09,0,.09,0,.1v.08l0,.13v0l0,.15v.61Q17.39,31.76,17.39,32Z"/></clipPath></defs><title>bse</title><g id="Layer_2" data-name="Layer 2"><g id="Layer_1-2" data-name="Layer 1"><g class="cls-2"><polygon class="cls-3" points="23.6 51.62 16.76 47.9 16.77 42.11 23.61 45.83 23.6 51.62"/><polygon class="cls-4" points="23.61 45.83 16.77 42.11 28.35 40.48 35.19 44.2 23.61 45.83"/><path class="cls-5" d="M31.07,48.32l-.13.09-.45.3-.4.25a25.32,25.32,0,0,1-6.49,2.65V45.83L35.19,44.2l-.16.22-.14.19-.19.24-.12.16-.18.22-.12.14-.29.34-.1.11-.23.25-.13.13-.24.25-.1.1-.35.33-.11.1-.27.24-.13.11-.32.27-.07.06-.41.32-.12.09Z"/></g><g class="cls-2"><polygon class="cls-6" points="23.61 45.83 16.77 42.11 16.77 41.56 23.61 45.28 23.61 45.83"/><polygon class="cls-7" points="23.61 45.28 16.77 41.56 31.62 33.5 38.45 37.22 23.61 45.28"/><path class="cls-8" d="M35.22,44.15l0,0L23.61,45.83v-.54l14.85-8.06-.05.19v0l-.06.21-.07.24-.08.27,0,.06-.07.23-.1.3,0,.07-.1.27,0,0-.09.25,0,.08-.11.28,0,.09-.09.23,0,.1-.13.29,0,.11-.11.24-.06.12L37,41.2l-.06.13-.15.3-.06.11-.12.24-.07.13-.17.31-.08.13-.14.23L36,42.9l-.19.31-.09.14-.17.26-.1.15-.18.26Z"/></g><g class="cls-2"><polygon class="cls-4" points="22.26 46.02 15.42 42.3 16.77 42.11 23.61 45.83 22.26 46.02"/><polygon class="cls-9" points="6.84 54.39 0 50.67 15.42 42.3 22.26 46.02 6.84 54.39"/><path class="cls-5" d="M6.84,54.39,22.26,46l1.35-.19v5.79c-2.31.63-4.55,1-6.36,1.31l-.91.15c-1,.12-3.34.44-5.29.72Z"/></g><g class="cls-2"><polygon class="cls-7" points="22.26 46.02 15.42 42.3 16.77 41.56 23.61 45.28 22.26 46.02"/><polygon class="cls-8" points="22.26 46.02 23.61 45.28 23.61 45.83 22.26 46.02"/></g><g class="cls-2"><polygon points="31.77 15.21 24.93 11.49 29.76 10.81 36.59 14.54 31.77 15.21"/><polygon points="28.71 19.62 21.87 15.9 24.93 11.49 31.77 15.21 28.71 19.62"/><path d="M36.52,14.63l-.08.11-.17.23a12.35,12.35,0,0,1-7.56,4.64l3.06-4.41,4.82-.68Z"/></g><g class="cls-2"><polygon class="cls-4" points="37.45 7.05 30.61 3.33 31.66 3.18 38.5 6.9 37.45 7.05"/><polygon class="cls-10" points="34.08 11.89 27.24 8.17 30.61 3.33 37.45 7.05 34.08 11.89"/><polygon class="cls-10" points="31.77 15.21 24.93 11.49 27.24 8.17 34.08 11.89 31.77 15.21"/><path class="cls-5" d="M37.45,7.05,38.5,6.9V7c0,.07,0,.14,0,.21v.14q0,.18,0,.35V9.17l0,.26v.15l0,.15,0,.14,0,.14,0,.13,0,.15,0,.12,0,.14,0,.12,0,.24,0,.13,0,.13,0,.12,0,.13,0,.12,0,.12,0,.12,0,.12,0,.12,0,.12-.07.21,0,.11,0,.11,0,.12,0,.11-.05.11-.05.11-.05.11-.06.11-.05.11-.08.15-.09.16-.07.12-.06.11L37,14l-.07.11-.07.11-.07.11-.08.11-.07.11-4.83.69,2.31-3.32Z"/></g><g class="cls-2"><polygon class="cls-11" points="37.45 7.05 30.61 3.33 31.68 1.8 38.51 5.52 37.45 7.05"/><path class="cls-8" d="M38.5,6.9l-1.05.15,1.07-1.53c0,.14,0,.27,0,.4v.15c0,.08,0,.15,0,.22V6.9Z"/></g><g class="cls-2"><polygon class="cls-4" points="23.68 8.99 16.84 5.27 18.38 5.05 25.22 8.77 23.68 8.99"/><polygon class="cls-5" points="23.68 8.99 25.22 8.77 23.67 9.97 23.68 8.99"/><polygon class="cls-3" points="23.67 9.97 16.84 6.25 16.84 5.27 23.68 8.99 23.67 9.97"/><g class="cls-2"><g class="cls-12"><g class="cls-2"><path class="cls-13" d="M23.69,3.77,16.85.05l.23,0,6.84,3.72-.23,0"/><path class="cls-14" d="M23.91,3.82,17.08.1a2.86,2.86,0,0,1,.55.21L24.46,4a2.86,2.86,0,0,0-.55-.21"/><path class="cls-15" d="M24.46,4,17.63.31l.12.06,6.84,3.72L24.46,4"/></g></g></g><polygon class="cls-4" points="17.43 9.86 10.59 6.14 16.84 5.27 23.68 8.99 17.43 9.86"/><polygon class="cls-6" points="23.68 8.99 16.84 5.27 16.85 0.05 23.68 3.77 23.68 8.99"/><path class="cls-8" d="M26.33,7.9l-1.11.86L23.68,9V3.77a3.55,3.55,0,0,1,1.76.94,3.51,3.51,0,0,1,.88,2.75v.17C26.32,7.73,26.32,7.83,26.33,7.9Z"/><g class="cls-2"><g class="cls-16"><g class="cls-2"><path class="cls-13" d="M23.46,3.74,16.62,0h0l.18,0,6.84,3.72-.18,0h0"/></g></g></g><polygon class="cls-5" points="17.42 14.84 17.43 9.86 23.68 8.99 23.67 9.97 17.42 14.84"/><polygon class="cls-3" points="17.42 14.84 10.58 11.12 10.59 6.14 17.43 9.86 17.42 14.84"/><polygon class="cls-6" points="17.43 9.86 10.59 6.14 10.59 4.6 17.43 8.32 17.43 9.86"/><g class="cls-2"><g class="cls-17"><g class="cls-2"><path class="cls-13" d="M19.19,4.27,12.35.55,13,.43l.58-.11.24,0h.07l.23,0,.23,0h.07l.17,0h0l.2,0h.05L15,.1l.18,0h.08l.23,0h1.11l6.84,3.72H22.35l-.23,0H22l-.18,0-.11,0h-.05l-.2,0h0l-.17,0h-.07L21,4l-.23,0h-.07l-.24,0-.58.11-.68.12"/></g></g></g><g class="cls-2"><g class="cls-18"><g class="cls-2"><path class="cls-19" d="M17.43,8.32,10.59,4.6c0-.07,0-.13,0-.2v0c0-.05,0-.11,0-.16V3.27l0-.1V3.09l0-.1,0-.07,0-.11V2.75l0-.1,0-.07,0-.09,0-.07,0-.09,0-.06,0-.09,0-.06h0l6.84,3.72h0l0,.06,0,.09,0,.06,0,.09,0,.07,0,.09,0,.07,0,.1v.06l0,.11,0,.07,0,.1v.08l0,.1v.94c0,.05,0,.11,0,.16v0c0,.06,0,.13,0,.2"/><path class="cls-20" d="M17.84,5.82,11,2.1,11,2,11,2l0-.08,0-.06,0-.07,0-.06,0-.07,0-.05v0l6.84,3.72v0l0,.05,0,.07,0,.06,0,.07,0,.06,0,.08,0,.06,0,.07"/><path class="cls-21" d="M18.08,5.26,11.24,1.54l0,0,0-.05,0-.07,0,0,0-.06,0,0h0l6.84,3.72h0l0,0,0,.06,0,0,0,.07,0,.05,0,0"/><path class="cls-22" d="M18.28,4.93,11.44,1.21l0,0,0,0,0-.05,0,0V1l6.84,3.72v0l0,0,0,.05,0,0,0,0"/><path class="cls-23" d="M18.44,4.73,11.6,1l0,0,0,0,0,0,0,0h0l6.84,3.72h0l0,0,0,0,0,0,0,0"/><path class="cls-15" d="M18.59,4.58,11.75.86l0,0,0,0,0,0,0,0,6.84,3.72,0,0,0,0,0,0,0,0"/><path class="cls-14" d="M18.74,4.45,11.91.73h0l0,0,0,0,0,0,0,0,6.84,3.72,0,0,0,0,0,0,0,0h0"/><path class="cls-13" d="M18.91,4.36,12.07.64h0l0,0,0,0h.19l6.84,3.72H19l0,0,0,0h0"/></g></g></g><path class="cls-8" d="M23.46,3.74h0l.18,0V9l-6.25.88V8.32c0-.07,0-.13,0-.2v0c0-.05,0-.11,0-.16V7l0-.1V6.81l0-.1,0-.07,0-.11V6.47l0-.1,0-.07,0-.09,0-.07,0-.09,0-.06,0-.09,0-.06,0-.09,0-.06,0-.08,0-.06,0-.07,0-.06,0-.07,0-.05,0-.07,0-.05,0-.07,0,0,0-.06,0,0,0-.06,0,0,0-.05,0,0,0,0,0,0,0,0,0,0,0,0,0,0,0,0,0,0,0,0,0,0,0,0,0,0,0,0,0,0h.19l.68-.12L20.45,4l.24,0h.07L21,4l.23,0h.07l.17,0h0l.2,0h.05l.11,0,.18,0h.08l.23,0h1.11Z"/></g><g class="cls-2"><polygon class="cls-24" points="23.63 33.61 16.79 29.89 16.8 27.37 23.64 31.09 23.63 33.61"/><path class="cls-22" d="M26.28,31.47v.07l-2.65,2.07V31.09l2.64-.37s0,.08,0,.12V31s0,0,0,.07,0,0,0,0v.14s0,.05,0,.08,0,0,0,0v.11Z"/><polygon class="cls-25" points="23.64 31.09 16.8 27.37 19.44 27 26.28 30.72 23.64 31.09"/><g class="cls-2"><g class="cls-26"><g class="cls-2"><path class="cls-27" d="M23.64,27.41,16.8,23.69l.23,0,6.84,3.72-.23,0"/><path class="cls-28" d="M23.87,27.46,17,23.74a2.86,2.86,0,0,1,.55.2l6.84,3.72a2.86,2.86,0,0,0-.55-.2"/><path class="cls-29" d="M24.42,27.66l-6.84-3.72.12.06,6.84,3.72-.12-.06"/></g></g></g><polygon class="cls-30" points="23.64 31.09 16.8 27.37 16.8 23.69 23.64 27.41 23.64 31.09"/><path class="cls-31" d="M26.27,30.59s0,.09,0,.14l-2.64.37V27.41A3.15,3.15,0,0,1,25,28l.1.08.17.14.12.1.12.11,0,0,.08.09,0,0,.09.12,0,0,.07.1,0,0,.06.11v0l.06.13,0,0,0,.11v0l0,.14h0l0,.13v0l0,.12v0l0,.15v0l0,.12v0l0,.14v.31Z"/></g><g class="cls-2"><polygon class="cls-25" points="17.38 35.66 10.54 31.93 14.96 31.31 21.8 35.03 17.38 35.66"/><polygon class="cls-24" points="17.37 38.48 10.54 34.76 10.54 31.93 17.38 35.66 17.37 38.48"/><polygon class="cls-22" points="17.38 35.66 21.8 35.03 17.37 38.48 17.38 35.66"/></g><g class="cls-2"><polygon class="cls-24" points="17.38 35.66 10.54 31.93 10.55 28.25 17.39 31.97 17.38 35.66"/><polygon class="cls-25" points="17.39 31.97 10.55 28.25 16.8 27.37 23.64 31.09 17.39 31.97"/><polygon class="cls-22" points="17.38 35.66 17.39 31.97 23.64 31.09 23.63 33.61 21.8 35.03 17.38 35.66"/></g><g class="cls-2"><g class="cls-2"><g class="cls-32"><g class="cls-2"><path class="cls-27" d="M23.42,27.38l-6.84-3.72h0l.18,0,6.84,3.72-.18,0h0"/></g></g></g><g class="cls-2"><g class="cls-33"><g class="cls-2"><path class="cls-27" d="M23,27.36l-6.84-3.72h.39l6.84,3.72H23"/></g></g></g><polygon class="cls-30" points="17.39 31.97 10.55 28.25 10.55 28.23 17.39 31.95 17.39 31.97"/><g class="cls-2"><g class="cls-34"><g class="cls-2"><polyline class="cls-35" points="19.15 27.9 12.31 24.18 12.31 24.18 19.15 27.9 19.15 27.9"/><polyline class="cls-36" points="19.15 27.9 12.31 24.18 12.31 24.18 19.15 27.9 19.15 27.9"/><polyline class="cls-37" points="19.15 27.9 12.31 24.18 12.31 24.18 19.15 27.9 19.15 27.9"/><polyline class="cls-38" points="19.15 27.9 12.31 24.18 12.31 24.18 19.15 27.9 19.15 27.9"/><polyline class="cls-39" points="19.15 27.9 12.31 24.18 12.31 24.18 19.15 27.9 19.15 27.9"/><polyline class="cls-29" points="19.15 27.9 12.31 24.18 12.31 24.18 19.15 27.9 19.15 27.9"/><polyline class="cls-28" points="19.15 27.9 12.31 24.18 12.31 24.18 19.15 27.9 19.15 27.9"/><path class="cls-27" d="M19.15,27.9l-6.84-3.72L13.57,24l.24,0h.06l.47-.08h0l.18,0h0l.2,0h0l.13,0,.17,0h.08l.23,0h.72L23,27.36h-.72l-.23,0H22l-.17,0-.13,0h0l-.2,0h0l-.18,0h0l-.47.08h-.06l-.24,0-1.26.22"/></g></g></g><g class="cls-2"><g class="cls-40"><g class="cls-2"><path class="cls-35" d="M17.39,32l-6.84-3.72q0-.2,0-.39v-.61l0-.15v0l0-.13v-.08l0-.1,0-.09,0-.09,0-.08,0-.09,0-.08,0-.09,0-.08,0-.08,0-.08,0-.08,0-.08,0-.07h0l6.84,3.72h0l0,.07,0,.08,0,.08,0,.08,0,.08,0,.08,0,.09,0,.08,0,.09,0,.08,0,.09,0,.09,0,.1v.08l0,.13v0l0,.15v.61q0,.19,0,.39"/><path class="cls-36" d="M17.79,29.46,11,25.74l0-.06,0-.08,0-.06,0-.08,0-.06,0-.07,0-.07,0-.06v0L18,28.9v0L18,29l0,.07,0,.07,0,.06,0,.08,0,.06,0,.08,0,.06"/><path class="cls-37" d="M18,28.9,11.2,25.18l0,0h0l6.84,3.72h0l0,0"/><path class="cls-36" d="M18.07,28.85l-6.84-3.72v0l6.84,3.72v0"/><path class="cls-37" d="M18.08,28.83l-6.84-3.72,0,0,0-.05,0-.06,0,0,0-.06h0l6.84,3.72h0l0,.06,0,0,0,.06,0,.05,0,0"/><path class="cls-38" d="M18.24,28.57,11.4,24.85l0,0,0-.06,0,0,0-.05h0l6.84,3.72h0l0,.05,0,0,0,.06,0,0"/><path class="cls-39" d="M18.39,28.37l-6.84-3.72,0,0,0,0,0,0,0,0h0l6.84,3.72h0l0,0,0,0,0,0,0,0"/><path class="cls-29" d="M18.55,28.21l-6.84-3.72,0,0,0,0,0,0,0,0h0l6.84,3.72h0l0,0,0,0,0,0,0,0"/><path class="cls-28" d="M18.7,28.08l-6.84-3.72,0,0,0,0,0,0,0,0L18.87,28l0,0,0,0,0,0,0,0"/><path class="cls-27" d="M18.87,28,12,24.26h0l0,0,0,0h.19l6.84,3.72H19l0,0,0,0h0"/></g></g></g><path class="cls-31" d="M23.42,27.38h0l.18,0v3.68L17.39,32v0q0-.2,0-.39V31l0-.15v0l0-.13v-.08l0-.1,0-.09,0-.09,0-.08,0-.09,0-.08,0-.09,0-.08,0-.08,0-.08,0-.08,0-.08,0-.07,0-.07,0-.08,0-.06,0-.08,0-.06,0-.07L18,29l0-.06,0-.07,0-.06,0-.05,0-.06,0,0,0-.06,0,0,0-.06,0,0,0-.05,0,0,0,0,0,0,0,0,0,0,0,0,0,0,0,0,0,0,0,0,0,0,0,0,0,0,0,0h.19l1.26-.22.24,0h.06l.47-.08h0l.18,0h0l.2,0h0l.13,0,.17,0h.08l.23,0h1.11Z"/></g></g></g></svg>