<svg xmlns="http://www.w3.org/2000/svg" xmlns:xlink="http://www.w3.org/1999/xlink" viewBox="0 0 30.45 57.03"><defs><style>.cls-1{fill:none;}.cls-2{fill:#333;}.cls-3{fill:#666;}.cls-4{fill:#999;}.cls-5{fill:#ccc;}.cls-6{fill:url(#greybars);}</style><pattern id="greybars" data-name="greybars" width="104.75" height="76.71" patternUnits="userSpaceOnUse" viewBox="0 0 104.75 76.71"><rect class="cls-1" width="104.75" height="76.71"/><rect y="57.53" width="104.75" height="7.67"/><rect class="cls-2" y="65.2" width="104.75" height="7.67"/><rect class="cls-3" y="72.87" width="104.75" height="7.67"/><rect y="19.18" width="104.75" height="7.67"/><rect class="cls-2" y="26.85" width="104.75" height="7.67"/><rect class="cls-3" y="34.52" width="104.75" height="7.67"/><rect class="cls-4" y="42.19" width="104.75" height="7.67"/><rect class="cls-5" y="49.86" width="104.75" height="7.67"/><rect class="cls-3" y="-3.84" width="104.75" height="7.67"/><rect class="cls-4" y="3.84" width="104.75" height="7.67"/><rect class="cls-5" y="11.51" width="104.75" height="7.67"/></pattern></defs><title>cse</title><g id="Layer_2" data-name="Layer 2"><g id="Layer_1-2" data-name="Layer 1"><path class="cls-6" d="M9.79,42.46"/><path class="cls-6" d="M30.45,0V6.56a4,4,0,0,1-4,4H25.09c-2.2,0-4.57,0-5.27-.05l-.84.05C9.54,11.13,2.38,19.8,1.94,29c-.36,7.56,5.67,12.45,7.85,13.46"/><path class="cls-6" d="M30.45,44.42V53a4,4,0,0,1-4,4h-.13c-2.2,0-4.87,0-5.94.06L18.8,57C15.62,56.84,5.65,56.8,0,52.48"/><path class="cls-6" d="M27.41,42.46"/></g></g></svg>