<svg xmlns="http://www.w3.org/2000/svg" xmlns:xlink="http://www.w3.org/1999/xlink" viewBox="0 0 36.88 54.8"><defs><style>.cls-1{fill:none;}.cls-2{isolation:isolate;}.cls-3{fill:#686868;}.cls-4{fill:#b2b2b2;}.cls-5{fill:#909090;}.cls-6{fill:#484848;}.cls-7{fill:#6c6c6c;}.cls-8{fill:#4e4e4e;}.cls-9{fill:#868686;}.cls-10{fill:#343434;}.cls-11{fill:#444;}.cls-12{fill:#595959;}.cls-13{fill:#666;}.cls-14{fill:#888;}.cls-15{fill:#1a1a1a;}.cls-16{fill:#242424;}.cls-17{fill:#2d2d2d;}.cls-18{clip-path:url(#clip-path);}.cls-19{fill:#626262;}.cls-20{fill:#5f5f5f;}.cls-21{clip-path:url(#clip-path-2);}.cls-22{clip-path:url(#clip-path-3);}.cls-23{clip-path:url(#clip-path-4);}.cls-24{clip-path:url(#clip-path-5);}.cls-25{fill:#656565;}.cls-26{clip-path:url(#clip-path-6);}.cls-27{fill:#505050;}.cls-28{fill:#535353;}.cls-29{fill:#565656;}.cls-30{fill:#5c5c5c;}</style><clipPath id="clip-path"><path class="cls-1" d="M21.69,4.33,14.85.61l0,0,.2.1,6.84,3.72-.2-.1Z"/></clipPath><clipPath id="clip-path-2"><path class="cls-1" d="M15.19.78,22,4.5h0L15.16.77Z"/></clipPath><clipPath id="clip-path-3"><path class="cls-1" d="M21.93,4.45,15.09.73l.07,0L22,4.49Z"/></clipPath><clipPath id="clip-path-4"><path class="cls-1" d="M21.38,4.2,14.54.48l.08,0,.24.11,6.84,3.72-.24-.11Z"/></clipPath><clipPath id="clip-path-5"><path class="cls-1" d="M18,3.74,11.14,0l.58,0h.76l.25,0h.06l.3,0h.08l.21,0,.1,0,.21,0,.07,0L14,.29l.06,0,.2.07.09,0,.18.07L21.38,4.2l-.18-.07-.09,0L20.91,4l-.06,0-.27-.07-.07,0-.21,0-.1,0-.21,0h-.08l-.3,0h-.06l-.25,0h-.76Z"/></clipPath><clipPath id="clip-path-6"><path class="cls-1" d="M13.68,8.25,6.85,4.53a9.84,9.84,0,0,1,.07-1.15A7.58,7.58,0,0,1,7.24,1.9c0-.14.1-.28.16-.4a3.42,3.42,0,0,1,.17-.35A1.94,1.94,0,0,1,7.89.71,1,1,0,0,1,8.11.55.67.67,0,0,1,8.33.48l.33,0C9.47.31,10.51.14,11.14,0L18,3.74c-.63.12-1.67.29-2.48.41l-.33,0a.67.67,0,0,0-.23.08,1,1,0,0,0-.22.16,1.94,1.94,0,0,0-.33.43,3.42,3.42,0,0,0-.17.35c-.06.13-.11.26-.16.4a7.58,7.58,0,0,0-.32,1.49A9.84,9.84,0,0,0,13.68,8.25Z"/></clipPath></defs><title>dse</title><g id="Layer_2" data-name="Layer 2"><g id="Layer_1-2" data-name="Layer 1"><g class="cls-2"><polygon class="cls-3" points="26.83 49.79 19.99 46.07 20 41.55 26.84 45.27 26.83 49.79"/><path class="cls-4" d="M26.84,45.27l4.24-.6c-.5.8-1,1.56-1.58,2.27-.36.46-.72.89-1.1,1.31s-.77.81-1.16,1.18l-.41.37Z"/><polygon class="cls-5" points="26.84 45.27 20 41.55 24.23 40.95 31.07 44.67 26.84 45.27"/><polygon class="cls-6" points="31.76 33.53 24.92 29.81 29.18 29.21 36.02 32.93 31.76 33.53"/><polygon class="cls-7" points="26.85 37.9 20.01 34.18 27.98 33.06 34.82 36.78 26.85 37.9"/><polygon class="cls-8" points="26.84 45.27 20 41.55 20.01 34.18 26.85 37.9 26.84 45.27"/><path class="cls-9" d="M26.85,37.9l8-1.12-.11.3-.05.14-.2.53v0q-.22.58-.46,1.15l0,.11-.19.45-.06.13-.19.43-.06.14-.2.43-.05.11-.23.48,0,.06q-.41.83-.84,1.64v0l-.27.49,0,.07-.26.45,0,.07-.28.45,0,0-.09.14-4.24.6Z"/><polygon class="cls-10" points="26.85 37.9 20.01 34.18 20.01 34 26.85 37.72 26.85 37.9"/><polygon class="cls-11" points="26.85 37.72 20.01 34 24.92 29.81 31.76 33.53 26.85 37.72"/><path class="cls-12" d="M26.85,37.9v-.18l4.91-4.19,4.26-.6v0l-.22.8-.06.22-.24.81-.06.18-.22.7-.07.21-.28.81,0,.08Z"/><polygon class="cls-7" points="26.59 37.94 19.76 34.22 20.01 34.18 26.85 37.9 26.59 37.94"/><polygon class="cls-12" points="26.85 37.9 26.59 37.94 26.85 37.72 26.85 37.9"/><polygon class="cls-11" points="26.59 37.94 19.76 34.22 20.01 34 26.85 37.72 26.59 37.94"/><polygon class="cls-13" points="23.11 40.91 16.28 37.19 19.76 34.22 26.59 37.94 23.11 40.91"/><polygon class="cls-5" points="16.27 46.75 9.43 43.03 20 41.55 26.84 45.27 16.27 46.75"/><polygon class="cls-13" points="16.27 46.75 9.43 43.03 16.28 37.19 23.11 40.91 16.27 46.75"/><polygon class="cls-9" points="23.11 40.91 26.59 37.94 26.85 37.9 26.84 45.27 16.27 46.75 23.11 40.91"/><polygon class="cls-14" points="6.84 54.8 0 51.08 9.43 43.03 16.27 46.75 6.84 54.8"/><path class="cls-4" d="M6.84,54.8l9.43-8.05,10.57-1.49v4.52a13,13,0,0,1-4.72,2.72c-.27.08-.53.15-.81.21l-.67.16-1.2.16-.54.07-.4.06-1.62.22-.51.07-.53.07-.27,0-.54.08-.55.08Z"/></g><g class="cls-2"><polygon class="cls-7" points="13.63 39.76 6.79 36.04 7.22 35.98 14.06 39.7 13.63 39.76"/><polygon class="cls-9" points="13.63 39.76 14.06 39.7 13.62 40.66 13.63 39.76"/><polygon class="cls-8" points="13.62 40.66 6.79 36.94 6.79 36.04 13.63 39.76 13.62 40.66"/><polygon class="cls-12" points="15.85 35.76 14.06 39.7 13.63 39.76 13.63 36.08 15.85 35.76"/><polygon class="cls-10" points="13.63 39.76 6.79 36.04 6.79 32.36 13.63 36.08 13.63 39.76"/><polygon class="cls-6" points="13.63 36.08 6.79 32.36 9.01 32.04 15.85 35.76 13.63 36.08"/><polygon class="cls-6" points="13.64 32.39 6.8 28.67 10.81 28.11 17.64 31.83 13.64 32.39"/><polygon class="cls-12" points="13.64 32.39 17.64 31.83 15.85 35.76 13.63 36.08 13.64 32.39"/><polygon class="cls-10" points="13.63 36.08 6.79 32.36 6.8 28.67 13.64 32.39 13.63 36.08"/></g><g class="cls-2"><polygon class="cls-15" points="13.64 32.39 6.8 28.67 6.81 21.31 13.65 25.03 13.64 32.39"/><polygon class="cls-16" points="13.65 25.03 6.81 21.31 14.39 20.24 21.23 23.96 13.65 25.03"/><polygon class="cls-17" points="21.23 23.96 17.64 31.83 13.64 32.39 13.65 25.03 21.23 23.96"/></g><g class="cls-2"><polygon points="13.65 25.03 6.81 21.31 6.83 13.93 13.67 17.65 13.65 25.03"/><polygon points="13.67 17.65 6.83 13.93 17.98 12.37 24.82 16.09 13.67 17.65"/><polygon points="24.82 16.09 21.23 23.96 13.65 25.03 13.67 17.65 24.82 16.09"/></g><g class="cls-2"><g class="cls-2"><g class="cls-18"><g class="cls-2"><polyline class="cls-19" points="21.69 4.33 14.86 0.61 14.86 0.62 21.7 4.34 21.69 4.33"/><path class="cls-20" d="M21.7,4.34,14.86.62h0l6.84,3.72h0"/><path class="cls-19" d="M21.72,4.34,14.88.62h0l.07,0L21.8,4.38l-.07,0h0"/><path class="cls-20" d="M21.8,4.38,15,.66l.13.07,6.84,3.72-.13-.07"/></g></g></g><g class="cls-2"><g class="cls-21"><g class="cls-2"><path class="cls-20" d="M22,4.49,15.16.77h0L22,4.5h0"/></g></g></g><g class="cls-2"><g class="cls-22"><g class="cls-2"><path class="cls-20" d="M21.93,4.45,15.09.73l.07,0L22,4.49l-.07,0"/></g></g></g><g class="cls-2"><g class="cls-23"><g class="cls-2"><path class="cls-19" d="M21.38,4.2,14.54.48l.08,0,.24.11,6.84,3.72-.24-.11-.08,0"/></g></g></g><g class="cls-2"><g class="cls-24"><g class="cls-2"><path class="cls-25" d="M18,3.74,11.14,0l.58,0h.76l.25,0h.06l.3,0h.08l.21,0,.1,0,.21,0,.07,0h0l6.84,3.72h0l-.07,0-.21,0-.1,0-.21,0h-.08l-.3,0h-.06l-.25,0h-.76l-.58,0"/><path class="cls-19" d="M20.61,3.94,13.77.22,14,.29l.06,0,.2.07.09,0,.18.07L21.38,4.2l-.18-.07-.09,0L20.91,4l-.06,0-.24-.07"/></g></g></g><polygon class="cls-5" points="13.68 10.29 6.84 6.57 18.74 4.89 25.58 8.61 13.68 10.29"/><path class="cls-4" d="M26.86,11.6l-2,4.49L13.67,17.65V10.29l11.9-1.67.11.23v0l.08.18,0,.06.08.17.1.23,0,0,.07.16,0,0,.15.37,0,.07,0,.1.07.18,0,.08.06.15.07.18.06.15v0l0,.11.07.15.05.12v0Z"/><polygon class="cls-3" points="13.67 17.65 6.83 13.93 6.84 6.57 13.68 10.29 13.67 17.65"/><polygon class="cls-8" points="13.68 10.29 6.84 6.57 6.84 4.53 13.68 8.25 13.68 10.29"/><path class="cls-9" d="M25.56,8.57l0,0-11.9,1.67v-2a9.84,9.84,0,0,1,.07-1.15,7.58,7.58,0,0,1,.32-1.49c0-.14.1-.28.16-.4a3.42,3.42,0,0,1,.17-.35,1.94,1.94,0,0,1,.33-.43,1,1,0,0,1,.22-.16.67.67,0,0,1,.23-.08l.33,0c.8-.12,1.85-.29,2.48-.41l.58,0h.76l.25,0h.06l.3,0H20l.21,0,.1,0,.21,0,.07,0,.27.07.06,0,.2.07.09,0,.18.07.08,0,.24.11,0,0,.2.1.07,0,.16.09.07,0,.18.11,0,0,.21.14.06,0,.14.1.07.06.14.11.06,0,.18.16.05,0,.13.12.06.06.12.12.05.06.16.18,0,0,.13.15.05.06.1.13.05.07.12.16,0,0,.14.19,0,.06.09.14,0,.07.1.15,0,0,.12.2,0,.05.09.15,0,.07.08.14,0,.06.1.2,0,.05.08.15,0,.07Z"/><g class="cls-2"><g class="cls-26"><g class="cls-2"><path class="cls-27" d="M13.68,8.25,6.85,4.53a9.84,9.84,0,0,1,.07-1.15A7.58,7.58,0,0,1,7.24,1.9l.05-.14,6.84,3.72-.05.14a7.58,7.58,0,0,0-.32,1.49,9.84,9.84,0,0,0-.07,1.15"/><path class="cls-28" d="M14.12,5.47,7.29,1.75l.1-.26.13-.26L14.35,5l-.13.26-.1.26"/><path class="cls-29" d="M14.35,5,7.52,1.23l0-.09L7.68,1l6.84,3.72-.11.18,0,.09"/><path class="cls-12" d="M14.52,4.69,7.68,1,7.81.8l6.84,3.72-.13.16"/><path class="cls-30" d="M14.64,4.52,7.81.8,7.89.71l0,0,6.84,3.72,0,0-.09.09"/><path class="cls-20" d="M14.76,4.41,7.92.69,8,.61l6.84,3.72-.11.09"/><path class="cls-19" d="M14.86,4.33,8,.61,8.11.55l0,0L15,4.26l0,0-.08.05"/><path class="cls-25" d="M15,4.26,8.15.54A.65.65,0,0,1,8.33.48l.33,0C9.47.31,10.51.14,11.14,0L18,3.74c-.63.12-1.67.29-2.48.41l-.33,0a.65.65,0,0,0-.19.06"/></g></g></g></g><g class="cls-2"><polygon class="cls-11" points="31.76 33.53 24.92 29.81 30.05 25.43 36.88 29.15 31.76 33.53"/><path class="cls-12" d="M31.76,33.53l5.13-4.38c-.23,1.24-.52,2.51-.86,3.78Z"/></g></g></g></svg>