<svg xmlns="http://www.w3.org/2000/svg" xmlns:xlink="http://www.w3.org/1999/xlink" viewBox="0 0 37.58 62.79"><defs><style>.cls-1{fill:none;}.cls-2{isolation:isolate;}.cls-3{fill:#484848;}.cls-4{fill:#3e3e3e;}.cls-5{fill:#595959;}.cls-6{fill:#242424;}.cls-7{fill:#1f1f1f;}.cls-8{fill:#2d2d2d;}.cls-9{fill:#6c6c6c;}.cls-10{fill:#909090;}.cls-11{fill:#5d5d5d;}.cls-12{fill:#868686;}.cls-13{fill:#7c7c7c;}.cls-14{fill:#b2b2b2;}.cls-15{fill:#686868;}.cls-16{clip-path:url(#clip-path);}.cls-17{fill:#6a6a6a;}.cls-18{fill:#6e6e6e;}.cls-19{fill:#727272;}.cls-20{fill:#767676;}.cls-21{fill:#7a7a7a;}.cls-22{fill:#7e7e7e;}.cls-23{fill:#838383;}.cls-24{fill:#878787;}.cls-25{fill:#6b6b6b;}.cls-26{fill:#8e8e8e;}.cls-27{fill:#4e4e4e;}.cls-28{fill:#343434;}.cls-29{clip-path:url(#clip-path-2);}.cls-30{fill:#353535;}.cls-31{clip-path:url(#clip-path-3);}.cls-32{fill:#373737;}.cls-33{fill:#393939;}.cls-34{fill:#3b3b3b;}.cls-35{fill:#3d3d3d;}.cls-36{fill:#3f3f3f;}.cls-37{fill:#414141;}.cls-38{fill:#434343;}</style><clipPath id="clip-path"><path class="cls-1" d="M22,21.13l-6.84-3.72a4.43,4.43,0,0,1,3.56-4.35l6.84,3.72A4.43,4.43,0,0,0,22,21.13Z"/></clipPath><clipPath id="clip-path-2"><path class="cls-1" d="M21.94,41.79,15.1,38.07s0-.06,0-.09a4.36,4.36,0,0,1,.14-1l6.84,3.72a4.36,4.36,0,0,0-.14,1S21.94,41.76,21.94,41.79Z"/></clipPath><clipPath id="clip-path-3"><path class="cls-1" d="M22.09,40.69,15.25,37a4.36,4.36,0,0,1,3.42-3.25l6.84,3.72A4.36,4.36,0,0,0,22.09,40.69Z"/></clipPath></defs><title>ese</title><g id="Layer_2" data-name="Layer 2"><g id="Layer_1-2" data-name="Layer 1"><g class="cls-2"><polygon class="cls-3" points="30.37 35.84 23.53 32.12 29.42 31.29 36.26 35.01 30.37 35.84"/><polygon class="cls-4" points="30.3 35.94 23.47 32.22 23.53 32.12 30.37 35.84 30.3 35.94"/><polygon class="cls-4" points="29.74 36.85 22.9 33.13 23.47 32.22 30.3 35.94 29.74 36.85"/><path class="cls-5" d="M34.19,36.21h-.06l-.17,0-4.22.59.57-.91.06-.1L36.26,35h0l-.08.08-.05.05-.08.07-.06.05-.08.07-.06,0-.08.06-.06,0-.08.06-.07,0-.08.05-.05,0-.16.1-.08,0-.07,0-.09,0L35,36l-.09,0-.07,0-.09,0-.07,0-.1,0-.07,0-.1,0-.07,0Z"/></g><g class="cls-2"><polygon class="cls-6" points="35.43 27.77 28.59 24.05 30.7 23.75 37.53 27.47 35.43 27.77"/><polygon class="cls-7" points="30.99 34.85 24.15 31.13 28.59 24.05 35.43 27.77 30.99 34.85"/><polygon class="cls-7" points="30.37 35.84 23.53 32.12 24.15 31.13 30.99 34.85 30.37 35.84"/><path class="cls-8" d="M31,34.85l4.44-7.08,2.11-.3v4.44c0,.07,0,.14,0,.21v.07s0,.09,0,.14v.08l0,.13v.08l0,.12,0,.08,0,.12,0,.08,0,.12,0,.08,0,.12,0,.07-.05.13,0,.06-.08.17L37,34l-.1.18,0,0-.08.13,0,0-.08.12,0,.05-.09.11,0,0-.09.11,0,0-.1.11,0,0-5.89.83Z"/></g><g class="cls-2"><polygon points="21.96 28.65 15.13 24.93 15.14 18.56 21.98 22.28 21.96 28.65"/><polygon points="21.98 22.28 15.14 18.56 19.5 17.95 26.34 21.67 21.98 22.28"/><polygon points="21.96 28.65 21.98 22.28 26.34 21.67 26.29 21.74 21.96 28.65"/></g><g class="cls-2"><polygon class="cls-4" points="37.38 4.04 30.54 0.32 30.74 0 37.58 3.72 37.38 4.04"/><polygon class="cls-9" points="36.45 5.52 29.61 1.8 30.74 1.64 37.58 5.36 36.45 5.52"/><polygon class="cls-4" points="36.45 5.52 29.61 1.8 30.54 0.32 37.38 4.04 36.45 5.52"/><polygon class="cls-5" points="36.45 5.52 37.38 4.04 37.58 3.72 37.58 5.36 36.45 5.52"/><polygon class="cls-10" points="31.39 13.6 24.55 9.88 30.45 9.05 37.29 12.77 31.39 13.6"/><polygon class="cls-11" points="32.6 11.67 25.76 7.95 29.61 1.8 36.45 5.52 32.6 11.67"/><polygon class="cls-11" points="31.39 13.6 24.55 9.88 25.76 7.95 32.6 11.67 31.39 13.6"/><path class="cls-12" d="M32.6,11.67l3.85-6.15,1.13-.16v5.89q0,.1,0,.2s0,.08,0,.12v.08l0,.15v0l0,.15v0l0,.17v0l0,.18-.05.17v0l-.06.18-5.89.83Z"/><polygon class="cls-13" points="29.77 16.18 22.93 12.46 24.55 9.88 31.39 13.6 29.77 16.18"/><path class="cls-14" d="M34.21,15.55h0l-.16,0-4.22.59,1.62-2.59,5.89-.83,0,.06,0,.1,0,.07,0,.09,0,.07L37,13.3l0,.05-.05.1,0,.06-.05.09,0,.06-.09.13,0,0-.07.1,0,.05-.07.09,0,0-.11.13,0,0-.09.1,0,0-.08.08,0,0-.12.11-.13.11,0,0-.1.07,0,0-.14.1-.14.09,0,0-.11.06,0,0-.15.08-.15.07,0,0-.11,0,0,0-.16.05-.16,0h-.05Z"/></g><g class="cls-2"><polygon points="35.43 27.77 28.59 24.05 30.7 20.67 37.54 24.39 35.43 27.77"/><polygon points="35.43 27.77 37.54 24.39 37.53 27.47 35.43 27.77"/></g><g class="cls-2"><polygon class="cls-10" points="25.54 16.78 18.7 13.06 22.93 12.46 29.77 16.18 25.54 16.78"/><polygon class="cls-15" points="21.98 22.28 15.14 18.56 15.14 17.41 21.98 21.13 21.98 22.28"/><g class="cls-2"><g class="cls-16"><g class="cls-2"><path class="cls-17" d="M22,21.13l-6.84-3.72a4.4,4.4,0,0,1,.27-1.51l6.84,3.72A4.4,4.4,0,0,0,22,21.13"/><path class="cls-18" d="M22.25,19.62,15.41,15.9a4.67,4.67,0,0,1,.27-.6L22.52,19a4.67,4.67,0,0,0-.27.6"/><path class="cls-19" d="M22.52,19,15.69,15.3a4.72,4.72,0,0,1,.29-.47l6.84,3.72a4.72,4.72,0,0,0-.29.47"/><path class="cls-20" d="M22.82,18.54,16,14.82a4.67,4.67,0,0,1,.32-.41l6.84,3.72a4.67,4.67,0,0,0-.32.41"/><path class="cls-21" d="M23.14,18.13,16.3,14.41a4.53,4.53,0,0,1,.37-.37l6.84,3.72a4.53,4.53,0,0,0-.37.37"/><path class="cls-22" d="M23.5,17.76,16.67,14a4.32,4.32,0,0,1,.43-.34l6.84,3.72a4.32,4.32,0,0,0-.43.34"/><path class="cls-23" d="M23.94,17.42,17.1,13.7a4,4,0,0,1,.58-.33l6.84,3.72a4,4,0,0,0-.58.33"/><path class="cls-24" d="M24.51,17.09l-6.84-3.72a3.6,3.6,0,0,1,1-.31l6.84,3.72a3.6,3.6,0,0,0-1,.31"/></g></g></g><path class="cls-14" d="M22,21.13a4.43,4.43,0,0,1,3.56-4.35l4.23-.59-3.44,5.49L22,22.28Z"/></g><g class="cls-2"><polygon points="10.99 60.67 4.15 56.95 29.93 53.33 36.76 57.05 10.99 60.67"/><polygon points="6.84 62.79 0 59.07 4.15 56.95 10.99 60.67 6.84 62.79"/><path d="M34.18,58.93l-.26,0L6.84,62.79,11,60.67,36.76,57l-.12.18-.13.17-.14.17-.15.17a4.63,4.63,0,0,1-.34.33l-.16.13-.17.12-.06,0-.12.08-.19.11-.23.12-.19.08-.07,0-.13,0-.07,0-.12,0-.07,0Z"/></g><g class="cls-2"><polygon class="cls-10" points="30.88 50.5 24.04 46.78 30.66 45.85 37.49 49.57 30.88 50.5"/><polygon class="cls-25" points="30.88 50.5 24.04 46.78 30.66 43.39 37.5 47.11 30.88 50.5"/><polygon class="cls-12" points="30.88 50.5 37.5 47.11 37.49 49.57 30.88 50.5"/><polygon class="cls-26" points="10.99 60.67 4.15 56.95 24.04 46.78 30.88 50.5 10.99 60.67"/><path class="cls-14" d="M11,60.67,30.88,50.5l6.62-.93v5.07c0,.06,0,.12,0,.18s0,.14,0,.18v.19c0,.11,0,.15,0,.2s0,.16,0,.22l0,.17,0,.07,0,.1,0,.07,0,.1,0,.07,0,.12,0,.09,0,.1,0,.08,0,.08,0,.08,0,.08,0,.08,0,.08,0,.07Z"/></g><g class="cls-2"><polygon class="cls-27" points="21.93 49.31 15.09 45.59 15.1 40.67 21.94 44.39 21.93 49.31"/><polygon class="cls-9" points="21.94 44.39 15.1 40.67 18.47 40.2 25.31 43.92 21.94 44.39"/><polygon class="cls-12" points="21.93 49.31 21.94 44.39 25.31 43.92 23.05 47.51 21.93 49.31"/></g><g class="cls-2"><polygon class="cls-3" points="25.5 37.44 18.67 33.72 22.9 33.13 29.74 36.85 25.5 37.44"/><polygon class="cls-28" points="21.94 44.39 15.1 40.67 15.1 38.07 21.94 41.79 21.94 44.39"/><path class="cls-5" d="M21.94,41.79s0-.06,0-.09a4.36,4.36,0,0,1,.14-1l5.75-.81L27,41.23l-1.69,2.69-3.37.47Z"/><g class="cls-2"><g class="cls-29"><g class="cls-2"><path class="cls-30" d="M21.94,41.79,15.1,38.07s0-.06,0-.09a4.36,4.36,0,0,1,.14-1l6.84,3.72a4.36,4.36,0,0,0-.14,1s0,.06,0,.09"/></g></g></g><polygon class="cls-3" points="22.09 40.69 15.25 36.97 21 36.16 27.84 39.88 22.09 40.69"/><g class="cls-2"><g class="cls-31"><g class="cls-2"><path class="cls-30" d="M22.09,40.69,15.25,37q.05-.21.13-.41l6.84,3.72q-.07.2-.13.41"/><path class="cls-32" d="M22.21,40.28l-6.84-3.72a4.67,4.67,0,0,1,.27-.6l6.84,3.72a4.67,4.67,0,0,0-.27.6"/><path class="cls-33" d="M22.49,39.68,15.65,36a4.72,4.72,0,0,1,.29-.47l6.84,3.72a4.72,4.72,0,0,0-.29.47"/><path class="cls-34" d="M22.78,39.2l-6.84-3.72a4.67,4.67,0,0,1,.32-.41l6.84,3.72a4.67,4.67,0,0,0-.32.41"/><path class="cls-35" d="M23.1,38.79l-6.84-3.72a4.53,4.53,0,0,1,.37-.37l6.84,3.72a4.53,4.53,0,0,0-.37.37"/><path class="cls-36" d="M23.47,38.43l-6.84-3.72a4.32,4.32,0,0,1,.43-.34l6.84,3.72a4.32,4.32,0,0,0-.43.34"/><path class="cls-37" d="M23.9,38.08l-6.84-3.72a4,4,0,0,1,.58-.33l6.84,3.72a4,4,0,0,0-.58.33"/><path class="cls-38" d="M24.47,37.75,17.64,34a3.6,3.6,0,0,1,1-.31l6.84,3.72a3.6,3.6,0,0,0-1,.31"/></g></g></g><path class="cls-5" d="M25.5,37.44l4.23-.59-1.9,3-5.75.81A4.36,4.36,0,0,1,25.5,37.44Z"/></g></g></g></svg>