<svg xmlns="http://www.w3.org/2000/svg" xmlns:xlink="http://www.w3.org/1999/xlink" viewBox="0 0 38.52 62.92"><defs><style>.cls-1{fill:none;}.cls-2{isolation:isolate;}.cls-3{fill:#242424;}.cls-4{fill:#202020;}.cls-5{fill:#2d2d2d;}.cls-6{fill:#6c6c6c;}.cls-7{fill:#595959;}.cls-8{fill:#414141;}.cls-9{fill:#909090;}.cls-10{fill:#626262;}.cls-11{fill:#868686;}.cls-12{fill:#838383;}.cls-13{fill:#b2b2b2;}.cls-14{fill:#686868;}.cls-15{clip-path:url(#clip-path);}.cls-16{fill:#6a6a6a;}.cls-17{fill:#6e6e6e;}.cls-18{fill:#727272;}.cls-19{fill:#767676;}.cls-20{fill:#7a7a7a;}.cls-21{fill:#7e7e7e;}.cls-22{fill:#878787;}.cls-23{fill:#818181;}.cls-24{fill:#616161;}.cls-25{fill:#4e4e4e;}.cls-26{fill:#484848;}.cls-27{fill:#343434;}.cls-28{clip-path:url(#clip-path-2);}.cls-29{fill:#353535;}.cls-30{fill:#373737;}.cls-31{fill:#393939;}.cls-32{fill:#3b3b3b;}.cls-33{fill:#3d3d3d;}.cls-34{fill:#3f3f3f;}.cls-35{fill:#434343;}.cls-36{clip-path:url(#clip-path-3);}.cls-37{fill:#222;}.cls-38{clip-path:url(#clip-path-4);}</style><clipPath id="clip-path"><path class="cls-1" d="M16.29,21.68,9.45,18A4.43,4.43,0,0,1,13,13.61l6.84,3.72A4.43,4.43,0,0,0,16.29,21.68Z"/></clipPath><clipPath id="clip-path-2"><path class="cls-1" d="M16.26,41.64,9.42,37.92c0-.06,0-.13,0-.19v0q0-.08,0-.15v0l0-.14v0l0-.16c0-.14.06-.27.09-.39l.05-.18v0l0-.14v0l.06-.16c.05-.12.1-.23.16-.34l0,0,.07-.12,0,0,.08-.12,0,0,.1-.14.11-.16.11-.14,0,0,.09-.1,0,0,.09-.1,0,0,.12-.12.14-.12,0,0,.1-.08,0,0,.09-.07,0,0,.1-.07,0,0,.29-.18,0,0,.1-.05.06,0,.05,0,6.84,3.72-.05,0-.06,0-.1.05,0,0-.29.18,0,0-.1.07,0,0L18,38.1l0,0-.1.08,0,0-.14.12-.12.12,0,0-.09.1,0,0-.09.1,0,0-.11.14-.11.16-.1.14,0,0-.08.12,0,0-.07.12,0,0c-.06.11-.11.22-.16.34l-.06.16v0l0,.14v0l-.05.18c0,.12-.06.24-.09.39l0,.16v0l0,.14v0q0,.08,0,.15v0C16.26,41.51,16.26,41.58,16.26,41.64Z"/></clipPath><clipPath id="clip-path-3"><path class="cls-1" d="M19.59,37.35l-6.84-3.72.22,0,6.84,3.72Z"/></clipPath><clipPath id="clip-path-4"><path class="cls-1" d="M18.85,37.59,12,33.87h0l.17-.07,0,0,.21-.07h.05l.17,0h.06l6.84,3.72h-.06l-.17,0h-.05l-.21.07,0,0-.17.07Z"/></clipPath></defs><title>fse</title><g id="Layer_2" data-name="Layer 2"><g id="Layer_1-2" data-name="Layer 1"><g class="cls-2"><polygon class="cls-3" points="35.05 27.95 28.21 24.23 31.64 23.75 38.47 27.47 35.05 27.95"/><polygon class="cls-4" points="28.48 36.09 21.64 32.37 28.21 24.23 35.05 27.95 28.48 36.09"/><path class="cls-5" d="M28.48,36.09,35.05,28l3.42-.48v3.37a4.43,4.43,0,0,1-3.56,4.35Z"/></g><g class="cls-2"><polygon points="16.28 28.82 9.44 25.1 9.45 19.5 16.29 23.21 16.28 28.82"/><polygon points="16.29 23.21 9.45 19.5 15.11 18.7 21.95 22.42 16.29 23.21"/><polygon points="16.28 28.82 16.29 23.21 21.95 22.42 17.46 27.48 16.28 28.82"/></g><g class="cls-2"><polygon class="cls-6" points="36.85 5.6 30.02 1.88 31.68 1.64 38.51 5.36 36.85 5.6"/><polygon class="cls-7" points="38.51 5.36 36.85 5.6 38.52 3.72 38.51 5.36"/><polygon class="cls-8" points="36.85 5.6 30.02 1.88 31.68 0 38.52 3.72 36.85 5.6"/><polygon class="cls-9" points="29.4 14.01 22.56 10.29 31.21 9.07 38.05 12.79 29.4 14.01"/><polygon class="cls-10" points="32.35 10.68 25.51 6.96 30.02 1.88 36.85 5.6 32.35 10.68"/><polygon class="cls-10" points="29.4 14.01 22.56 10.29 25.51 6.96 32.35 10.68 29.4 14.01"/><path class="cls-11" d="M32.35,10.68l4.5-5.08,1.66-.23v5.51c0,.08,0,.15,0,.23v.07q0,.08,0,.17v.07l0,.18v0q0,.11,0,.23v0l-.05.2,0,.05-.06.18,0,0a4.65,4.65,0,0,1-.18.43L29.4,14Z"/><polygon class="cls-12" points="27.4 16.27 20.56 12.55 22.56 10.29 29.4 14.01 27.4 16.27"/><path class="cls-13" d="M35.22,15.15h-.06l-.22,0L27.4,16.27l2-2.26,8.65-1.22-.11.21,0,0a4.71,4.71,0,0,1-.26.42l0,0-.13.17,0,0a4.61,4.61,0,0,1-.32.36l0,0-.15.14,0,0-.18.15-.19.14,0,0-.16.11,0,0-.2.11,0,0-.16.08-.06,0-.18.07h0l-.21.07-.06,0Z"/></g><g class="cls-2"><polygon class="cls-9" points="19.86 17.33 13.02 13.61 20.56 12.55 27.4 16.27 19.86 17.33"/><polygon class="cls-14" points="16.29 23.21 9.45 19.5 9.45 17.96 16.29 21.68 16.29 23.21"/><g class="cls-2"><g class="cls-15"><g class="cls-2"><path class="cls-16" d="M16.29,21.68,9.45,18a4.4,4.4,0,0,1,.27-1.51l6.84,3.72a4.4,4.4,0,0,0-.27,1.51"/><path class="cls-17" d="M16.57,20.17,9.73,16.45a4.67,4.67,0,0,1,.27-.6l6.84,3.72a4.67,4.67,0,0,0-.27.6"/><path class="cls-18" d="M16.84,19.57,10,15.85a4.72,4.72,0,0,1,.29-.47l6.84,3.72a4.72,4.72,0,0,0-.29.47"/><path class="cls-19" d="M17.13,19.09l-6.84-3.72a4.67,4.67,0,0,1,.32-.41l6.84,3.72a4.67,4.67,0,0,0-.32.41"/><path class="cls-20" d="M17.45,18.68,10.61,15a4.53,4.53,0,0,1,.37-.37l6.84,3.72a4.53,4.53,0,0,0-.37.37"/><path class="cls-21" d="M17.82,18.31,11,14.59a4.32,4.32,0,0,1,.43-.34L18.25,18a4.32,4.32,0,0,0-.43.34"/><path class="cls-12" d="M18.25,18l-6.84-3.72a4,4,0,0,1,.58-.33l6.84,3.72a4,4,0,0,0-.58.33"/><path class="cls-22" d="M18.83,17.64,12,13.92a3.6,3.6,0,0,1,1-.31l6.84,3.72a3.6,3.6,0,0,0-1,.31"/></g></g></g><path class="cls-13" d="M16.29,21.68a4.43,4.43,0,0,1,3.56-4.35l7.54-1.06-5.45,6.15-5.66.8Z"/></g><g class="cls-2"><polygon points="35.05 27.95 28.21 24.23 31.64 19.98 38.48 23.7 35.05 27.95"/><polygon points="35.05 27.95 38.48 23.7 38.47 27.47 35.05 27.95"/></g><g class="cls-2"><polygon points="8.24 61.19 1.4 57.47 8.67 56.44 15.5 60.16 8.24 61.19"/><polygon points="6.84 62.92 0 59.2 1.4 57.47 8.24 61.19 6.84 62.92"/><path d="M12.92,62.05h-.07l-.2,0-5.82.82,1.4-1.74,7.27-1-.12.18,0,0-.1.13,0,0-.1.12,0,0-.11.12,0,0-.31.29,0,0-.12.1-.05,0-.12.08-.06,0-.12.08-.06,0-.14.08,0,0-.18.09,0,0-.15.07-.06,0-.13,0-.07,0-.13,0-.07,0Z"/></g><g class="cls-2"><polygon class="cls-9" points="14.95 52.87 8.11 49.15 9.4 48.97 16.23 52.69 14.95 52.87"/><polygon class="cls-23" points="10.27 58.67 3.43 54.95 8.11 49.15 14.95 52.87 10.27 58.67"/><polygon class="cls-23" points="8.24 61.19 1.4 57.47 3.43 54.95 10.27 58.67 8.24 61.19"/><path class="cls-13" d="M10.26,58.67l4.68-5.8,1.29-.18v5.07c0,.06,0,.12,0,.18v.43l0,.13v0l0,.17v.06l0,.11L16,59l0,.1,0,.07,0,.1,0,.07,0,.12,0,.1,0,.1,0,.08,0,.08,0,.08,0,.08,0,.08,0,.08,0,.07-7.27,1Z"/></g><g class="cls-2"><polygon class="cls-24" points="14.95 52.87 8.11 49.15 9.4 47.55 16.24 51.27 14.95 52.87"/><polygon class="cls-11" points="16.23 52.69 14.95 52.87 16.24 51.27 16.23 52.69"/></g><g class="cls-2"><polygon class="cls-11" points="16.25 45.32 21.65 44.56 16.24 51.27 16.25 45.32"/><polygon class="cls-6" points="16.25 45.32 9.41 41.6 14.81 40.84 21.65 44.56 16.25 45.32"/><polygon class="cls-25" points="16.24 51.27 9.4 47.55 9.41 41.6 16.25 45.32 16.24 51.27"/><polygon class="cls-26" points="16.25 41.65 9.42 37.93 18.16 36.69 25 40.41 16.25 41.65"/><polygon class="cls-26" points="18.85 37.59 12.01 33.87 21.51 32.54 28.35 36.26 18.85 37.59"/><polygon class="cls-27" points="16.25 45.32 9.41 41.6 9.42 37.93 16.25 41.65 16.25 45.32"/><polygon class="cls-7" points="25 40.41 21.65 44.56 16.25 45.32 16.25 41.65 25 40.41"/><path class="cls-7" d="M18.85,37.59l9.5-1.33L25,40.41l-8.74,1.23c0-.06,0-.13,0-.19v0q0-.08,0-.15v0l0-.14v0l0-.16c0-.14.06-.27.09-.39l.05-.18v0l0-.14v0l.06-.16c.05-.12.1-.23.16-.34l0,0,.07-.12,0,0,.08-.12,0,0,.1-.14.11-.16.11-.14,0,0,.09-.1,0,0,.09-.1,0,0,.12-.12.14-.12,0,0,.1-.08,0,0L18.1,38l0,0,.1-.07,0,0,.29-.18,0,0,.1-.05.06,0Z"/><g class="cls-2"><g class="cls-28"><g class="cls-2"><path class="cls-29" d="M16.26,41.64,9.42,37.92c0-.06,0-.13,0-.19v0q0-.08,0-.15v0l0-.14v0l0-.16c0-.14.06-.27.09-.39l.05-.18v0l0-.13,6.84,3.72,0,.13v0l-.05.18c0,.12-.06.24-.09.39l0,.16v0l0,.14v0q0,.08,0,.15v0c0,.06,0,.13,0,.19"/><polyline class="cls-30" points="16.53 40.15 9.69 36.43 9.69 36.42 9.7 36.41 16.54 40.13 16.53 40.14 16.53 40.15"/><path class="cls-29" d="M16.53,40.13,9.7,36.41v0l6.84,3.72v0"/><path class="cls-30" d="M16.54,40.11,9.7,36.4v0l.06-.16c.05-.12.1-.23.16-.34v0l6.84,3.72v0c-.06.11-.11.22-.16.34l-.06.16v0"/><path class="cls-31" d="M16.78,39.58,9.94,35.86h0l6.84,3.72h0"/><path class="cls-30" d="M16.79,39.57,10,35.85h0l6.84,3.72h0"/><path class="cls-31" d="M16.8,39.55,10,35.83l.06-.11,0,0,.08-.12,0,0,.1-.14,0,0,6.84,3.72,0,0-.1.14,0,0-.08.12,0,0-.06.11"/><path class="cls-32" d="M17.09,39.07l-6.84-3.72.09-.13.11-.14,0,0,.09-.1h0l6.84,3.72h0l-.09.1,0,0-.11.14-.09.13"/><path class="cls-33" d="M17.42,38.66l-6.84-3.72,0,0,.09-.1,0,0,.12-.12.09-.08,6.84,3.72-.09.08-.12.12,0,0-.09.1,0,0"/><path class="cls-34" d="M17.78,38.3l-6.84-3.72.05,0,0,0,.1-.08,0,0,.09-.07,0,0,.05,0L18.2,38l-.05,0,0,0L18,38.1l0,0-.1.08,0,0-.05,0"/><path class="cls-8" d="M18.2,38l-6.84-3.72,0,0,0,0,.29-.18,0,0,.1-.05,0,0,6.84,3.72,0,0-.1.05,0,0-.29.18,0,0,0,0"/><path class="cls-35" d="M18.78,37.63l-6.84-3.72h0l.05,0,6.84,3.72-.05,0h0"/></g></g></g></g><g class="cls-2"><polygon class="cls-3" points="19.82 37.31 12.98 33.59 21.64 32.37 28.48 36.09 19.82 37.31"/><g class="cls-2"><g class="cls-36"><g class="cls-2"><path class="cls-37" d="M19.59,37.35l-6.84-3.72.22,0,6.84,3.72-.22,0"/></g></g></g><g class="cls-2"><g class="cls-38"><g class="cls-2"><path class="cls-37" d="M18.85,37.59,12,33.87h0l.17-.07,0,0,.21-.07h.05l.17,0h.06l6.84,3.72h-.06l-.17,0h-.05l-.21.07,0,0-.17.07h0"/></g></g></g><path class="cls-5" d="M19.59,37.35l.22,0,8.66-1.22-.13.17-9.5,1.33h0l.17-.07,0,0,.21-.07h.05l.17,0Z"/></g></g></g></svg>