<svg xmlns="http://www.w3.org/2000/svg" xmlns:xlink="http://www.w3.org/1999/xlink" viewBox="0 0 31.29 57.03"><defs><style>.cls-1{fill:none;}.cls-2{fill:#333;}.cls-3{fill:#666;}.cls-4{fill:#999;}.cls-5{fill:#ccc;}.cls-6{fill:url(#greybars);}</style><pattern id="greybars" data-name="greybars" width="104.75" height="76.71" patternUnits="userSpaceOnUse" viewBox="0 0 104.75 76.71"><rect class="cls-1" width="104.75" height="76.71"/><rect y="57.53" width="104.75" height="7.67"/><rect class="cls-2" y="65.2" width="104.75" height="7.67"/><rect class="cls-3" y="72.87" width="104.75" height="7.67"/><rect y="19.18" width="104.75" height="7.67"/><rect class="cls-2" y="26.85" width="104.75" height="7.67"/><rect class="cls-3" y="34.52" width="104.75" height="7.67"/><rect class="cls-4" y="42.19" width="104.75" height="7.67"/><rect class="cls-5" y="49.86" width="104.75" height="7.67"/><rect class="cls-3" y="-3.84" width="104.75" height="7.67"/><rect class="cls-4" y="3.84" width="104.75" height="7.67"/><rect class="cls-5" y="11.51" width="104.75" height="7.67"/></pattern></defs><title>gse</title><g id="Layer_2" data-name="Layer 2"><g id="Layer_1-2" data-name="Layer 1"><path class="cls-6" d="M10.06,42.46"/><path class="cls-6" d="M31.29,0V6.56a4,4,0,0,1-4,4H25.67c-2.2,0-4.59,0-5.31-.05l-.87.05C9.81,11.13,2.45,19.8,2,29c-.37,7.56,5.83,12.45,8.07,13.46"/><path class="cls-6" d="M0,52.48C5.81,56.8,16.05,56.84,19.32,57l1.63.06c1.1,0,3.79-.06,6-.06h.35a4,4,0,0,0,4-4V30.52"/><path class="cls-6" d="M28.17,42.46"/><line class="cls-6" x1="15.72" y1="40.07" x2="21" y2="40.07"/></g></g></svg>