<svg xmlns="http://www.w3.org/2000/svg" xmlns:xlink="http://www.w3.org/1999/xlink" viewBox="0 0 42.4 61.43"><defs><style>.cls-1{fill:none;}.cls-2{isolation:isolate;}.cls-3{clip-path:url(#clip-path);}.cls-4{fill:#6a6a6a;}.cls-5{clip-path:url(#clip-path-2);}.cls-6{fill:#909090;}.cls-7{fill:#686868;}.cls-8{fill:#b2b2b2;}.cls-9{clip-path:url(#clip-path-3);}.cls-10{clip-path:url(#clip-path-4);}.cls-11{fill:#4e4e4e;}.cls-12{fill:#868686;}.cls-13{fill:#6c6c6c;}.cls-14{fill:#4d4d4d;}.cls-15{clip-path:url(#clip-path-5);}.cls-16{fill:#434343;}.cls-17{fill:#414141;}.cls-18{fill:#3f3f3f;}.cls-19{fill:#333;}.cls-20{fill:#595959;}.cls-21{fill:#484848;}.cls-22{fill:#343434;}.cls-23{fill:#1a1a1a;}.cls-24{fill:#242424;}.cls-25{fill:#2d2d2d;}.cls-26{clip-path:url(#clip-path-6);}.cls-27{clip-path:url(#clip-path-7);}.cls-28{clip-path:url(#clip-path-8);}.cls-29{clip-path:url(#clip-path-9);}.cls-30{clip-path:url(#clip-path-10);}.cls-31{fill:#3b3b3b;}.cls-32{fill:#3d3d3d;}.cls-33{clip-path:url(#clip-path-11);}.cls-34{fill:#505050;}.cls-35{fill:#535353;}.cls-36{clip-path:url(#clip-path-12);}.cls-37{fill:#393939;}.cls-38{clip-path:url(#clip-path-13);}.cls-39{fill:#373737;}</style><clipPath id="clip-path"><path class="cls-1" d="M7.55,60.26.71,56.54l-.15-.21,0,0-.12-.21,0,0-.1-.21v0L.2,55.57l0-.05c0-.08-.05-.17-.07-.25s0-.19-.05-.27v0q0-.13,0-.27v-.06l6.84,3.72v.06q0,.14,0,.27v0c0,.08,0,.17.05.27s0,.17.07.25l0,.05.09.24v0l.1.21,0,0,.12.21,0,0Z"/></clipPath><clipPath id="clip-path-2"><path class="cls-1" d="M6.85,58.34,0,54.62c0-.09,0-.19,0-.29l6.84,3.72C6.84,58.15,6.84,58.24,6.85,58.34Z"/></clipPath><clipPath id="clip-path-3"><path class="cls-1" d="M31.81,56.85,25,53.13l0,0L24.87,53l0-.05-.05-.08,0-.06,0-.09,0-.05-.06-.12-.08-.17,0-.05,0-.1,0-.06,0-.1,0-.06,0-.12v0l0-.16v0l0-.13v-.24s0-.08,0-.12l6.84,3.72s0,.08,0,.12v.24l0,.13v0l0,.16v0l0,.12,0,.06,0,.1,0,.06,0,.1,0,.05.08.17.06.12,0,.05,0,.09,0,.06.05.08,0,.05.07.09Z"/></clipPath><clipPath id="clip-path-4"><path class="cls-1" d="M31.1,54.88l-6.84-3.72V51.1c0-.06,0-.12,0-.18l6.84,3.72c0,.06,0,.12,0,.18Z"/></clipPath><clipPath id="clip-path-5"><path class="cls-1" d="M22.62,33.23l6.84,3.72a3,3,0,0,0-1.89-.33L20.73,32.9A3,3,0,0,1,22.62,33.23Z"/></clipPath><clipPath id="clip-path-6"><path class="cls-1" d="M28.35,20.5l-6.84-3.72c0-.39-.06-.78-.09-1.17v0c0-.4,0-.8-.06-1.21v0q0-.3,0-.59v0q0-.31,0-.62c0-.22,0-.42,0-.62l6.84,3.72c0,.2,0,.4,0,.62s0,.41,0,.62v0q0,.3,0,.59v0c0,.41,0,.81.06,1.21v0C28.29,19.72,28.32,20.11,28.35,20.5Z"/></clipPath><clipPath id="clip-path-7"><path class="cls-1" d="M28.17,16.21l-6.84-3.72v-.05q0-.31,0-.61t0-.61c0-.21,0-.41,0-.6s0-.4,0-.59v0q0-.28,0-.55l6.84,3.72q0,.27,0,.55v0c0,.19,0,.38,0,.59s0,.39,0,.6,0,.41,0,.61,0,.41,0,.61Z"/></clipPath><clipPath id="clip-path-8"><path class="cls-1" d="M30.72,3.87,23.89.15a1.55,1.55,0,0,1,.4-.13h.06l6.84,3.72h-.06A1.55,1.55,0,0,0,30.72,3.87Z"/></clipPath><clipPath id="clip-path-9"><path class="cls-1" d="M30.47,4,23.64.3h0l.24-.15,6.84,3.72L30.48,4Z"/></clipPath><clipPath id="clip-path-10"><path class="cls-1" d="M30,4.45,23.19.73h0l.1-.12h0l.22-.21L23.64.3,30.47,4l-.12.09-.22.21h0l-.1.12Z"/></clipPath><clipPath id="clip-path-11"><path class="cls-1" d="M28.21,13.15,21.38,9.43V6.84l0-.18V6.59l0-.19V6.34l0-.2V6.08l0-.19V5.83l0-.22v0l0-.22v0q.07-.49.15-.94l0-.22,0-.22V4l0-.19v0l0-.17v0l0-.16v0l0-.15v0l0-.15v0l0-.15v0l0-.13,0,0,0-.13v0l0-.13v0l0-.13v0l0-.12v0l6.84,3.72v0l0,.12v0l0,.13V6l0,.13v0l0,.13,0,0,0,.13v0l0,.15v0l0,.15v0l0,.15v0l0,.16v0l0,.17v0l0,.19v0l0,.22,0,.22q-.08.45-.15.94v0l0,.22v0l0,.22v.06l0,.19v.06l0,.2v.06l0,.19v.08l0,.18v2.59Z"/></clipPath><clipPath id="clip-path-12"><path class="cls-1" d="M29.72,4.9,22.88,1.18h0L23,1V1l.2-.27L30,4.45l-.2.27v0l-.09.14Z"/></clipPath><clipPath id="clip-path-13"><path class="cls-1" d="M29.37,5.62,22.53,1.9h0l.08-.19.08-.17,0,0,.08-.15h0l.09-.16L29.72,4.9l-.09.16h0l-.08.15,0,0-.08.17-.08.19Z"/></clipPath></defs><title>hse</title><g id="Layer_2" data-name="Layer 2"><g id="Layer_1-2" data-name="Layer 1"><g class="cls-2"><path d="M8.51,61.07,1.67,57.35l0,0,6.84,3.72Z"/><path d="M1.6,57.32,8.44,61h0L1.63,57.33Z"/><path d="M8.44,61,1.6,57.32h0l-.3-.2,6.84,3.72.3.2Z"/><path d="M8.12,60.82,1.28,57.1l0,0L1.14,57l0,0L1,56.86l0,0-.09-.09,0,0-.1-.12,6.84,3.72.1.12,0,0,.09.09,0,0,.09.08,0,0,.1.08Z"/><path d="M17.21,59l.27,1.38-7.09,1-.2,0H9.53l-.15,0h0l-.18,0h0l-.13,0-.06,0-.11,0-.06,0-.11,0-.06,0-.12-.06,0,0-.3-.2,0,0L8,60.71l0,0-.09-.08,0,0-.09-.09,0,0-.1-.12v0l9.64-1.35Z"/><path d="M7.57,60.28.73,56.56v0l6.84,3.72Z"/><polygon points="7.55 60.26 0.71 56.54 10.35 55.18 17.19 58.9 7.55 60.26"/><g class="cls-2"><g class="cls-3"><g class="cls-2"><path class="cls-4" d="M7.55,60.26.71,56.54l-.15-.21,0,0-.12-.21,0,0-.1-.21v0L.2,55.57l0-.05c0-.08-.05-.17-.07-.25s0-.19-.05-.27v0q0-.13,0-.27v-.06l6.84,3.72v.06q0,.14,0,.27v0c0,.08,0,.17.05.27s0,.17.07.25l0,.05.09.24v0l.1.21,0,0,.12.21,0,0,.15.21"/></g></g></g><g class="cls-2"><g class="cls-5"><g class="cls-2"><path class="cls-4" d="M6.85,58.34,0,54.62c0-.09,0-.19,0-.29l6.84,3.72c0,.1,0,.19,0,.29"/></g></g></g><polygon class="cls-6" points="6.85 52.98 0.01 49.27 8.93 48.01 15.77 51.73 6.85 52.98"/><polygon class="cls-7" points="6.84 58.05 0 54.33 0.01 49.27 6.85 52.98 6.84 58.05"/><path class="cls-8" d="M6.85,58.34c0-.09,0-.19,0-.29V53l8.92-1.25,1.42,7.17L7.55,60.26l-.15-.21,0,0-.12-.21,0,0-.1-.21v0L7,59.29l0-.05c0-.08-.05-.17-.07-.25s0-.19-.05-.27v0q0-.13,0-.27Z"/></g><g class="cls-2"><path d="M32.76,57.66l-6.84-3.72,0,0,6.84,3.72Z"/><path d="M32.72,57.64l-6.84-3.72,0,0-.31-.21,6.84,3.72.31.21Z"/><path d="M32.37,57.41l-6.84-3.72,0,0-.1-.09,0,0-.09-.09,0,0-.09-.1,0,0-.1-.12,6.84,3.72.1.12,0,0,.09.1,0,0,.09.09,0,0,.1.09Z"/><polygon points="31.82 56.87 24.98 53.15 33.85 51.88 40.69 55.6 31.82 56.87"/><path d="M40.69,55.6l1.71,1.3L34.65,58l-.2,0h-.66l-.15,0h0l-.18,0h0l-.14,0-.06,0-.12,0-.06,0-.11-.05-.06,0-.12-.06,0,0-.31-.21,0,0-.1-.09,0,0-.09-.09,0,0L32,57l0,0-.1-.12Z"/></g><g class="cls-2"><g class="cls-2"><g class="cls-9"><g class="cls-2"><path class="cls-4" d="M31.81,56.85,25,53.13l0,0L24.87,53l0-.05-.05-.08,0-.06,0-.09,0-.05-.06-.12-.08-.17,0-.05,0-.1,0-.06,0-.1,0-.06,0-.12v0l0-.16v0l0-.13v-.24s0-.08,0-.12l6.84,3.72s0,.08,0,.12v.24l0,.13v0l0,.16v0l0,.12,0,.06,0,.1,0,.06,0,.1,0,.05.08.17.06.12,0,.05,0,.09,0,.06.05.08,0,.05.07.09,0,0"/></g></g></g><g class="cls-2"><g class="cls-10"><g class="cls-2"><path class="cls-4" d="M31.1,54.88l-6.84-3.72V51.1c0-.06,0-.12,0-.18l6.84,3.72c0,.06,0,.12,0,.18v.06"/></g></g></g><path class="cls-8" d="M31.1,54.88v-.06c0-.06,0-.12,0-.18V49.58l1.38-.19,8.2,6.22-8.88,1.25,0,0-.07-.09,0-.05-.05-.08,0-.06,0-.09,0-.05-.06-.12-.08-.17,0-.05,0-.1,0-.06,0-.1,0-.06,0-.12v0l0-.16v0l0-.13V55S31.1,54.92,31.1,54.88Z"/><polygon class="cls-7" points="31.09 54.64 24.26 50.92 24.27 45.86 31.1 49.58 31.09 54.64"/><polygon class="cls-6" points="31.1 49.58 24.27 45.86 25.65 45.66 32.48 49.38 31.1 49.58"/><polygon class="cls-11" points="31.1 49.58 24.27 45.86 24.27 44.62 31.11 48.34 31.1 49.58"/><polygon class="cls-12" points="31.11 48.34 32.48 49.38 31.1 49.58 31.11 48.34"/></g><g class="cls-2"><polygon class="cls-13" points="24.29 43.17 17.46 39.45 24.28 38.49 31.12 42.21 24.29 43.17"/><polygon class="cls-14" points="31.11 48.34 24.27 44.62 17.46 39.45 24.29 43.17 31.11 48.34"/><polygon class="cls-12" points="24.29 43.17 31.12 42.21 31.11 48.34 24.29 43.17"/></g><g class="cls-2"><g class="cls-2"><g class="cls-15"><g class="cls-2"><path class="cls-16" d="M27.57,36.62,20.73,32.9A3.12,3.12,0,0,1,22,33l6.84,3.72a3.12,3.12,0,0,0-1.22-.06"/><path class="cls-17" d="M28.79,36.69,22,33a2.93,2.93,0,0,1,.56.21l6.84,3.72a2.93,2.93,0,0,0-.56-.21"/><path class="cls-18" d="M29.35,36.89l-6.84-3.72.11.06,6.84,3.72-.11-.06"/></g></g></g><polygon class="cls-19" points="24.29 43.17 17.46 39.45 13.36 36.34 20.2 40.06 24.29 43.17"/><path class="cls-20" d="M31.12,42.21l-6.82,1-4.1-3.11,10.66-1.5a3.74,3.74,0,0,1,.26,1.22q0,.09,0,.19Z"/><polygon class="cls-21" points="20.2 40.06 13.36 36.34 24.02 34.84 30.86 38.56 20.2 40.06"/><polygon class="cls-21" points="17.53 38.03 10.69 34.31 20.73 32.9 27.57 36.62 17.53 38.03"/><polygon class="cls-19" points="20.2 40.06 13.36 36.34 10.69 34.31 17.53 38.03 20.2 40.06"/><path class="cls-20" d="M27.57,36.62a3,3,0,0,1,3.29,1.94L20.2,40.06l-2.67-2Z"/></g><g class="cls-2"><polygon class="cls-11" points="6.85 52.98 0.01 49.27 0.02 41.9 6.86 45.62 6.85 52.98"/><polygon class="cls-13" points="6.86 45.62 0.02 41.9 7.51 40.85 14.35 44.57 6.86 45.62"/><polygon class="cls-12" points="14.35 44.57 15.77 51.73 6.85 52.98 6.86 45.62 14.35 44.57"/></g><g class="cls-2"><polygon class="cls-22" points="6.86 45.62 0.02 41.9 0.03 38.22 6.87 41.94 6.86 45.62"/><polygon class="cls-21" points="6.87 41.94 0.03 38.22 6.8 37.26 13.64 40.98 6.87 41.94"/><polygon class="cls-20" points="13.64 40.98 14.35 44.57 6.86 45.62 6.87 41.94 13.64 40.98"/></g><g class="cls-2"><polygon class="cls-22" points="6.87 41.94 0.03 38.22 0.04 34.53 6.88 38.25 6.87 41.94"/><polygon class="cls-21" points="6.88 38.25 0.04 34.53 6.09 33.68 12.93 37.4 6.88 38.25"/><polygon class="cls-20" points="12.93 37.4 13.64 40.98 6.87 41.94 6.88 38.25 12.93 37.4"/></g><g class="cls-2"><polygon class="cls-23" points="6.88 38.25 0.04 34.53 0.05 27.17 6.89 30.89 6.88 38.25"/><polygon class="cls-24" points="6.89 30.89 0.05 27.17 4.67 26.52 11.51 30.24 6.89 30.89"/><polygon class="cls-25" points="11.51 30.24 12.93 37.4 6.88 38.25 6.89 30.89 11.51 30.24"/></g><g class="cls-2"><polygon points="6.89 30.89 0.05 27.17 0.06 19.79 6.9 23.51 6.89 30.89"/><polygon points="6.9 23.51 0.06 19.79 3.25 19.34 10.09 23.06 6.9 23.51"/><polygon points="10.47 24.97 11.51 30.24 6.89 30.89 6.9 23.51 10.09 23.06 10.47 24.97"/></g><g class="cls-2"><polygon class="cls-7" points="6.9 23.51 0.06 19.79 0.08 12.43 6.92 16.14 6.9 23.51"/><polygon class="cls-8" points="8.67 15.9 10.09 23.06 6.9 23.51 6.92 16.14 8.67 15.9"/><polygon class="cls-6" points="6.92 16.14 0.08 12.43 1.83 12.18 8.67 15.9 6.92 16.14"/><polygon class="cls-13" points="6.93 8.78 0.09 5.06 0.41 5.01 7.25 8.73 6.93 8.78"/><polygon class="cls-11" points="6.92 16.14 0.08 12.43 0.09 5.06 6.93 8.78 6.92 16.14"/><polygon class="cls-12" points="7.25 8.73 8.67 15.9 6.92 16.14 6.93 8.78 7.25 8.73"/></g><g class="cls-2"><polygon class="cls-22" points="6.93 8.78 0.09 5.06 0.1 3.42 6.93 7.13 6.93 8.78"/><polygon class="cls-20" points="6.93 7.13 7.25 8.73 6.93 8.78 6.93 7.13"/></g><g class="cls-2"><polygon points="31.17 26.51 24.33 22.79 24.34 16.38 31.18 20.1 31.17 26.51"/><polygon points="31.18 20.1 24.34 16.38 24.37 16.38 31.21 20.09 31.18 20.1"/><polygon points="31.17 26.51 31.18 20.1 31.21 20.09 31.19 26.51 31.17 26.51"/></g><g class="cls-2"><path d="M24.24,22.8h0l6.84,3.72h0Z"/><path d="M31.08,26.53h0Z"/><polygon points="31.08 26.53 24.24 22.81 24.24 22.8 31.08 26.52 31.08 26.53"/><polygon points="31.09 20.11 24.26 16.39 24.3 16.38 31.14 20.1 31.09 20.11"/><polygon points="31.12 26.52 24.28 22.8 24.3 16.38 31.14 20.1 31.12 26.52"/><polygon class="cls-7" points="31.18 20.1 24.34 16.38 24.36 9.01 31.2 12.73 31.18 20.1"/><polygon class="cls-8" points="31.14 20.1 31.16 12.74 31.2 12.73 31.18 20.1 31.14 20.1"/><polygon points="31.14 20.1 24.3 16.38 24.34 16.38 31.18 20.1 31.14 20.1"/><polygon points="31.12 26.52 31.14 20.1 31.18 20.1 31.17 26.51 31.12 26.52"/><polygon points="28.35 20.5 21.51 16.78 24.26 16.39 31.09 20.11 28.35 20.5"/><path d="M30.31,26.38l-6.84-3.72a2.21,2.21,0,0,1-.83-.91,5,5,0,0,1-.26-.56c-.08-.21-.16-.43-.23-.66s-.09-.32-.13-.48v0q-.09-.37-.17-.78v0q-.05-.27-.1-.56v0l0-.27v0q0-.29-.08-.59v0l0-.3,0-.31v0l0-.28v0l6.84,3.72v0l0,.28v0l0,.31,0,.3v0q0,.3.08.59v0l0,.27v0q0,.28.1.56v0q.08.41.17.78v0c0,.17.09.33.13.48s.15.45.23.66a5,5,0,0,0,.26.56A2.21,2.21,0,0,0,30.31,26.38Z"/><path d="M31.09,20.11h0l0,6.42h0a1.64,1.64,0,0,1-1.6-1.06,5,5,0,0,1-.26-.56c-.08-.21-.16-.43-.23-.66s-.09-.32-.13-.48v0q-.09-.37-.17-.78v0q-.05-.27-.1-.56v0l0-.27v0q0-.29-.08-.59v0l0-.3,0-.31v0l0-.28v0Z"/><polygon class="cls-8" points="31.18 20.1 31.2 12.73 31.22 12.73 31.21 20.09 31.18 20.1"/><polygon class="cls-12" points="31.2 12.73 31.21 5.37 31.23 5.36 31.22 12.73 31.2 12.73"/><polygon class="cls-6" points="31.2 12.73 24.36 9.01 24.38 9.01 31.22 12.73 31.2 12.73"/><polygon class="cls-7" points="31.14 20.1 24.3 16.38 24.32 9.02 31.16 12.74 31.14 20.1"/><polygon class="cls-11" points="31.2 12.73 24.36 9.01 24.37 1.65 31.21 5.37 31.2 12.73"/><polygon class="cls-12" points="31.16 12.74 31.18 5.37 31.21 5.37 31.2 12.73 31.16 12.74"/><polygon class="cls-6" points="31.16 12.74 24.32 9.02 24.36 9.01 31.2 12.73 31.16 12.74"/><g class="cls-2"><g class="cls-26"><g class="cls-2"><path class="cls-4" d="M28.35,20.5l-6.84-3.72c0-.39-.06-.78-.09-1.17v0c0-.4,0-.8-.06-1.21v0q0-.3,0-.59v0q0-.31,0-.62c0-.22,0-.42,0-.62l6.84,3.72c0,.2,0,.4,0,.62s0,.41,0,.62v0q0,.3,0,.59v0c0,.41,0,.81.06,1.21v0c0,.4.05.79.09,1.17"/></g></g></g><polygon class="cls-6" points="28.21 13.16 21.38 9.44 24.32 9.02 31.16 12.74 28.21 13.16"/><path class="cls-8" d="M28.17,16.21v-.05q0-.31,0-.61t0-.61c0-.21,0-.41,0-.6s0-.4,0-.59v0q0-.28,0-.55l2.95-.42v.88l0,6.49h0l-2.74.39c0-.39-.06-.78-.09-1.17v0c0-.4,0-.8-.06-1.21v0q0-.3,0-.59v0q0-.31,0-.62C28.18,16.61,28.17,16.41,28.17,16.21Z"/><g class="cls-2"><g class="cls-27"><g class="cls-2"><path class="cls-4" d="M28.17,16.21l-6.84-3.72v-.05q0-.31,0-.61t0-.61c0-.21,0-.41,0-.6s0-.4,0-.59v0q0-.28,0-.55l6.84,3.72q0,.27,0,.55v0c0,.19,0,.38,0,.59s0,.39,0,.6,0,.41,0,.61,0,.41,0,.61v.05"/></g></g></g><polygon class="cls-20" points="31.21 3.72 31.24 3.72 31.23 5.36 31.21 5.37 31.21 3.72"/><polygon class="cls-13" points="31.21 5.37 24.37 1.65 24.39 1.64 31.23 5.36 31.21 5.37"/><polygon class="cls-22" points="31.21 5.37 24.37 1.65 24.37 0 31.21 3.72 31.21 5.37"/><polygon class="cls-20" points="31.19 3.73 31.21 3.72 31.21 5.37 31.18 5.37 31.19 3.73"/><polygon class="cls-13" points="31.18 5.37 24.34 1.65 24.37 1.65 31.21 5.37 31.18 5.37"/><polygon class="cls-11" points="31.16 12.74 24.32 9.02 24.34 1.65 31.18 5.37 31.16 12.74"/><polygon class="cls-21" points="31.21 3.72 24.37 0 24.4 0 31.24 3.72 31.21 3.72"/><polygon class="cls-21" points="31.19 3.73 24.35 0.01 24.37 0 31.21 3.72 31.19 3.73"/><polygon class="cls-22" points="31.18 5.37 24.34 1.65 24.35 0.01 31.19 3.73 31.18 5.37"/><g class="cls-2"><g class="cls-28"><g class="cls-2"><path class="cls-17" d="M30.72,3.87,23.89.15h0l6.84,3.72h0"/><path class="cls-16" d="M30.74,3.86,23.91.14A1.54,1.54,0,0,1,24.29,0h.06l6.84,3.72h-.06a1.54,1.54,0,0,0-.38.12"/></g></g></g><polygon class="cls-21" points="31.12 3.74 24.29 0.02 24.35 0.01 31.19 3.73 31.12 3.74"/><polygon class="cls-22" points="31.12 3.74 24.29 0.02 24.29 0.02 31.12 3.74 31.12 3.74"/><g class="cls-2"><g class="cls-29"><g class="cls-2"><path class="cls-18" d="M30.47,4,23.64.3h0l0,0L30.5,4l0,0h0"/><path class="cls-17" d="M30.5,4,23.66.28l.22-.13,6.84,3.72L30.5,4"/></g></g></g><g class="cls-2"><g class="cls-30"><g class="cls-2"><path class="cls-31" d="M30,4.45,23.19.73h0l.07-.09L30.1,4.36,30,4.45h0"/><path class="cls-32" d="M30.1,4.36,23.26.64l0,0h0l.16-.16L30.3,4.16l-.16.16h0l0,0"/><path class="cls-18" d="M30.3,4.16,23.46.44l.06,0L23.64.3,30.47,4l-.12.09-.06,0"/></g></g></g><polygon class="cls-13" points="29.37 5.63 22.53 1.91 24.34 1.65 31.18 5.37 29.37 5.63"/><g class="cls-2"><g class="cls-33"><g class="cls-2"><path class="cls-34" d="M28.21,13.15,21.38,9.43V6.84l0-.18V6.59l0-.19V6.34l0-.2V6.08l0-.19V5.83l0-.22v0l0-.22v0q.07-.49.15-.94l0-.22,0-.22V4l0-.19v0l0-.17v0l0-.16v0l0-.15v0l0-.15v0l0-.15v0l0-.13,0,0,0-.13v0l0-.13v0l0-.05,6.84,3.72,0,.05V6l0,.13v0l0,.13,0,0,0,.13v0l0,.15v0l0,.15v0l0,.15v0l0,.16v0l0,.17v0l0,.19v0l0,.22,0,.22q-.08.45-.15.94v0l0,.22v0l0,.22v.06l0,.19v.06l0,.2v.06l0,.19v.08l0,.18v2.59"/><path class="cls-35" d="M29.27,5.88,22.43,2.17l0-.07v0l0-.12v0l6.84,3.72v0l0,.12v0l0,.07"/></g></g></g><path class="cls-12" d="M31.16,12.74l-2.95.41V10.56l0-.18v-.08l0-.19v-.06l0-.2V9.8l0-.19V9.55l0-.22v0l0-.22v0q.07-.49.15-.94l0-.22,0-.22v0l0-.19v0l0-.17v0l0-.16V7l0-.15v0l0-.15v0l0-.15v0l0-.13,0,0,0-.13v0l0-.13v0l0-.13v0l0-.12v0l1.82-.26Z"/><g class="cls-2"><g class="cls-36"><g class="cls-2"><path class="cls-37" d="M29.72,4.9,22.88,1.18h0L23,1V1l.07-.1,6.84,3.72-.07.1v0l-.09.14h0"/><path class="cls-31" d="M29.89,4.63,23.06.91l.13-.17L30,4.45l-.13.17"/></g></g></g><path class="cls-20" d="M30.72,3.87a1.55,1.55,0,0,1,.4-.13h.06V5.37l-1.82.26h0l.08-.19.08-.17,0,0,.08-.15h0l.09-.16h0l.09-.14v0l.2-.27h0l.1-.12h0l.22-.21L30.47,4h0Z"/><g class="cls-2"><g class="cls-38"><g class="cls-2"><path class="cls-39" d="M29.37,5.62,22.53,1.9h0l.08-.19.08-.17,0,0,.08-.15h0L29.64,5h0l-.08.15,0,0-.08.17-.08.19h0"/><path class="cls-37" d="M29.64,5,22.8,1.33l.08-.15L29.72,4.9,29.64,5"/></g></g></g></g></g></g></svg>