<svg xmlns="http://www.w3.org/2000/svg" xmlns:xlink="http://www.w3.org/1999/xlink" viewBox="0 0 34.39 57"><defs><style>.cls-1{fill:none;}.cls-2{fill:#333;}.cls-3{fill:#666;}.cls-4{fill:#999;}.cls-5{fill:#ccc;}.cls-6{fill:url(#greybars);}</style><pattern id="greybars" data-name="greybars" width="104.75" height="76.71" patternUnits="userSpaceOnUse" viewBox="0 0 104.75 76.71"><rect class="cls-1" width="104.75" height="76.71"/><rect y="57.53" width="104.75" height="7.67"/><rect class="cls-2" y="65.2" width="104.75" height="7.67"/><rect class="cls-3" y="72.87" width="104.75" height="7.67"/><rect y="19.18" width="104.75" height="7.67"/><rect class="cls-2" y="26.85" width="104.75" height="7.67"/><rect class="cls-3" y="34.52" width="104.75" height="7.67"/><rect class="cls-4" y="42.19" width="104.75" height="7.67"/><rect class="cls-5" y="49.86" width="104.75" height="7.67"/><rect class="cls-3" y="-3.84" width="104.75" height="7.67"/><rect class="cls-4" y="3.84" width="104.75" height="7.67"/><rect class="cls-5" y="11.51" width="104.75" height="7.67"/></pattern></defs><title>ise</title><g id="Layer_2" data-name="Layer 2"><g id="Layer_1-2" data-name="Layer 1"><path class="cls-6" d="M2.76,8.29"/><path class="cls-6" d="M0,44v9a4,4,0,0,0,4,4H34.39"/><path class="cls-6" d="M0,0V7a4,4,0,0,0,4,4H8.05a4,4,0,0,1,4,4V44"/><line class="cls-6" x1="21.8" y1="10.81" x2="34.39" y2="10.81"/><line class="cls-6" x1="21.83" y1="10.84" x2="34.39" y2="10.84"/><path class="cls-6" d="M21.83,10.81c0,2.53,2.71,3.42,6.28,3.42,3.11,0,6.28-.65,6.28-3.4"/></g></g></svg>