<svg xmlns="http://www.w3.org/2000/svg" xmlns:xlink="http://www.w3.org/1999/xlink" viewBox="0 0 37.63 56.99"><defs><style>.cls-1{fill:none;}.cls-2{isolation:isolate;}.cls-3{fill:gray;}.cls-4{clip-path:url(#clip-path);}.cls-5{fill:#6a6a6a;}.cls-6{clip-path:url(#clip-path-2);}.cls-7{clip-path:url(#clip-path-3);}.cls-8{fill:#909090;}.cls-9{fill:#b2b2b2;}.cls-10{fill:#4d4d4d;}.cls-11{fill:#6c6c6c;}.cls-12{fill:#868686;}.cls-13{fill:#333;}.cls-14{fill:#595959;}.cls-15{fill:#484848;}.cls-16{fill:#1a1a1a;}.cls-17{fill:#242424;}.cls-18{fill:#2d2d2d;}.cls-19{clip-path:url(#clip-path-4);}.cls-20{fill:#878787;}.cls-21{fill:#838383;}.cls-22{fill:#7e7e7e;}.cls-23{clip-path:url(#clip-path-5);}.cls-24{fill:#666;}.cls-25{clip-path:url(#clip-path-6);}.cls-26{clip-path:url(#clip-path-7);}.cls-27{clip-path:url(#clip-path-8);}.cls-28{clip-path:url(#clip-path-9);}.cls-29{clip-path:url(#clip-path-10);}.cls-30{clip-path:url(#clip-path-11);}.cls-31{clip-path:url(#clip-path-12);}.cls-32{fill:#505050;}.cls-33{clip-path:url(#clip-path-13);}.cls-34{fill:#4e4e4e;}.cls-35{fill:#343434;}.cls-36{clip-path:url(#clip-path-14);}.cls-37{clip-path:url(#clip-path-15);}.cls-38{clip-path:url(#clip-path-16);}.cls-39{clip-path:url(#clip-path-17);}.cls-40{clip-path:url(#clip-path-18);}.cls-41{clip-path:url(#clip-path-19);}.cls-42{fill:#919191;}.cls-43{fill:#686868;}.cls-44{clip-path:url(#clip-path-20);}.cls-45{clip-path:url(#clip-path-21);}.cls-46{fill:#606060;}.cls-47{clip-path:url(#clip-path-22);}</style><clipPath id="clip-path"><path class="cls-1" d="M10.7,55.87,3.86,52.15l-.14-.08,6.84,3.72Z"/></clipPath><clipPath id="clip-path-2"><path class="cls-1" d="M10.56,55.79,3.73,52.07l-.23-.14,6.84,3.72Z"/></clipPath><clipPath id="clip-path-3"><path class="cls-1" d="M10.33,55.65,3.49,51.93l-.08-.05-.15-.1-.09-.06L3,51.62,3,51.55l-.12-.09-.09-.07-.11-.1-.09-.08-.11-.1L2.35,51l-.1-.11-.08-.08-.1-.11L2,50.65l-.1-.12-.07-.08-.11-.14-.05-.06q-.16-.21-.3-.42l0-.08-.09-.14-.05-.09-.07-.13-.06-.1L1,49.16l-.05-.11-.06-.13-.05-.11-.06-.13,0-.11-.05-.13,0-.11,0-.13,0-.11,0-.13,0-.12,0-.14,0-.11,0-.18,0-.14,0-.18,0-.12,0-.14,0-.13,0-.13,0-.14,0-.13,0-.13,0-.13,0-.14v-.53L6.85,49.1v.53l0,.14,0,.13,0,.13,0,.13,0,.14,0,.13,0,.13,0,.14,0,.12,0,.18,0,.14,0,.18,0,.11,0,.14,0,.12,0,.13,0,.11,0,.13,0,.11.05.13,0,.11.06.13.05.11.06.13.05.11.07.13.06.1.07.13.05.09.09.14,0,.08q.14.22.3.42l.05.06.11.14.07.08.1.12.08.08.1.11.08.08.1.11.08.08.11.1.09.08.11.1.09.07.12.09.09.07.13.09.09.06.15.1Z"/></clipPath><clipPath id="clip-path-4"><path class="cls-1" d="M10.74,9.08l6.84,3.72a3,3,0,0,0-1.9-.33L8.84,8.75A3,3,0,0,1,10.74,9.08Z"/></clipPath><clipPath id="clip-path-5"><path class="cls-1" d="M9.3,13.16,2.46,9.44a3.14,3.14,0,0,0,1.14,0l6.84,3.72A3.14,3.14,0,0,1,9.3,13.16Z"/></clipPath><clipPath id="clip-path-6"><polygon class="cls-1" points="2.46 9.44 9.29 13.16 9.29 13.16 2.46 9.44 2.46 9.44"/></clipPath><clipPath id="clip-path-7"><polygon class="cls-1" points="9.29 13.16 2.46 9.44 2.46 9.44 9.29 13.16 9.29 13.16"/></clipPath><clipPath id="clip-path-8"><path class="cls-1" d="M8.55,12.88,1.71,9.16l-.13-.08L8.41,12.8Z"/></clipPath><clipPath id="clip-path-9"><path class="cls-1" d="M8.41,12.8,1.58,9.08,1.51,9l-.14-.1L8.2,12.66l.14.1Z"/></clipPath><clipPath id="clip-path-10"><path class="cls-1" d="M8.2,12.66,1.37,8.94l-.06,0-.14-.12,0,0L1,8.6l0,0L.81,8.41l6.84,3.72.13.15,0,0,.14.13,0,0,.14.12Z"/></clipPath><clipPath id="clip-path-11"><polygon class="cls-1" points="7.65 12.13 0.81 8.41 0.8 8.4 7.64 12.12 7.65 12.13"/></clipPath><clipPath id="clip-path-12"><path class="cls-1" d="M7.64,12.12.8,8.4.66,8.21l0,0L.59,8.11l0,0L.53,8l0,0,0-.07,0-.05,0-.07,0-.06,0-.07,0-.07,0-.07,0-.07,0-.07,0-.07,0-.07,0-.08,0-.07L.14,7V6.93l0-.09V6.47s0-.07,0-.11V6.31L6.89,10v.05s0,.07,0,.11v.37l0,.09v.07l0,.08,0,.07,0,.08,0,.07,0,.07,0,.07,0,.07,0,.07,0,.07,0,.07,0,.06,0,.07,0,.05,0,.07,0,0,0,.07,0,0,.05.08,0,0Z"/></clipPath><clipPath id="clip-path-13"><path class="cls-1" d="M6.89,10,.05,6.31q0-.08,0-.16L6.89,9.87Q6.89,9.95,6.89,10Z"/></clipPath><clipPath id="clip-path-14"><path class="cls-1" d="M37.63,9.14,30.79,5.42V5.37l6.84,3.72Z"/></clipPath><clipPath id="clip-path-15"><path class="cls-1" d="M28.68,12.48,21.85,8.76l-.08,0,6.84,3.72Z"/></clipPath><clipPath id="clip-path-16"><path class="cls-1" d="M28.61,12.43,21.77,8.71l-.05,0,6.84,3.72Z"/></clipPath><clipPath id="clip-path-17"><path class="cls-1" d="M28.56,12.4,21.72,8.68l-.09-.06,6.84,3.72Z"/></clipPath><clipPath id="clip-path-18"><path class="cls-1" d="M28.47,12.34,21.63,8.62l0,0-.08-.06,6.84,3.72.08.06Z"/></clipPath><clipPath id="clip-path-19"><path class="cls-1" d="M28.33,12.25,21.5,8.53l0,0-.08-.07,0,0-.07-.07,0,0-.06-.08,0,0-.06-.09,0,0,0-.09,0-.05,0-.09,0-.06,0-.1,0-.06,0-.1,0-.07,0-.11V7s0-.08,0-.12,0-.08,0-.13l6.84,3.72s0,.08,0,.13,0,.08,0,.12V11l0,.11,0,.07,0,.1,0,.06,0,.1,0,.06,0,.09,0,.05,0,.09,0,0,.06.09,0,0,.06.08,0,0,.07.07,0,0,.08.07Z"/></clipPath><clipPath id="clip-path-20"><path class="cls-1" d="M6.85,49.06,0,45.34v0q0-.14,0-.27v-.08l6.84,3.72v.08q0,.14,0,.27Z"/></clipPath><clipPath id="clip-path-21"><path class="cls-1" d="M6.84,48.66,0,44.94c0-.11,0-.23,0-.34l6.84,3.72C6.84,48.43,6.84,48.55,6.84,48.66Z"/></clipPath><clipPath id="clip-path-22"><path class="cls-1" d="M6.84,48.32,0,44.6c0-1,0-4,0-4.18l6.84,3.72C6.85,44.29,6.86,47.27,6.84,48.32Z"/></clipPath></defs><title>jse</title><g id="Layer_2" data-name="Layer 2"><g id="Layer_1-2" data-name="Layer 1"><g class="cls-2"><polygon points="27.35 53.66 20.51 49.94 20.64 50 27.48 53.72 27.35 53.66"/><polygon points="27.18 53.58 20.34 49.86 20.51 49.94 27.35 53.66 27.18 53.58"/><polygon points="10.74 55.89 3.9 52.17 20.34 49.86 27.18 53.58 10.74 55.89"/><path d="M27.35,53.66l.13.06-.54.29,0,0-.51.26-.07,0-.49.24-.09,0-.48.22-.09,0-.48.21-.09,0-.49.2-.08,0-.5.19-.06,0-.52.18-.53.17-.05,0-.5.15-.07,0-.49.14-.08,0-.47.12-.09,0-.47.11-.08,0-.48.1h-.06l-.49.09h0l-.5.08h-.06l-.22,0h-.1l-.19,0h-.11l-.17,0H14.4l-.17,0h-.08l-.16,0h-.08l-.16,0h-.08l-.15,0h-.08l-.16,0h-.07l-.16,0-.07,0-.16,0h-.06l-.16,0-.06,0-.16,0h0l-.17-.05h0l-.17-.05h0l-.17-.06-.21-.08a7.59,7.59,0,0,1-.78-.36l16.44-2.31Z"/></g><g class="cls-2"><polygon class="cls-3" points="14.99 47.92 8.15 44.2 20.34 49.86 27.18 53.58 14.99 47.92"/><g class="cls-2"><g class="cls-4"><g class="cls-2"><path class="cls-5" d="M10.7,55.87,3.86,52.15l-.14-.08,6.84,3.72.14.08"/></g></g></g><g class="cls-2"><g class="cls-6"><g class="cls-2"><path class="cls-5" d="M10.56,55.79,3.73,52.07l-.23-.14,6.84,3.72.23.14"/></g></g></g><g class="cls-2"><g class="cls-7"><g class="cls-2"><path class="cls-5" d="M10.33,55.65,3.49,51.93l-.08-.05-.15-.1-.09-.06L3,51.62,3,51.55l-.12-.09-.09-.07-.11-.1-.09-.08-.11-.1L2.35,51l-.1-.11-.08-.08-.1-.11L2,50.65l-.1-.12-.07-.08-.11-.14-.05-.06q-.16-.21-.3-.42l0-.08-.09-.14-.05-.09-.07-.13-.06-.1L1,49.16l-.05-.11-.06-.13-.05-.11-.06-.13,0-.11-.05-.13,0-.11,0-.13,0-.11,0-.13,0-.12,0-.14,0-.11,0-.18,0-.14,0-.18,0-.12,0-.14,0-.13,0-.13,0-.14,0-.13,0-.13,0-.13,0-.14v-.53L6.85,49.1v.53l0,.14,0,.13,0,.13,0,.13,0,.14,0,.13,0,.13,0,.14,0,.12,0,.18,0,.14,0,.18,0,.11,0,.14,0,.12,0,.13,0,.11,0,.13,0,.11.05.13,0,.11.06.13.05.11.06.13.05.11.07.13.06.1.07.13.05.09.09.14,0,.08q.14.22.3.42l.05.06.11.14.07.08.1.12.08.08.1.11.08.08.1.11.08.08.11.1.09.08.11.1.09.07.12.09.09.07.13.09.09.06.15.1.08.05"/></g></g></g><polygon class="cls-8" points="6.85 49.1 0.02 45.38 8.15 44.2 14.99 47.92 6.85 49.1"/><path class="cls-9" d="M15,47.92l12.19,5.66L10.74,55.89l-.17-.1-.23-.14-.08-.05-.15-.1L10,55.44l-.13-.09-.09-.07-.12-.09-.09-.07L9.47,55l-.09-.08-.11-.1-.08-.08-.1-.11L9,54.56l-.1-.11-.08-.08-.1-.12-.07-.08L8.56,54,8.51,54q-.16-.21-.3-.42l0-.08-.09-.14L8,53.24l-.07-.13L7.89,53l-.07-.13-.05-.11-.06-.13-.05-.11-.06-.13,0-.11-.05-.13,0-.11,0-.13,0-.11,0-.13,0-.12,0-.14,0-.11,0-.18,0-.14,0-.18,0-.12,0-.14,0-.13,0-.13,0-.14,0-.13,0-.13,0-.13,0-.14V49.1Z"/></g><g class="cls-2"><polygon class="cls-10" points="17.83 46.78 10.99 43.06 9.37 36.66 16.21 40.38 17.83 46.78"/><polygon class="cls-11" points="16.21 40.38 9.37 36.66 12.28 36.25 19.12 39.97 16.21 40.38"/><path class="cls-12" d="M18,46.64l0,0-.1.1-1.62-6.39L19.12,40V41c0,.13,0,.25,0,.37v.87q0,.34,0,.65V43l0,.22v.09l0,.22v.08l0,.28,0,.26v.07l0,.18v.07l0,.19v0l0,.22v0l0,.18,0,.06,0,.14,0,.06,0,.15v0l-.06.17,0,0-.05.12,0,0-.05.1,0,0-.07.13-.09.14,0,0-.07.09,0,0Z"/></g><g class="cls-2"><polygon class="cls-13" points="16.21 40.38 9.37 36.66 9.32 36.49 16.16 40.21 16.21 40.38"/><polygon class="cls-13" points="16.16 40.21 9.32 36.49 8.47 33.11 15.3 36.83 16.16 40.21"/><path class="cls-14" d="M16.21,40.38l0-.17-.86-3.39,3.87-.54c0,.61,0,1.18,0,1.73v2Z"/><polygon class="cls-15" points="15.3 36.83 8.47 33.11 12.33 32.56 19.17 36.28 15.3 36.83"/><polygon class="cls-15" points="14.4 33.27 7.56 29.55 12.37 28.88 19.2 32.6 14.4 33.27"/><polygon class="cls-13" points="15.3 36.83 8.47 33.11 7.56 29.55 14.4 33.27 15.3 36.83"/><path class="cls-14" d="M19.21,32.8c0,.18,0,.33,0,.46v1c0,.73,0,1.42,0,2.07l-3.87.54-.9-3.56,4.8-.68v.2Z"/></g><g class="cls-2"><polygon class="cls-16" points="14.4 33.27 7.56 29.55 5.76 22.44 12.6 26.16 14.4 33.27"/><polygon class="cls-17" points="12.6 26.16 5.76 22.44 12.38 21.51 19.21 25.23 12.6 26.16"/><path class="cls-18" d="M19.21,27.55c0,1.74,0,3.81,0,5l-4.8.68L12.6,26.16l6.62-.93Z"/></g><g class="cls-2"><polygon points="12.6 26.16 5.76 22.44 3.95 15.32 10.79 19.04 12.6 26.16"/><polygon points="10.79 19.04 3.95 15.32 12.39 14.14 19.23 17.86 10.79 19.04"/><polygon points="19.23 17.86 19.21 25.23 12.6 26.16 10.79 19.04 19.23 17.86"/></g><g class="cls-2"><g class="cls-2"><g class="cls-19"><g class="cls-2"><path class="cls-20" d="M15.67,12.47,8.84,8.75a3.14,3.14,0,0,1,1.23.06l6.84,3.72a3.14,3.14,0,0,0-1.23-.06"/><path class="cls-21" d="M16.9,12.53,10.06,8.81a2.94,2.94,0,0,1,.56.21l6.84,3.72a2.94,2.94,0,0,0-.56-.21"/><path class="cls-22" d="M17.46,12.74,10.63,9l.11.06,6.84,3.72-.11-.06"/></g></g></g><polygon class="cls-8" points="10.44 13.21 3.6 9.49 8.84 8.75 15.68 12.47 10.44 13.21"/><g class="cls-2"><g class="cls-23"><g class="cls-2"><path class="cls-20" d="M9.3,13.16,2.46,9.44a3.14,3.14,0,0,0,1.14,0l6.84,3.72a3.14,3.14,0,0,1-1.14,0"/></g></g></g><polygon class="cls-24" points="10.79 19.04 3.95 15.32 2.46 9.44 9.29 13.16 10.79 19.04"/><path class="cls-9" d="M10.79,19,9.3,13.16a3.14,3.14,0,0,0,1.14,0l5.24-.74a3.15,3.15,0,0,1,3.56,3.35v2Z"/></g><g class="cls-2"><g class="cls-2"><g class="cls-25"><g class="cls-2"><polyline class="cls-5" points="9.29 13.16 2.46 9.44 2.46 9.44 9.29 13.16 9.29 13.16"/></g></g></g><g class="cls-2"><g class="cls-26"><g class="cls-2"><polyline class="cls-22" points="9.29 13.16 2.46 9.44 2.46 9.44 9.29 13.16 9.29 13.16"/><polyline class="cls-21" points="9.29 13.16 2.46 9.44 2.46 9.44 9.29 13.16 9.29 13.16"/><polyline class="cls-20" points="9.29 13.16 2.46 9.44 2.46 9.44 9.29 13.16 9.29 13.16"/></g></g></g><polygon class="cls-24" points="9.29 13.16 2.46 9.44 2.46 9.44 9.29 13.16 9.29 13.16"/><g class="cls-2"><g class="cls-27"><g class="cls-2"><path class="cls-5" d="M8.55,12.88,1.71,9.16l-.13-.08L8.41,12.8l.13.08"/></g></g></g><g class="cls-2"><g class="cls-28"><g class="cls-2"><path class="cls-5" d="M8.41,12.8,1.58,9.08,1.51,9l-.14-.1L8.2,12.66l.14.1.07,0"/></g></g></g><g class="cls-2"><g class="cls-29"><g class="cls-2"><path class="cls-5" d="M8.2,12.66,1.37,8.94l-.06,0-.14-.12,0,0L1,8.6l0,0L.81,8.41l6.84,3.72.13.15,0,0,.14.13,0,0,.14.12.06,0"/></g></g></g><polygon class="cls-8" points="7.64 12.12 0.8 8.4 2.15 8.21 8.98 11.93 7.64 12.12"/><g class="cls-2"><g class="cls-30"><g class="cls-2"><polyline class="cls-5" points="7.65 12.13 0.81 8.41 0.8 8.4 7.64 12.12 7.65 12.13"/></g></g></g><path class="cls-9" d="M7.64,12.12,9,11.93l.31,1.23H9.24l-.14,0-.1,0L8.87,13l-.08,0-.15-.07-.07,0-.15-.09-.07,0-.14-.1-.06,0L8,12.5l0,0-.14-.13,0,0-.13-.15Z"/><g class="cls-2"><g class="cls-31"><g class="cls-2"><path class="cls-32" d="M7.64,12.12.8,8.4.66,8.21l0,0L.59,8.11l0,0L.53,8l0,0,0-.07,0-.05,0-.07,0-.06,0-.07,0-.07,0-.07,0-.07,0-.07,0-.07,0-.07,0-.08,0-.07L.14,7V6.93l0-.09V6.47s0-.07,0-.11V6.31L6.89,10v.05s0,.07,0,.11v.37l0,.09v.07l0,.08,0,.07,0,.08,0,.07,0,.07,0,.07,0,.07,0,.07,0,.07,0,.07,0,.06,0,.07,0,.05,0,.07,0,0,0,.07,0,0,.05.08,0,0,.14.19"/></g></g></g><g class="cls-2"><g class="cls-33"><g class="cls-2"><path class="cls-32" d="M6.89,10,.05,6.31q0-.08,0-.16L6.89,9.87q0,.08,0,.16"/></g></g></g><polygon class="cls-34" points="6.89 9.87 0.05 6.15 0.06 1.14 6.9 4.86 6.89 9.87"/><path class="cls-12" d="M6.89,10q0-.08,0-.16v-5l.28,0L9,11.93l-1.34.19-.14-.19,0,0-.05-.08,0,0,0-.07,0,0,0-.07,0-.05,0-.07,0-.06,0-.07,0-.07,0-.07,0-.07,0-.07,0-.07,0-.07,0-.08,0-.07,0-.08v-.07l0-.09v-.37s0-.07,0-.11Z"/><polygon class="cls-11" points="6.9 4.86 0.06 1.14 0.34 1.1 7.18 4.82 6.9 4.86"/></g><g class="cls-2"><polygon class="cls-35" points="6.9 4.86 0.06 1.14 0.06 0 6.9 3.72 6.9 4.86"/><polygon class="cls-14" points="6.96 3.96 7.18 4.82 6.9 4.86 6.9 3.72 6.96 3.96"/></g><g class="cls-2"><path class="cls-24" d="M37.63,9.14h0v0Z"/><g class="cls-2"><g class="cls-36"><g class="cls-2"><path class="cls-5" d="M37.63,9.14,30.79,5.42V5.37l6.84,3.72v.05"/></g></g></g><g class="cls-2"><g class="cls-37"><g class="cls-2"><path class="cls-5" d="M28.68,12.48,21.85,8.76l-.08,0,6.84,3.72.08,0"/></g></g></g><g class="cls-2"><g class="cls-38"><g class="cls-2"><path class="cls-5" d="M28.61,12.43,21.77,8.71l-.05,0,6.84,3.72.05,0"/></g></g></g><g class="cls-2"><g class="cls-39"><g class="cls-2"><path class="cls-5" d="M28.56,12.4,21.72,8.68l-.09-.06,6.84,3.72.09.06"/></g></g></g><g class="cls-2"><g class="cls-40"><g class="cls-2"><path class="cls-5" d="M28.47,12.34,21.63,8.62l0,0-.08-.06,6.84,3.72.08.06,0,0"/></g></g></g><polygon class="cls-8" points="27.59 10.48 20.75 6.76 30.79 5.37 37.63 9.09 27.59 10.48"/><polygon class="cls-8" points="29.38 10.2 22.54 6.48 30.79 5.32 37.63 9.04 29.38 10.2"/><polygon class="cls-8" points="29.38 10.2 22.54 6.48 30.79 5.3 37.63 9.02 29.38 10.2"/><polygon class="cls-9" points="29.38 10.2 37.63 9.04 37.63 9.09 27.56 10.48 27.56 10.45 29.38 10.2"/><path class="cls-9" d="M27.59,10.48l10-1.39s0,.07,0,.11,0,.1,0,.15v.07s0,.1,0,.14v.06l0,.14v.06l0,.14,0,.05,0,.13,0,.05-.06.13,0,0-.06.12,0,0-.07.12,0,0-.08.12,0,0-.09.11,0,0-.1.11,0,0-.11.1,0,0-.11.1,0,0-.12.09,0,0-.12.08,0,0-.13.08,0,0-.13.08,0,0-.14.07-.06,0-.14.07-.05,0-.15.06-.05,0-.15.06-.07,0-.14.05-.07,0-.15,0-.09,0-.12,0-.11,0-.11,0-.15,0-.07,0-.15,0-.08,0-.18,0h-.05c-.31.06-.62.12-.93.16l-.53.06H32l-.19,0H30l-.12,0h-.08l-.12,0h-.07l-.12,0-.07,0-.12,0-.06,0-.11,0-.06,0-.11,0-.06,0-.1,0-.05,0-.1-.05-.05,0-.09-.06,0,0-.08-.06,0,0-.08-.07,0,0L28.1,12l0,0L28,11.91l0,0-.06-.09,0,0,0-.09,0-.05,0-.09,0-.06,0-.1,0-.06,0-.1,0-.07,0-.11v-.26s0-.08,0-.12,0-.08,0-.13Z"/><g class="cls-2"><g class="cls-41"><g class="cls-2"><path class="cls-5" d="M28.33,12.25,21.5,8.53l0,0-.08-.07,0,0-.07-.07,0,0-.06-.08,0,0-.06-.09,0,0,0-.09,0-.05,0-.09,0-.06,0-.1,0-.06,0-.1,0-.07,0-.11V7s0-.08,0-.12,0-.08,0-.13l6.84,3.72s0,.08,0,.13,0,.08,0,.12V11l0,.11,0,.07,0,.1,0,.06,0,.1,0,.06,0,.09,0,.05,0,.09,0,0,.06.09,0,0,.06.08,0,0,.07.07,0,0,.08.07,0,0"/></g></g></g><polygon class="cls-42" points="27.56 10.48 20.73 6.76 20.75 6.76 27.59 10.48 27.56 10.48"/><polygon class="cls-43" points="27.56 10.56 20.73 6.84 20.73 6.76 27.56 10.48 27.56 10.56"/><path class="cls-24" d="M27.56,10.56h0v-.08S27.56,10.53,27.56,10.56Z"/><polygon class="cls-8" points="27.56 10.45 20.73 6.73 22.54 6.48 29.38 10.2 27.56 10.45"/><polygon class="cls-43" points="27.56 10.48 20.73 6.76 20.73 6.73 27.56 10.45 27.56 10.48"/></g><g class="cls-2"><g class="cls-2"><g class="cls-44"><g class="cls-2"><path class="cls-32" d="M6.85,49.06,0,45.34v0q0-.14,0-.27v-.08l6.84,3.72v.08q0,.14,0,.27v0"/></g></g></g><g class="cls-2"><g class="cls-45"><g class="cls-2"><path class="cls-32" d="M6.84,48.66,0,44.94c0-.11,0-.23,0-.34l6.84,3.72c0,.11,0,.23,0,.34"/></g></g></g><polygon class="cls-46" points="6.85 44.14 0.01 40.42 8.15 44.2 14.99 47.92 6.85 44.14"/><g class="cls-2"><g class="cls-47"><g class="cls-2"><path class="cls-32" d="M6.84,48.32,0,44.6c0-1,0-4,0-4.18l6.84,3.72c0,.16,0,3.14,0,4.18"/></g></g></g><path class="cls-12" d="M6.84,48.66c0-.11,0-.23,0-.34,0-1,0-4,0-4.18L15,47.92,6.85,49.06v0q0-.14,0-.27Z"/></g></g></g></svg>