<svg xmlns="http://www.w3.org/2000/svg" xmlns:xlink="http://www.w3.org/1999/xlink" viewBox="0 0 43.44 63.61"><defs><style>.cls-1{fill:none;}.cls-2{isolation:isolate;}.cls-3{fill:#787878;}.cls-4{fill:#b2b2b2;}.cls-5{fill:#909090;}.cls-6{fill:#5a5a5a;}.cls-7{fill:#6c6c6c;}.cls-8{fill:#868686;}.cls-9{fill:#3c3c3c;}.cls-10{fill:#484848;}.cls-11{fill:#595959;}.cls-12{fill:#6f6f6f;}.cls-13{fill:#535353;}.cls-14{fill:#373737;}.cls-15{fill:#333;}.cls-16{clip-path:url(#clip-path);}.cls-17{fill:#353535;}.cls-18{clip-path:url(#clip-path-2);}.cls-19{fill:#1b1b1b;}.cls-20{fill:#1c1c1c;}.cls-21{fill:#242424;}.cls-22{fill:#2d2d2d;}.cls-23{fill:#1d1d1d;}.cls-24{fill:#747474;}.cls-25{fill:#575757;}.cls-26{fill:#3a3a3a;}.cls-27{fill:#686868;}.cls-28{fill:#4e4e4e;}.cls-29{clip-path:url(#clip-path-3);}.cls-30{fill:#414141;}.cls-31{fill:#3f3f3f;}.cls-32{fill:#343434;}.cls-33{clip-path:url(#clip-path-4);}.cls-34{fill:#434343;}</style><clipPath id="clip-path"><path class="cls-1" d="M33.81,35.42,27,31.7l-.07-.17,0-.12,0-.06,6.84,3.72,0,.06,0,.12Z"/></clipPath><clipPath id="clip-path-2"><path class="cls-1" d="M33.68,35.07l-6.84-3.72,0-.09,0-.1,0-.09,0-.1,0-.1,0-.1,0-.1,0-.1,0-.11,0-.1,0-.11,0-.1,0-.11v-.1l0-.12V28.7s0-.07,0-.1,0-.09,0-.13,0-.06,0-.09,0-.1,0-.14v0c0-.11,0-.22,0-.32v-1l0-.12v-.11l0-.12,0-.11,0-.11,0-.11,0-.11,0-.11,0-.1,0-.11,0-.1,0-.11,0-.1,0-.11,0-.09,0-.12,0-.09,0-.12,0-.07.06-.17v0l6.84,3.72v0l-.06.17,0,.07,0,.12,0,.09,0,.12,0,.09,0,.11,0,.1,0,.11,0,.1,0,.11,0,.1,0,.11,0,.11,0,.11,0,.11,0,.11,0,.12v.11l0,.12v1c0,.11,0,.22,0,.32v0s0,.1,0,.14,0,.06,0,.09,0,.09,0,.13,0,.07,0,.1v1.12l0,.12v.1l0,.11,0,.1,0,.11,0,.1,0,.11,0,.1,0,.1,0,.1,0,.1,0,.1,0,.09,0,.1Z"/></clipPath><clipPath id="clip-path-3"><path class="cls-1" d="M21,7.33,14.14,3.61l.09,0,6.84,3.72Z"/></clipPath><clipPath id="clip-path-4"><path class="cls-1" d="M20.26,7.24,13.42,3.52h.44l.09,0,.09,0,.09,0L21,7.33l-.09,0-.09,0-.09,0h-.44Z"/></clipPath></defs><title>kse</title><g id="Layer_2" data-name="Layer 2"><g id="Layer_1-2" data-name="Layer 1"><g class="cls-2"><polygon points="7.33 63.54 0.5 59.82 0.5 58.92 7.34 62.64 7.33 63.54"/><polygon points="7.34 62.64 0.5 58.92 1.47 57.02 8.31 60.73 7.34 62.64"/><polygon points="8.31 60.73 1.47 57.02 13.02 55.39 19.86 59.11 8.31 60.73"/><path d="M16.68,62.22h-.05l-.17,0L7.33,63.54v-.91l1-1.9,11.55-1.62,0,.12,0,.07,0,.12,0,.07,0,.1,0,.07,0,.09,0,.07-.05.1,0,.09-.06.11,0,.07-.05.08,0,.07-.05.08,0,.06-.06.09,0,.05-.1.13,0,.05-.07.08,0,.05-.07.08,0,.05-.08.08,0,0-.12.11,0,0-.09.07-.05,0-.08.06-.06,0-.1.07,0,0-.14.09,0,0-.11.06-.06,0-.1,0-.06,0-.11,0,0,0-.16.06-.16.05-.05,0-.11,0-.06,0Z"/></g><g class="cls-2"><polygon class="cls-3" points="8.31 60.73 1.47 57.02 5.53 49.07 12.37 52.79 8.31 60.73"/><path class="cls-4" d="M8.31,60.73l4.06-7.94L20,51.71v6.2c0,.06,0,.12,0,.18v.42l0,.17v.06l0,.11,0,.07,0,.11,0,.06Z"/><polygon class="cls-5" points="12.37 52.79 5.53 49.07 13.2 47.99 20.04 51.71 12.37 52.79"/><polygon class="cls-6" points="12.37 52.79 5.53 49.07 8.89 42.49 15.73 46.21 12.37 52.79"/><polygon class="cls-7" points="16.42 44.86 9.58 41.14 13.22 40.63 20.05 44.35 16.42 44.86"/><polygon class="cls-6" points="15.73 46.21 8.89 42.49 9.58 41.14 16.42 44.86 15.73 46.21"/><polygon class="cls-8" points="15.73 46.21 16.42 44.86 20.05 44.35 20.04 51.71 12.37 52.79 15.73 46.21"/></g><g class="cls-2"><polygon class="cls-9" points="16.42 44.86 9.58 41.14 10.33 39.67 17.17 43.39 16.42 44.86"/><polygon class="cls-10" points="18.45 40.89 11.61 37.17 13.22 36.94 20.06 40.66 18.45 40.89"/><polygon class="cls-9" points="17.17 43.39 10.33 39.67 11.61 37.17 18.45 40.89 17.17 43.39"/><polygon class="cls-11" points="18.45 40.89 20.06 40.66 20.05 44.35 16.42 44.86 17.17 43.39 18.45 40.89"/></g><g class="cls-2"><polygon class="cls-9" points="18.45 40.89 11.61 37.17 13.23 33.99 20.07 37.72 18.45 40.89"/><polygon class="cls-11" points="20.06 40.66 18.45 40.89 20.07 37.72 20.06 40.66"/></g><g class="cls-2"><polygon points="6.84 63.61 0 59.89 0.5 58.92 7.34 62.64 6.84 63.61"/><polygon points="7.33 63.54 6.84 63.61 7.34 62.64 7.33 63.54"/></g><g class="cls-2"><polygon points="29.89 60.37 23.05 56.65 23.71 53.89 30.55 57.61 29.89 60.37"/><polygon points="30.55 57.61 23.71 53.89 35.35 52.25 42.18 55.97 30.55 57.61"/><path d="M40,58.94h-.05l-.17,0-9.88,1.39.66-2.76L42.18,56v.22s0,.06,0,.09,0,0,0,.07,0,.05,0,.08,0,0,0,.07v.3l0,.13V57l0,.08,0,.06,0,.08,0,.06,0,.08,0,.05,0,.09,0,0-.06.12,0,0-.05.08,0,0,0,.07,0,0-.05.07,0,0-.06.07,0,0-.09.09-.12.11,0,0-.08.06,0,0-.08.05,0,0-.08,0,0,0-.1.05,0,0-.14.06h0l-.11,0-.05,0-.1,0-.06,0-.1,0-.06,0Z"/></g><g class="cls-2"><polygon class="cls-12" points="30.55 57.61 23.71 53.89 24.93 48.82 31.76 52.54 30.55 57.61"/><path class="cls-4" d="M32.38,50l7-1L42,55.13l.07.19,0,.06,0,.13,0,.07,0,.14v.05c0,.06,0,.12,0,.19L30.55,57.61l1.21-5.07Z"/><polygon class="cls-5" points="32.38 49.98 25.54 46.26 32.58 45.27 39.42 48.99 32.38 49.98"/><polygon class="cls-12" points="31.76 52.54 24.93 48.82 25.54 46.26 32.38 49.98 31.76 52.54"/><polygon class="cls-13" points="32.38 49.98 25.54 46.26 26.49 42.28 33.33 46 32.38 49.98"/><polygon class="cls-13" points="33.33 46 26.49 42.28 27.36 38.64 34.2 42.36 33.33 46"/><polygon class="cls-7" points="34.2 42.36 27.36 38.64 29.7 38.31 36.54 42.03 34.2 42.36"/><polygon class="cls-8" points="34.2 42.36 36.54 42.03 37.63 44.65 39.42 48.99 32.38 49.98 33.33 46 34.2 42.36"/></g><g class="cls-2"><polygon class="cls-14" points="34.2 42.36 27.36 38.64 27.73 37.08 34.57 40.8 34.2 42.36"/><polygon class="cls-14" points="34.57 40.8 27.73 37.08 28.27 34.83 35.11 38.55 34.57 40.8"/><polygon class="cls-11" points="36.54 42.03 34.2 42.36 34.57 40.8 35.11 38.55 36.54 42.03"/></g><g class="cls-2"><polygon class="cls-15" points="35.11 38.55 28.27 34.83 28.27 34.83 35.11 38.55 35.11 38.55"/><polygon class="cls-10" points="35.11 38.55 28.27 34.83 28.27 34.83 35.11 38.55 35.11 38.55"/><polygon class="cls-15" points="35.11 38.55 35.11 38.55 35.11 38.55 35.11 38.55"/></g><g class="cls-2"><polygon class="cls-15" points="35.11 38.55 28.27 34.83 27.52 33.02 34.36 36.74 35.11 38.55"/><polygon class="cls-15" points="34.36 36.74 27.52 33.02 26.98 31.7 33.81 35.42 34.36 36.74"/><g class="cls-2"><g class="cls-16"><g class="cls-2"><path class="cls-17" d="M33.81,35.42,27,31.7l-.07-.17,0-.12,0-.06,6.84,3.72,0,.06,0,.12.07.17"/></g></g></g><polygon class="cls-10" points="33.68 35.07 26.85 31.35 29.18 31.02 36.02 34.74 33.68 35.07"/><path class="cls-11" d="M35.11,38.55l-.75-1.8-.55-1.32-.07-.17,0-.12,0-.06L36,34.74Z"/><g class="cls-2"><g class="cls-18"><g class="cls-2"><path class="cls-19" d="M33.68,35.07l-6.84-3.72,0-.09,0-.1,0-.09,0-.1,0-.1,0-.1,0-.1,0-.1,0-.11,0-.1,0-.11,0-.1,0-.11v-.1l0-.12V28.7s0-.07,0-.1,0-.09,0-.13,0-.06,0-.09,0-.1,0-.14v0c0-.11,0-.22,0-.32v-1l0-.12v-.11l0-.12,0-.11,0-.11,0-.11,0-.11,0-.11,0-.1,0-.11,0-.1,0-.11,0-.1,0-.11,0-.09,0-.12,0-.09,0-.12,0-.07,0-.09,6.84,3.72,0,.09,0,.07,0,.12,0,.09,0,.12,0,.09,0,.11,0,.1,0,.11,0,.1,0,.11,0,.1,0,.11,0,.11,0,.11,0,.11,0,.11,0,.12v.11l0,.12v1c0,.11,0,.22,0,.32v0s0,.1,0,.14,0,.06,0,.09,0,.09,0,.13,0,.07,0,.1v1.12l0,.12v.1l0,.11,0,.1,0,.11,0,.1,0,.11,0,.1,0,.1,0,.1,0,.1,0,.1,0,.09,0,.1,0,.09"/><path class="cls-20" d="M33.84,28.46,27,24.74l0-.08h0l6.84,3.72h0l0,.08"/><polyline class="cls-19" points="33.87 28.37 27.03 24.65 27.04 24.64 33.87 28.36 33.87 28.37"/><polyline class="cls-20" points="33.87 28.36 27.04 24.64 27.04 24.64 33.88 28.36 33.87 28.36"/></g></g></g><polygon class="cls-21" points="34.16 27.64 27.32 23.92 31 23.4 37.84 27.12 34.16 27.64"/><path class="cls-22" d="M36,34.74l-2.34.33,0-.09,0-.1,0-.09,0-.1,0-.1,0-.1,0-.1,0-.1,0-.11,0-.1,0-.11,0-.1,0-.11v-.1l0-.12V32.42s0-.07,0-.1,0-.09,0-.13,0-.06,0-.09,0-.1,0-.14v0c0-.11,0-.22,0-.32v-1l0-.12v-.11l0-.12,0-.11,0-.11,0-.11,0-.11,0-.11,0-.1,0-.11,0-.1,0-.11,0-.1,0-.11,0-.09,0-.12,0-.09,0-.12,0-.07.06-.17v0l.28-.72,3.69-.52Z"/><polygon class="cls-23" points="33.88 28.36 27.04 24.64 27.32 23.92 34.16 27.64 33.88 28.36"/><polygon points="34.16 27.64 27.32 23.92 29.69 17.8 36.53 21.52 34.16 27.64"/><polygon points="36.53 21.52 29.69 17.8 30.34 16.12 37.18 19.84 36.53 21.52"/><polygon points="39.67 19.49 37.84 27.12 34.16 27.64 36.53 21.52 37.18 19.84 39.67 19.49"/><polygon points="37.18 19.84 30.34 16.12 32.83 15.77 39.67 19.49 37.18 19.84"/></g><g class="cls-2"><polygon class="cls-24" points="37.18 19.84 30.34 16.12 30.59 15.48 37.43 19.2 37.18 19.84"/><polygon class="cls-24" points="37.43 19.2 30.59 15.48 33.37 8.33 40.2 12.05 37.43 19.2"/><polygon class="cls-5" points="40.2 12.05 33.37 8.33 34.65 8.15 41.49 11.87 40.2 12.05"/><polygon class="cls-4" points="39.67 19.49 37.18 19.84 37.43 19.2 40.2 12.05 41.49 11.87 39.67 19.49"/></g><g class="cls-2"><polygon class="cls-7" points="43.23 4.26 36.39 0.54 36.47 0.53 43.31 4.25 43.23 4.26"/><polygon class="cls-25" points="40.2 12.05 33.37 8.33 36.39 0.54 43.23 4.26 40.2 12.05"/><polygon class="cls-8" points="43.23 4.26 43.31 4.25 41.49 11.87 40.2 12.05 43.23 4.26"/></g><g class="cls-2"><polygon class="cls-26" points="43.23 4.26 36.39 0.54 36.6 0 43.44 3.72 43.23 4.26"/><polygon class="cls-11" points="43.23 4.26 43.44 3.72 43.31 4.25 43.23 4.26"/></g><g class="cls-2"><path d="M20.27,26.79h0Z"/><polygon points="20.27 26.79 20.27 26.8 20.2 26.8 20.27 26.79"/><polygon points="20.28 22.21 13.44 18.49 15.88 18.15 22.71 21.87 20.28 22.21"/><path class="cls-4" d="M23,16.1q0,.26,0,.52t0,.32V17q0,.12,0,.25v.08q0,.16,0,.32v.39q0,.32,0,.63v.37l0,.31v0l0,.27v0q0,.31,0,.61v0l0,.29c0,.21,0,.41-.06.6v0q0,.29-.07.57l-2.43.34h-.07l0-7.37L23,14.47c0,.53,0,1.06,0,1.59Z"/><polygon points="20.21 22.22 13.38 18.5 13.44 18.49 20.28 22.21 20.21 22.22"/><polygon class="cls-27" points="20.21 22.22 13.38 18.5 13.4 11.13 20.24 14.85 20.21 22.22"/><polygon class="cls-4" points="20.24 14.85 20.21 22.22 20.18 22.23 20.2 14.86 20.24 14.85"/><polygon points="20.18 22.23 13.35 18.51 13.38 18.5 20.21 22.22 20.18 22.23"/><polygon points="20.18 22.23 20.21 22.22 20.2 26.8 20.18 26.81 20.18 22.23"/><polygon points="20.2 26.8 13.37 23.09 13.38 18.5 20.21 22.22 20.2 26.8"/><polygon points="20.18 26.81 13.34 23.09 13.35 18.51 20.18 22.23 20.18 26.81"/><path d="M20.2,26.75v.05h.07Zm0,0-6.74-3.67h-.07l6.81,3.71Z"/><path d="M20.28,22.21l2.43-.34,0,.25v0q-.06.38-.12.73a7.43,7.43,0,0,1-1.21,3.23,2.3,2.3,0,0,1-.39.38,1.72,1.72,0,0,1-.32.2,1.54,1.54,0,0,1-.35.11H20.2V22.22Z"/><polygon class="cls-5" points="20.24 14.85 13.4 11.13 16.14 10.75 22.98 14.47 20.24 14.85"/><polygon class="cls-28" points="20.24 14.85 13.4 11.13 13.42 3.77 20.26 7.49 20.24 14.85"/><polygon class="cls-8" points="20.26 7.49 20.24 14.85 20.2 14.86 20.21 7.49 20.26 7.49"/><polygon class="cls-5" points="20.2 14.86 13.36 11.14 13.4 11.13 20.24 14.85 20.2 14.86"/><polygon class="cls-27" points="20.18 22.23 13.35 18.51 13.36 11.14 20.2 14.86 20.18 22.23"/><polygon class="cls-7" points="20.26 7.49 13.42 3.77 14.23 3.65 21.06 7.37 20.26 7.49"/><g class="cls-2"><g class="cls-29"><g class="cls-2"><path class="cls-30" d="M21,7.33,14.14,3.61l0,0L21,7.35l0,0"/><path class="cls-31" d="M21,7.35,14.18,3.63l0,0,6.84,3.72,0,0"/></g></g></g><path class="cls-8" d="M23,14.45v0l-2.74.39,0-7.37.8-.11a2,2,0,0,1,.74.77q.09.15.17.32a6.49,6.49,0,0,1,.36,1c0,.15.08.3.12.45s.07.33.11.49l0,.25c0,.18.06.35.09.53s.05.36.07.55v0q0,.27.06.55v0q0,.28.05.58l0,.3v0q0,.3,0,.6v0Q23,14.15,23,14.45Z"/><polygon class="cls-28" points="20.2 14.86 13.36 11.14 13.37 3.77 20.21 7.49 20.2 14.86"/><polygon class="cls-32" points="20.26 7.49 13.42 3.77 13.42 3.52 20.26 7.24 20.26 7.49"/><polygon class="cls-11" points="20.21 7.49 20.21 7.24 20.26 7.24 20.26 7.49 20.21 7.49"/><polygon class="cls-7" points="20.21 7.49 13.37 3.77 13.42 3.77 20.26 7.49 20.21 7.49"/><path class="cls-11" d="M20.26,7.49V7.24h.44l.09,0,.09,0,.09,0,.09,0Z"/><g class="cls-2"><g class="cls-33"><g class="cls-2"><path class="cls-34" d="M20.26,7.24,13.42,3.52h.44l.08,0,6.84,3.72-.08,0h-.44"/><path class="cls-30" d="M20.78,7.26,13.94,3.54h0l.09,0,.09,0L21,7.33l-.09,0-.09,0h0"/></g></g></g><polygon class="cls-10" points="20.26 7.24 13.42 3.52 13.47 3.51 20.31 7.23 20.26 7.24"/><path class="cls-15" d="M20.26,7.24h0Z"/><polygon class="cls-10" points="20.21 7.24 13.38 3.52 13.42 3.52 20.26 7.24 20.21 7.24"/><polygon class="cls-32" points="20.21 7.49 13.37 3.77 13.38 3.52 20.21 7.24 20.21 7.49"/></g><g class="cls-2"><polygon points="20.04 26.83 13.2 23.11 13.21 18.52 20.05 22.25 20.04 26.83"/><polygon class="cls-4" points="20.05 22.25 20.06 14.88 20.16 14.87 20.14 22.23 20.05 22.25"/><polygon points="20.05 22.25 13.21 18.52 13.31 18.51 20.14 22.23 20.05 22.25"/><polygon points="20.04 26.83 20.05 22.25 20.14 22.23 20.14 26.81 20.04 26.83"/><polygon class="cls-27" points="20.05 22.25 13.21 18.52 13.22 11.16 20.06 14.88 20.05 22.25"/><polygon class="cls-5" points="20.06 14.88 13.22 11.16 13.32 11.15 20.16 14.87 20.06 14.88"/></g><g class="cls-2"><polygon class="cls-28" points="20.06 14.88 13.22 11.16 13.24 3.79 20.08 7.51 20.06 14.88"/><polygon class="cls-7" points="20.08 7.51 13.24 3.79 13.33 3.78 20.17 7.5 20.08 7.51"/><polygon class="cls-8" points="20.06 14.88 20.08 7.51 20.17 7.5 20.16 14.87 20.06 14.88"/></g><g class="cls-2"><polygon class="cls-10" points="20.08 7 13.24 3.28 13.34 3.27 20.17 6.99 20.08 7"/><polygon class="cls-32" points="20.08 7.51 13.24 3.79 13.24 3.28 20.08 7 20.08 7.51"/><polygon class="cls-11" points="20.08 7 20.17 6.99 20.17 7.5 20.08 7.51 20.08 7"/></g></g></g></svg>