<svg xmlns="http://www.w3.org/2000/svg" xmlns:xlink="http://www.w3.org/1999/xlink" viewBox="0 0 40.97 59.25"><defs><style>.cls-1{fill:none;}.cls-2{isolation:isolate;}.cls-3{fill:#909090;}.cls-4{fill:#6b6b6b;}.cls-5{fill:#868686;}.cls-6{fill:#8f8f8f;}.cls-7{fill:#b2b2b2;}.cls-8{fill:#4d4d4d;}.cls-9{fill:#6c6c6c;}.cls-10{fill:#484848;}.cls-11{fill:#333;}.cls-12{fill:#595959;}.cls-13{fill:#1a1a1a;}.cls-14{fill:#242424;}.cls-15{fill:#2d2d2d;}.cls-16{fill:#666;}.cls-17{clip-path:url(#clip-path);}.cls-18{fill:#5f5f5f;}.cls-19{clip-path:url(#clip-path-2);}.cls-20{fill:#626262;}.cls-21{clip-path:url(#clip-path-3);}.cls-22{fill:#414141;}.cls-23{clip-path:url(#clip-path-4);}.cls-24{clip-path:url(#clip-path-5);}.cls-25{clip-path:url(#clip-path-6);}.cls-26{fill:#434343;}</style><clipPath id="clip-path"><path class="cls-1" d="M7.24.36l6.84,3.72L14,4,7.14.31Z"/></clipPath><clipPath id="clip-path-2"><path class="cls-1" d="M13.95,4,7.11.29h0L14,4Z"/></clipPath><clipPath id="clip-path-3"><path class="cls-1" d="M13.74,3.92,6.9.2l0,0,.14.06L13.92,4l-.14-.06Z"/></clipPath><clipPath id="clip-path-4"><path class="cls-1" d="M13.92,4,7.08.28h0L13.95,4Z"/></clipPath><clipPath id="clip-path-5"><path class="cls-1" d="M13.51,3.84,6.67.13h0L6.9.2l6.84,3.72-.19-.07Z"/></clipPath><clipPath id="clip-path-6"><path class="cls-1" d="M12.18,3.75,5.34,0l.22,0H6l.2,0h.05l.15,0h.06l.15,0,6.84,3.72-.15,0h-.06l-.15,0h-.05l-.2,0H12.4Z"/></clipPath></defs><title>lse</title><g id="Layer_2" data-name="Layer 2"><g id="Layer_1-2" data-name="Layer 1"><g class="cls-2"><polygon points="14.15 55.55 7.31 51.83 33.94 48.09 40.78 51.81 14.15 55.55"/><polygon points="6.84 59.25 0 55.53 7.31 51.83 14.15 55.55 6.84 59.25"/><path d="M37.61,54.92l-.22,0L6.84,59.25l7.31-3.7,26.63-3.74-.07.22,0,.08,0,.09-.07.16-.07.16-.11.21,0,.08,0,.08-.09.15-.1.15-.05.07-.06.09-.08.11-.11.13-.06.06-.06.07-.13.13-.17.16-.13.11-.14.11-.15.1-.19.12-.15.08-.15.08-.16.08-.21.08-.16.05-.16,0Z"/></g><g class="cls-2"><polygon class="cls-3" points="34.34 45.34 27.5 41.62 34.13 40.69 40.97 44.41 34.34 45.34"/><polygon class="cls-4" points="34.34 45.34 27.5 41.62 34.13 38.27 40.97 41.99 34.34 45.34"/><polygon class="cls-5" points="40.97 41.99 40.97 44.41 34.34 45.34 40.97 41.99"/><polygon class="cls-6" points="30.43 47.32 23.59 43.6 27.5 41.62 34.34 45.34 30.43 47.32"/><polygon class="cls-6" points="14.15 55.55 7.31 51.83 23.59 43.6 30.43 47.32 14.15 55.55"/><path class="cls-7" d="M34.34,45.34,41,44.41v6.2c0,.06,0,.12,0,.18s0,.14,0,.18,0,.15,0,.19,0,.16,0,.21v.07l0,.1,0,.08,0,.09,0,.08L14.15,55.55l16.28-8.23Z"/></g><g class="cls-2"><polygon class="cls-8" points="15.66 45.19 8.83 41.47 7.87 37.02 14.71 40.74 15.66 45.19"/><polygon class="cls-9" points="14.71 40.74 7.87 37.02 8.84 36.88 15.67 40.6 14.71 40.74"/><polygon class="cls-5" points="15.66 45.19 14.71 40.74 15.67 40.6 15.66 45.19"/></g><g class="cls-2"><polygon class="cls-10" points="13.94 37.16 7.11 33.44 8.84 33.2 15.68 36.92 13.94 37.16"/><polygon class="cls-11" points="14.71 40.74 7.87 37.02 7.11 33.44 13.94 37.16 14.71 40.74"/><polygon class="cls-12" points="13.94 37.16 15.68 36.92 15.67 40.6 14.71 40.74 13.94 37.16"/></g><g class="cls-2"><polygon class="cls-11" points="13.94 37.16 7.11 33.44 6.34 29.87 13.18 33.59 13.94 37.16"/><polygon class="cls-10" points="13.18 33.59 6.34 29.87 8.85 29.52 15.69 33.23 13.18 33.59"/><polygon class="cls-12" points="13.94 37.16 13.18 33.59 15.69 33.23 15.68 36.92 13.94 37.16"/></g><g class="cls-2"><polygon class="cls-13" points="13.18 33.59 6.34 29.87 6.09 28.72 12.93 32.44 13.18 33.59"/><polygon class="cls-14" points="11.64 26.44 4.81 22.72 8.86 22.15 15.7 25.87 11.64 26.44"/><polygon class="cls-13" points="12.93 32.44 6.09 28.72 4.81 22.72 11.64 26.44 12.93 32.44"/><polygon class="cls-15" points="12.93 32.44 11.64 26.44 15.7 25.87 15.69 33.23 13.18 33.59 12.93 32.44"/></g><g class="cls-2"><polygon points="11.64 26.44 4.81 22.72 3.95 18.74 10.79 22.46 11.64 26.44"/><polygon points="10.11 19.28 3.27 15.56 8.88 14.77 15.71 18.49 10.11 19.28"/><polygon points="10.79 22.46 3.95 18.74 3.27 15.56 10.11 19.28 10.79 22.46"/><polygon points="10.79 22.46 10.11 19.28 15.71 18.49 15.7 25.87 11.64 26.44 10.79 22.46"/></g><g class="cls-2"><polygon class="cls-16" points="10.11 19.28 3.27 15.56 2.13 10.24 8.97 13.96 10.11 19.28"/><polygon class="cls-3" points="8.58 12.13 1.74 8.41 8.89 7.41 15.73 11.13 8.58 12.13"/><polygon class="cls-16" points="8.97 13.96 2.13 10.24 1.74 8.41 8.58 12.13 8.97 13.96"/><polygon class="cls-7" points="8.97 13.96 8.58 12.13 15.73 11.13 15.71 18.49 10.11 19.28 8.97 13.96"/></g><g class="cls-2"><g class="cls-2"><g class="cls-17"><g class="cls-2"><path class="cls-18" d="M14,4,7.14.31l.1.05,6.84,3.72L14,4"/></g></g></g><g class="cls-2"><g class="cls-19"><g class="cls-2"><path class="cls-20" d="M13.95,4,7.11.29h0L14,4h0"/><polyline class="cls-18" points="13.97 4.03 7.14 0.31 7.14 0.31 13.98 4.03 13.97 4.03"/></g></g></g><polygon class="cls-9" points="7.05 4.98 0.21 1.26 7.11 0.29 13.95 4.01 7.05 4.98"/><polygon class="cls-8" points="8.58 12.13 1.74 8.41 0.21 1.26 7.05 4.98 8.58 12.13"/><path class="cls-5" d="M15.73,6.86c0,.08,0,.16,0,.24v4l-7.15,1L7,5l6.9-1h0l.14.07,0,0,.17.1,0,0,.12.09.05,0,.12.1,0,0,.14.14,0,0,.1.11,0,.05.1.13,0,0,.11.17,0,.05.07.13,0,.06.07.16v0l.07.2,0,.06,0,.15,0,.07,0,.2c0,.09,0,.17,0,.24v.06q0,.09,0,.17Z"/></g><g class="cls-2"><g class="cls-2"><g class="cls-21"><g class="cls-2"><path class="cls-22" d="M13.74,3.92,6.9.2l0,0,.14.06L13.92,4l-.14-.06,0,0"/></g></g></g><g class="cls-2"><g class="cls-23"><g class="cls-2"><path class="cls-22" d="M13.92,4,7.08.28h0L13.95,4h0"/></g></g></g><g class="cls-2"><g class="cls-24"><g class="cls-2"><path class="cls-22" d="M13.51,3.84,6.67.13h0L6.9.2l6.84,3.72-.19-.07h0"/></g></g></g><g class="cls-2"><g class="cls-25"><g class="cls-2"><path class="cls-26" d="M12.18,3.75,5.34,0l.22,0H6l.2,0h.05l.15,0h.11l6.84,3.72h-.11l-.15,0h-.05l-.2,0H12.4l-.22,0"/><path class="cls-22" d="M13.41,3.82,6.57.1l.1,0,6.84,3.72-.1,0"/></g></g></g><polygon class="cls-10" points="6.94 4.49 0.1 0.77 5.34 0.03 12.18 3.75 6.94 4.49"/><polygon class="cls-11" points="7.05 4.98 0.21 1.26 0.1 0.77 6.94 4.49 7.05 4.98"/><path class="cls-12" d="M6.94,4.49l5.24-.74.22,0h.49l.2,0h.05l.15,0h.06l.15,0h0l.19.07,0,0,.14.06h0L7,5Z"/></g></g></g></svg>