<svg xmlns="http://www.w3.org/2000/svg" xmlns:xlink="http://www.w3.org/1999/xlink" viewBox="0 0 55.86 65.35"><defs><style>.cls-1{fill:none;}.cls-2{isolation:isolate;}.cls-3{fill:#686868;}.cls-4{fill:#909090;}.cls-5{fill:#b2b2b2;}.cls-6{fill:#4e4e4e;}.cls-7{fill:#6c6c6c;}.cls-8{fill:#868686;}.cls-9{fill:#343434;}.cls-10{fill:#595959;}.cls-11{fill:#484848;}.cls-12{fill:#383838;}.cls-13{clip-path:url(#clip-path);}.cls-14{fill:#1b1b1b;}.cls-15{clip-path:url(#clip-path-2);}.cls-16{clip-path:url(#clip-path-3);}.cls-17{clip-path:url(#clip-path-4);}.cls-18{clip-path:url(#clip-path-5);}.cls-19{clip-path:url(#clip-path-6);}.cls-20{clip-path:url(#clip-path-7);}.cls-21{clip-path:url(#clip-path-8);}.cls-22{fill:#1a1a1a;}.cls-23{clip-path:url(#clip-path-9);}.cls-24{clip-path:url(#clip-path-10);}.cls-25{fill:#2d2d2d;}.cls-26{fill:#242424;}.cls-27{fill:#1c1c1c;}.cls-28{fill:#717171;}.cls-29{fill:#555;}.cls-30{fill:#515151;}.cls-31{fill:#363636;}.cls-32{fill:#666;}.cls-33{fill:#4d4d4d;}.cls-34{clip-path:url(#clip-path-11);}.cls-35{fill:#505050;}.cls-36{clip-path:url(#clip-path-12);}.cls-37{fill:#626262;}.cls-38{fill:#656565;}.cls-39{fill:#5f5f5f;}.cls-40{clip-path:url(#clip-path-13);}.cls-41{fill:#6a6a6a;}.cls-42{clip-path:url(#clip-path-14);}.cls-43{clip-path:url(#clip-path-15);}.cls-44{clip-path:url(#clip-path-16);}.cls-45{fill:#737373;}.cls-46{fill:#565656;}.cls-47{fill:#393939;}.cls-48{clip-path:url(#clip-path-17);}.cls-49{fill:#353535;}.cls-50{fill:#373737;}.cls-51{clip-path:url(#clip-path-18);}.cls-52{fill:#1e1e1e;}.cls-53{fill:#1f1f1f;}.cls-54{fill:#202020;}.cls-55{clip-path:url(#clip-path-19);}.cls-56{fill:#1d1d1d;}</style><clipPath id="clip-path"><path class="cls-1" d="M27.21,35.84l-6.84-3.72h0l6.84,3.72Z"/></clipPath><clipPath id="clip-path-2"><path class="cls-1" d="M27.2,35.83l-6.84-3.72,0,0,6.84,3.72Z"/></clipPath><clipPath id="clip-path-3"><path class="cls-1" d="M27.15,35.8l-6.84-3.72,0,0,6.84,3.72Z"/></clipPath><clipPath id="clip-path-4"><path class="cls-1" d="M27.12,35.79l-6.84-3.72-.06,0,6.84,3.72Z"/></clipPath><clipPath id="clip-path-5"><path class="cls-1" d="M27.07,35.75,20.23,32h0L20.13,32,27,35.68l.08.06Z"/></clipPath><clipPath id="clip-path-6"><path class="cls-1" d="M27,35.68,20.13,32l0,0L20,31.89l6.84,3.72.07.05Z"/></clipPath><clipPath id="clip-path-7"><path class="cls-1" d="M26.88,35.61,20,31.89l0,0-.06-.05,0,0-.06-.05,0,0-.06-.06,0,0-.07-.07,6.84,3.72.07.07,0,0,.06.06,0,0,.06.05,0,0,.06.05Z"/></clipPath><clipPath id="clip-path-8"><path class="cls-1" d="M26.47,35.23l-6.84-3.72,0,0-.11-.12,6.84,3.72.11.12Z"/></clipPath><clipPath id="clip-path-9"><path class="cls-1" d="M25.53,34.26l-6.84-3.72-.13-.14,0,0-.09-.1-.05-.06-.08-.1L18.23,30l-.09-.1-.06-.07L18,29.74,18,29.68l-.09-.12,0-.06-.12-.16,0,0-.14-.2-.14-.2,0,0-.11-.16,0-.06-.1-.16,0-.05L17,28.27l0-.05-.11-.17,0,0-.12-.2,6.84,3.72.12.2,0,0,.11.17,0,.05.11.16,0,.05.1.16,0,.06.11.16,0,0,.14.2.14.2,0,0,.12.16,0,.06.09.12.05.07.09.11.06.07.09.1.05.06.08.1.05.06.09.1,0,0Z"/></clipPath><clipPath id="clip-path-10"><path class="cls-1" d="M23.51,31.52,16.67,27.8v0l-.26-.45,6.84,3.72.26.45Z"/></clipPath><clipPath id="clip-path-11"><path class="cls-1" d="M17,13.89l-6.84-3.72L10.11,10l0-.1,0-.06,0-.1,0-.05,0-.08,0-.06,0-.08,0-.05,0-.07v0l0-.07v0l0-.06v-.4l6.84,3.72v.4l0,.06v0l0,.07v0l0,.07,0,.05,0,.08,0,.06,0,.08,0,.05,0,.1,0,.06,0,.1Z"/></clipPath><clipPath id="clip-path-12"><path class="cls-1" d="M9.83,8.7l6.84,3.72-.05,0L9.77,8.72Z"/></clipPath><clipPath id="clip-path-13"><polygon class="cls-1" points="31.51 53.55 24.68 49.84 24.68 49.83 31.51 53.55 31.51 53.55"/></clipPath><clipPath id="clip-path-14"><polygon class="cls-1" points="31.51 53.55 24.68 49.83 24.67 49.83 31.51 53.55 31.51 53.55"/></clipPath><clipPath id="clip-path-15"><polygon class="cls-1" points="31.51 53.55 24.67 49.83 24.67 49.82 31.5 53.54 31.51 53.55"/></clipPath><clipPath id="clip-path-16"><path class="cls-1" d="M31.51,53.54l-6.84-3.72h0s0,0,0,0v-.34l0-.05,0-.05,0-.06,0-.06,0-.07,0-.06,0-.09,0,0,0-.1,0-.06,0-.08,0-.09,0-.06,0-.11.07-.19L32,52l-.07.19,0,.11,0,.06,0,.09,0,.08,0,.06,0,.1,0,0,0,.09,0,.06,0,.07,0,.06,0,.06,0,.05,0,.05v.34s0,0,0,0h0Z"/></clipPath><clipPath id="clip-path-17"><path class="cls-1" d="M37.55,36.62,30.71,32.9l.09-.24,6.84,3.72Z"/></clipPath><clipPath id="clip-path-18"><path class="cls-1" d="M42.21,28.9l-6.84-3.72L35.5,25l0,0,.09-.1,0,0,.09-.1,0,0,.08-.09,0,0,6.84,3.72,0,0-.08.09,0,0-.09.1,0,0-.09.1,0,0Z"/></clipPath><clipPath id="clip-path-19"><path class="cls-1" d="M37.64,36.39,30.8,32.67a22.69,22.69,0,0,1,1.07-2.31l.11-.21,0,0,.1-.19,0,0,.1-.18,0,0,.1-.17,0-.06.09-.16,0-.07L32.6,29l.05-.09.08-.13.06-.1.08-.13.05-.09.08-.13.06-.09.07-.11.07-.11.06-.1.08-.12.06-.09.08-.12.06-.09.08-.11.06-.09.08-.12.05-.08.08-.11.06-.08.08-.12.05-.07.09-.12,0-.06.09-.11,0-.06.1-.12,0,0,.13-.16,6.84,3.72-.13.16,0,0-.1.12,0,.06-.09.11,0,.06-.09.12-.05.07-.08.12-.06.08-.08.11-.05.08-.08.12-.06.09-.08.11-.06.09-.08.12-.06.09-.08.12-.06.1L40,31.9l-.07.11-.06.09-.08.13-.05.09-.08.13-.06.1-.08.13-.05.09-.09.15,0,.07-.09.16,0,.06-.1.17,0,0-.1.18,0,0-.1.19,0,0-.11.21A22.69,22.69,0,0,0,37.64,36.39Z"/></clipPath></defs><title>mse</title><g id="Layer_2" data-name="Layer 2"><g id="Layer_1-2" data-name="Layer 1"><g class="cls-2"><polygon points="14.14 63.85 7.3 60.13 7.3 58.07 14.14 61.79 14.14 63.85"/><polygon points="14.14 61.79 7.3 58.07 8.94 57.84 15.78 61.56 14.14 61.79"/><path d="M14.36,63.67l0,0-.18.14V61.79l1.64-.23-.07.21,0,.06L15.6,62l0,0-.1.21,0,0-.1.17,0,0-.13.2,0,0-.12.17,0,0-.15.19,0,0-.14.16,0,0-.17.17Z"/></g><g class="cls-2"><polygon class="cls-3" points="14.14 61.79 7.3 58.07 7.32 50.7 14.15 54.42 14.14 61.79"/><polygon class="cls-4" points="14.15 54.42 7.32 50.7 9.17 50.44 16 54.16 14.15 54.42"/><path class="cls-5" d="M14.14,61.79V54.42L16,54.16v6.07c0,.08,0,.16,0,.24v.05c0,.08,0,.16,0,.23v0q0,.1,0,.21v0l-.05.23v0l-.06.2v0Z"/></g><g class="cls-2"><polygon class="cls-6" points="14.15 54.42 7.32 50.7 7.33 43.33 14.17 47.05 14.15 54.42"/><polygon class="cls-7" points="14.17 47.05 7.33 43.33 9.18 43.07 16.02 46.79 14.17 47.05"/><polygon class="cls-8" points="14.15 54.42 14.17 47.05 16.02 46.79 16 54.16 14.15 54.42"/></g><g class="cls-2"><polygon class="cls-9" points="14.17 47.05 7.33 43.33 7.34 39.65 14.17 43.37 14.17 47.05"/><polygon class="cls-10" points="14.17 47.05 14.17 43.37 16.02 43.11 16.02 46.79 14.17 47.05"/><polygon class="cls-11" points="14.17 43.37 7.34 39.65 9.19 39.39 16.02 43.11 14.17 43.37"/><polygon class="cls-9" points="14.17 43.37 7.34 39.65 7.34 37.39 14.18 41.11 14.17 43.37"/><polygon class="cls-11" points="14.63 39.62 7.79 35.9 9.19 35.7 16.03 39.42 14.63 39.62"/><polygon class="cls-12" points="14.18 41.11 7.34 37.39 7.79 35.9 14.63 39.62 14.18 41.11"/><polygon class="cls-10" points="14.18 41.11 14.63 39.62 16.03 39.42 16.02 43.11 14.17 43.37 14.18 41.11"/></g><g class="cls-2"><g class="cls-2"><g class="cls-13"><g class="cls-2"><path class="cls-14" d="M27.21,35.84l-6.84-3.72h0l6.84,3.72h0"/></g></g></g><g class="cls-2"><g class="cls-15"><g class="cls-2"><path class="cls-14" d="M27.2,35.83l-6.84-3.72,0,0,6.84,3.72,0,0"/></g></g></g><g class="cls-2"><g class="cls-16"><g class="cls-2"><path class="cls-14" d="M27.15,35.8l-6.84-3.72,0,0,6.84,3.72,0,0"/></g></g></g><g class="cls-2"><g class="cls-17"><g class="cls-2"><path class="cls-14" d="M27.12,35.79l-6.84-3.72-.06,0,6.84,3.72.06,0"/></g></g></g><g class="cls-2"><g class="cls-18"><g class="cls-2"><path class="cls-14" d="M27.07,35.75,20.23,32h0L20.13,32,27,35.68l.08.06h0"/></g></g></g><g class="cls-2"><g class="cls-19"><g class="cls-2"><path class="cls-14" d="M27,35.68,20.13,32l0,0L20,31.89l6.84,3.72.07.05,0,0"/></g></g></g><g class="cls-2"><g class="cls-20"><g class="cls-2"><path class="cls-14" d="M26.88,35.61,20,31.89l0,0-.06-.05,0,0-.06-.05,0,0-.06-.06,0,0-.07-.07,6.84,3.72.07.07,0,0,.06.06,0,0,.06.05,0,0,.06.05,0,0"/></g></g></g><g class="cls-2"><g class="cls-21"><g class="cls-2"><path class="cls-14" d="M26.47,35.23l-6.84-3.72,0,0-.11-.12,6.84,3.72.11.12,0,0"/></g></g></g><polygon class="cls-22" points="26.32 35.08 19.48 31.36 18.69 30.54 25.53 34.26 26.32 35.08"/><g class="cls-2"><g class="cls-23"><g class="cls-2"><path class="cls-14" d="M25.53,34.26l-6.84-3.72-.13-.14,0,0-.09-.1-.05-.06-.08-.1L18.23,30l-.09-.1-.06-.07L18,29.74,18,29.68l-.09-.12,0-.06-.12-.16,0,0-.14-.2-.14-.2,0,0-.11-.16,0-.06-.1-.16,0-.05L17,28.27l0-.05-.11-.17,0,0-.12-.2,6.84,3.72.12.2,0,0,.11.17,0,.05.11.16,0,.05.1.16,0,.06.11.16,0,0,.14.2.14.2,0,0,.12.16,0,.06.09.12.05.07.09.11.06.07.09.1.05.06.08.1.05.06.09.1,0,0,.13.14"/></g></g></g><g class="cls-2"><g class="cls-24"><g class="cls-2"><path class="cls-14" d="M23.51,31.52,16.67,27.8v0l-.26-.45,6.84,3.72.26.45v0"/></g></g></g><path class="cls-25" d="M26.47,35.23l0,0-.11-.12-.79-.82-.13-.14,0,0-.09-.1-.05-.06-.08-.1-.05-.06-.09-.1-.06-.07-.09-.11-.05-.07-.09-.12,0-.06-.12-.16,0,0-.14-.2-.14-.2,0,0-.11-.16,0-.06-.1-.16,0-.05L23.8,32l0-.05-.11-.17,0,0-.12-.2v0l-.26-.45,2.23-.32,1.71,3.6.08.17,0,.06,0,.1,0,.06,0,.09,0,.06,0,.09,0,.06,0,.08,0,.05,0,.08v0l0,.08v0l0,.1v.17s0,0,0,0v.16l0,0,0,0,0,0h-.23l0,0,0,0,0,0,0,0-.06,0h0L27,35.68l0,0-.07-.05,0,0-.06-.05,0,0-.06-.05,0,0-.06-.06,0,0Z"/><polygon class="cls-26" points="23.24 31.06 16.4 27.34 18.63 27.01 25.47 30.73 23.24 31.06"/></g><g class="cls-2"><path d="M23.23,31l-6.84-3.72v0L16.2,27v0L16,26.64l0,0-.16-.32,0,0-.16-.32-.15-.32,0,0-.13-.3,0-.06-.11-.28,6.84,3.72.11.28,0,.06.13.3,0,0,.15.32.16.32,0,0,.16.32,0,0,.18.33v0l.18.33Z"/><path d="M22.07,28.64l-6.84-3.72,0,0-.1-.29,6.84,3.72.1.29Z"/><polygon points="20.49 24.06 13.65 20.34 15.35 20.1 22.19 23.82 20.49 24.06"/><polygon points="21.95 28.31 15.11 24.59 13.65 20.34 20.49 24.06 21.95 28.31"/><path d="M22.07,28.64l0,0-.1-.29-1.45-4.25,1.69-.24,3.28,6.91L23.23,31v0L23,30.7v0l-.18-.33,0,0L22.67,30l0,0-.16-.32-.15-.32,0,0L22.2,29l0-.06Z"/></g><g class="cls-2"><polygon class="cls-27" points="14.63 39.62 7.79 35.9 9.2 31.24 16.04 34.96 14.63 39.62"/><polygon class="cls-25" points="14.63 39.62 16.04 34.96 16.03 39.42 14.63 39.62"/></g><g class="cls-2"><polygon points="6.84 65.35 0 61.63 0.41 60.29 7.24 64.01 6.84 65.35"/><polygon points="7.64 62.7 0.8 58.98 7.3 58.07 14.14 61.79 7.64 62.7"/><polygon points="7.24 64.01 0.41 60.29 0.8 58.98 7.64 62.7 7.24 64.01"/><path d="M7.24,64l.4-1.31,6.5-.91v2.06a3.91,3.91,0,0,1-1.22.61l-.06,0a3.47,3.47,0,0,1-.44.09l-5.59.79Z"/></g><g class="cls-2"><polygon class="cls-28" points="7.64 62.7 0.8 58.98 1.72 55.96 8.55 59.68 7.64 62.7"/><polygon class="cls-4" points="9.97 55 3.13 51.28 7.32 50.7 14.15 54.42 9.97 55"/><polygon class="cls-28" points="8.55 59.68 1.72 55.96 3.13 51.28 9.97 55 8.55 59.68"/><polygon class="cls-5" points="8.55 59.68 9.97 55 14.15 54.42 14.14 61.79 7.64 62.7 8.55 59.68"/></g><g class="cls-2"><polygon class="cls-29" points="9.97 55 3.13 51.28 5.46 43.59 12.3 47.31 9.97 55"/><polygon class="cls-7" points="12.3 47.31 5.46 43.59 7.33 43.33 14.17 47.05 12.3 47.31"/><polygon class="cls-8" points="9.97 55 12.3 47.31 14.17 47.05 14.15 54.42 9.97 55"/></g><g class="cls-2"><polygon class="cls-12" points="12.3 47.31 5.46 43.59 6.63 39.75 13.46 43.47 12.3 47.31"/><polygon class="cls-11" points="13.46 43.47 6.63 39.75 7.34 39.65 14.17 43.37 13.46 43.47"/><polygon class="cls-10" points="12.3 47.31 13.46 43.47 14.17 43.37 14.17 47.05 12.3 47.31"/></g><g class="cls-2"><polygon class="cls-12" points="13.46 43.47 6.63 39.75 7.34 37.39 14.18 41.11 13.46 43.47"/><polygon class="cls-10" points="13.46 43.47 14.18 41.11 14.17 43.37 13.46 43.47"/></g><g class="cls-2"><polygon points="46.61 59.76 39.77 56.04 40.2 53.45 47.04 57.17 46.61 59.76"/><polygon points="47.04 57.17 40.2 53.45 48.71 52.25 55.55 55.97 47.04 57.17"/><path d="M52.5,58.92h-.06l-.25,0-5.58.78L47,57.17,55.55,56l-.09.26,0,0-.11.25-.13.24,0,0L55,57l0,0-.14.2,0,0-.16.21,0,0-.17.19-.2.2,0,0-.2.17-.21.16,0,0-.22.14,0,0-.2.11,0,0-.23.1-.05,0-.22.08h0Z"/></g><g class="cls-2"><polygon class="cls-7" points="47.04 57.17 40.2 53.45 41.02 48.45 47.86 52.17 47.04 57.17"/><polygon class="cls-4" points="48.28 49.62 41.45 45.9 48.94 44.85 55.78 48.57 48.28 49.62"/><polygon class="cls-7" points="47.86 52.17 41.02 48.45 41.45 45.9 48.28 49.62 47.86 52.17"/><path class="cls-5" d="M47.86,52.17l.42-2.55,7.49-1.05v6.07c0,.06,0,.12,0,.18v.45l0,.1v.08l0,.1,0,.08,0,.11,0,.07-.05.17L47,57.17Z"/></g><g class="cls-2"><polygon class="cls-30" points="48.28 49.62 41.45 45.9 41.82 43.6 48.66 47.32 48.28 49.62"/><polygon class="cls-7" points="49.53 42.08 42.69 38.36 48.95 37.48 55.79 41.2 49.53 42.08"/><polygon class="cls-30" points="48.66 47.32 41.82 43.6 42.69 38.36 49.53 42.08 48.66 47.32"/><polygon class="cls-8" points="48.66 47.32 49.53 42.08 55.79 41.2 55.78 48.57 48.28 49.62 48.66 47.32"/></g><g class="cls-2"><polygon class="cls-11" points="50.15 38.31 43.31 34.59 48.96 33.8 55.8 37.52 50.15 38.31"/><polygon class="cls-31" points="50.15 38.31 43.31 34.59 43.93 30.82 50.77 34.54 50.15 38.31"/><polygon class="cls-10" points="50.15 38.31 55.8 37.52 55.79 41.2 49.53 42.08 50.15 38.31"/><polygon class="cls-31" points="49.53 42.08 42.69 38.36 43.31 34.59 50.15 38.31 49.53 42.08"/><polygon class="cls-11" points="50.77 34.54 43.93 30.82 48.97 30.11 55.8 33.83 50.77 34.54"/><polygon class="cls-10" points="50.15 38.31 50.77 34.54 55.8 33.83 55.8 37.52 50.15 38.31"/></g><g class="cls-2"><polygon class="cls-14" points="50.77 34.54 43.93 30.82 45.18 23.28 52.02 27 50.77 34.54"/><polygon class="cls-26" points="52.02 27 45.18 23.28 48.98 22.75 55.82 26.47 52.02 27"/><polygon class="cls-25" points="50.77 34.54 52.02 27 55.82 26.47 55.8 33.83 50.77 34.54"/></g><g class="cls-2"><polygon points="52.02 27 45.18 23.28 46.42 15.73 53.26 19.45 52.02 27"/><polygon points="53.26 19.45 46.42 15.73 48.99 15.37 55.83 19.09 53.26 19.45"/><polygon points="52.02 27 53.26 19.45 55.83 19.09 55.82 26.47 52.02 27"/></g><g class="cls-2"><polygon class="cls-7" points="53.26 19.45 46.42 15.73 47.67 8.19 54.51 11.91 53.26 19.45"/><polygon class="cls-4" points="54.51 11.91 47.67 8.19 49.01 8.01 55.84 11.73 54.51 11.91"/><polygon class="cls-5" points="53.26 19.45 54.51 11.91 55.84 11.73 55.83 19.09 53.26 19.45"/></g><g class="cls-2"><polygon class="cls-30" points="54.51 11.91 47.67 8.19 48.78 1.49 55.61 5.21 54.51 11.91"/><polygon class="cls-8" points="55.61 5.21 55.75 4.38 55.86 4.36 55.84 11.73 54.51 11.91 55.61 5.21"/><polygon class="cls-30" points="55.61 5.21 48.78 1.49 48.91 0.66 55.75 4.38 55.61 5.21"/><polygon class="cls-10" points="55.75 4.38 55.86 3.72 55.86 4.36 55.75 4.38"/><polygon class="cls-7" points="55.75 4.38 48.91 0.66 49.02 0.64 55.86 4.36 55.75 4.38"/><polygon class="cls-31" points="55.75 4.38 48.91 0.66 49.02 0 55.86 3.72 55.75 4.38"/></g><g class="cls-2"><polygon class="cls-4" points="18.08 17.03 11.25 13.31 12.07 13.2 18.91 16.92 18.08 17.03"/><polygon class="cls-32" points="20.49 24.06 13.65 20.34 11.25 13.31 18.08 17.03 20.49 24.06"/><polygon class="cls-5" points="18.08 17.03 18.91 16.92 22.19 23.82 20.49 24.06 18.08 17.03"/></g><g class="cls-2"><polygon class="cls-33" points="18.08 17.03 11.25 13.31 10.17 10.17 17.01 13.89 18.08 17.03"/><g class="cls-2"><g class="cls-34"><g class="cls-2"><path class="cls-35" d="M17,13.89l-6.84-3.72L10.11,10l0-.1,0-.06,0-.1,0-.05,0-.08,0-.06,0-.08,0-.05,0-.07v0l0-.07v0l0-.06v-.4l6.84,3.72v.4l0,.06v0l0,.07v0l0,.07,0,.05,0,.08,0,.06,0,.08,0,.05,0,.1,0,.06,0,.1.06.18"/></g></g></g><g class="cls-2"><g class="cls-36"><g class="cls-2"><path class="cls-37" d="M16.61,12.44,9.77,8.72h0l6.84,3.72h0"/><path class="cls-38" d="M16.64,12.42,9.8,8.7h0l6.84,3.72h0"/><polyline class="cls-37" points="16.66 12.41 9.82 8.7 9.82 8.7 16.66 12.41 16.66 12.41"/><polyline class="cls-39" points="16.66 12.41 9.82 8.7 9.83 8.7 16.66 12.41 16.66 12.41"/></g></g></g><path class="cls-8" d="M18.91,16.92l-.82.12L17,13.89l-.06-.18,0-.1,0-.06,0-.1,0-.05,0-.08,0-.06,0-.08,0-.05,0-.07v0l0-.07v0l0-.06v-.4l.05,0h0v0l0,0v0l0,0,0,0,0,0,0,0,0,0,0,0,0,0,0,0,0,0,0,.06,0,0L17,13l0,.05,0,.06,0,.06,0,.06,0,.09,0,0,.07.14.08.17Z"/></g><g class="cls-2"><g class="cls-2"><g class="cls-40"><g class="cls-2"><polyline class="cls-41" points="31.51 53.55 24.68 49.84 24.68 49.83 31.51 53.55 31.51 53.55"/></g></g></g><g class="cls-2"><g class="cls-42"><g class="cls-2"><polyline class="cls-41" points="31.51 53.55 24.68 49.83 24.67 49.83 31.51 53.55 31.51 53.55"/></g></g></g><g class="cls-2"><g class="cls-43"><g class="cls-2"><polyline class="cls-41" points="31.51 53.55 24.67 49.83 24.67 49.82 31.5 53.54 31.51 53.55"/></g></g></g><g class="cls-2"><g class="cls-44"><g class="cls-2"><path class="cls-41" d="M31.51,53.54l-6.84-3.72h0s0,0,0,0v-.34l0-.05,0-.05,0-.06,0-.06,0-.07,0-.06,0-.09,0,0,0-.1,0-.06,0-.08,0-.09,0-.06,0-.11.07-.19L32,52l-.07.19,0,.11,0,.06,0,.09,0,.08,0,.06,0,.1,0,0,0,.09,0,.06,0,.07,0,.06,0,.06,0,.05,0,.05v.34s0,0,0,0h0"/></g></g></g><polygon class="cls-4" points="32 51.91 25.16 48.19 25.61 48.13 32.44 51.84 32 51.91"/><polygon class="cls-45" points="31.98 51.97 25.14 48.25 25.16 48.19 32 51.91 31.98 51.97"/><path class="cls-5" d="M32,51.91l.44-.06-.12.26-.24.5h0l-.07.14h0l-.06.13-.06.12h0l-.05.1v0l0,.08v0l0,.06,0,0,0,0,0,0,0,0,0,0,0,0v0H31.5s0,0,0,0v-.34l0-.05,0-.05,0-.06,0-.06,0-.07,0-.06,0-.09,0,0,0-.1,0-.06,0-.08,0-.09,0-.06,0-.11L32,52Z"/></g><g class="cls-2"><polygon class="cls-46" points="32 51.91 25.16 48.19 27.98 40.43 34.82 44.15 32 51.91"/><polygon class="cls-8" points="32.44 51.84 32 51.91 34.82 44.15 36.17 43.96 32.44 51.84"/><polygon class="cls-7" points="34.82 44.15 27.98 40.43 29.34 40.24 36.17 43.96 34.82 44.15"/><polygon class="cls-47" points="34.82 44.15 27.98 40.43 28.51 38.96 35.35 42.68 34.82 44.15"/><polygon class="cls-11" points="36.23 40.27 29.39 36.55 31.2 36.29 38.04 40.01 36.23 40.27"/><polygon class="cls-47" points="35.35 42.68 28.51 38.96 29.39 36.55 36.23 40.27 35.35 42.68"/><polygon class="cls-10" points="34.82 44.15 35.35 42.68 36.23 40.27 38.04 40.01 36.17 43.96 34.82 44.15"/><polygon class="cls-47" points="36.23 40.27 29.39 36.55 30.71 32.9 37.55 36.62 36.23 40.27"/><g class="cls-2"><g class="cls-48"><g class="cls-2"><path class="cls-49" d="M37.55,36.62,30.71,32.9v0l6.84,3.72v0"/><path class="cls-50" d="M37.56,36.59l-6.84-3.72.08-.2,6.84,3.72-.08.2"/></g></g></g><path class="cls-10" d="M38,40l-1.82.26,1.32-3.64.09-.24,2.27-.32Z"/><polygon class="cls-11" points="37.64 36.39 30.8 32.67 33.07 32.35 39.91 36.07 37.64 36.39"/></g><g class="cls-2"><polygon class="cls-26" points="42.73 28.31 35.89 24.59 36.69 24.48 43.52 28.2 42.73 28.31"/><g class="cls-2"><g class="cls-51"><g class="cls-2"><path class="cls-52" d="M42.21,28.9l-6.84-3.72L35.5,25l0,0,.09-.1,6.84,3.72-.09.1,0,0-.14.16"/><polyline class="cls-53" points="42.47 28.59 35.63 24.87 35.64 24.87 35.64 24.87 42.47 28.59 42.47 28.59 42.47 28.59"/><polyline class="cls-52" points="42.47 28.59 35.64 24.87 35.64 24.86 42.48 28.58 42.47 28.59"/><path class="cls-53" d="M42.48,28.58l-6.84-3.72,0,0,.09-.1,0,0,.08-.09,0,0,6.84,3.72,0,0-.08.09,0,0-.09.1,0,0"/></g></g></g><polygon class="cls-54" points="41.44 29.82 34.61 26.1 35.37 25.18 42.21 28.9 41.44 29.82"/><g class="cls-2"><g class="cls-55"><g class="cls-2"><path class="cls-27" d="M37.64,36.39,30.8,32.67a22.69,22.69,0,0,1,1.07-2.31l.11-.21,0,0h0l6.84,3.72h0l0,0-.11.21a22.69,22.69,0,0,0-1.07,2.31"/><path class="cls-56" d="M38.84,33.82,32,30.1l.1-.18,0,0,.1-.18,0,0,.1-.17,0-.06.09-.16,0-.07L32.6,29l.05-.09.08-.13.06-.1.08-.13.05-.09.08-.13.06-.09.07-.11.07-.11.06-.1.08-.12.06-.09.08-.12.06-.09.08-.11.06-.09.08-.12.05-.08,6.84,3.72-.05.08-.08.12-.06.09-.08.11-.06.09-.08.12-.06.09-.08.12-.06.1L40,31.9l-.07.11-.06.09-.08.13-.05.09-.08.13-.06.1-.08.13-.05.09-.09.15,0,.07-.09.16,0,.06-.1.17,0,0-.1.18,0,0-.1.18"/><path class="cls-52" d="M40.64,30.88,33.8,27.16h0l.08-.11.06-.08.08-.12.05-.07.09-.12,0-.06.09-.11,0-.06.1-.12,0,0,.13-.16,6.84,3.72-.13.16,0,0-.1.12,0,.06-.09.11,0,.06-.09.12-.05.07-.08.12-.06.08-.08.11h0"/></g></g></g><path class="cls-25" d="M43.15,29.2l0,.06-.09.19-3.13,6.62-2.27.32a22.69,22.69,0,0,1,1.07-2.31l.11-.21,0,0,.1-.19,0,0,.1-.18,0,0,.1-.17,0-.06.09-.16,0-.07.09-.15.05-.09.08-.13.06-.1.08-.13.05-.09.08-.13.06-.09L40,31.9l.07-.11.06-.1.08-.12.06-.09.08-.12.06-.09.08-.11.06-.09.08-.12.05-.08.08-.11.06-.08.08-.12.05-.07.09-.12,0-.06.09-.11,0-.06.1-.12,0,0,.13-.16.76-.92.14-.16,0,0,.09-.1,0,0,.09-.1,0,0,.08-.09,0,0,.79-.11,0,.11v0l0,.09v0l0,.09,0,0,0,.1,0,.05,0,.1,0,.06,0,.11,0,.07Z"/></g><g class="cls-2"><path d="M36.65,24.08l6.84,3.72h0l-6.84-3.72h0Z"/><path d="M42.73,28.31l-6.84-3.72,0,0,.08-.08,0,0,.08-.08,0,0,.18-.15h0l.07,0h0l0,0h0l0,0h.1l6.84,3.72h-.1l0,0h0l0,0h0l-.07,0h0l-.18.15,0,0-.08.08,0,0-.08.08Z"/><path d="M43.55,27.92v0s0,0,0,.05v.09h0l0,.1-.79.11,0,0,.08-.08,0,0,.08-.08,0,0,.18-.15h0l.07,0h0l0,0h0l0,0h.15l0,0h0v.09Z"/></g></g></g></svg>