<svg xmlns="http://www.w3.org/2000/svg" xmlns:xlink="http://www.w3.org/1999/xlink" viewBox="0 0 43.11 63.56"><defs><style>.cls-1{fill:none;}.cls-2{isolation:isolate;}.cls-3{fill:#6d6d6d;}.cls-4{fill:#909090;}.cls-5{fill:#b2b2b2;}.cls-6{fill:#525252;}.cls-7{fill:#868686;}.cls-8{fill:#6c6c6c;}.cls-9{fill:#373737;}.cls-10{fill:#484848;}.cls-11{fill:#595959;}.cls-12{clip-path:url(#clip-path);}.cls-13{fill:#353535;}.cls-14{clip-path:url(#clip-path-2);}.cls-15{clip-path:url(#clip-path-3);}.cls-16{clip-path:url(#clip-path-4);}.cls-17{clip-path:url(#clip-path-5);}.cls-18{clip-path:url(#clip-path-6);}.cls-19{clip-path:url(#clip-path-7);}.cls-20{clip-path:url(#clip-path-8);}.cls-21{fill:#333;}.cls-22{clip-path:url(#clip-path-9);}.cls-23{fill:#1b1b1b;}.cls-24{fill:#1a1a1a;}.cls-25{fill:#242424;}.cls-26{fill:#2d2d2d;}.cls-27{fill:#666;}.cls-28{fill:#4d4d4d;}.cls-29{clip-path:url(#clip-path-10);}.cls-30{fill:#656565;}.cls-31{fill:#626262;}.cls-32{clip-path:url(#clip-path-11);}.cls-33{fill:#5f5f5f;}.cls-34{clip-path:url(#clip-path-12);}.cls-35{clip-path:url(#clip-path-13);}.cls-36{fill:#5c5c5c;}.cls-37{clip-path:url(#clip-path-14);}.cls-38{fill:#505050;}.cls-39{fill:#535353;}.cls-40{fill:#565656;}.cls-41{clip-path:url(#clip-path-15);}.cls-42{fill:#6f6f6f;}.cls-43{fill:#1c1c1c;}</style><clipPath id="clip-path"><polygon class="cls-1" points="28.17 36.67 21.33 32.95 21.33 32.95 28.17 36.67 28.17 36.67"/></clipPath><clipPath id="clip-path-2"><path class="cls-1" d="M28.17,36.67l-6.84-3.72,0,0,6.84,3.72Z"/></clipPath><clipPath id="clip-path-3"><path class="cls-1" d="M28.13,36.65l-6.84-3.72,0,0,6.84,3.72Z"/></clipPath><clipPath id="clip-path-4"><path class="cls-1" d="M28.11,36.63l-6.84-3.72-.05,0,6.84,3.72Z"/></clipPath><clipPath id="clip-path-5"><path class="cls-1" d="M28.06,36.6l-6.84-3.72h0l-.07-.06L28,36.53l.07.06Z"/></clipPath><clipPath id="clip-path-6"><path class="cls-1" d="M28,36.53l-6.84-3.72h0l-.06,0,6.84,3.72.06,0Z"/></clipPath><clipPath id="clip-path-7"><path class="cls-1" d="M27.89,36.47,21,32.75l0,0-.05,0,0,0-.05,0,0,0-.06-.06,0,0-.06-.06,0,0-.07-.08L27.41,36l.07.08,0,0,.06.06,0,0,.06.06,0,0,.05,0,0,0,.05,0Z"/></clipPath><clipPath id="clip-path-8"><path class="cls-1" d="M27.41,36l-6.84-3.72,0,0-.11-.12,6.84,3.72.11.12Z"/></clipPath><clipPath id="clip-path-9"><path class="cls-1" d="M26.28,34.72,19.44,31A20,20,0,0,1,16,24.9l6.84,3.72A20,20,0,0,0,26.28,34.72Z"/></clipPath><clipPath id="clip-path-10"><polygon class="cls-1" points="17.43 11.03 10.59 7.3 10.6 7.31 17.44 11.03 17.43 11.03"/></clipPath><clipPath id="clip-path-11"><polygon class="cls-1" points="10.61 7.31 17.44 11.03 17.44 11.03 10.6 7.31 10.61 7.31"/></clipPath><clipPath id="clip-path-12"><polygon class="cls-1" points="17.43 11.03 10.59 7.31 10.59 7.3 17.43 11.03 17.43 11.03"/></clipPath><clipPath id="clip-path-13"><polygon class="cls-1" points="17.42 11.03 10.58 7.31 10.59 7.31 17.43 11.03 17.42 11.03"/></clipPath><clipPath id="clip-path-14"><path class="cls-1" d="M17.78,12.53,10.94,8.81q-.14-.46-.23-.78V8l0-.08v0l0-.06V7.35h0L17.41,11h0v.45l0,.06v0l0,.08v0Q17.63,12.07,17.78,12.53Z"/></clipPath><clipPath id="clip-path-15"><polygon class="cls-1" points="17.41 11.04 10.58 7.32 10.58 7.31 17.42 11.03 17.41 11.04"/></clipPath></defs><title>nse</title><g id="Layer_2" data-name="Layer 2"><g id="Layer_1-2" data-name="Layer 1"><g class="cls-2"><polygon points="32.32 59.33 25.48 55.61 26.15 52.16 32.99 55.88 32.32 59.33"/><polygon points="32.99 55.88 26.15 52.16 36.15 50.76 42.99 54.48 32.99 55.88"/><path d="M39.7,58.28h-.07l-.17,0-7.14,1L33,55.88l10-1.41v.14l0,.11v.08l0,.1,0,.08,0,.1,0,.08,0,.1,0,.08,0,.14v0l-.07.17,0,.07,0,.1,0,.08,0,.09,0,.08,0,.09,0,.08-.05.08,0,.07-.06.08,0,.07-.06.08-.05.07L42,56.8l-.06.07-.06.07-.06.06-.07.07-.06.06-.08.07-.05.05-.11.1,0,0-.14.11-.05,0-.09.07-.06,0-.09.06-.07,0-.09.05-.07,0-.09,0-.07,0-.09,0-.07,0-.09,0-.07,0-.09,0-.07,0-.1,0-.07,0-.1,0-.07,0Z"/></g><g class="cls-2"><polygon class="cls-3" points="32.99 55.88 26.15 52.16 27.62 44.58 34.46 48.3 32.99 55.88"/><polygon class="cls-4" points="34.46 48.3 27.62 44.58 36.2 43.38 43.03 47.1 34.46 48.3"/><path class="cls-5" d="M33,55.88l1.47-7.58L43,47.1V54c0,.08,0,.15,0,.23v.07q0,.08,0,.16v0Z"/></g><g class="cls-2"><polygon class="cls-6" points="34.46 48.3 27.62 44.58 29.09 37.01 35.93 40.73 34.46 48.3"/><polygon class="cls-7" points="34.46 48.3 35.93 40.73 43.05 39.73 43.03 47.1 34.46 48.3"/><polygon class="cls-8" points="35.93 40.73 29.09 37.01 36.21 36.01 43.05 39.73 35.93 40.73"/><polygon class="cls-9" points="35.93 40.73 29.09 37.01 29.83 33.23 36.66 36.95 35.93 40.73"/><polygon class="cls-10" points="36.66 36.95 29.83 33.23 36.22 32.33 43.05 36.05 36.66 36.95"/><polygon class="cls-9" points="36.66 36.95 29.83 33.23 30.22 31.22 37.05 34.94 36.66 36.95"/><polygon class="cls-11" points="36.66 36.95 43.05 36.05 43.05 39.73 35.93 40.73 36.66 36.95"/><polygon class="cls-9" points="37.05 34.94 30.22 31.22 30.56 29.44 37.4 33.16 37.05 34.94"/><polygon class="cls-11" points="37.05 34.94 37.4 33.16 43.06 32.36 43.05 36.05 36.66 36.95 37.05 34.94"/><polygon class="cls-10" points="37.4 33.16 30.56 29.44 36.22 28.64 43.06 32.36 37.4 33.16"/></g><g class="cls-2"><g class="cls-2"><g class="cls-12"><g class="cls-2"><polyline class="cls-13" points="28.17 36.67 21.33 32.95 21.33 32.95 28.17 36.67 28.17 36.67"/></g></g></g><g class="cls-2"><g class="cls-14"><g class="cls-2"><path class="cls-13" d="M28.17,36.67l-6.84-3.72,0,0,6.84,3.72,0,0"/></g></g></g><g class="cls-2"><g class="cls-15"><g class="cls-2"><path class="cls-13" d="M28.13,36.65l-6.84-3.72,0,0,6.84,3.72,0,0"/></g></g></g><g class="cls-2"><g class="cls-16"><g class="cls-2"><path class="cls-13" d="M28.11,36.63l-6.84-3.72-.05,0,6.84,3.72.05,0"/></g></g></g><g class="cls-2"><g class="cls-17"><g class="cls-2"><path class="cls-13" d="M28.06,36.6l-6.84-3.72h0l-.07-.06L28,36.53l.07.06h0"/></g></g></g><g class="cls-2"><g class="cls-18"><g class="cls-2"><path class="cls-13" d="M28,36.53l-6.84-3.72h0l-.06,0,6.84,3.72.06,0h0"/></g></g></g><g class="cls-2"><g class="cls-19"><g class="cls-2"><path class="cls-13" d="M27.89,36.47,21,32.75l0,0-.05,0,0,0-.05,0,0,0-.06-.06,0,0-.06-.06,0,0-.07-.08L27.41,36l.07.08,0,0,.06.06,0,0,.06.06,0,0,.05,0,0,0,.05,0,0,0"/></g></g></g><g class="cls-2"><g class="cls-20"><g class="cls-2"><path class="cls-13" d="M27.41,36l-6.84-3.72,0,0-.11-.12,6.84,3.72.11.12,0,0"/></g></g></g><polygon class="cls-21" points="27.26 35.84 20.43 32.12 19.44 31 26.28 34.72 27.26 35.84"/><path class="cls-11" d="M27.41,36l0,0-.11-.12-1-1.12,1.56-.22.28.64.07.17,0,.07,0,.1,0,.07,0,.09,0,.06,0,.08,0,.06,0,.07,0,.06,0,.07v0l0,.07v.31s0,0,0,0,0,0,0,0v.14h-.25l0,0h0l0,0,0,0-.05,0h0L28,36.53h0l-.06,0,0,0-.05,0,0,0-.05,0,0,0-.06-.06,0,0-.06-.06,0,0Z"/><polygon class="cls-10" points="26.28 34.72 19.44 31 21 30.78 27.84 34.5 26.28 34.72"/></g><g class="cls-2"><g class="cls-2"><g class="cls-22"><g class="cls-2"><path class="cls-23" d="M26.28,34.72,19.44,31A20,20,0,0,1,16,24.9l6.84,3.72a20,20,0,0,0,3.42,6.11"/></g></g></g><polygon class="cls-24" points="22.86 28.62 16.03 24.9 15.79 24.15 22.63 27.87 22.86 28.62"/><polygon class="cls-25" points="22.63 27.87 15.79 24.15 17.96 23.85 24.8 27.57 22.63 27.87"/><path class="cls-26" d="M27.83,34.5l-1.56.22a20,20,0,0,1-3.42-6.11l-.24-.74,2.17-.3Z"/></g><g class="cls-2"><polygon points="22.63 27.87 15.79 24.15 13.56 17.09 20.4 20.81 22.63 27.87"/><polygon points="20.4 20.81 13.56 17.09 14.91 16.9 21.75 20.62 20.4 20.81"/><polygon points="21.75 20.62 24.8 27.57 22.63 27.87 20.4 20.81 21.75 20.62"/></g><g class="cls-2"><polygon class="cls-27" points="20.4 20.81 13.56 17.09 11.33 10.04 18.17 13.76 20.4 20.81"/><polygon class="cls-4" points="18.17 13.76 11.33 10.04 11.88 9.96 18.71 13.68 18.17 13.76"/><polygon class="cls-5" points="18.71 13.68 21.75 20.62 20.4 20.81 18.17 13.76 18.71 13.68"/></g><g class="cls-2"><polygon class="cls-28" points="18.17 13.76 11.33 10.04 10.94 8.81 17.78 12.53 18.17 13.76"/><g class="cls-2"><g class="cls-29"><g class="cls-2"><polyline class="cls-30" points="17.43 11.03 10.59 7.3 10.6 7.31 17.44 11.03 17.43 11.03"/><polyline class="cls-31" points="17.44 11.03 10.6 7.31 10.6 7.31 17.44 11.03 17.44 11.03"/></g></g></g><g class="cls-2"><g class="cls-32"><g class="cls-2"><polyline class="cls-31" points="17.44 11.03 10.6 7.31 10.6 7.31 17.44 11.03 17.44 11.03"/><polyline class="cls-33" points="17.44 11.03 10.6 7.31 10.61 7.31 17.44 11.03 17.44 11.03"/></g></g></g><g class="cls-2"><g class="cls-34"><g class="cls-2"><polyline class="cls-30" points="17.43 11.03 10.59 7.31 10.59 7.3 17.43 11.03 17.43 11.03"/></g></g></g><g class="cls-2"><g class="cls-35"><g class="cls-2"><polyline class="cls-36" points="17.42 11.03 10.58 7.31 10.58 7.31 17.42 11.03 17.42 11.03"/><polyline class="cls-33" points="17.42 11.03 10.58 7.31 10.58 7.31 17.42 11.03 17.42 11.03"/><polyline class="cls-31" points="17.42 11.03 10.58 7.31 10.59 7.31 17.42 11.03 17.42 11.03"/><polyline class="cls-30" points="17.42 11.03 10.59 7.31 10.59 7.31 17.43 11.03 17.42 11.03"/></g></g></g><g class="cls-2"><g class="cls-37"><g class="cls-2"><path class="cls-38" d="M17.78,12.53,10.94,8.81q-.14-.46-.23-.78V8l0-.08v0l0-.06V7.35h0L17.41,11h0v.45l0,.06v0l0,.08v0q.09.32.23.78"/><polyline class="cls-39" points="17.41 11.04 10.57 7.32 10.58 7.32 17.41 11.04 17.41 11.04"/><polyline class="cls-40" points="17.41 11.04 10.58 7.32 10.58 7.32 17.41 11.04 17.41 11.04"/></g></g></g><g class="cls-2"><g class="cls-41"><g class="cls-2"><polyline class="cls-40" points="17.41 11.04 10.58 7.32 10.58 7.31 17.42 11.03 17.41 11.04"/><polyline class="cls-11" points="17.42 11.03 10.58 7.31 10.58 7.31 17.42 11.03 17.42 11.03"/><polyline class="cls-36" points="17.42 11.03 10.58 7.31 10.58 7.31 17.42 11.03 17.42 11.03"/></g></g></g><path class="cls-7" d="M18.71,13.68l-.55.08-.39-1.23q-.14-.46-.23-.78v0l0-.08v0l0-.06v-.45h.07v0l0,0v0l0,0v0l0,0v0l0,0,0,0,0,.05,0,0,0,.07v0l0,.08v0l0,.1v0l.05.11v0L18,12l0,0,.06.12v0l.07.16Z"/></g><g class="cls-2"><polygon points="6.84 63.56 0 59.84 0.99 55.7 7.83 59.42 6.84 63.56"/><polygon points="7.83 59.42 0.99 55.7 8.41 54.65 15.25 58.37 7.83 59.42"/><path d="M6.84,63.56l1-4.14,7.42-1v.16a4.44,4.44,0,0,1-3.57,4.34Z"/></g><g class="cls-2"><polygon class="cls-42" points="7.83 59.42 0.99 55.7 2.82 48.07 9.66 51.79 7.83 59.42"/><polygon class="cls-4" points="9.66 51.79 2.82 48.07 8.42 47.28 15.26 51 9.66 51.79"/><polygon class="cls-5" points="7.83 59.42 9.66 51.79 15.26 51 15.25 58.37 7.83 59.42"/></g><g class="cls-2"><polygon class="cls-39" points="9.66 51.79 2.82 48.07 4.64 40.45 11.48 44.17 9.66 51.79"/><polygon class="cls-8" points="11.48 44.17 4.64 40.45 8.44 39.91 15.28 43.63 11.48 44.17"/><polygon class="cls-7" points="9.66 51.79 11.48 44.17 15.28 43.63 15.26 51 9.66 51.79"/></g><g class="cls-2"><polygon class="cls-10" points="12.39 40.36 5.55 36.64 8.45 36.23 15.28 39.95 12.39 40.36"/><polygon class="cls-9" points="11.48 44.17 4.64 40.45 5.55 36.64 12.39 40.36 11.48 44.17"/><polygon class="cls-11" points="12.39 40.36 15.28 39.95 15.28 43.63 11.48 44.17 12.39 40.36"/></g><g class="cls-2"><polygon class="cls-9" points="12.39 40.36 5.55 36.64 6.47 32.83 13.3 36.55 12.39 40.36"/><polygon class="cls-11" points="12.39 40.36 13.3 36.55 15.29 36.27 15.28 39.95 12.39 40.36"/><polygon class="cls-10" points="13.3 36.55 6.47 32.83 8.45 32.55 15.29 36.27 13.3 36.55"/><polygon class="cls-25" points="15.13 28.93 8.29 25.2 8.46 25.18 15.3 28.9 15.13 28.93"/><polygon class="cls-43" points="13.3 36.55 6.47 32.83 8.29 25.2 15.13 28.93 13.3 36.55"/><polygon class="cls-26" points="13.3 36.55 15.13 28.93 15.3 28.9 15.29 36.27 13.3 36.55"/></g><g class="cls-2"><polygon points="15.13 28.93 8.29 25.2 8.47 24.47 15.3 28.19 15.13 28.93"/><polygon points="15.13 28.93 15.3 28.19 15.3 28.9 15.13 28.93"/></g><g class="cls-2"><polygon class="cls-23" points="37.4 33.16 30.56 29.44 32.03 21.87 38.87 25.59 37.4 33.16"/><polygon class="cls-26" points="37.4 33.16 38.87 25.59 43.08 25 43.06 32.36 37.4 33.16"/><polygon class="cls-25" points="38.87 25.59 32.03 21.87 36.24 21.28 43.08 25 38.87 25.59"/><polygon points="40.34 18.01 33.5 14.29 36.25 13.9 43.09 17.62 40.34 18.01"/><polygon points="38.87 25.59 32.03 21.87 33.5 14.29 40.34 18.01 38.87 25.59"/><polygon points="38.87 25.59 40.34 18.01 43.09 17.62 43.08 25 38.87 25.59"/></g><g class="cls-2"><polygon class="cls-3" points="40.34 18.01 33.5 14.29 34.97 6.72 41.81 10.44 40.34 18.01"/><polygon class="cls-4" points="41.81 10.44 34.97 6.72 36.27 6.54 43.1 10.26 41.81 10.44"/><polygon class="cls-5" points="40.34 18.01 41.81 10.44 43.1 10.26 43.09 17.62 40.34 18.01"/></g><g class="cls-2"><polygon class="cls-6" points="41.81 10.44 34.97 6.72 36.28 0 43.12 3.72 41.81 10.44"/><polygon class="cls-7" points="41.81 10.44 43.12 3.72 43.1 10.26 41.81 10.44"/></g></g></g></svg>