<svg xmlns="http://www.w3.org/2000/svg" xmlns:xlink="http://www.w3.org/1999/xlink" viewBox="0 0 41.15 59.03"><defs><style>.cls-1{fill:none;}.cls-2{isolation:isolate;}.cls-3{fill:#909090;}.cls-4{fill:#696969;}.cls-5{fill:#b2b2b2;}.cls-6{fill:#6c6c6c;}.cls-7{fill:#868686;}.cls-8{fill:#4e4e4e;}.cls-9{fill:#343434;}.cls-10{fill:#595959;}.cls-11{fill:#484848;}.cls-12{clip-path:url(#clip-path);}.cls-13{fill:#505050;}.cls-14{clip-path:url(#clip-path-2);}.cls-15{fill:#2d2d2d;}.cls-16{fill:#1a1a1a;}.cls-17{fill:#242424;}.cls-18{clip-path:url(#clip-path-3);}.cls-19{clip-path:url(#clip-path-4);}.cls-20{clip-path:url(#clip-path-5);}.cls-21{fill:#353535;}.cls-22{clip-path:url(#clip-path-6);}.cls-23{clip-path:url(#clip-path-7);}.cls-24{fill:#1b1b1b;}.cls-25{clip-path:url(#clip-path-8);}.cls-26{fill:#878787;}.cls-27{clip-path:url(#clip-path-9);}.cls-28{fill:#7e7e7e;}.cls-29{fill:#838383;}.cls-30{clip-path:url(#clip-path-10);}.cls-31{clip-path:url(#clip-path-11);}.cls-32{fill:#5f5f5f;}.cls-33{clip-path:url(#clip-path-12);}.cls-34{fill:#626262;}.cls-35{clip-path:url(#clip-path-13);}.cls-36{clip-path:url(#clip-path-14);}.cls-37{fill:#656565;}</style><clipPath id="clip-path"><path class="cls-1" d="M12.48,45.55,5.64,41.83l0,0,6.84,3.72Z"/></clipPath><clipPath id="clip-path-2"><path class="cls-1" d="M12.44,45.53,5.6,41.81l-.34-.2,6.84,3.72Z"/></clipPath><clipPath id="clip-path-3"><path class="cls-1" d="M12.1,45.33,5.26,41.61l-.06,0-.28-.18-.11-.08-.23-.17-.1-.07-.29-.23-.12-.1-.18-.16-.13-.12-.21-.21-.16-.17-.15-.16-.14-.16L3,39.59l-.23-.29-.12-.15-.14-.2-.09-.13-.14-.22,0-.05L1.93,38l-.06-.1,6.84,3.72.06.1.29.49,0,.05.14.22.09.13.14.2.12.15.23.29.12.15.14.16.15.16.16.17.21.21.13.12.18.16.12.1.29.23.1.07.23.17.11.08.28.18Z"/></clipPath><clipPath id="clip-path-4"><path class="cls-1" d="M8.71,41.66,1.87,37.94,1.8,37.8l6.84,3.72Z"/></clipPath><clipPath id="clip-path-5"><path class="cls-1" d="M8.64,41.52,1.8,37.8A14.53,14.53,0,0,1,.55,34.3L7.39,38A14.53,14.53,0,0,0,8.64,41.52Z"/></clipPath><clipPath id="clip-path-6"><path class="cls-1" d="M7.39,38,.55,34.3A22.17,22.17,0,0,1,.08,31v-.1c0-.08,0-.17,0-.25L6.9,34.4c0,.08,0,.17,0,.25v.1A22.17,22.17,0,0,0,7.39,38Z"/></clipPath><clipPath id="clip-path-7"><path class="cls-1" d="M6.9,34.4.06,30.68c0-.12,0-.23,0-.35v-.08c0-.21,0-.43,0-.65l6.84,3.72c0,.22,0,.44,0,.65v.08C6.88,34.17,6.89,34.29,6.9,34.4Z"/></clipPath><clipPath id="clip-path-8"><path class="cls-1" d="M15.2,17.43,8.36,13.71l.07,0,.31-.14.12,0,0,0,.08,0,0,0,.09,0h0l.13,0h0l.1,0,.05,0,.09,0,.05,0,.14,0h0l.13,0H10l.1,0,.06,0,.13,0h0l.17,0h.05l.13,0h.06l.13,0h.06l.2,0,.21,0h0l.19,0h0l6.84,3.72h0l-.19,0h0l-.21,0-.2,0h-.06l-.13,0h-.06l-.13,0h-.05l-.17,0h0l-.13,0-.06,0-.1,0h-.06l-.13,0h0l-.14,0-.05,0-.09,0-.05,0-.1,0h0l-.13,0h0l-.09,0,0,0-.08,0,0,0-.12,0-.31.14Z"/></clipPath><clipPath id="clip-path-9"><path class="cls-1" d="M12.89,18.82,6,15.11l.64-.45h0L7,14.44H7l.31-.19h0l.32-.18,0,0,.3-.16H8l.31-.15,6.84,3.72-.31.15h0l-.3.16,0,0-.32.18h0l-.31.19h0l-.32.21h0Z"/></clipPath><clipPath id="clip-path-10"><path class="cls-1" d="M6.85,33.33,0,29.61v-.16c0-.22,0-.45,0-.68s0-.25,0-.37,0-.09,0-.13S0,28.1,0,28v-.09c0-.09,0-.18,0-.28v-.12c0-.08,0-.16,0-.24v-.11l0-.25v-.1l0-.26v-.09l0-.26v-.07l0-.28v-.05l0-.29v0l0-.3.06-.33v0l.06-.3.07-.33.07-.32.08-.32.08-.31L7.56,27l-.08.31-.08.32-.07.32-.07.33-.06.3v0l-.06.33,0,.3v0l0,.29v.05l0,.28v.07l0,.26v.09l0,.26v.1l0,.25V31c0,.08,0,.16,0,.24v.12c0,.09,0,.18,0,.28v.09c0,.08,0,.16,0,.24s0,.09,0,.13,0,.25,0,.37,0,.46,0,.68Z"/></clipPath><clipPath id="clip-path-11"><path class="cls-1" d="M24,2.06l6.84,3.72-.24-.13L23.76,1.93Z"/></clipPath><clipPath id="clip-path-12"><path class="cls-1" d="M29.57,5.15,22.73,1.43l.11,0,.82.4L30.51,5.6l-.82-.4Z"/></clipPath><clipPath id="clip-path-13"><path class="cls-1" d="M30.51,5.6,23.67,1.88l.1.05L30.6,5.65Z"/></clipPath><clipPath id="clip-path-14"><path class="cls-1" d="M18.63,4.23,11.79.51l.17,0,.08,0,.08,0,.1,0,.25-.06.28-.06.33-.06.2,0,.18,0,.16,0,.36,0,.16,0h.19l.41,0h2.51l.22,0,.25,0h.07l.17,0H18l.15,0h.09l.2,0h0l.25,0h.06l.19,0,.08,0,.17,0,.08,0,.18,0,.08,0,.25.06h0l.21.05.08,0,.17,0,.09,0,.18.05.08,0L21,.77l.44.15.14,0,.29.11.16.06.28.11.15.06.3.13,6.84,3.72L29.27,5,29.12,5l-.28-.11-.16-.06-.29-.11-.14,0-.44-.15-.26-.08-.08,0-.18-.05-.09,0-.17,0-.08,0-.21-.05h0l-.25-.06-.08,0-.18,0-.08,0-.17,0-.08,0-.19,0H25.6l-.25,0h0l-.2,0H25l-.15,0h-.09l-.17,0h-.07l-.25,0-.22,0H21.58l-.41,0H21l-.16,0-.36,0-.16,0-.18,0-.2,0L19.6,4l-.28.06-.25.06-.1,0-.08,0-.08,0Z"/></clipPath></defs><title>ose</title><g id="Layer_2" data-name="Layer 2"><g id="Layer_1-2" data-name="Layer 1"><g class="cls-2"><polygon points="17.48 59.03 10.64 55.31 10.73 51.29 17.56 55.01 17.48 59.03"/><polygon points="17.56 55.01 10.73 51.29 24.96 49.29 31.8 53.01 17.56 55.01"/><path d="M25.83,57l-.14.06-.41.18c-1.95.84-2.47,1.07-7.8,1.82l.08-4L31.8,53l-.09.08-.2.18-.15.13-.22.18-.14.12-.25.2-.11.09-.36.28,0,0-.32.24-.12.09-.26.18-.14.1-.24.17-.14.1-.25.16-.13.09-.28.18-.11.07-.39.24-.39.22-.12.07-.27.15-.15.08-.25.13-.15.08-.25.12-.16.08Z"/></g><g class="cls-2"><polygon class="cls-3" points="17.72 47.61 10.88 43.89 31.07 41.05 37.9 44.77 17.72 47.61"/><polygon class="cls-4" points="17.56 55.01 10.73 51.29 10.88 43.89 17.72 47.61 17.56 55.01"/><path class="cls-5" d="M17.72,47.61,37.9,44.78l0,.07-.25.5-.09.17-.19.36-.11.21-.21.37-.1.18-.25.43-.12.2-.2.32-.11.18-.29.45-.11.17-.21.31-.12.18-.29.4-.11.14-.26.34-.13.16-.25.31-.1.12-.34.4-.12.14-.26.29-.12.13-.36.39-.09.1-.3.3-.13.12-.33.32-.07.06-.39.36-.05,0L17.56,55Z"/></g><g class="cls-2"><polygon class="cls-6" points="17.88 40.23 11.04 36.51 33.6 33.34 40.44 37.05 17.88 40.23"/><path class="cls-7" d="M17.87,40.23l22.56-3.17c0,.22-.09.43-.13.65s-.16.7-.24,1l-.13.51-.14.5-.14.5-.15.49-.16.48,0,.06-.14.41,0,.08-.14.4,0,.07-.15.4,0,.08-.15.38,0,.09-.15.36,0,.1-.15.35,0,.1-.16.35,0,.1-.11.23L17.72,47.61Z"/><polygon class="cls-8" points="17.72 47.61 10.88 43.89 11.04 36.51 17.88 40.23 17.72 47.61"/><polygon class="cls-9" points="17.88 40.23 11.04 36.51 11.07 34.87 17.91 38.59 17.88 40.23"/><polygon class="cls-9" points="17.91 38.59 11.07 34.87 11.11 32.81 17.95 36.53 17.91 38.59"/><path class="cls-10" d="M17.87,40.23l0-1.64,0-2.05L41,33.3v.1q0,.36-.07.71l0,.25q0,.37-.1.74l0,.25q-.05.36-.11.71l0,.23-.11.6,0,.17Z"/><polygon class="cls-11" points="17.95 36.53 11.11 32.81 34.14 29.58 40.98 33.3 17.95 36.53"/><g class="cls-2"><g class="cls-12"><g class="cls-2"><path class="cls-13" d="M12.48,45.55,5.64,41.83l0,0,6.84,3.72,0,0"/></g></g></g><g class="cls-2"><g class="cls-14"><g class="cls-2"><path class="cls-13" d="M12.44,45.53,5.6,41.81l-.34-.2,6.84,3.72.34.2"/></g></g></g><polygon class="cls-11" points="18.03 32.84 11.19 29.12 34.31 25.87 41.15 29.59 18.03 32.84"/><path class="cls-10" d="M41.11,31.33s0,.08,0,.12q0,.94-.13,1.84L18,36.53,18,32.84l23.12-3.25c0,.14,0,.27,0,.41s0,.35,0,.52S41.12,31.06,41.11,31.33Z"/><polygon class="cls-9" points="17.95 36.53 11.11 32.81 11.19 29.12 18.03 32.84 17.95 36.53"/><path class="cls-15" d="M41.15,29.55,18,32.84l.16-7.39,22.48-3.16q.06.4.11.81c.07.59.13,1.14.18,1.71v.11q0,.42.06.85c0,.28,0,.56,0,.83v.16q0,.42,0,.85c0,.3,0,.58,0,.85v.21C41.15,29,41.15,29.25,41.15,29.55Z"/><polygon class="cls-16" points="18.03 32.84 11.19 29.12 11.35 21.73 18.18 25.45 18.03 32.84"/><polygon class="cls-17" points="18.18 25.45 11.35 21.73 33.83 18.57 40.67 22.29 18.18 25.45"/><g class="cls-2"><g class="cls-18"><g class="cls-2"><path class="cls-13" d="M12.1,45.33,5.26,41.61l-.06,0-.28-.18-.11-.08-.23-.17-.1-.07-.29-.23-.12-.1-.18-.16-.13-.12-.21-.21-.16-.17-.15-.16-.14-.16L3,39.59l-.23-.29-.12-.15-.14-.2-.09-.13-.14-.22,0-.05L1.93,38l-.06-.1,6.84,3.72.06.1.29.49,0,.05.14.22.09.13.14.2.12.15.23.29.12.15.14.16.15.16.16.17.21.21.13.12.18.16.12.1.29.23.1.07.23.17.11.08.28.18.06,0"/></g></g></g><g class="cls-2"><g class="cls-19"><g class="cls-2"><path class="cls-13" d="M8.71,41.66,1.87,37.94,1.8,37.8l6.84,3.72.07.13"/></g></g></g><polygon class="cls-6" points="8.64 41.52 1.8 37.8 11.04 36.51 17.88 40.23 8.64 41.52"/><path class="cls-7" d="M8.71,41.66l-.07-.13,9.23-1.3-.13,6.4H15.93l-.21,0h0l-.19,0h0l-.18,0h0l-.19,0h0l-.18,0h0l-.16,0h0l-.18,0h0l-.17-.05-.4-.14-.11,0-.3-.12-.09,0-.37-.17-.09,0-.28-.15-.11-.06-.34-.2-.06,0-.28-.18L11.65,45l-.23-.17-.1-.07L11,44.55l-.12-.1-.18-.16-.13-.12L10.38,44l-.16-.17-.15-.16-.14-.16-.12-.15L9.58,43l-.12-.15-.14-.2-.09-.13-.14-.22,0-.05-.29-.49Z"/><polygon points="20.96 17.69 14.12 13.97 31.98 11.46 38.82 15.18 20.96 17.69"/><polygon points="18.34 18.06 11.5 14.34 14.12 13.97 20.96 17.69 18.34 18.06"/><polygon points="18.18 25.45 11.35 21.73 11.5 14.34 18.34 18.06 18.18 25.45"/><path d="M40.32,20.32c.07.35.13.66.18,1s.11.68.16,1L18.18,25.45l.16-7.39L21,17.69l17.86-2.51q.15.36.28.74l0,.08q.13.36.25.74l0,.1q.12.38.24.77l0,.08Q40,18.95,40.32,20.32Z"/><g class="cls-2"><g class="cls-20"><g class="cls-2"><path class="cls-21" d="M8.64,41.52,1.8,37.8A14.53,14.53,0,0,1,.55,34.3L7.39,38a14.53,14.53,0,0,0,1.25,3.51"/></g></g></g><path class="cls-10" d="M8.64,41.52A14.53,14.53,0,0,1,7.39,38L18,36.53l-.08,3.69Z"/><polygon class="cls-11" points="7.39 38.02 0.55 34.3 11.11 32.81 17.95 36.53 7.39 38.02"/><polygon class="cls-4" points="18.34 18.06 11.5 14.34 11.52 13.32 18.36 17.04 18.34 18.06"/><polygon class="cls-4" points="18.36 17.04 11.52 13.32 11.57 10.96 18.41 14.68 18.36 17.04"/><g class="cls-2"><g class="cls-22"><g class="cls-2"><path class="cls-21" d="M7.39,38,.55,34.3A22.17,22.17,0,0,1,.08,31v-.1c0-.08,0-.17,0-.25L6.9,34.4c0,.08,0,.17,0,.25v.1A22.17,22.17,0,0,0,7.39,38"/></g></g></g><polygon class="cls-11" points="6.9 34.4 0.06 30.68 11.19 29.12 18.03 32.84 6.9 34.4"/><path class="cls-10" d="M6.9,34.4,18,32.84,18,36.53,7.39,38a22.17,22.17,0,0,1-.47-3.26v-.1C6.9,34.57,6.9,34.49,6.9,34.4Z"/><g class="cls-2"><g class="cls-23"><g class="cls-2"><path class="cls-24" d="M6.9,34.4.06,30.68c0-.12,0-.23,0-.35v-.08c0-.21,0-.43,0-.65l6.84,3.72c0,.22,0,.44,0,.65v.08c0,.12,0,.23,0,.35"/></g></g></g><polygon points="12.87 18.83 6.04 15.11 11.5 14.34 18.34 18.06 12.87 18.83"/><g class="cls-2"><g class="cls-25"><g class="cls-2"><path class="cls-26" d="M15.2,17.43,8.36,13.71l.07,0,.31-.14.12,0,0,0,.08,0,0,0,.09,0h0l.13,0h0l.1,0,.05,0,.09,0,.05,0,.14,0h0l.13,0H10l.1,0,.06,0,.13,0h0l.17,0h.05l.13,0h.06l.13,0h.06l.2,0,.21,0h0l.19,0h0l6.84,3.72h0l-.19,0h0l-.21,0-.2,0h-.06l-.13,0h-.06l-.13,0h-.05l-.17,0h0l-.13,0-.06,0-.1,0h-.06l-.13,0h0l-.14,0-.05,0-.09,0-.05,0-.1,0h0l-.13,0h0l-.09,0,0,0-.08,0,0,0-.12,0-.31.14-.07,0"/></g></g></g><polygon class="cls-3" points="18.5 10.67 11.66 6.95 27.6 4.71 34.44 8.43 18.5 10.67"/><path class="cls-5" d="M38.41,14.23l.15.35.05.12.2.48L21,17.69l-2.62.37,0-1,0-2.36.08-4L34.44,8.43l.33.33.33.35a17.65,17.65,0,0,1,1.23,1.5l.28.39,0,.06.23.34,0,.07.24.37c.2.32.36.61.53.91l.23.43.06.11.17.34.06.13.15.33Z"/><polygon class="cls-4" points="18.41 14.68 11.57 10.96 11.66 6.95 18.5 10.67 18.41 14.68"/><path class="cls-5" d="M15.2,17.43l.07,0,.31-.14.12,0,0,0,.08,0,0,0,.09,0h0l.13,0h0l.1,0,.05,0,.09,0,.05,0,.14,0h0l.13,0h.06l.1,0,.06,0,.13,0h0l.17,0h.05l.13,0h.06l.13,0h.06l.2,0,.21,0h0l.19,0h0l0,1.56-5.46.77.64-.45h0l.32-.21h0l.31-.19h0l.32-.18,0,0,.3-.16h0Z"/><g class="cls-2"><g class="cls-27"><g class="cls-2"><path class="cls-28" d="M12.89,18.82,6,15.11l.45-.32,6.84,3.72-.45.32"/><path class="cls-29" d="M13.33,18.5,6.5,14.78l.19-.13h0L7,14.44H7l.31-.19h0l.32-.18,0,0,.3-.16H8l.3-.15,6.84,3.72-.3.15h0l-.3.16,0,0-.32.18h0l-.31.19h0l-.32.21h0l-.19.13"/><polyline class="cls-26" points="15.19 17.43 8.35 13.71 8.36 13.71 15.2 17.43 15.19 17.43"/></g></g></g><path class="cls-15" d="M6.85,33.33v-.16c0-.22,0-.45,0-.68s0-.25,0-.37,0-.09,0-.13,0-.16,0-.24v-.09c0-.09,0-.18,0-.28v-.12c0-.08,0-.16,0-.24V30.9l0-.25v-.1l0-.26v-.09l0-.26v-.07l0-.28v-.05l0-.29v0l0-.3.06-.33v0l.06-.3.07-.33.07-.32.08-.32L7.56,27l10.63-1.5L18,32.84,6.9,34.4c0-.12,0-.23,0-.35V34C6.86,33.76,6.85,33.55,6.85,33.33Z"/><g class="cls-2"><g class="cls-30"><g class="cls-2"><path class="cls-24" d="M6.85,33.33,0,29.61v-.16c0-.22,0-.45,0-.68s0-.25,0-.37,0-.09,0-.13S0,28.1,0,28v-.09c0-.09,0-.18,0-.28v-.12c0-.08,0-.16,0-.24v-.11l0-.25v-.1l0-.26v-.09l0-.26v-.07l0-.28v-.05l0-.29v0l0-.3.06-.33v0l.06-.3.07-.33.07-.32.08-.32.08-.31L7.56,27l-.08.31-.08.32-.07.32-.07.33-.06.3v0l-.06.33,0,.3v0l0,.29v.05l0,.28v.07l0,.26v.09l0,.26v.1l0,.25V31c0,.08,0,.16,0,.24v.12c0,.09,0,.18,0,.28v.09c0,.08,0,.16,0,.24s0,.09,0,.13,0,.25,0,.37,0,.46,0,.68v.16"/></g></g></g><polygon class="cls-17" points="7.56 26.95 0.72 23.23 11.35 21.73 18.18 25.45 7.56 26.95"/><path d="M12.87,18.83l5.47-.78-.16,7.39L7.56,26.95l.09-.33.1-.33A15.64,15.64,0,0,1,10.59,21l.19-.23a13.8,13.8,0,0,1,1.65-1.61l.21-.17Z"/><path d="M7.56,26.95.72,23.23l.09-.33.1-.33A15.64,15.64,0,0,1,3.76,17.3l.19-.23A13.8,13.8,0,0,1,5.6,15.46l.21-.17L6,15.11l6.84,3.72-.22.17-.21.17a13.8,13.8,0,0,0-1.65,1.61l-.19.23a15.64,15.64,0,0,0-2.84,5.27l-.1.33Z"/></g><g class="cls-2"><g class="cls-2"><g class="cls-31"><g class="cls-2"><path class="cls-32" d="M30.6,5.65,23.76,1.93l.24.13,6.84,3.72-.24-.13"/></g></g></g><g class="cls-2"><g class="cls-33"><g class="cls-2"><path class="cls-34" d="M29.57,5.15,22.73,1.43l.11,0,.54.26,6.84,3.72-.54-.26-.11,0"/><path class="cls-32" d="M30.23,5.46,23.39,1.74l.28.14L30.51,5.6l-.28-.14"/></g></g></g><g class="cls-2"><g class="cls-35"><g class="cls-2"><path class="cls-32" d="M30.51,5.6,23.67,1.88l.1.05L30.6,5.65l-.1-.05"/></g></g></g><g class="cls-2"><g class="cls-36"><g class="cls-2"><path class="cls-37" d="M18.63,4.23,11.79.51l.17,0,.08,0,.08,0,.1,0,.25-.06.28-.06.33-.06.2,0,.18,0,.16,0,.36,0,.16,0h.19l.41,0h2.51l.22,0,.25,0h.07l.17,0H18l.15,0h.09l.2,0h0l.25,0h.06l.19,0,.08,0,.17,0,.08,0,.18,0,.08,0,.25.06h0l.21.05h0L27,4.24h0l-.21-.05h0l-.25-.06-.08,0-.18,0-.08,0-.17,0-.08,0-.19,0H25.6l-.25,0h0l-.2,0H25l-.15,0h-.09l-.17,0h-.07l-.25,0-.22,0H21.58l-.41,0H21l-.16,0-.36,0-.16,0-.18,0-.2,0L19.6,4l-.28.06-.25.06-.1,0-.08,0-.08,0-.17,0"/><path class="cls-34" d="M27,4.24,20.12.52l.07,0,.17,0,.09,0,.18.05.08,0L21,.77l.44.15.14,0,.29.11.16.06.28.11.15.06.3.13,6.84,3.72L29.27,5,29.12,5l-.28-.11-.16-.06-.29-.11-.14,0-.44-.15-.26-.08-.08,0-.18-.05-.09,0-.17,0-.07,0"/></g></g></g><polygon class="cls-8" points="18.5 10.67 11.66 6.95 11.79 0.51 18.63 4.23 18.5 10.67"/><path class="cls-7" d="M34.44,8.43,18.5,10.67l.14-6.44.17,0,.08,0,.08,0,.1,0,.25-.06L19.6,4l.33-.06.2,0,.18,0,.16,0,.36,0,.16,0h.19l.41,0h2.51l.22,0,.25,0h.07l.17,0h.09l.15,0h.09l.2,0h0l.25,0h.06l.19,0,.08,0,.17,0,.08,0,.18,0,.08,0,.25.06h0l.21.05.08,0,.17,0,.09,0,.18.05.08,0,.26.08.44.15.14,0,.29.11.16.06.28.11.15.06.3.13.11,0,.82.4.1.05.31.16.11.06.3.17.09.05.36.22c.29.18.55.36.81.54l0,0,.34.25.05,0,.33.26C33.73,7.77,34.09,8.09,34.44,8.43Z"/></g></g></g></svg>