<svg xmlns="http://www.w3.org/2000/svg" xmlns:xlink="http://www.w3.org/1999/xlink" viewBox="0 0 38.33 58.15"><defs><style>.cls-1{fill:none;}.cls-2{isolation:isolate;}.cls-3{fill:#909090;}.cls-4{fill:#7a7a7a;}.cls-5{fill:#b2b2b2;}.cls-6{fill:#5c5c5c;}.cls-7{fill:#868686;}.cls-8{fill:#4e4e4e;}.cls-9{fill:#6c6c6c;}.cls-10{fill:#595959;}.cls-11{fill:#343434;}.cls-12{fill:#484848;}.cls-13{clip-path:url(#clip-path);}.cls-14{fill:#353535;}.cls-15{fill:#373737;}.cls-16{fill:#393939;}.cls-17{fill:#3b3b3b;}.cls-18{fill:#3d3d3d;}.cls-19{clip-path:url(#clip-path-2);}.cls-20{fill:#626262;}.cls-21{fill:#5f5f5f;}.cls-22{clip-path:url(#clip-path-3);}.cls-23{clip-path:url(#clip-path-4);}.cls-24{clip-path:url(#clip-path-5);}.cls-25{clip-path:url(#clip-path-6);}.cls-26{clip-path:url(#clip-path-7);}.cls-27{clip-path:url(#clip-path-8);}.cls-28{fill:#656565;}.cls-29{fill:#686868;}.cls-30{clip-path:url(#clip-path-9);}.cls-31{fill:#505050;}.cls-32{fill:#535353;}.cls-33{fill:#565656;}.cls-34{clip-path:url(#clip-path-10);}.cls-35{clip-path:url(#clip-path-11);}.cls-36{fill:#6a6a6a;}.cls-37{clip-path:url(#clip-path-12);}</style><clipPath id="clip-path"><path class="cls-1" d="M16.07,32.84,9.23,29.12c0-.08,0-.16,0-.24v-.07q0-.1,0-.19v-.06q0-.12,0-.23v-.05l0-.19V28l0-.22.05-.23v-.06l0-.17v0l.06-.2,0,0,.06-.16,0-.05.08-.19.09-.18,0,0,.07-.14,0,0,.1-.16,0,0,.08-.12,0,0,.1-.13.12-.13,6.84,3.72-.12.13-.1.13,0,0-.08.12,0,0-.1.16,0,0-.07.14,0,0-.09.18-.08.19,0,.05-.06.16,0,0-.06.2v0l0,.17v.06l-.05.23,0,.22v.07l0,.19V32q0,.12,0,.23v.06q0,.09,0,.19v.07C16.07,32.68,16.07,32.76,16.07,32.84Z"/></clipPath><clipPath id="clip-path-2"><path class="cls-1" d="M22.68,5.11,15.84,1.39l.11.06,6.84,3.72Z"/></clipPath><clipPath id="clip-path-3"><polygon class="cls-1" points="15.96 1.45 22.79 5.17 22.79 5.16 15.95 1.44 15.96 1.45"/></clipPath><clipPath id="clip-path-4"><path class="cls-1" d="M22.53,5,15.7,1.32h0l.11.05,6.84,3.72-.11-.05Z"/></clipPath><clipPath id="clip-path-5"><path class="cls-1" d="M22.41,5,15.58,1.27h0l.08,0L22.53,5l-.08,0Z"/></clipPath><clipPath id="clip-path-6"><path class="cls-1" d="M22.3,5,15.46,1.23h0l.08,0L22.41,5l-.08,0Z"/></clipPath><clipPath id="clip-path-7"><path class="cls-1" d="M22.18,4.92,15.35,1.2h0l.09,0L22.3,5l-.09,0Z"/></clipPath><clipPath id="clip-path-8"><path class="cls-1" d="M22,4.88,15.2,1.16h0l.12,0,6.84,3.72-.12,0Z"/></clipPath><clipPath id="clip-path-9"><path class="cls-1" d="M17.42,5.36,10.58,1.64l.11,0,.16,0h0l.16,0h.06l.73-.13.32-.06.12,0h.08l.12,0,.1,0,.18,0h.08l.11,0h.47l.13,0h1.56l.09,0L22,4.88l-.09,0H20.39l-.13,0h-.47l-.11,0H19.6l-.18,0-.1,0L19.2,5h-.08l-.12,0-.32.06L18,5.26h-.06l-.16,0h0l-.16,0Z"/></clipPath><clipPath id="clip-path-10"><path class="cls-1" d="M17.3,5.38,10.46,1.66l.08,0h0l6.84,3.72h0Z"/></clipPath><clipPath id="clip-path-11"><path class="cls-1" d="M15.66,9.4,8.82,5.68c0-.08,0-.16,0-.24V5.37q0-.09,0-.18V5.13c0-.08,0-.16,0-.23l0-.23V4.6l0-.17V4.37l0-.21v0l0-.18V3.89l0-.17L15.9,7.44l0,.17v.06l0,.18v0l0,.21v.06l0,.17v.07l0,.23c0,.08,0,.16,0,.23v.06q0,.09,0,.18v.07C15.66,9.24,15.66,9.32,15.66,9.4Z"/></clipPath><clipPath id="clip-path-12"><path class="cls-1" d="M15.91,7.41,9.07,3.69l.06-.21v0l.05-.16,0,0,.05-.14,0,0,.07-.17.07-.16,0,0,.06-.11,0,0,.08-.13.09-.13,0,0,.07-.09,0,0L9.88,2l0,0L10,1.93l0,0,.07-.06,0,0,.08-.05h0l.1-.05h0l.08,0h0L17.3,5.38h0l-.08,0h0l-.1.05h0L17,5.55l0,0-.07.06,0,0-.09.09,0,0-.08.09,0,0L16.55,6l0,0-.09.13-.08.13,0,0-.06.11,0,0-.07.16-.07.17,0,0L16,7l0,0L16,7.18v0Z"/></clipPath></defs><title>pse</title><g id="Layer_2" data-name="Layer 2"><g id="Layer_1-2" data-name="Layer 1"><g class="cls-2"><polygon points="33.27 12.34 26.43 8.62 30.77 8.01 37.6 11.73 33.27 12.34"/><polygon points="28.64 20.36 21.8 16.64 26.43 8.62 33.27 12.34 28.64 20.36"/><path d="M33.27,12.34l4.34-.61-.1.43,0,.08q-.1.45-.23.9l0,.09q-.12.45-.26.91l0,.08-.14.43v0l-.16.46,0,.07-.15.41,0,.07-.18.46,0,0-.18.42,0,.07-.21.46-.21.45,0,.08q-.22.45-.47.89l0,.08-.24.42-.28.45,0,0-5.88.83Z"/></g><g class="cls-2"><polygon points="10.14 52.42 3.3 48.7 9.2 47.88 16.04 51.6 10.14 52.42"/><polygon points="6.84 58.15 0 54.43 3.3 48.7 10.14 52.42 6.84 58.15"/><path d="M6.84,58.15l3.3-5.73L16,51.6V53a4.38,4.38,0,0,1-.22,1.35,4.33,4.33,0,0,1-3.34,3Z"/></g><g class="cls-2"><polygon class="cls-3" points="14.77 44.4 7.93 40.68 9.21 40.5 16.05 44.22 14.77 44.4"/><polygon class="cls-4" points="14.58 44.73 7.75 41.01 7.93 40.68 14.77 44.4 14.58 44.73"/><polygon class="cls-4" points="10.14 52.42 3.3 48.7 7.75 41.01 14.58 44.73 10.14 52.42"/><polygon class="cls-5" points="14.58 44.73 14.77 44.4 16.05 44.22 16.04 51.6 10.14 52.42 14.58 44.73"/></g><g class="cls-2"><polygon class="cls-6" points="14.77 44.4 7.93 40.68 9.21 38.46 16.05 42.18 14.77 44.4"/><polygon class="cls-7" points="16.05 44.22 14.77 44.4 16.05 42.18 16.05 44.22"/></g><g class="cls-2"><polygon class="cls-8" points="16.05 42.18 9.21 38.46 9.22 33.13 16.06 36.85 16.05 42.18"/><polygon class="cls-9" points="16.06 36.85 9.22 33.13 12.55 32.67 19.39 36.39 16.06 36.85"/><polygon class="cls-7" points="19.39 36.39 17.55 39.59 16.05 42.18 16.06 36.85 19.39 36.39"/></g><g class="cls-2"><polygon class="cls-10" points="21.7 32.38 19.39 36.39 16.06 36.85 16.07 33.17 21.7 32.38"/><polygon class="cls-11" points="16.06 36.85 9.22 33.13 9.23 29.45 16.07 33.17 16.06 36.85"/><polygon class="cls-12" points="16.07 33.17 9.23 29.45 14.87 28.66 21.7 32.38 16.07 33.17"/><polygon class="cls-11" points="16.07 33.17 9.23 29.45 9.23 29.12 16.07 32.84 16.07 33.17"/><polygon class="cls-12" points="17.21 29.34 10.37 25.62 17.18 24.65 24.02 28.37 17.21 29.34"/><g class="cls-2"><g class="cls-13"><g class="cls-2"><path class="cls-14" d="M16.07,32.84,9.23,29.12c0-.08,0-.16,0-.24v-.07q0-.1,0-.19v-.06q0-.12,0-.23v-.05l0-.19V28l0-.22.05-.23v-.06l0-.17v0l.06-.2,0,0,0-.12,6.84,3.72,0,.12,0,0-.06.2v0l0,.17v.06l-.05.23,0,.22v.07l0,.19V32q0,.12,0,.23v.06q0,.09,0,.19v.07c0,.08,0,.16,0,.24"/><path class="cls-15" d="M16.45,30.64,9.61,26.92v0l0-.05.08-.19.09-.18,0,0,0-.09L16.72,30l0,.09,0,0-.09.18-.08.19,0,.05v0"/><path class="cls-16" d="M16.72,30,9.88,26.32l0,0,0,0,.1-.16,0,0,.07-.1,6.84,3.72-.07.1,0,0-.1.16,0,0,0,0"/><path class="cls-17" d="M16.94,29.67l-6.84-3.72,0,0,0,0,.1-.13.05-.06,6.84,3.72-.05.06-.1.13,0,0,0,0"/><path class="cls-18" d="M17.14,29.41,10.3,25.69l.07-.07,6.84,3.72-.07.07"/></g></g></g><path class="cls-10" d="M17.21,29.34l6.81-1-2.31,4-5.63.79v-.33c0-.08,0-.16,0-.24v-.07q0-.1,0-.19v-.06q0-.12,0-.23V32l0-.19v-.07l0-.22.05-.23v-.06l0-.17v0l.06-.2,0,0,.06-.16,0-.05.08-.19.09-.18,0,0,.07-.14,0,0,.1-.16,0,0,.08-.12,0,0,.1-.13Z"/></g><g class="cls-2"><polygon class="cls-3" points="37.89 4.32 31.05 0.6 31.46 0.54 38.3 4.26 37.89 4.32"/><polygon class="cls-4" points="37.87 4.35 31.04 0.63 31.05 0.6 37.89 4.32 37.87 4.35"/><polygon class="cls-4" points="33.27 12.34 26.43 8.62 31.04 0.63 37.87 4.35 33.27 12.34"/><path class="cls-5" d="M38.33,5.13s0,.09,0,.14v0s0,.1,0,.15v0s0,.1,0,.15v1.1c0,.44-.06.92-.12,1.43v.05l0,.19v.09l0,.18v.09l0,.19v.1l0,.18,0,.11,0,.18,0,.12,0,.18,0,.12,0,.18,0,.12,0,.19,0,.11,0,.19,0,.12,0,.19,0,.12,0,.2,0,.11,0,.21-4.34.62,4.61-8v0l.41-.06c0,.15,0,.32,0,.51v.36Z"/></g><g class="cls-2"><polygon class="cls-6" points="37.89 4.32 31.05 0.6 31.4 0 38.24 3.72 37.89 4.32"/><path class="cls-7" d="M38.3,4.26l-.41.06.35-.6v.35h0Q38.3,4.16,38.3,4.26Z"/></g><g class="cls-2"><polygon points="15.64 15.94 8.81 12.22 8.81 11.09 15.65 14.81 15.64 15.94"/><polygon points="15.65 14.81 8.81 11.09 10.57 10.85 17.41 14.56 15.65 14.81"/><polygon points="15.64 15.94 15.65 14.81 17.41 14.56 15.64 15.94"/></g><g class="cls-2"><g class="cls-2"><g class="cls-19"><g class="cls-2"><polyline class="cls-20" points="22.68 5.11 15.84 1.39 15.84 1.39 22.68 5.11 22.68 5.11"/><path class="cls-21" d="M22.68,5.11,15.84,1.39l.1.05,6.84,3.72-.1-.05"/></g></g></g><g class="cls-2"><g class="cls-22"><g class="cls-2"><polyline class="cls-21" points="22.79 5.16 15.95 1.44 15.96 1.45 22.79 5.17 22.79 5.16"/></g></g></g><g class="cls-2"><g class="cls-23"><g class="cls-2"><path class="cls-20" d="M22.53,5,15.7,1.32h0l.11.05,6.84,3.72-.11-.05h0"/></g></g></g><g class="cls-2"><g class="cls-24"><g class="cls-2"><path class="cls-20" d="M22.41,5,15.58,1.27h0l.08,0L22.53,5l-.08,0h0"/></g></g></g><g class="cls-2"><g class="cls-25"><g class="cls-2"><path class="cls-20" d="M22.3,5,15.46,1.23h0l.08,0L22.41,5l-.08,0h0"/></g></g></g><g class="cls-2"><g class="cls-26"><g class="cls-2"><path class="cls-20" d="M22.18,4.92,15.35,1.2h0l.09,0L22.3,5l-.09,0h0"/></g></g></g><g class="cls-2"><g class="cls-27"><g class="cls-2"><path class="cls-28" d="M22,4.88,15.2,1.16h0l.07,0,6.84,3.72-.07,0h0"/><path class="cls-20" d="M22.14,4.91,15.3,1.19h0l6.84,3.72h0"/></g></g></g><polygon class="cls-29" points="15.65 14.81 8.81 11.09 8.82 5.68 15.66 9.4 15.65 14.81"/><polygon class="cls-3" points="15.9 7.44 9.06 3.72 17.24 2.54 24.08 6.26 15.9 7.44"/><g class="cls-2"><g class="cls-30"><g class="cls-2"><polyline class="cls-31" points="17.42 5.36 10.58 1.64 10.58 1.64 17.42 5.36 17.42 5.36"/><polyline class="cls-32" points="17.42 5.36 10.58 1.64 10.58 1.64 17.42 5.36 17.42 5.36"/><polyline class="cls-33" points="17.42 5.36 10.58 1.64 10.58 1.64 17.42 5.36 17.42 5.36"/><polyline class="cls-10" points="17.42 5.36 10.58 1.64 10.58 1.64 17.42 5.36 17.42 5.36"/><polyline class="cls-6" points="17.42 5.36 10.58 1.64 10.58 1.64 17.42 5.36 17.42 5.36"/><polyline class="cls-21" points="17.42 5.36 10.58 1.64 10.58 1.64 17.42 5.36 17.42 5.36"/><polyline class="cls-20" points="17.42 5.36 10.58 1.64 10.58 1.64 17.42 5.36 17.42 5.36"/><path class="cls-28" d="M17.42,5.36,10.58,1.64l.11,0,.16,0h0l.16,0h.06l.73-.13.32-.06.12,0h.08l.12,0,.1,0,.18,0h.08l.11,0h.47l.13,0h1.56l.09,0L22,4.88l-.09,0H20.39l-.13,0h-.47l-.11,0H19.6l-.18,0-.1,0L19.2,5h-.08l-.12,0-.32.06L18,5.26h-.06l-.16,0h0l-.16,0-.11,0"/></g></g></g><g class="cls-2"><g class="cls-34"><g class="cls-2"><path class="cls-28" d="M17.3,5.38,10.46,1.66l.08,0h0l6.84,3.72h0l-.08,0"/></g></g></g><path class="cls-5" d="M24.55,8.88c0,.05,0,.09,0,.12l-7.15,5.57-1.76.25V9.4c0-.08,0-.16,0-.24V9.09q0-.09,0-.18V8.85c0-.08,0-.16,0-.23l0-.23V8.32l0-.17V8.09l0-.21v0l0-.18V7.61l0-.17,8.17-1.17.09.16v0l.08.16v0l.07.17.05.18,0,.2v0l0,.17,0,.19c0,.07,0,.13,0,.19v0c0,.06,0,.11,0,.17s0,.12,0,.17,0,.12,0,.17,0,.12,0,.16,0,0,0,0v.27S24.55,8.85,24.55,8.88Z"/><g class="cls-2"><g class="cls-35"><g class="cls-2"><path class="cls-36" d="M15.66,9.4,8.82,5.68c0-.08,0-.16,0-.24V5.37q0-.09,0-.18V5.13c0-.08,0-.16,0-.23l0-.23V4.6l0-.17V4.37l0-.21v0l0-.18V3.89l0-.17L15.9,7.44l0,.17v.06l0,.18v0l0,.21v.06l0,.17v.07l0,.23c0,.08,0,.16,0,.23v.06q0,.09,0,.18v.07c0,.08,0,.16,0,.24"/></g></g></g><path class="cls-7" d="M17.3,5.38l.08,0h0l.11,0,.16,0h0l.16,0H18l.73-.13L19,5.08l.12,0h.08l.12,0,.1,0,.18,0h.08l.11,0h.47l.13,0H22l.09,0h0l.12,0h0l.09,0h0l.08,0h0l.08,0h0l.11.05.11.06,0,0,.08,0,0,0L23,5.3l0,0,.11.08.12.08,0,0,.09.07,0,0,.09.07,0,0,.12.1.11.1,0,0,.06.07,0,0,.06.07,0,0,.08.11L15.91,7.41,16,7.21v0L16,7l0,0,.05-.14,0,0,.07-.17.07-.16,0,0,.06-.11,0,0,.08-.13L16.52,6l0,0,.07-.09,0,0,.08-.09,0,0,.09-.09,0,0,.07-.06,0,0L17,5.5h0l.1-.05h0l.08,0Z"/><g class="cls-2"><g class="cls-37"><g class="cls-2"><path class="cls-31" d="M15.91,7.41,9.07,3.69l.06-.21v0l.05-.16,0,0,0-.07L16.07,6.9,16,7l0,0L16,7.18v0l-.06.21"/><path class="cls-32" d="M16.07,6.9,9.23,3.18l0-.07,0,0,.07-.17.07-.16,0,0,0-.09,6.84,3.72,0,.09,0,0-.07.16-.07.17,0,0,0,.07"/><path class="cls-33" d="M16.33,6.32,9.49,2.6v0l0,0,.08-.13.08-.12L16.52,6l-.08.12-.08.13,0,0v0"/><path class="cls-10" d="M16.52,6,9.68,2.29h0l0,0,.07-.09,0,0,0,0L16.68,5.8l0,0,0,0L16.55,6l0,0h0"/><path class="cls-6" d="M16.68,5.8,9.84,2.08l0,0,0,0L10,1.93h0l6.84,3.72h0l-.09.09,0,0,0,0"/><path class="cls-21" d="M16.83,5.65,10,1.93l0,0,.07-.06,0,0h0L17,5.54h0l0,0-.07.06,0,0"/><path class="cls-20" d="M17,5.54,10.13,1.82l.06,0h0l.08,0,6.84,3.72-.08,0h0l-.06,0"/><path class="cls-28" d="M17.14,5.44,10.3,1.72h0l.08,0h0L17.3,5.38h0l-.08,0h0"/></g></g></g></g></g></g></svg>