<svg xmlns="http://www.w3.org/2000/svg" xmlns:xlink="http://www.w3.org/1999/xlink" viewBox="0 0 38.73 57"><defs><style>.cls-1{fill:none;}.cls-2{fill:#333;}.cls-3{fill:#666;}.cls-4{fill:#999;}.cls-5{fill:#ccc;}.cls-6{fill:url(#greybars);}</style><pattern id="greybars" data-name="greybars" width="104.75" height="76.71" patternUnits="userSpaceOnUse" viewBox="0 0 104.75 76.71"><rect class="cls-1" width="104.75" height="76.71"/><rect y="57.53" width="104.75" height="7.67"/><rect class="cls-2" y="65.2" width="104.75" height="7.67"/><rect class="cls-3" y="72.87" width="104.75" height="7.67"/><rect y="19.18" width="104.75" height="7.67"/><rect class="cls-2" y="26.85" width="104.75" height="7.67"/><rect class="cls-3" y="34.52" width="104.75" height="7.67"/><rect class="cls-4" y="42.19" width="104.75" height="7.67"/><rect class="cls-5" y="49.86" width="104.75" height="7.67"/><rect class="cls-3" y="-3.84" width="104.75" height="7.67"/><rect class="cls-4" y="3.84" width="104.75" height="7.67"/><rect class="cls-5" y="11.51" width="104.75" height="7.67"/></pattern></defs><title>qse</title><g id="Layer_2" data-name="Layer 2"><g id="Layer_1-2" data-name="Layer 1"><path class="cls-6" d="M15.91,12.77a24.86,24.86,0,0,0-6.08.42C4.37,14.65,0,19.54,0,27.74S3.08,40.93,8.32,43.15c3,1.29,7.59.89,7.59.89"/><path class="cls-6" d="M31.39,50c4.46-4.56,7.34-11.34,7.34-20.32,0-14.76-5.6-23.94-15.11-28A21.16,21.16,0,0,0,13.25.11"/><path class="cls-6" d="M31.39,50"/><path class="cls-6" d="M30.65,50.74"/><path class="cls-6" d="M31.39,50l2.32,3.6c1.19,1.85.37,3.37-1.83,3.37H26"/></g></g></svg>