<svg xmlns="http://www.w3.org/2000/svg" xmlns:xlink="http://www.w3.org/1999/xlink" viewBox="0 0 40.78 56.05"><defs><style>.cls-1{fill:none;}.cls-2{isolation:isolate;}.cls-3{fill:#777;}.cls-4{fill:#909090;}.cls-5{fill:#b2b2b2;}.cls-6{fill:#5a5a5a;}.cls-7{fill:#6c6c6c;}.cls-8{fill:#868686;}.cls-9{fill:#3c3c3c;}.cls-10{fill:#595959;}.cls-11{fill:#6d6d6d;}.cls-12{fill:#525252;}.cls-13{fill:#373737;}.cls-14{fill:#484848;}.cls-15{fill:#1b1b1b;}.cls-16{fill:#242424;}.cls-17{fill:#2d2d2d;}.cls-18{clip-path:url(#clip-path);}.cls-19{fill:#7e7e7e;}.cls-20{clip-path:url(#clip-path-2);}.cls-21{clip-path:url(#clip-path-3);}.cls-22{fill:#838383;}.cls-23{clip-path:url(#clip-path-4);}.cls-24{clip-path:url(#clip-path-5);}.cls-25{clip-path:url(#clip-path-6);}.cls-26{clip-path:url(#clip-path-7);}.cls-27{fill:#878787;}.cls-28{clip-path:url(#clip-path-8);}.cls-29{fill:#686868;}.cls-30{clip-path:url(#clip-path-9);}.cls-31{fill:#6a6a6a;}.cls-32{fill:#6e6e6e;}.cls-33{fill:#727272;}.cls-34{fill:#767676;}.cls-35{fill:#7a7a7a;}.cls-36{clip-path:url(#clip-path-10);}.cls-37{clip-path:url(#clip-path-11);}</style><clipPath id="clip-path"><path class="cls-1" d="M26.21,6.08,19.37,2.36l.09,0L26.3,6.13Z"/></clipPath><clipPath id="clip-path-2"><path class="cls-1" d="M19.48,2.42l6.84,3.72h0L19.46,2.41Z"/></clipPath><clipPath id="clip-path-3"><path class="cls-1" d="M26,6,19.21,2.29h0l.11.05,6.84,3.72L26.08,6Z"/></clipPath><clipPath id="clip-path-4"><path class="cls-1" d="M26.19,6.07,19.35,2.35h0l6.84,3.72Z"/></clipPath><clipPath id="clip-path-5"><path class="cls-1" d="M25.93,6,19.09,2.24h0l.08,0L26,6,26,6Z"/></clipPath><clipPath id="clip-path-6"><path class="cls-1" d="M25.81,5.92,19,2.2h0l.08,0L25.93,6l-.08,0Z"/></clipPath><clipPath id="clip-path-7"><path class="cls-1" d="M25.55,5.85,18.71,2.13h0l.12,0,.12,0,6.84,3.72-.12,0-.12,0Z"/></clipPath><clipPath id="clip-path-8"><path class="cls-1" d="M25.17,5.79,18.33,2.07h.29l.09,0,6.84,3.72-.09,0h-.29Z"/></clipPath><clipPath id="clip-path-9"><path class="cls-1" d="M20.93,6.32,14.09,2.6l.19,0h.12l.1,0,.12,0,.73-.13.32-.06.12,0h.08l.12,0,.1,0,.18,0h.08l.11,0h.47l.13,0h1.27l6.84,3.72H23.9l-.13,0H23.3l-.11,0h-.08l-.18,0-.1,0-.12,0h-.08l-.12,0-.32.06-.73.13-.12,0-.1,0h-.12Z"/></clipPath><clipPath id="clip-path-10"><path class="cls-1" d="M20.83,6.34,14,2.62h.1l6.84,3.72h-.1Z"/></clipPath><clipPath id="clip-path-11"><path class="cls-1" d="M19.17,10.36,12.33,6.65a8.3,8.3,0,0,1,.05-.93v0l0-.13V5.5l0-.14v0l0-.12V5.15l0-.11V5l0-.11V4.8l0-.1,0-.06,0-.1,0-.06,0-.11,0,0,0-.1,0,0,0-.1,0,0,0-.1,0,0,0-.09,0,0,0-.08,0,0,0-.08,0,0,0-.07,0,0,0-.07,0,0,0-.06,0,0,0-.06,0,0,0,0,0,0,0,0,0,0,0,0,0,0,0,0,0,0,0,0,0,0,0,0,0,0,0,0,0,0H14l6.84,3.72h-.09l0,0,0,0,0,0,0,0,0,0,0,0,0,0,0,0,0,0,0,0,0,0,0,0,0,0,0,0,0,0,0,.06,0,0L20,7l0,0,0,.07,0,0,0,.07,0,0,0,.08,0,0,0,.08,0,0,0,.09,0,0,0,.1,0,0,0,.1,0,0,0,.1,0,0,0,.11,0,.06,0,.1,0,.06,0,.1v.06l0,.11v.06l0,.11v.05l0,.12v0l0,.14v.06l0,.13v0A8.3,8.3,0,0,0,19.17,10.36Z"/></clipPath></defs><title>rse</title><g id="Layer_2" data-name="Layer 2"><g id="Layer_1-2" data-name="Layer 1"><g class="cls-2"><polygon points="6.84 56.05 0 52.33 2.94 46.37 9.77 50.09 6.84 56.05"/><polygon points="9.77 50.09 2.94 46.37 12.29 45.05 19.13 48.77 9.77 50.09"/><path d="M6.84,56.05l2.93-6,9.36-1.31v1.71a4.43,4.43,0,0,1-3.57,4.34Z"/><polygon class="cls-3" points="9.77 50.09 2.94 46.37 6.83 38.45 13.67 42.17 9.77 50.09"/><polygon class="cls-4" points="13.67 42.17 6.83 38.45 12.3 37.68 19.14 41.4 13.67 42.17"/><polygon class="cls-5" points="9.77 50.09 13.67 42.17 19.14 41.4 19.13 48.77 9.77 50.09"/></g><g class="cls-2"><polygon class="cls-6" points="13.67 42.17 6.83 38.45 8.88 34.29 15.72 38.01 13.67 42.17"/><polygon class="cls-7" points="17.57 34.26 10.73 30.54 12.32 30.31 19.16 34.03 17.57 34.26"/><polygon class="cls-6" points="15.72 38.01 8.88 34.29 10.73 30.54 17.57 34.26 15.72 38.01"/><polygon class="cls-8" points="15.72 38.01 17.57 34.26 19.16 34.03 19.14 41.4 13.67 42.17 15.72 38.01"/></g><g class="cls-2"><polygon class="cls-9" points="17.57 34.26 10.73 30.54 12.32 27.3 19.16 31.02 17.57 34.26"/><polygon class="cls-10" points="17.57 34.26 19.16 31.02 19.16 34.03 17.57 34.26"/></g><g class="cls-2"><polygon points="28.9 52.95 22.06 49.23 23.2 43.52 30.04 47.24 28.9 52.95"/><polygon points="30.04 47.24 23.2 43.52 32.62 42.2 39.46 45.92 30.04 47.24"/><path d="M40,47.74A3,3,0,0,1,39.29,51l-.25.2-.28.18a3.25,3.25,0,0,1-1.15.38L28.9,53,30,47.24l9.42-1.32Z"/></g><g class="cls-2"><polygon class="cls-11" points="30.04 47.24 23.2 43.52 24.71 35.94 31.55 39.66 30.04 47.24"/><polygon class="cls-4" points="31.55 39.66 24.71 35.94 30.34 35.15 37.18 38.86 31.55 39.66"/><polygon class="cls-5" points="37.18 38.86 39.46 45.92 30.04 47.24 31.55 39.66 37.18 38.86"/></g><g class="cls-2"><polygon class="cls-12" points="31.55 39.66 24.71 35.94 26.14 28.79 32.97 32.51 31.55 39.66"/><polygon class="cls-12" points="32.97 32.51 26.14 28.79 26.22 28.36 33.06 32.08 32.97 32.51"/><polygon class="cls-7" points="33.06 32.08 26.22 28.36 28.06 28.1 34.9 31.82 33.06 32.08"/><polygon class="cls-8" points="36.31 36.18 37.18 38.86 31.55 39.66 32.97 32.51 33.06 32.08 34.9 31.82 36.31 36.18"/></g><g class="cls-2"><polygon class="cls-13" points="33.06 32.08 26.22 28.36 26.98 24.57 33.81 28.29 33.06 32.08"/><polygon class="cls-14" points="33.81 28.29 26.98 24.57 27.39 24.51 34.22 28.23 33.81 28.29"/><path class="cls-10" d="M34.9,31.82l-1.84.26.76-3.79.41-.06a6.72,6.72,0,0,0,0,1q0,.17,0,.34c0,.23.08.47.13.71s.12.48.2.72Z"/></g><g class="cls-2"><polygon class="cls-14" points="34.57 24.5 27.73 20.78 30.36 20.41 37.2 24.13 34.57 24.5"/><polygon class="cls-13" points="33.81 28.29 26.98 24.57 27.73 20.78 34.57 24.5 33.81 28.29"/><path class="cls-10" d="M34.57,24.5l2.63-.37-.23.26-.3.34a7.82,7.82,0,0,1-1.82,1.78l-.13.12-.11.14a3,3,0,0,0-.38,1.47l-.41.06Z"/></g><g class="cls-2"><polygon class="cls-15" points="34.57 24.5 27.73 20.78 28.55 16.69 35.38 20.41 34.57 24.5"/><polygon class="cls-16" points="36.08 16.93 29.24 13.21 33.76 12.57 40.59 16.29 36.08 16.93"/><polygon class="cls-15" points="35.38 20.41 28.55 16.69 29.24 13.21 36.08 16.93 35.38 20.41"/><path class="cls-17" d="M36.08,16.93l4.52-.63q0,.27-.08.54v0q0,.26-.1.51v.07q-.05.25-.11.5v0q-.13.52-.28,1v0l-.16.49,0,0-.18.49c-.13.34-.27.66-.42,1v0l-.23.46v0a13.46,13.46,0,0,1-.8,1.33l-.3.43c-.22.29-.43.56-.66.81l-2.63.37.81-4.09Z"/></g><g class="cls-2"><polygon points="36.08 16.93 29.24 13.21 30.08 8.99 36.92 12.71 36.08 16.93"/><polygon points="36.92 12.71 30.08 8.99 30.75 5.62 37.59 9.34 36.92 12.71"/><polygon points="37.59 9.34 30.75 5.62 33.48 5.24 40.32 8.96 37.59 9.34"/><path d="M40.78,13.19q0,.21,0,.43v.07q0,.17,0,.35v.11q0,.17,0,.34v.08q0,.21,0,.42v0q0,.18,0,.37v.1l0,.33v.08q0,.2-.05.41l-4.52.63.84-4.22.67-3.37L40.32,9V9l.08.42,0,.09.07.39v.05q.07.45.12.9v.08l0,.37v.08q0,.44.07.88v.08q0,.17,0,.35v.1q0,.19,0,.37Z"/></g><g class="cls-2"><polygon class="cls-11" points="37.59 9.34 30.75 5.62 31.87 0 38.71 3.72 37.59 9.34"/><path class="cls-5" d="M40.32,9l-2.73.39,1.12-5.62.24.6,0,.09.22.58,0,.1.2.58,0,.08q.21.62.38,1.24V7l.16.6,0,.07q.07.3.14.59v.07Q40.26,8.65,40.32,9Z"/></g><g class="cls-2"><polygon points="19.16 16.9 12.32 13.18 12.33 8.21 19.16 11.93 19.16 16.9"/><polygon points="19.16 11.93 12.33 8.21 20.1 7.12 26.94 10.84 19.16 11.93"/><polygon points="19.16 16.9 19.16 11.93 26.94 10.84 20.5 15.85 19.16 16.9"/></g><g class="cls-2"><g class="cls-2"><g class="cls-18"><g class="cls-2"><path class="cls-19" d="M26.21,6.08,19.37,2.36l.09,0L26.3,6.13l-.09,0"/></g></g></g><g class="cls-2"><g class="cls-20"><g class="cls-2"><path class="cls-19" d="M26.3,6.13,19.46,2.41h0l6.84,3.72h0"/></g></g></g><g class="cls-2"><g class="cls-21"><g class="cls-2"><path class="cls-22" d="M26,6,19.21,2.29h0l.11.05,6.84,3.72L26.08,6h0"/></g></g></g><g class="cls-2"><g class="cls-23"><g class="cls-2"><polyline class="cls-22" points="26.19 6.07 19.35 2.35 19.35 2.35 26.19 6.07 26.19 6.07"/><path class="cls-19" d="M26.19,6.07,19.35,2.35h0l6.84,3.72h0"/></g></g></g><g class="cls-2"><g class="cls-24"><g class="cls-2"><path class="cls-22" d="M25.93,6,19.09,2.24h0l.08,0L26,6,26,6h0"/></g></g></g><g class="cls-2"><g class="cls-25"><g class="cls-2"><path class="cls-22" d="M25.81,5.92,19,2.2h0l.08,0L25.93,6l-.08,0h0"/></g></g></g><g class="cls-2"><g class="cls-26"><g class="cls-2"><path class="cls-27" d="M25.55,5.85,18.71,2.13h0l.08,0,6.84,3.72-.08,0h0"/><path class="cls-22" d="M25.66,5.87,18.82,2.15h0l.12,0,6.84,3.72-.12,0h0"/></g></g></g><g class="cls-2"><g class="cls-28"><g class="cls-2"><path class="cls-27" d="M25.17,5.79,18.33,2.07h.29l.09,0,6.84,3.72-.09,0h-.29"/></g></g></g><polygon class="cls-29" points="19.16 11.93 12.33 8.21 12.33 6.64 19.17 10.37 19.16 11.93"/><g class="cls-2"><g class="cls-30"><g class="cls-2"><polyline class="cls-31" points="20.93 6.32 14.09 2.6 14.09 2.6 20.93 6.32 20.93 6.32"/><polyline class="cls-32" points="20.93 6.32 14.09 2.6 14.09 2.6 20.93 6.32 20.93 6.32"/><polyline class="cls-33" points="20.93 6.32 14.09 2.6 14.09 2.6 20.93 6.32 20.93 6.32"/><polyline class="cls-34" points="20.93 6.32 14.09 2.6 14.09 2.6 20.93 6.32 20.93 6.32"/><polyline class="cls-35" points="20.93 6.32 14.09 2.6 14.09 2.6 20.93 6.32 20.93 6.32"/><polyline class="cls-19" points="20.93 6.32 14.09 2.6 14.09 2.6 20.93 6.32 20.93 6.32"/><polyline class="cls-22" points="20.93 6.32 14.09 2.6 14.09 2.6 20.93 6.32 20.93 6.32"/><path class="cls-27" d="M20.93,6.32,14.09,2.6l.19,0h.12l.1,0,.12,0,.73-.13.32-.06.12,0h.08l.12,0,.1,0,.18,0h.08l.11,0h.47l.13,0h1.27l6.84,3.72H23.9l-.13,0H23.3l-.11,0h-.08l-.18,0-.1,0-.12,0h-.08l-.12,0-.32.06-.73.13-.12,0-.1,0h-.12l-.19,0"/></g></g></g><g class="cls-2"><g class="cls-36"><g class="cls-2"><path class="cls-27" d="M20.83,6.34,14,2.62h.1l6.84,3.72h-.1"/></g></g></g><path class="cls-5" d="M20.83,6.34h.1l.19,0h.12l.1,0,.12,0,.73-.13L22.51,6l.12,0h.08l.12,0,.1,0,.18,0h.08l.11,0h.47l.13,0h1.56l.09,0h0l.12,0,.12,0h0l.08,0h0L26,6h0l.11.05h0l.09,0,0,0,.08,0,0,0,.08,0,0,0,.11.08.11.08,0,0,.08.06,0,0,.09.07,0,0,.12.1a2.24,2.24,0,0,1,.62.9,3.51,3.51,0,0,1,.18.69c0,.15,0,.31.05.45,0,.48,0,.91,0,1.16l-1.12.88-7.78,1.09V10.36a8.3,8.3,0,0,1,.05-.93v0l0-.13V9.22l0-.14V9l0-.12V8.87l0-.11V8.69l0-.11V8.52l0-.1,0-.06,0-.1,0-.06,0-.11,0,0,0-.1,0,0,0-.1,0,0,0-.1,0,0,0-.09,0,0,0-.08,0,0,0-.08,0,0,0-.07,0,0L20,7l0,0,0-.06,0,0,0-.06,0,0,0,0,0,0,0,0,0,0,0,0,0,0,0,0,0,0,0,0,0,0,0,0,0,0,0,0,0,0h.09Z"/><g class="cls-2"><g class="cls-37"><g class="cls-2"><path class="cls-31" d="M19.17,10.36,12.33,6.65a8.3,8.3,0,0,1,.05-.93v0l0-.13V5.5l0-.14v0l0-.12V5.15l0-.11V5l0-.11V4.8l0-.1,0-.06,0-.1,0-.06,0-.11,0,0,0-.1,0,0v0l6.84,3.72v0l0,0,0,.1,0,0,0,.11,0,.06,0,.1,0,.06,0,.1v.06l0,.11v.06l0,.11v.05l0,.12v0l0,.14v.06l0,.13v0a8.3,8.3,0,0,0-.05.93"/><path class="cls-32" d="M19.58,7.87,12.74,4.15l0-.08,0,0,0-.1,0,0,0-.09,0,0,0-.08,0,0v0l6.84,3.72v0l0,0,0,.08,0,0,0,.09,0,0,0,.1,0,0,0,.08"/><path class="cls-33" d="M19.82,7.31,13,3.59l0,0,0,0,0-.07,0,0,0-.07,0,0h0L20,7h0l0,0,0,.07,0,0,0,.07,0,0,0,0"/><path class="cls-34" d="M20,7,13.18,3.26l0,0,0,0,0-.06,0,0,0,0,6.84,3.72,0,0,0,0,0,.06,0,0,0,0"/><path class="cls-35" d="M20.18,6.78,13.34,3.06l0,0,0,0,0,0,0,0h0l6.84,3.72h0l0,0,0,0,0,0,0,0"/><path class="cls-19" d="M20.33,6.62,13.49,2.91l0,0,0,0,0,0,0,0h0L20.48,6.5h0l0,0,0,0,0,0,0,0"/><path class="cls-22" d="M20.48,6.5,13.65,2.78l0,0,0,0,0,0,0,0L20.65,6.4l0,0,0,0,0,0,0,0"/><path class="cls-27" d="M20.65,6.4,13.81,2.68h0l0,0,0,0H14l6.84,3.72h-.09l0,0,0,0h0"/></g></g></g></g></g></g></svg>