<svg xmlns="http://www.w3.org/2000/svg" xmlns:xlink="http://www.w3.org/1999/xlink" viewBox="0 0 36.16 60.18"><defs><style>.cls-1{fill:none;}.cls-2{isolation:isolate;}.cls-3{fill:#242424;}.cls-4{fill:#1a1a1a;}.cls-5{fill:#2d2d2d;}.cls-6{fill:#909090;}.cls-7{fill:#636363;}.cls-8{fill:#868686;}.cls-9{fill:#848484;}.cls-10{fill:#b2b2b2;}.cls-11{clip-path:url(#clip-path);}.cls-12{fill:#878787;}.cls-13{clip-path:url(#clip-path-2);}.cls-14{clip-path:url(#clip-path-3);}.cls-15{fill:#838383;}.cls-16{fill:#686868;}.cls-17{clip-path:url(#clip-path-4);}.cls-18{fill:#1b1b1b;}.cls-19{clip-path:url(#clip-path-5);}.cls-20{fill:#767676;}.cls-21{fill:#7a7a7a;}.cls-22{fill:#7e7e7e;}.cls-23{clip-path:url(#clip-path-6);}.cls-24{fill:#6e6e6e;}.cls-25{fill:#727272;}.cls-26{clip-path:url(#clip-path-7);}.cls-27{clip-path:url(#clip-path-8);}.cls-28{fill:#6c6c6c;}.cls-29{clip-path:url(#clip-path-9);}.cls-30{fill:#595959;}.cls-31{fill:#666;}.cls-32{fill:#4e4e4e;}.cls-33{fill:#444;}.cls-34{fill:#343434;}.cls-35{clip-path:url(#clip-path-10);}.cls-36{fill:#505050;}.cls-37{clip-path:url(#clip-path-11);}.cls-38{clip-path:url(#clip-path-12);}.cls-39{clip-path:url(#clip-path-13);}.cls-40{clip-path:url(#clip-path-14);}.cls-41{clip-path:url(#clip-path-15);}.cls-42{clip-path:url(#clip-path-16);}.cls-43{clip-path:url(#clip-path-17);}.cls-44{fill:#353535;}.cls-45{clip-path:url(#clip-path-18);}.cls-46{clip-path:url(#clip-path-19);}.cls-47{clip-path:url(#clip-path-20);}.cls-48{fill:#393939;}.cls-49{clip-path:url(#clip-path-21);}.cls-50{clip-path:url(#clip-path-22);}.cls-51{fill:#3b3b3b;}</style><clipPath id="clip-path"><path class="cls-1" d="M26.59,11.72,19.75,8l.39.07.54.12,6.84,3.72L27,11.79Z"/></clipPath><clipPath id="clip-path-2"><path class="cls-1" d="M21,11.55,14.13,7.83l.18,0,.37,0,.39,0,.4,0h1.28l.66,0,1.09.09c.43,0,.85.1,1.25.17l6.84,3.72c-.4-.07-.82-.13-1.25-.17l-1.09-.09-.66,0H22.31l-.4,0-.39,0-.37,0Z"/></clipPath><clipPath id="clip-path-3"><path class="cls-1" d="M15.72,13.33,8.88,9.61a10.84,10.84,0,0,1,2.87-1.37,6.86,6.86,0,0,1,1-.22l6.84,3.72a6.86,6.86,0,0,0-1,.22A10.84,10.84,0,0,0,15.72,13.33Z"/></clipPath><clipPath id="clip-path-4"><path class="cls-1" d="M13.5,27,6.66,23.25,5.88,21.5l-.05-.12v0c-.05-.13-.1-.29-.15-.45l6.84,3.72c0,.17.1.32.15.45v0l.05.12Z"/></clipPath><clipPath id="clip-path-5"><path class="cls-1" d="M13.94,14.91,7.11,11.19,7.27,11a8.09,8.09,0,0,1,1.6-1.37l6.84,3.72a8.09,8.09,0,0,0-1.6,1.37Z"/></clipPath><clipPath id="clip-path-6"><path class="cls-1" d="M12.66,17.23,5.83,13.51c.09-.21.18-.43.28-.63l.15-.3v0l.15-.28L6.57,12h0l.15-.25,0,0,.15-.23,0,0,.17-.22,6.84,3.72-.17.22,0,0-.15.23,0,0-.15.25h0l-.16.28-.15.28v0l-.15.3C12.84,16.8,12.75,17,12.66,17.23Z"/></clipPath><clipPath id="clip-path-7"><path class="cls-1" d="M23.48,50.34l-6.84-3.72.06,0,.19-.16.16-.14,0,0,.15-.14.19-.18,0,0,.15-.15,0,0,.18-.18,0,0,.16-.17,0,0,.19-.2,0,0,.17-.18,0,0,.2-.22.21-.23.05-.06.2-.23.21-.25.07-.08.17-.2,0,0,.21-.24.08-.09.16-.19.06-.07.21-.25.07-.09.15-.18.08-.1.2-.24.08-.1.15-.18.09-.11.14-.17.15-.19.14-.18.09-.11.13-.17.08-.1,6.84,3.72-.08.1-.13.17-.09.11-.14.18-.15.19-.14.17-.09.11-.15.18-.08.1-.2.24-.08.1-.15.18-.07.09L27,46.6l-.06.07-.16.19-.08.09-.21.24,0,0-.17.2-.07.08-.21.25-.2.23-.05.06-.21.23-.2.22,0,0-.17.18,0,0-.19.2,0,0-.16.17,0,0-.18.18,0,0-.15.15,0,0-.19.18-.15.14,0,0-.16.14-.19.16Z"/></clipPath><clipPath id="clip-path-8"><path class="cls-1" d="M19,53.17,12.2,49.45l.06,0,.21-.12.11-.06.31-.17L13,49l.21-.12.12-.07.21-.12.1-.06.26-.16.33-.2.08,0,.21-.13.09-.06.22-.14.06,0,.27-.18.26-.17.08-.06.18-.12.07-.05.2-.14,0,0,.23-.17.06,0,.16-.12.07-.05.15-.12,6.84,3.72-.15.12-.07.05-.16.12-.06,0-.23.17,0,0-.2.14-.07.05-.18.12-.08.06-.26.17-.27.18-.06,0-.22.14-.09.06-.21.13-.08,0-.33.2-.26.16-.1.06-.21.12-.12.07-.21.12-.1.06-.31.17L19.3,53l-.21.12Z"/></clipPath><clipPath id="clip-path-9"><path class="cls-1" d="M28.81,44.42,22,40.7l.4-.51.05-.07.18-.23.05-.07.18-.23.05-.07.19-.24,0,0,.83-1.08,0,0,.2-.26.22-.29.2-.27,0-.06,1-1.31,0,0,.18-.24c.92-1.25,1.72-2.35,2.32-3.19L35,36.19c-.6.84-1.4,1.95-2.32,3.19l-.18.24,0,0-1,1.31,0,.06-.2.27-.22.29-.2.26,0,0L29.94,43l0,0-.19.24-.05.07-.18.23-.05.07-.18.23-.05.07Z"/></clipPath><clipPath id="clip-path-10"><path class="cls-1" d="M13.65,41.5,6.81,37.78l-.1-.06,6.84,3.72Z"/></clipPath><clipPath id="clip-path-11"><path class="cls-1" d="M13.54,41.45,6.7,37.73l-.09-.05,6.84,3.72Z"/></clipPath><clipPath id="clip-path-12"><path class="cls-1" d="M13.45,41.39,6.61,37.67l-.21-.13,6.84,3.72Z"/></clipPath><clipPath id="clip-path-13"><path class="cls-1" d="M13.24,41.26,6.4,37.55l-.09-.06-.2-.13,6.84,3.72.2.13Z"/></clipPath><clipPath id="clip-path-14"><path class="cls-1" d="M12.95,41.08,6.11,37.36,6,37.3l-.2-.14-.07-.05-.2-.15-.06,0-.2-.17,0,0L5,36.5l6.84,3.72.22.2,0,0,.2.17.06,0,.2.15.07.05.2.14Z"/></clipPath><clipPath id="clip-path-15"><path class="cls-1" d="M11.87,40.21,5,36.5l0,0,6.84,3.72Z"/></clipPath><clipPath id="clip-path-16"><path class="cls-1" d="M11.86,40.2,5,36.48c-.23-.22-.44-.44-.64-.67l6.84,3.72C11.41,39.76,11.63,40,11.86,40.2Z"/></clipPath><clipPath id="clip-path-17"><path class="cls-1" d="M11.21,39.53,4.38,35.81c-.2-.23-.39-.46-.56-.69l6.84,3.72C10.83,39.07,11,39.3,11.21,39.53Z"/></clipPath><clipPath id="clip-path-18"><path class="cls-1" d="M10.66,38.85,3.82,35.13v0l-.15-.2,0,0-.13-.18,0,0-.12-.17,0-.05-.11-.17,0,0L3.07,34l0,0-.11-.18v0l-.3-.49v0l-.08-.14,0-.06L2.41,33l0-.05-.07-.11,0-.05-.07-.1,0,0L9,36.34l0,0,.07.1,0,.05.07.11,0,.05.07.12,0,.06.08.14v0l.3.49v0l.11.18,0,0,.11.17,0,0,.11.17,0,.05.12.17,0,0,.13.18,0,0,.15.2Z"/></clipPath><clipPath id="clip-path-19"><path class="cls-1" d="M9,36.34,2.18,32.62l-.09-.13,6.84,3.72Z"/></clipPath><clipPath id="clip-path-20"><path class="cls-1" d="M36.13,34.54,29.3,30.82v0l6.84,3.72Z"/></clipPath><clipPath id="clip-path-21"><path class="cls-1" d="M36.1,34.59l-6.84-3.72,0,0,6.84,3.72Z"/></clipPath><clipPath id="clip-path-22"><path class="cls-1" d="M35,36.19l-6.84-3.72,1-1.4,0,0,.11-.16v0l6.84,3.72v0l-.11.16,0,0Z"/></clipPath></defs><title>sse</title><g id="Layer_2" data-name="Layer 2"><g id="Layer_1-2" data-name="Layer 1"><g class="cls-2"><polygon class="cls-3" points="15.7 24.17 8.86 20.45 9.33 20.39 16.16 24.11 15.7 24.17"/><polygon class="cls-4" points="15.7 24.61 8.86 20.89 8.86 20.45 15.7 24.17 15.7 24.61"/><polygon class="cls-5" points="15.7 24.17 16.16 24.11 15.7 24.61 15.7 24.17"/></g><g class="cls-2"><polygon class="cls-6" points="31.96 7.15 25.12 3.43 28.04 3.02 34.88 6.74 31.96 7.15"/><polygon class="cls-7" points="32.68 6.38 25.84 2.66 28.32 0 35.15 3.72 32.68 6.38"/><polygon class="cls-7" points="31.96 7.15 25.12 3.43 25.84 2.66 32.68 6.38 31.96 7.15"/><path class="cls-8" d="M32.68,6.38l2.48-2.66s0,.27,0,.71h0v.85h0v.15l0,.34v.35c0,.19,0,.39-.07.6L32,7.15Z"/><polygon class="cls-9" points="27.52 11.91 20.68 8.19 25.12 3.43 31.96 7.15 27.52 11.91"/><path class="cls-10" d="M33.17,12.63l0,0-.09.07-.06,0-.08,0-.1,0-.1,0H31.46l-.19,0h-.68l-.35-.07h-.08l-.08,0H30l-.07,0H29.8l-.42-.1-.06,0h0l-.07,0h-.09l-.15,0h0l-.15,0-.12,0-.15,0h-.06l-.29-.08-.14,0-.13,0h-.08l-.33-.09L32,7.15l2.92-.41c0,.29-.07.58-.12.88l0,.23c0,.24-.07.47-.11.69l0,.22v0l0,.18V9l0,.18v0l0,.18v0l-.1.43v0l0,.18v.05l0,.15,0,.06,0,.13,0,.07,0,.13,0,.06,0,.15v0L34,11.1v0l-.05.15,0,.05,0,.11,0,.06,0,.11,0,.06,0,.1,0,.06,0,.1,0,0-.07.13-.07.13,0,0-.05.08,0,0,0,.07,0,0-.05.06,0,0Z"/></g><g class="cls-2"><polygon points="15.7 24.17 8.86 20.45 8.87 13.08 15.71 16.8 15.7 24.17"/><polygon points="15.71 16.8 8.87 13.08 17.23 11.9 24.07 15.63 15.71 16.8"/><polygon points="17.27 22.92 16.16 24.11 15.7 24.17 15.71 16.8 24.07 15.63 17.27 22.92"/></g><g class="cls-2"><g class="cls-2"><g class="cls-11"><g class="cls-2"><path class="cls-12" d="M26.59,11.72,19.75,8l.39.07.54.12,6.84,3.72L27,11.79l-.39-.07"/></g></g></g><g class="cls-2"><g class="cls-13"><g class="cls-2"><path class="cls-12" d="M21,11.55,14.13,7.83l.18,0,.37,0,.39,0,.4,0h1.28l.66,0,1.09.09c.43,0,.85.1,1.25.17l6.84,3.72c-.4-.07-.82-.13-1.25-.17l-1.09-.09-.66,0H22.31l-.4,0-.39,0-.37,0-.18,0"/></g></g></g><polygon class="cls-6" points="19.56 11.74 12.72 8.03 14.13 7.83 20.97 11.55 19.56 11.74"/><g class="cls-2"><g class="cls-14"><g class="cls-2"><path class="cls-15" d="M15.72,13.33,8.88,9.61a11.29,11.29,0,0,1,1.46-.82l6.84,3.72a11.29,11.29,0,0,0-1.46.82"/><path class="cls-12" d="M17.17,12.51,10.34,8.79a9.92,9.92,0,0,1,1.41-.54,6.86,6.86,0,0,1,1-.22l6.84,3.72a6.86,6.86,0,0,0-1,.22,9.92,9.92,0,0,0-1.41.54"/></g></g></g><polygon class="cls-16" points="15.71 16.8 8.87 13.08 8.88 9.61 15.72 13.33 15.71 16.8"/><path class="cls-10" d="M26.59,11.72l.39.07.54.12-3.46,3.71L15.71,16.8V13.33A10.84,10.84,0,0,1,18.58,12a6.86,6.86,0,0,1,1-.22l1.41-.2.18,0,.37,0,.39,0,.4,0h1.28l.66,0,1.09.09C25.78,11.59,26.2,11.65,26.59,11.72Z"/></g><g class="cls-2"><polygon class="cls-3" points="12.51 24.63 5.67 20.91 8.86 20.45 15.7 24.17 12.51 24.63"/><g class="cls-2"><g class="cls-17"><g class="cls-2"><path class="cls-18" d="M13.5,27,6.66,23.25,5.88,21.5l-.05-.12v0c-.05-.13-.1-.29-.15-.45l6.84,3.72c0,.17.1.32.15.45v0l.05.12L13.5,27"/></g></g></g><path class="cls-5" d="M12.51,24.62l3.19-.45v.44L13.5,27l-.77-1.75-.05-.12v0C12.61,24.94,12.56,24.79,12.51,24.62Z"/></g><g class="cls-2"><polygon points="12.66 17.23 5.83 13.51 8.87 13.08 15.71 16.8 12.66 17.23"/><path d="M12.51,24.62,5.67,20.9l-.06-.21c0-.14-.08-.29-.11-.44v0l0-.23,0-.24v0l0-.22v-.06l0-.22v0l0-.2v0l0-.22v-.07l0-.22v0l0-.2v-.07l0-.21v-.08l0-.21v-.3q0-.11,0-.22v0c0-.08,0-.15,0-.23s0-.11,0-.17v-.05s0-.08,0-.12V16l0-.13v-.05l0-.16v0q0-.2.08-.41L5.32,15v0l0-.17v0l.05-.18v0l.06-.19v0c.09-.29.2-.58.31-.86l6.84,3.72c-.11.28-.22.57-.31.86v0l-.06.19v0l-.05.18v0l0,.17v0l-.05.21q0,.21-.08.41v0l0,.16v.05l0,.13v.43s0,.08,0,.12v.05c0,.06,0,.11,0,.17s0,.15,0,.23v0q0,.11,0,.22v.3l0,.21v.08l0,.21v.07l0,.2v0l0,.22v.07l0,.22v0l0,.2v0l0,.22v.06l0,.22v0l0,.24,0,.23v0c0,.15.07.3.11.44Z"/><path d="M12.66,17.23l3-.43v7.37l-3.19.45-.06-.21c0-.14-.08-.29-.11-.44v0l0-.23,0-.24v0l0-.22v-.06l0-.22v0l0-.2v0l0-.22v-.07l0-.22v0l0-.2v-.07l0-.21v-.08l0-.21V21q0-.11,0-.22v0c0-.08,0-.15,0-.23s0-.11,0-.17V20.3s0-.08,0-.12v-.43l0-.13v-.05l0-.16v0q0-.2.08-.41l.05-.21v0l0-.17v0l.05-.18v0l.06-.19v0C12.44,17.8,12.55,17.51,12.66,17.23Z"/></g><g class="cls-2"><g class="cls-2"><g class="cls-19"><g class="cls-2"><path class="cls-20" d="M13.94,14.91,7.11,11.19,7.27,11l0,0,6.84,3.72,0,0-.17.21"/><path class="cls-21" d="M14.15,14.66,7.31,10.94a6.55,6.55,0,0,1,.53-.53l6.84,3.72a6.55,6.55,0,0,0-.53.53"/><path class="cls-22" d="M14.68,14.13,7.84,10.41a9.1,9.1,0,0,1,.91-.71l6.84,3.72a9.1,9.1,0,0,0-.91.71"/><path class="cls-15" d="M15.59,13.42,8.75,9.7l.13-.09,6.84,3.72-.13.09"/></g></g></g><g class="cls-2"><g class="cls-23"><g class="cls-2"><path class="cls-24" d="M12.66,17.23,5.83,13.51c.09-.21.18-.43.28-.63l.15-.3v0l.11-.21,6.84,3.72-.11.21v0l-.15.3c-.1.21-.19.42-.28.63"/><path class="cls-25" d="M13.21,16.05,6.37,12.33l0-.07L6.57,12h0l.15-.25,0,0,.15-.23h0l6.84,3.72h0l-.15.23,0,0-.15.25h0l-.16.28,0,.07"/><path class="cls-20" d="M13.75,15.17,6.92,11.45l0,0,.17-.22,6.84,3.72-.17.22,0,0"/></g></g></g><path class="cls-10" d="M13.94,14.91l.17-.21a8.09,8.09,0,0,1,1.6-1.37V16.8l-3,.43c.09-.21.18-.43.28-.63l.15-.3v0l.15-.28.16-.28h0l.15-.25,0,0,.15-.23,0,0Z"/></g><g class="cls-2"><polygon class="cls-6" points="28.81 44.42 21.98 40.7 28.49 39.79 35.33 43.51 28.81 44.42"/><polygon points="19.04 53.17 12.2 49.45 25.11 47.64 31.95 51.36 19.04 53.17"/><g class="cls-2"><g class="cls-26"><g class="cls-2"><path class="cls-22" d="M23.48,50.34l-6.84-3.72.06,0,.19-.16.16-.14,0,0h0l6.84,3.72h0l0,0-.16.14-.19.16-.06,0"/><path class="cls-21" d="M23.95,49.95l-6.84-3.72.15-.14.19-.18,0,0,.15-.15,0,0,.18-.18,0,0,.16-.17,0,0,.19-.2,0,0,.17-.18,0,0,.2-.22.21-.23.05-.06.15-.17L26,47.82l-.15.17-.05.06-.21.23-.2.22,0,0-.17.18,0,0-.19.2,0,0-.16.17,0,0-.18.18,0,0-.15.15,0,0-.19.18-.15.14"/><path class="cls-20" d="M26,47.82,19.16,44.1l0-.05.21-.25.07-.08.17-.2,0,0,.21-.24.08-.09.16-.19.06-.07.21-.25.07-.09.15-.18.08-.1.2-.24.08-.1.15-.18.09-.11.14-.17.15-.19.14-.18.09-.11.13-.17.08-.1,6.84,3.72-.08.1-.13.17-.09.11-.14.18-.15.19-.14.17-.09.11-.15.18-.08.1-.2.24-.08.1-.15.18-.07.09L27,46.6l-.06.07-.16.19-.08.09-.21.24,0,0-.17.2-.07.08-.21.25,0,.05"/></g></g></g><path class="cls-10" d="M23.48,50.34l.06,0,.19-.16L23.9,50l0,0,.15-.14.19-.18,0,0,.15-.15,0,0,.18-.18,0,0L24.9,49l0,0,.19-.2,0,0,.17-.18,0,0,.2-.22.21-.23.05-.06.2-.23.21-.25.07-.08.17-.2,0,0,.21-.24.08-.09.16-.19L27,46.6l.21-.25.07-.09.15-.18.08-.1.2-.24.08-.1.15-.18.09-.11.14-.17.15-.19.14-.18.09-.11.13-.17.08-.1,6.52-.92a24.06,24.06,0,0,1-2,5.57c-.17.32-.33.63-.51.93s-.37.61-.55.9l-.3.44L19,53.17l.06,0L19.3,53l.11-.06.31-.17.1-.06.21-.12.12-.07.21-.12.1-.06.26-.16.33-.2.08,0,.21-.13.09-.06.22-.14.06,0,.27-.18.26-.17.08-.06.18-.12.07-.05.2-.14,0,0,.23-.17.06,0,.16-.12.07-.05Z"/><g class="cls-2"><g class="cls-27"><g class="cls-2"><path class="cls-15" d="M19,53.17,12.2,49.45l.06,0,.21-.12.11-.06.31-.17L13,49l.21-.12.12-.07.21-.12.1-.06.26-.16.33-.2.08,0,.21-.13.09-.06.22-.14.06,0,.27-.18.26-.17.08-.06.17-.11,6.84,3.72-.17.11-.08.06-.26.17-.27.18-.06,0-.22.14-.09.06-.21.13-.08,0-.33.2-.26.16-.1.06-.21.12-.12.07-.21.12-.1.06-.31.17L19.3,53l-.21.12-.06,0"/><polyline class="cls-22" points="22.49 51.08 15.66 47.36 15.66 47.35 22.5 51.08 22.49 51.08"/><path class="cls-15" d="M22.5,51.07l-6.84-3.72h0l6.84,3.72h0"/><path class="cls-22" d="M22.52,51.06l-6.84-3.72.06,0,.2-.14,0,0,.23-.17.06,0,.16-.12.07-.05.15-.12,6.84,3.72-.15.12-.07.05-.16.12-.06,0-.23.17,0,0-.2.14-.06,0"/></g></g></g><path d="M15.64,54.93,8.8,51.21l.06,0L9.17,51,9.3,51l.29-.14.1,0,.35-.18.14-.07.24-.12.14-.07.34-.18.12-.06.26-.14.12-.06.34-.18.12-.06.26-.14.07,0L19,53.17l-.07,0-.26.14-.12.06-.34.18-.12.06-.26.14-.12.06L17.4,54l-.14.07-.24.12-.14.07-.35.18-.1,0-.29.14-.13.06-.31.15Z"/><polygon points="15.63 60.15 8.79 56.43 8.8 51.21 15.64 54.93 15.63 60.15"/><path d="M27.65,55.85l-.11.09-.33.25-.34.24-.1.07-.24.16-.12.08-.24.15-.11.07-.31.19-.37.22-.1.06-.24.14-.12.07-.23.12-.11.06-.3.15,0,0-.35.17-.09,0-.26.12-.11.05-.24.11-.1,0-.29.12-.06,0-.35.13-.06,0-.28.1-.1,0-.25.09-.1,0-.3.1h0l-.36.11-.34.1-.09,0-.26.07-.08,0-.3.07h0l-.69.15h-.06l-.29.06h-.06l-.32.06-.68.1-.44.06-.16,0-.35,0h-.12l-.43,0h-.15l-.37,0h-.07V54.93l.06,0,.31-.15.13-.06.29-.14.1,0,.35-.18.14-.07.24-.12L17.4,54l.34-.18.12-.06.26-.14.12-.06.34-.18.12-.06.26-.14.07,0,12.91-1.81q-.35.51-.74,1l-.25.31,0,.06-.21.25-.06.07-.2.23-.07.07-.21.23-.06.06-.25.26,0,0-.59.57-.08.07-.22.2-.11.09-.2.18-.12.1-.19.16-.12.1-.2.16-.12.1Z"/></g><g class="cls-2"><polygon class="cls-28" points="34.96 36.2 28.13 32.48 29.32 32.31 36.16 36.03 34.96 36.2"/><g class="cls-2"><g class="cls-29"><g class="cls-2"><path class="cls-30" d="M28.81,44.42,22,40.7l.4-.51.05-.07.18-.23.05-.07.18-.23.05-.07.19-.24,0,0,.83-1.08,0,0,.2-.26.22-.29.2-.27,0-.06,1-1.31,0,0,.18-.24c.92-1.25,1.72-2.35,2.32-3.19L35,36.19c-.6.84-1.4,1.95-2.32,3.19l-.18.24,0,0-1,1.31,0,.06-.2.27-.22.29-.2.26,0,0L29.94,43l0,0-.19.24-.05.07-.18.23-.05.07-.18.23-.05.07-.4.51"/></g></g></g><path class="cls-8" d="M35,36.19l1.2-.17c0,.82,0,1.62-.09,2.42a31.82,31.82,0,0,1-.74,5.06l-6.52.92.4-.51.05-.07.18-.23.05-.07.18-.23.05-.07.19-.24,0,0,.83-1.08,0,0,.2-.26.22-.29.2-.27,0-.06,1-1.31,0,0,.18-.24C33.56,38.14,34.36,37,35,36.19Z"/></g><g class="cls-2"><polygon class="cls-31" points="18.51 38.51 11.68 34.79 19.81 36.73 26.64 40.45 18.51 38.51"/><polygon class="cls-28" points="15.67 38.91 8.83 35.19 11.68 34.79 18.51 38.51 15.67 38.91"/><polygon class="cls-32" points="15.66 42.3 8.82 38.58 8.83 35.19 15.67 38.91 15.66 42.3"/><path class="cls-8" d="M16.36,42.45h-.07l-.23,0-.39-.09V38.91l2.84-.4,8.13,1.94-.08,0-.05,0,0,0,0,0-.22.1,0,0-.07,0-.05,0-.11,0-.06,0-.08,0-.06,0-.1,0h0l-.14.06-.06,0-.09,0-.07,0-.11,0,0,0-.16.06,0,0-.13,0-.06,0-.17.06-.17.06-.08,0-.13,0-.06,0-.18.06-.06,0-.14,0-.08,0-.13,0-.07,0-.19.06-.07,0-.14,0-.08,0-.15,0-.06,0-.2.06-.07,0-.16,0-.07,0-.22.05-.23.05-.08,0-.16,0h-.07l-.23,0h0l-.19,0h-.07l-.18,0h-.05l-.24,0h0l-.19,0h-.07l-.16,0h-.07l-.23,0h0l-.21,0H17.31l-.19,0h0l-.24,0h-.06l-.18,0h-.08Z"/></g><g class="cls-2"><polygon class="cls-33" points="15.67 37.83 8.83 34.11 11.68 34.79 18.51 38.51 15.67 37.83"/><polygon class="cls-34" points="15.67 38.91 8.83 35.19 8.83 34.11 15.67 37.83 15.67 38.91"/><polygon class="cls-30" points="15.67 37.83 18.51 38.51 15.67 38.91 15.67 37.83"/></g><g class="cls-2"><g class="cls-2"><g class="cls-35"><g class="cls-2"><path class="cls-36" d="M13.65,41.5,6.81,37.78l-.1-.06,6.84,3.72.1.06"/></g></g></g><g class="cls-2"><g class="cls-37"><g class="cls-2"><path class="cls-36" d="M13.54,41.45,6.7,37.73l-.09-.05,6.84,3.72.09.05"/></g></g></g><g class="cls-2"><g class="cls-38"><g class="cls-2"><path class="cls-36" d="M13.45,41.39,6.61,37.67l-.21-.13,6.84,3.72.21.13"/></g></g></g><g class="cls-2"><g class="cls-39"><g class="cls-2"><path class="cls-36" d="M13.24,41.26,6.4,37.55l-.09-.06-.2-.13,6.84,3.72.2.13.09.06"/></g></g></g><g class="cls-2"><g class="cls-40"><g class="cls-2"><path class="cls-36" d="M12.95,41.08,6.11,37.36,6,37.3l-.2-.14-.07-.05-.2-.15-.06,0-.2-.17,0,0L5,36.5l6.84,3.72.22.2,0,0,.2.17.06,0,.2.15.07.05.2.14.08.06"/></g></g></g><g class="cls-2"><g class="cls-41"><g class="cls-2"><path class="cls-36" d="M11.87,40.21,5,36.5l0,0,6.84,3.72,0,0"/></g></g></g><polygon class="cls-28" points="11.21 39.53 4.38 35.81 8.83 35.19 15.67 38.91 11.21 39.53"/><g class="cls-2"><g class="cls-42"><g class="cls-2"><path class="cls-36" d="M11.86,40.2,5,36.48c-.23-.22-.44-.44-.64-.67l6.84,3.72c.2.23.41.45.64.67"/></g></g></g><path class="cls-8" d="M11.86,40.2c-.23-.22-.44-.44-.64-.67l4.45-.63V42.3l-.4-.11-.37-.12-.07,0-.29-.11-.09,0-.25-.11-.1,0-.23-.11-.1-.05-.22-.12-.09-.05-.21-.13-.09-.06-.2-.13L12.86,41l-.2-.14-.07-.05-.2-.15-.06,0-.2-.17,0,0-.22-.2Z"/><g class="cls-2"><g class="cls-43"><g class="cls-2"><path class="cls-44" d="M11.21,39.53,4.38,35.81c-.2-.23-.39-.46-.56-.69l6.84,3.72c.17.23.36.46.56.69"/></g></g></g><g class="cls-2"><g class="cls-45"><g class="cls-2"><path class="cls-44" d="M10.66,38.85,3.82,35.13v0l-.15-.2,0,0-.13-.18,0,0-.12-.17,0-.05-.11-.17,0,0L3.07,34l0,0-.11-.18v0l-.3-.49v0l-.08-.14,0-.06L2.41,33l0-.05-.07-.11,0-.05-.07-.1,0,0L9,36.34l0,0,.07.1,0,.05.07.11,0,.05.07.12,0,.06.08.14v0l.3.49v0l.11.18,0,0,.11.17,0,0,.11.17,0,.05.12.17,0,0,.13.18,0,0,.15.2v0"/></g></g></g><g class="cls-2"><g class="cls-46"><g class="cls-2"><path class="cls-44" d="M9,36.34,2.18,32.62l-.09-.13,6.84,3.72.09.13"/></g></g></g><path class="cls-30" d="M9,36.34l-.09-.13,6.75,1.61v1.08l-4.45.63c-.2-.23-.39-.46-.56-.69v0l-.15-.2,0,0-.13-.18,0,0-.12-.17,0-.05L10,38l0,0-.11-.17,0,0-.11-.18v0L9.46,37v0l-.08-.14,0-.06-.07-.12,0-.05-.07-.11,0-.05L9,36.39Z"/><polygon class="cls-33" points="8.92 36.22 2.08 32.5 8.83 34.11 15.67 37.83 8.92 36.22"/></g><g class="cls-2"><g class="cls-2"><g class="cls-47"><g class="cls-2"><path class="cls-48" d="M36.13,34.54,29.3,30.82v0l6.84,3.72v0"/></g></g></g><g class="cls-2"><g class="cls-49"><g class="cls-2"><path class="cls-48" d="M36.1,34.59l-6.84-3.72,0,0,6.84,3.72,0,0"/></g></g></g><g class="cls-2"><g class="cls-50"><g class="cls-2"><path class="cls-51" d="M35,36.19l-6.84-3.72,1-1.4,0,0L36,34.77l0,0-1,1.4"/><polyline class="cls-48" points="35.97 34.77 29.14 31.05 29.14 31.05 35.98 34.77 35.97 34.77"/><path class="cls-51" d="M36,34.77,29.14,31h0l.07-.1L36,34.67l-.07.1h0"/><path class="cls-48" d="M36,34.67l-6.84-3.72,0-.06h0l6.84,3.72h0l0,.06"/><polyline class="cls-51" points="36.09 34.6 29.25 30.88 29.25 30.88 36.09 34.6 36.09 34.6"/><path class="cls-48" d="M36.09,34.6l-6.84-3.72h0l6.84,3.72h0"/></g></g></g><path class="cls-30" d="M36.1,34.59l0,0v0q0,.37,0,.74v0q0,.37,0,.73h0l-1.2.17,1-1.4,0,0,.11-.16Z"/></g><g class="cls-2"><path d="M6.84,58.92,0,55.2s4.36-1.8,8.8-4l6.84,3.72C11.2,57.12,6.84,58.92,6.84,58.92Z"/><path d="M15.64,54.93v5.22a22.19,22.19,0,0,1-8.79-1.23S11.2,57.12,15.64,54.93Z"/></g></g></g></svg>