<svg xmlns="http://www.w3.org/2000/svg" xmlns:xlink="http://www.w3.org/1999/xlink" viewBox="0 0 47.35 56.05"><defs><style>.cls-1{fill:none;}.cls-2{isolation:isolate;}.cls-3{fill:#686868;}.cls-4{fill:#909090;}.cls-5{fill:#b2b2b2;}.cls-6{fill:#4e4e4e;}.cls-7{fill:#6c6c6c;}.cls-8{fill:#868686;}.cls-9{fill:#343434;}.cls-10{fill:#595959;}.cls-11{fill:#333;}.cls-12{fill:#484848;}.cls-13{fill:#1a1a1a;}.cls-14{fill:#242424;}.cls-15{fill:#2d2d2d;}.cls-16{clip-path:url(#clip-path);}.cls-17{fill:#838383;}.cls-18{fill:#7e7e7e;}.cls-19{clip-path:url(#clip-path-2);}.cls-20{clip-path:url(#clip-path-3);}.cls-21{clip-path:url(#clip-path-4);}.cls-22{clip-path:url(#clip-path-5);}.cls-23{clip-path:url(#clip-path-6);}.cls-24{fill:#878787;}.cls-25{fill:#666;}.cls-26{clip-path:url(#clip-path-7);}.cls-27{fill:#6a6a6a;}.cls-28{clip-path:url(#clip-path-8);}.cls-29{clip-path:url(#clip-path-9);}</style><clipPath id="clip-path" transform="translate(0)"><path class="cls-1" d="M19.05,13.08,12.21,9.36l.05,0,6.84,3.72Z"/></clipPath><clipPath id="clip-path-2" transform="translate(0)"><path class="cls-1" d="M12.31,9.41l6.84,3.72,0,0L12.27,9.39Z"/></clipPath><clipPath id="clip-path-3" transform="translate(0)"><path class="cls-1" d="M19,13,12.12,9.32l.1,0,6.84,3.72Z"/></clipPath><clipPath id="clip-path-4" transform="translate(0)"><path class="cls-1" d="M18.9,13,12.07,9.3l.05,0L19,13Z"/></clipPath><clipPath id="clip-path-5" transform="translate(0)"><path class="cls-1" d="M18.75,13,11.91,9.24l.06,0,.1,0L18.9,13l-.1,0Z"/></clipPath><clipPath id="clip-path-6" transform="translate(0)"><path class="cls-1" d="M17.28,12.82,10.44,9.1l.18,0h.87l.1,0h.06l.1,0,.06,0,.1,0L18.75,13l-.1,0-.06,0-.1,0h-.06l-.1,0h-.87Z"/></clipPath><clipPath id="clip-path-7" transform="translate(0)"><path class="cls-1" d="M8.5,13.46,1.66,9.74A3.34,3.34,0,0,1,0,6.72l6.84,3.72A3.34,3.34,0,0,0,8.5,13.46Z"/></clipPath><clipPath id="clip-path-8" transform="translate(0)"><path class="cls-1" d="M47.35,8.5,40.51,4.78V4.72l6.84,3.72Z"/></clipPath><clipPath id="clip-path-9" transform="translate(0)"><path class="cls-1" d="M33,11.71,26.14,8a3,3,0,0,1-.24-1.16s0-.05,0-.08l6.84,3.72s0,.05,0,.08A3,3,0,0,0,33,11.71Z"/></clipPath></defs><title>tse</title><g id="Layer_2" data-name="Layer 2"><g id="Layer_1-2" data-name="Layer 1"><g class="cls-2"><path d="M22.43,55.69,15.59,52a3.34,3.34,0,0,1-1.66-3l6.84,3.72A3.34,3.34,0,0,0,22.43,55.69Z" transform="translate(0)"/><polygon points="20.77 52.67 13.93 48.95 13.93 46.54 20.77 50.26 20.77 52.67"/><polygon points="20.77 50.26 13.93 46.54 22.37 45.36 29.2 49.08 20.77 50.26"/><path d="M29.21,49.08l2.88,5.84L24.32,56a3.15,3.15,0,0,1-3.55-3.35v-2.4Z" transform="translate(0)"/></g><g class="cls-2"><polygon class="cls-3" points="20.77 50.26 13.93 46.54 13.95 39.17 20.78 42.89 20.77 50.26"/><polygon class="cls-4" points="20.78 42.89 13.95 39.17 18.97 38.46 25.81 42.18 20.78 42.89"/><polygon class="cls-5" points="27.71 46.03 29.2 49.08 20.77 50.26 20.78 42.89 25.81 42.18 27.71 46.03"/></g><g class="cls-2"><polygon class="cls-6" points="20.78 42.89 13.95 39.17 13.96 31.8 20.8 35.52 20.78 42.89"/><polygon class="cls-7" points="20.8 35.52 13.96 31.8 15.57 31.57 22.41 35.3 20.8 35.52"/><polygon class="cls-8" points="22.41 35.3 25.81 42.18 20.78 42.89 20.8 35.52 22.41 35.3"/></g><g class="cls-2"><polygon class="cls-9" points="20.8 35.52 13.96 31.8 13.97 28.31 20.8 32.03 20.8 35.52"/><polygon class="cls-10" points="21.14 32.7 22.41 35.3 20.8 35.52 20.8 32.03 21.14 32.7"/></g><g class="cls-2"><polygon class="cls-11" points="20.8 32.03 13.97 28.31 13.88 28.13 20.71 31.85 20.8 32.03"/><polygon class="cls-12" points="20.71 31.85 13.88 28.13 13.97 28.12 20.8 31.84 20.71 31.85"/><polygon class="cls-10" points="20.8 31.84 20.8 32.03 20.71 31.85 20.8 31.84"/></g><g class="cls-2"><polygon class="cls-11" points="20.71 31.85 13.88 28.13 12.18 24.69 19.02 28.41 20.71 31.85"/><polygon class="cls-12" points="19.02 28.41 12.18 24.69 13.97 24.44 20.81 28.16 19.02 28.41"/><polygon class="cls-10" points="20.71 31.85 19.02 28.41 20.81 28.16 20.8 31.84 20.71 31.85"/></g><g class="cls-2"><polygon class="cls-13" points="19.02 28.41 12.18 24.69 11.59 23.49 18.43 27.21 19.02 28.41"/><polygon class="cls-14" points="15.62 21.52 8.79 17.8 13.99 17.07 20.82 20.79 15.62 21.52"/><polygon class="cls-13" points="18.43 27.21 11.59 23.49 8.79 17.8 15.62 21.52 18.43 27.21"/><polygon class="cls-15" points="18.43 27.21 15.62 21.52 20.82 20.79 20.81 28.16 19.02 28.41 18.43 27.21"/></g><g class="cls-2"><polygon points="15.62 21.52 8.79 17.8 7.23 14.65 14.07 18.37 15.62 21.52"/><polygon points="14.07 18.37 7.23 14.65 5.39 10.9 12.22 14.63 14.07 18.37"/><polygon points="12.22 14.63 5.39 10.9 12.93 9.85 19.76 13.56 12.22 14.63"/><path d="M20.83,16q0,.1,0,.2v4.63l-5.2.73-1.55-3.15-1.85-3.75,7.54-1.06.09.08,0,0,.07.08,0,0,.07.08,0,0,.06.09,0,.05.06.09,0,.05.06.1,0,.05.05.1,0,.06,0,.1,0,.06,0,.1,0,.06,0,.11,0,.07,0,.11,0,.07,0,.1,0,.08,0,.1v.27s0,.08,0,.12Z" transform="translate(0)"/></g><g class="cls-2"><g class="cls-2"><g class="cls-16"><g class="cls-2"><path class="cls-17" d="M19.05,13.08,12.21,9.36l0,0L19.1,13.1l0,0" transform="translate(0)"/><polyline class="cls-18" points="19.1 13.1 12.26 9.38 12.27 9.39 19.11 13.11 19.1 13.1"/></g></g></g><g class="cls-2"><g class="cls-19"><g class="cls-2"><path class="cls-18" d="M19.11,13.11,12.27,9.39l0,0,6.84,3.72,0,0" transform="translate(0)"/></g></g></g><g class="cls-2"><g class="cls-20"><g class="cls-2"><path class="cls-17" d="M19,13,12.12,9.32l.1,0,6.84,3.72L19,13" transform="translate(0)"/></g></g></g><g class="cls-2"><g class="cls-21"><g class="cls-2"><path class="cls-17" d="M18.9,13,12.07,9.3l.05,0L19,13l-.05,0" transform="translate(0)"/></g></g></g><g class="cls-2"><g class="cls-22"><g class="cls-2"><path class="cls-17" d="M18.75,13,11.91,9.24l.06,0,.1,0L18.9,13l-.1,0-.06,0" transform="translate(0)"/></g></g></g><g class="cls-2"><g class="cls-23"><g class="cls-2"><path class="cls-24" d="M17.28,12.82,10.44,9.1l.18,0h.87l.1,0h.07l6.84,3.72h-.07l-.1,0h-.87l-.18,0" transform="translate(0)"/><path class="cls-17" d="M18.5,12.88,11.66,9.16l.09,0,.06,0,.1,0L18.75,13l-.1,0-.06,0-.09,0" transform="translate(0)"/></g></g></g><polygon class="cls-25" points="12.22 14.63 5.39 10.9 5.25 10.63 12.09 14.35 12.22 14.63"/><polygon class="cls-25" points="12.09 14.35 5.25 10.63 4.88 9.88 11.72 13.6 12.09 14.35"/><path class="cls-5" d="M12.22,14.62l-.14-.27-.37-.75,5.56-.78.18,0h.87l.1,0h.06l.1,0,.06,0,.1,0,.06,0,.1,0L19,13l.1,0,.05,0,.09,0,.05,0,.09.05,0,0,.08.06.05,0,.08.06.05,0,.08.07,0,0Z" transform="translate(0)"/><polygon class="cls-4" points="11.72 13.6 4.88 9.88 10.44 9.1 17.28 12.82 11.72 13.6"/></g><g class="cls-2"><g class="cls-2"><g class="cls-26"><g class="cls-2"><path class="cls-27" d="M8.5,13.46,1.66,9.74A3.34,3.34,0,0,1,0,6.72l6.84,3.72a3.34,3.34,0,0,0,1.66,3" transform="translate(0)"/></g></g></g><path class="cls-5" d="M8.83,7.74l.27.54,2.62,5.32-1.33.19a3.15,3.15,0,0,1-3.55-3.35V8Z" transform="translate(0)"/><polygon class="cls-3" points="6.84 10.44 0 6.72 0.01 4.3 6.84 8.02 6.84 10.44"/><polygon class="cls-4" points="6.84 8.02 0.01 4.3 1.99 4.02 8.83 7.74 6.84 8.02"/><polygon class="cls-6" points="6.84 8.02 0.01 4.3 0.01 0 6.85 3.72 6.84 8.02"/><polygon class="cls-8" points="6.85 3.72 8.83 7.74 6.84 8.02 6.85 3.72"/></g><g class="cls-2"><g class="cls-2"><g class="cls-28"><g class="cls-2"><path class="cls-27" d="M47.35,8.5,40.51,4.78V4.72l6.84,3.72V8.5" transform="translate(0)"/></g></g></g><path class="cls-25" d="M47.35,8.5h0v0Z" transform="translate(0)"/><path d="M34.16,12.94,27.32,9.22A2.59,2.59,0,0,1,26.14,8L33,11.71A2.59,2.59,0,0,0,34.16,12.94Z" transform="translate(0)"/><path d="M40.34,13.32h0l-.26,0-.29,0h0l-.28,0h-.05l-.28,0-.29,0h0l-.27,0h0l-.55,0H36.76l-.52,0-.25,0c-.26,0-.49-.08-.7-.13a5.29,5.29,0,0,1-.64-.19A2.8,2.8,0,0,1,33,11.71l14.14-2a4,4,0,0,1-1.4,1.75,6.36,6.36,0,0,1-.62.4l-.22.12c-.23.12-.46.23-.7.33s-.5.2-.76.29l-.27.09-.53.16-.28.07L42,13l-.27.06-.28.06h0l-.26.05-.28.05-.28,0h0Z" transform="translate(0)"/><polygon points="32.98 11.71 26.14 7.99 40.28 6 47.11 9.72 32.98 11.71"/><g class="cls-2"><g class="cls-29"><g class="cls-2"><path class="cls-27" d="M33,11.71,26.14,8a3,3,0,0,1-.24-1.16s0-.05,0-.08l6.84,3.72s0,.05,0,.08A3,3,0,0,0,33,11.71" transform="translate(0)"/></g></g></g><polygon class="cls-3" points="32.74 10.55 25.9 6.83 25.9 6.79 32.74 10.52 32.74 10.55"/><polygon class="cls-3" points="32.74 10.52 25.9 6.79 25.9 6.75 32.74 10.47 32.74 10.52"/><polygon class="cls-4" points="32.74 10.47 25.9 6.75 40.51 4.72 47.35 8.44 32.74 10.47"/><polygon class="cls-4" points="32.74 10.47 25.9 6.75 40.51 4.68 47.35 8.4 32.74 10.47"/><polygon class="cls-5" points="32.71 10.42 47.35 8.37 32.74 10.45 32.74 10.52 32.71 10.42"/><polygon class="cls-5" points="32.74 10.47 47.35 8.4 47.35 8.44 32.74 10.47"/><path class="cls-5" d="M33,11.71a3,3,0,0,1-.24-1.16s0-.05,0-.08l14.61-2s0,0,0,.06,0,.1,0,.15,0,.11,0,.17a3.43,3.43,0,0,1-.21.9Z" transform="translate(0)"/><path class="cls-25" d="M32.74,10.55v-.08s0,.05,0,.08Z" transform="translate(0)"/><polygon class="cls-4" points="32.71 10.42 25.88 6.7 40.51 4.65 47.35 8.37 32.71 10.42"/><polygon class="cls-25" points="32.74 10.52 25.9 6.79 25.88 6.7 32.71 10.42 32.74 10.52"/></g></g></g></svg>