<svg xmlns="http://www.w3.org/2000/svg" xmlns:xlink="http://www.w3.org/1999/xlink" viewBox="0 0 48.05 57.36"><defs><style>.cls-1{fill:none;}.cls-2{isolation:isolate;}.cls-3{fill:#1a1a1a;}.cls-4{fill:#242424;}.cls-5{fill:#2d2d2d;}.cls-6{fill:#666;}.cls-7{fill:#909090;}.cls-8{fill:#b2b2b2;}.cls-9{fill:#4d4d4d;}.cls-10{fill:#6c6c6c;}.cls-11{fill:#868686;}.cls-12{fill:#484848;}.cls-13{fill:#595959;}.cls-14{fill:#333;}.cls-15{clip-path:url(#clip-path);}.cls-16{fill:#626262;}.cls-17{fill:#5f5f5f;}.cls-18{clip-path:url(#clip-path-2);}.cls-19{clip-path:url(#clip-path-3);}.cls-20{clip-path:url(#clip-path-4);}.cls-21{clip-path:url(#clip-path-5);}.cls-22{clip-path:url(#clip-path-6);}.cls-23{clip-path:url(#clip-path-7);}.cls-24{fill:#656565;}.cls-25{clip-path:url(#clip-path-8);}.cls-26{clip-path:url(#clip-path-9);}.cls-27{fill:#6a6a6a;}.cls-28{clip-path:url(#clip-path-10);}.cls-29{clip-path:url(#clip-path-11);}.cls-30{clip-path:url(#clip-path-12);}.cls-31{clip-path:url(#clip-path-13);}.cls-32{clip-path:url(#clip-path-14);}.cls-33{clip-path:url(#clip-path-15);}.cls-34{clip-path:url(#clip-path-16);}.cls-35{fill:#505050;}.cls-36{clip-path:url(#clip-path-17);}.cls-37{fill:#4e4e4e;}.cls-38{fill:#343434;}.cls-39{fill:#686868;}.cls-40{clip-path:url(#clip-path-18);}.cls-41{clip-path:url(#clip-path-19);}.cls-42{clip-path:url(#clip-path-20);}.cls-43{clip-path:url(#clip-path-21);}</style><clipPath id="clip-path"><path class="cls-1" d="M46.23,4,39.39.28l.08,0L46.31,4Z"/></clipPath><clipPath id="clip-path-2"><path class="cls-1" d="M46.31,4,39.47.32l.06,0,6.84,3.72Z"/></clipPath><clipPath id="clip-path-3"><path class="cls-1" d="M39.55.36l6.84,3.72h0L39.53.35Z"/></clipPath><clipPath id="clip-path-4"><path class="cls-1" d="M46.17,4,39.33.25l.06,0L46.23,4Z"/></clipPath><clipPath id="clip-path-5"><path class="cls-1" d="M46,3.91,39.18.19l.06,0,.08,0L46.17,4l-.08,0Z"/></clipPath><clipPath id="clip-path-6"><path class="cls-1" d="M45.88,3.86,39,.14l0,0,.1,0L46,3.91l-.1,0Z"/></clipPath><clipPath id="clip-path-7"><path class="cls-1" d="M45.69,3.81,38.85.09h0l.15,0,6.84,3.72-.15,0Z"/></clipPath><clipPath id="clip-path-8"><path class="cls-1" d="M44.5,3.75,37.66,0l.17,0h.74l.1,0h.06l.12,0,6.84,3.72-.12,0h-.06l-.1,0h-.74Z"/></clipPath><clipPath id="clip-path-9"><path class="cls-1" d="M21.13,46.44l-6.84-3.72,0,0,6.84,3.72Z"/></clipPath><clipPath id="clip-path-10"><path class="cls-1" d="M14.24,42.69l6.84,3.72h0L14.25,42.7Z"/></clipPath><clipPath id="clip-path-11"><path class="cls-1" d="M21.08,46.41l-6.84-3.72h0l6.84,3.72Z"/></clipPath><clipPath id="clip-path-12"><path class="cls-1" d="M21.06,46.4l-6.84-3.72L14,42.57l6.84,3.72Z"/></clipPath><clipPath id="clip-path-13"><path class="cls-1" d="M20.88,46.29,14,42.57l0,0-.15-.11,6.84,3.72.15.11Z"/></clipPath><clipPath id="clip-path-14"><path class="cls-1" d="M20.69,46.15l-6.84-3.72,0,0-.16-.15L20.5,46l.16.15Z"/></clipPath><clipPath id="clip-path-15"><path class="cls-1" d="M20.5,46l-6.84-3.72,0,0-.13-.14,0,0-.14-.17-.13-.19,0,0-.12-.2-.1-.21L19.79,45l.1.21.12.2,0,0,.13.19.14.17,0,0,.13.14Z"/></clipPath><clipPath id="clip-path-16"><path class="cls-1" d="M19.78,44.95l-6.84-3.72-.06-.13,0-.06,0-.12,0-.06,0-.12,0-.06,0-.12V40.5l0-.12v-.07l0-.12v-.07s0-.09,0-.13l6.84,3.72s0,.09,0,.13v.07l0,.12v.07l0,.12v.06l0,.12,0,.06,0,.12,0,.06,0,.12,0,.06Z"/></clipPath><clipPath id="clip-path-17"><path class="cls-1" d="M19.48,43.7,12.65,40v-.07q0-.1,0-.2l6.84,3.72q0,.1,0,.2Z"/></clipPath><clipPath id="clip-path-18"><path class="cls-1" d="M17.74,7.37,10.9,3.65l.06,0L17.8,7.4Z"/></clipPath><clipPath id="clip-path-19"><path class="cls-1" d="M11,3.71l6.84,3.72-.07,0L11,3.68Z"/></clipPath><clipPath id="clip-path-20"><path class="cls-1" d="M17.56,7.29,10.73,3.57l.06,0,.11,0,6.84,3.72-.11,0Z"/></clipPath><clipPath id="clip-path-21"><path class="cls-1" d="M16,7.11,9.15,3.39l.2,0H10l.15,0h0l.18,0h0l.13,0,.06,0,.11,0,6.84,3.72-.11,0-.06,0-.13,0h0l-.18,0h0l-.15,0h-.66Z"/></clipPath></defs><title>use</title><g id="Layer_2" data-name="Layer 2"><g id="Layer_1-2" data-name="Layer 1"><g class="cls-2"><polygon class="cls-3" points="47.96 57.36 41.12 53.64 40.74 52.06 47.58 55.78 47.96 57.36"/><polygon class="cls-4" points="47.58 55.78 40.74 52.06 41.12 52 47.96 55.72 47.58 55.78"/><polygon class="cls-5" points="47.96 57.36 47.58 55.78 47.96 55.72 47.96 57.36"/></g><g class="cls-2"><polygon points="47.58 55.78 40.74 52.06 39.02 44.93 45.86 48.65 47.58 55.78"/><polygon points="45.86 48.65 39.02 44.93 41.14 44.64 47.98 48.36 45.86 48.65"/><polygon points="47.58 55.78 45.86 48.65 47.98 48.36 47.96 55.72 47.58 55.78"/><polygon class="cls-6" points="45.86 48.65 39.02 44.93 37.3 37.8 44.14 41.52 45.86 48.65"/><polygon class="cls-7" points="44.14 41.52 37.3 37.8 41.15 37.26 47.99 40.98 44.14 41.52"/><polygon class="cls-8" points="45.86 48.65 44.14 41.52 47.99 40.98 47.98 48.36 45.86 48.65"/></g><g class="cls-2"><polygon class="cls-9" points="44.14 41.52 37.3 37.8 35.59 30.68 42.43 34.4 44.14 41.52"/><polygon class="cls-10" points="42.43 34.4 35.59 30.68 41.16 29.9 48 33.62 42.43 34.4"/><polygon class="cls-11" points="44.14 41.52 42.43 34.4 48 33.62 47.99 40.98 44.14 41.52"/></g><g class="cls-2"><polygon class="cls-12" points="41.57 30.84 34.73 27.12 41.17 26.21 48.01 29.93 41.57 30.84"/><polygon class="cls-13" points="41.57 30.84 48.01 29.93 48 33.62 42.43 34.4 41.57 30.84"/><polygon class="cls-14" points="42.43 34.4 35.59 30.68 34.73 27.12 41.57 30.84 42.43 34.4"/><polygon class="cls-12" points="40.71 27.28 33.87 23.56 41.18 22.53 48.02 26.25 40.71 27.28"/><polygon class="cls-14" points="41.57 30.84 34.73 27.12 33.87 23.56 40.71 27.28 41.57 30.84"/><polygon class="cls-13" points="41.57 30.84 40.71 27.28 48.02 26.25 48.01 29.93 41.57 30.84"/></g><g class="cls-2"><polygon class="cls-3" points="40.71 27.28 33.87 23.56 32.16 16.43 38.99 20.15 40.71 27.28"/><polygon class="cls-4" points="38.99 20.15 32.16 16.43 41.19 15.16 48.03 18.88 38.99 20.15"/><polygon class="cls-5" points="40.71 27.28 38.99 20.15 48.03 18.88 48.02 26.25 40.71 27.28"/></g><g class="cls-2"><polygon points="38.99 20.15 32.16 16.43 30.44 9.3 37.28 13.02 38.99 20.15"/><polygon points="37.28 13.02 30.44 9.3 41.2 7.79 48.04 11.51 37.28 13.02"/><polygon points="38.99 20.15 37.28 13.02 48.04 11.51 48.03 18.88 38.99 20.15"/></g><g class="cls-2"><g class="cls-2"><g class="cls-15"><g class="cls-2"><path class="cls-16" d="M46.23,4,39.39.28l.06,0L46.29,4l-.06,0"/><path class="cls-17" d="M46.29,4,39.45.31h0L46.31,4h0"/></g></g></g><g class="cls-2"><g class="cls-18"><g class="cls-2"><path class="cls-17" d="M46.31,4,39.47.32l.06,0,6.84,3.72-.06,0"/></g></g></g><g class="cls-2"><g class="cls-19"><g class="cls-2"><path class="cls-17" d="M46.37,4.07,39.53.35h0l6.84,3.72h0"/></g></g></g><g class="cls-2"><g class="cls-20"><g class="cls-2"><path class="cls-16" d="M46.17,4,39.33.25l.06,0L46.23,4l-.06,0"/></g></g></g><g class="cls-2"><g class="cls-21"><g class="cls-2"><path class="cls-16" d="M46,3.91,39.18.19l.06,0,.08,0L46.17,4l-.08,0-.06,0"/></g></g></g><polygon class="cls-7" points="35.56 5.9 28.72 2.18 39.93 0.6 46.77 4.32 35.56 5.9"/><g class="cls-2"><g class="cls-22"><g class="cls-2"><path class="cls-16" d="M45.88,3.86,39,.14l0,0,.1,0L46,3.91l-.1,0,0,0"/></g></g></g><g class="cls-2"><g class="cls-23"><g class="cls-2"><path class="cls-24" d="M45.69,3.81,38.85.09h0l6.84,3.72h0"/><path class="cls-16" d="M45.73,3.82,38.89.1l.15,0,6.84,3.72-.15,0"/></g></g></g><g class="cls-2"><g class="cls-25"><g class="cls-2"><path class="cls-24" d="M44.5,3.75,37.66,0l.17,0h.74l.1,0h.06l.12,0,6.84,3.72-.12,0h-.06l-.1,0h-.74l-.17,0"/></g></g></g><polygon class="cls-6" points="37.28 13.02 30.44 9.3 28.72 2.18 35.56 5.9 37.28 13.02"/><path class="cls-8" d="M48,6.89c0,.07,0,.14,0,.21v4.41L37.28,13,35.56,5.9,46.77,4.32l0,0,.1.08,0,0,.09.08,0,0,.08.08,0,0,.07.08,0,.05.07.09,0,.05.07.1,0,.05.07.13,0,0,.08.17.08.17,0,.06,0,.12,0,.07,0,.11,0,.08,0,.11,0,.08,0,.11v.08l0,.12v.08s0,.09,0,.14Z"/><polygon class="cls-9" points="35.56 5.9 28.72 2.18 28.52 1.32 35.35 5.04 35.56 5.9"/><path class="cls-11" d="M46.76,4.32,35.56,5.9,35.35,5,44.5,3.75l.17,0h.74l.1,0h.06l.12,0h0l.15,0,0,0,.1,0,.06,0,.08,0,.06,0,.08,0,.06,0,.08,0,.06,0,.08,0,.05,0,.08.06Z"/><polygon class="cls-10" points="35.35 5.04 28.52 1.32 37.66 0.03 44.5 3.75 35.35 5.04"/></g><g class="cls-2"><g class="cls-2"><g class="cls-26"><g class="cls-2"><path class="cls-27" d="M21.13,46.44l-6.84-3.72,0,0,6.84,3.72,0,0"/></g></g></g><g class="cls-2"><g class="cls-28"><g class="cls-2"><path class="cls-27" d="M21.09,46.42,14.25,42.7h0l6.84,3.72h0"/></g></g></g><g class="cls-2"><g class="cls-29"><g class="cls-2"><path class="cls-27" d="M21.08,46.41l-6.84-3.72h0l6.84,3.72h0"/></g></g></g><g class="cls-2"><g class="cls-30"><g class="cls-2"><path class="cls-27" d="M21.06,46.4l-6.84-3.72L14,42.57l6.84,3.72.18.12"/></g></g></g><g class="cls-2"><g class="cls-31"><g class="cls-2"><path class="cls-27" d="M20.88,46.29,14,42.57l0,0-.15-.11,6.84,3.72.15.11,0,0"/></g></g></g><g class="cls-2"><g class="cls-32"><g class="cls-2"><path class="cls-27" d="M20.69,46.15l-6.84-3.72,0,0-.16-.15L20.5,46l.16.15,0,0"/></g></g></g><g class="cls-2"><g class="cls-33"><g class="cls-2"><path class="cls-27" d="M20.5,46l-6.84-3.72,0,0-.13-.14,0,0-.14-.17-.13-.19,0,0-.12-.2-.1-.21L19.79,45l.1.21.12.2,0,0,.13.19.14.17,0,0,.13.14,0,0"/></g></g></g><path class="cls-8" d="M33.68,43l1.6,2.06L23,46.77l-.24,0h-.58l-.2,0-.24-.06h-.05l-.18-.06-.23-.1,0,0-.17-.09,0,0-.18-.12,0,0-.15-.11,0,0L20.5,46l0,0-.13-.14,0,0-.14-.17L20,45.42l0,0-.12-.2-.1-.21Z"/><polygon class="cls-7" points="19.79 44.97 12.95 41.25 26.84 39.27 33.68 42.99 19.79 44.97"/><g class="cls-2"><g class="cls-34"><g class="cls-2"><path class="cls-35" d="M19.78,44.95l-6.84-3.72-.06-.13,0-.06,0-.12,0-.06,0-.12,0-.06,0-.12V40.5l0-.12v-.07l0-.12v-.07s0-.09,0-.13l6.84,3.72s0,.09,0,.13v.07l0,.12v.07l0,.12v.06l0,.12,0,.06,0,.12,0,.06,0,.12,0,.06.06.13"/></g></g></g><g class="cls-2"><g class="cls-36"><g class="cls-2"><path class="cls-35" d="M19.48,43.7,12.65,40v-.07q0-.1,0-.2l6.84,3.72q0,.1,0,.2v.07"/></g></g></g><polygon class="cls-37" points="19.47 43.43 12.64 39.71 12.65 33.9 19.48 37.62 19.47 43.43"/><path class="cls-11" d="M19.48,43.7v-.07q0-.1,0-.2V37.62l9-1.27L33.68,43l-13.9,2-.06-.13,0-.06,0-.12,0-.06,0-.12,0-.06,0-.12v-.06l0-.12V44l0-.12v-.07S19.49,43.75,19.48,43.7Z"/><polygon class="cls-10" points="19.48 37.62 12.65 33.9 21.69 32.63 28.53 36.35 19.48 37.62"/><polygon class="cls-38" points="19.48 37.62 12.65 33.9 12.65 30.22 19.49 33.94 19.48 37.62"/><polygon class="cls-13" points="25.95 33.03 28.53 36.35 19.48 37.62 19.49 33.94 25.95 33.03"/><polygon class="cls-12" points="19.49 33.94 12.65 30.22 19.12 29.31 25.95 33.03 19.49 33.94"/></g><g class="cls-2"><polygon class="cls-38" points="19.49 33.94 12.65 30.22 12.66 26.54 19.5 30.26 19.49 33.94"/><polygon class="cls-13" points="25.7 32.7 25.95 33.03 19.49 33.94 19.5 30.26 23.38 29.71 25.7 32.7"/><polygon class="cls-12" points="19.5 30.26 12.66 26.54 16.54 25.99 23.38 29.71 19.5 30.26"/><polygon class="cls-3" points="19.5 30.26 12.66 26.54 12.67 21.01 19.51 24.73 19.5 30.26"/><polygon class="cls-5" points="19.51 24.73 23.38 29.71 19.5 30.26 19.51 24.73"/></g><g class="cls-2"><polygon class="cls-5" points="19.51 24.73 18.23 23.07 19.51 22.89 19.51 24.73"/><polygon class="cls-3" points="19.51 24.73 12.67 21.01 11.39 19.35 18.23 23.07 19.51 24.73"/><polygon class="cls-4" points="18.23 23.07 11.39 19.35 12.67 19.17 19.51 22.89 18.23 23.07"/><polygon points="18.23 23.07 11.39 19.35 6.63 13.22 13.47 16.94 18.23 23.07"/><polygon points="13.07 16.42 6.23 12.7 12.69 11.8 19.53 15.52 13.07 16.42"/><polygon points="13.47 16.94 6.63 13.22 6.23 12.7 13.07 16.42 13.47 16.94"/><polygon points="19.51 22.89 18.23 23.07 13.47 16.94 13.07 16.42 19.53 15.52 19.51 22.89"/></g><g class="cls-2"><polygon class="cls-6" points="13.07 16.42 6.23 12.7 6.04 12.46 12.88 16.18 13.07 16.42"/><polygon class="cls-6" points="12.88 16.18 6.04 12.46 5.17 11.34 12.01 15.06 12.88 16.18"/><polygon class="cls-7" points="12.02 9.21 5.18 5.49 11.99 4.53 18.82 8.25 12.02 9.21"/><polygon class="cls-39" points="12.01 15.06 5.17 11.34 5.18 5.49 12.02 9.21 12.01 15.06"/><path class="cls-8" d="M12,9.21l6.81-1,.09.13,0,0,.06.09,0,0,.05.09,0,0,.06.12.07.17,0,0,0,.11,0,.06,0,.1,0,.06,0,.12v0l0,.17v0l0,.14v.23s0,.09,0,.13v0c0,.06,0,.12,0,.18v5.07l-6.46.91-.19-.25L12,15.06Z"/></g><g class="cls-2"><g class="cls-2"><g class="cls-40"><g class="cls-2"><path class="cls-16" d="M17.74,7.37,10.9,3.65l0,0,6.84,3.72,0,0"/><polyline class="cls-17" points="17.79 7.39 10.95 3.67 10.96 3.68 17.8 7.4 17.79 7.39"/></g></g></g><g class="cls-2"><g class="cls-41"><g class="cls-2"><path class="cls-17" d="M17.8,7.4,11,3.68l.07,0,6.84,3.72-.07,0"/></g></g></g><g class="cls-2"><g class="cls-42"><g class="cls-2"><path class="cls-16" d="M17.56,7.29,10.73,3.57l.06,0,.11,0,6.84,3.72-.11,0-.06,0"/></g></g></g><g class="cls-2"><g class="cls-43"><g class="cls-2"><path class="cls-24" d="M16,7.11,9.15,3.39l.2,0H10l.15,0h0l.18,0,6.84,3.72-.18,0h0l-.15,0h-.66l-.2,0"/><path class="cls-16" d="M17.21,7.18,10.38,3.46h0l.13,0,.06,0,.11,0,6.84,3.72-.11,0-.06,0-.13,0h0"/></g></g></g><polygon class="cls-10" points="12.02 7.67 5.18 3.95 9.15 3.39 15.99 7.11 12.02 7.67"/><polygon class="cls-37" points="12.02 9.21 5.18 5.49 5.18 3.95 12.02 7.67 12.02 9.21"/><path class="cls-11" d="M18.8,8.22l0,0L12,9.21V7.67l4-.56.2,0h.66l.15,0h0l.18,0h0l.13,0,.06,0,.11,0,.06,0,.11,0,.06,0,.11.06,0,0,.15.1h0l.13.1,0,0,.1.08.05,0,.09.08,0,0,.08.09,0,0Z"/></g><g class="cls-2"><polygon class="cls-6" points="12.01 15.06 5.17 11.34 2.2 7.51 9.04 11.23 12.01 15.06"/><polygon class="cls-7" points="7.91 9.78 1.08 6.06 5.18 5.49 12.02 9.21 7.91 9.78"/><polygon class="cls-6" points="9.04 11.23 2.2 7.51 1.08 6.06 7.91 9.78 9.04 11.23"/><polygon class="cls-8" points="9.04 11.23 7.91 9.78 12.02 9.21 12.01 15.06 9.04 11.23"/></g><g class="cls-2"><polygon class="cls-10" points="6.84 8.4 0 4.68 5.18 3.95 12.02 7.67 6.84 8.4"/><polygon class="cls-9" points="7.91 9.78 1.08 6.06 0 4.68 6.84 8.4 7.91 9.78"/><polygon class="cls-11" points="6.84 8.4 12.02 7.67 12.02 9.21 7.91 9.78 6.84 8.4"/></g></g></g></svg>