<svg xmlns="http://www.w3.org/2000/svg" xmlns:xlink="http://www.w3.org/1999/xlink" viewBox="0 0 49.99 61.01"><defs><style>.cls-1{fill:none;}.cls-2{isolation:isolate;}.cls-3{fill:#1c1c1c;}.cls-4{fill:#242424;}.cls-5{fill:#2d2d2d;}.cls-6{fill:#6e6e6e;}.cls-7{fill:#909090;}.cls-8{fill:#b2b2b2;}.cls-9{fill:#535353;}.cls-10{fill:#6c6c6c;}.cls-11{fill:#868686;}.cls-12{fill:#4d4d4d;}.cls-13{fill:#333;}.cls-14{fill:#484848;}.cls-15{fill:#595959;}.cls-16{fill:#1a1a1a;}.cls-17{clip-path:url(#clip-path);}.cls-18{fill:#838383;}.cls-19{fill:#7e7e7e;}.cls-20{clip-path:url(#clip-path-2);}.cls-21{clip-path:url(#clip-path-3);}.cls-22{clip-path:url(#clip-path-4);}.cls-23{clip-path:url(#clip-path-5);}.cls-24{clip-path:url(#clip-path-6);}.cls-25{clip-path:url(#clip-path-7);}.cls-26{fill:#878787;}.cls-27{clip-path:url(#clip-path-8);}.cls-28{fill:#656565;}.cls-29{fill:#666;}.cls-30{fill:#373737;}.cls-31{clip-path:url(#clip-path-9);}.cls-32{clip-path:url(#clip-path-10);}.cls-33{clip-path:url(#clip-path-11);}.cls-34{clip-path:url(#clip-path-12);}.cls-35{clip-path:url(#clip-path-13);}.cls-36{clip-path:url(#clip-path-14);}.cls-37{clip-path:url(#clip-path-15);}</style><clipPath id="clip-path"><path class="cls-1" d="M13.21,9.58,6.37,5.86l.07,0,6.84,3.72Z"/></clipPath><clipPath id="clip-path-2"><path class="cls-1" d="M13.28,9.61,6.44,5.89,6.56,6l6.84,3.72Z"/></clipPath><clipPath id="clip-path-3"><path class="cls-1" d="M6.61,6,13.45,9.7l-.05,0L6.56,6Z"/></clipPath><clipPath id="clip-path-4"><path class="cls-1" d="M13.11,9.53,6.27,5.81l.1,0,6.84,3.72Z"/></clipPath><clipPath id="clip-path-5"><path class="cls-1" d="M13,9.49,6.2,5.78l.08,0,6.84,3.72Z"/></clipPath><clipPath id="clip-path-6"><path class="cls-1" d="M12.86,9.42,6,5.7l.08,0,.1,0L13,9.49l-.1,0Z"/></clipPath><clipPath id="clip-path-7"><path class="cls-1" d="M10.85,9.06,4,5.34h.92l.09,0,.09,0,.09,0,.09,0,.09,0,.09,0,.09,0,.09,0,.09,0,.09,0,.09,0L6,5.7l6.84,3.72-.09,0-.09,0-.09,0-.09,0-.09,0-.09,0-.09,0-.09,0-.09,0-.09,0-.09,0-.09,0h-.92Z"/></clipPath><clipPath id="clip-path-8"><path class="cls-1" d="M10.49,9.09,3.65,5.37l.18,0H4l6.84,3.72h-.18Z"/></clipPath><clipPath id="clip-path-9"><path class="cls-1" d="M49,3.93,42.16.21l.07,0L49.07,4Z"/></clipPath><clipPath id="clip-path-10"><polygon class="cls-1" points="42.23 0.24 49.07 3.96 49.07 3.96 42.23 0.24 42.23 0.24"/></clipPath><clipPath id="clip-path-11"><path class="cls-1" d="M48.84,3.86,42,.14l.06,0,.09,0L49,3.93l-.09,0Z"/></clipPath><clipPath id="clip-path-12"><path class="cls-1" d="M48.51,3.77,41.67,0l.08,0,.07,0,.07,0,.06,0,.06,0,6.84,3.72-.06,0-.06,0-.07,0-.07,0Z"/></clipPath><clipPath id="clip-path-13"><path class="cls-1" d="M48.49,3.76,41.65,0h0l6.84,3.72Z"/></clipPath><clipPath id="clip-path-14"><path class="cls-1" d="M48,3.72,41.2,0h.27l.18,0,6.84,3.72-.18,0H48Z"/></clipPath><clipPath id="clip-path-15"><path class="cls-1" d="M47.56,3.75,40.72,0l.23,0h.25L48,3.72h-.25Z"/></clipPath></defs><title>vse</title><g id="Layer_2" data-name="Layer 2"><g id="Layer_1-2" data-name="Layer 1"><g class="cls-2"><polygon class="cls-3" points="29.65 61.01 22.82 57.29 23.37 54.79 30.21 58.51 29.65 61.01"/><polygon class="cls-3" points="30.21 58.51 23.37 54.79 23.51 54.16 30.35 57.88 30.21 58.51"/><polygon class="cls-4" points="30.35 57.88 23.51 54.16 24 54.1 30.84 57.82 30.35 57.88"/><polygon class="cls-5" points="29.65 61.01 30.21 58.51 30.35 57.88 30.84 57.82 29.65 61.01"/></g><g class="cls-2"><polygon points="30.35 57.88 23.51 54.16 23.84 52.7 30.68 56.42 30.35 57.88"/><polygon points="30.68 56.42 23.84 52.7 25.21 46.56 32.05 50.28 30.68 56.42"/><polygon points="32.05 50.28 25.21 46.56 26.89 46.33 33.73 50.05 32.05 50.28"/><polygon points="30.84 57.82 30.35 57.88 30.68 56.42 32.05 50.28 33.73 50.05 30.84 57.82"/></g><g class="cls-2"><polygon class="cls-6" points="32.05 50.28 25.21 46.56 26.91 38.95 33.74 42.67 32.05 50.28"/><polygon class="cls-7" points="33.74 42.67 26.91 38.95 29.78 38.55 36.62 42.27 33.74 42.67"/><polygon class="cls-8" points="36.62 42.27 35.6 45.02 33.73 50.05 32.05 50.28 33.74 42.67 36.62 42.27"/></g><g class="cls-2"><polygon class="cls-9" points="33.74 42.67 26.91 38.95 28.51 31.78 35.34 35.5 33.74 42.67"/><polygon class="cls-10" points="35.44 35.07 28.6 31.35 32.67 30.78 39.51 34.5 35.44 35.07"/><polygon class="cls-9" points="35.34 35.5 28.51 31.78 28.6 31.35 35.44 35.07 35.34 35.5"/><polygon class="cls-11" points="35.44 35.07 39.51 34.5 37.65 39.49 36.62 42.27 33.74 42.67 35.34 35.5 35.44 35.07"/></g><g class="cls-2"><polygon class="cls-10" points="26.46 36.33 19.63 32.61 19.79 32.59 26.63 36.31 26.46 36.33"/><polygon class="cls-12" points="26.91 36.94 20.07 33.22 19.63 32.61 26.46 36.33 26.91 36.94"/><polygon class="cls-11" points="26.46 36.33 26.63 36.31 26.91 36.94 26.46 36.33"/></g><g class="cls-2"><polygon class="cls-13" points="26.46 36.33 19.63 32.61 17.17 29.27 24.01 32.99 26.46 36.33"/><polygon class="cls-14" points="24.01 32.99 17.17 29.27 18.22 29.13 25.05 32.85 24.01 32.99"/><polygon class="cls-15" points="26.63 36.31 26.46 36.33 24.01 32.99 25.05 32.85 26.63 36.31"/></g><g class="cls-2"><polygon class="cls-13" points="24.01 32.99 17.17 29.27 14.72 25.93 21.56 29.65 24.01 32.99"/><polygon class="cls-15" points="23.48 29.38 24.34 31.27 25.05 32.85 24.01 32.99 21.56 29.65 23.48 29.38"/><polygon class="cls-14" points="21.56 29.65 14.72 25.93 16.65 25.66 23.48 29.38 21.56 29.65"/><polygon class="cls-16" points="21.56 29.65 14.72 25.93 9.82 19.26 16.66 22.98 21.56 29.65"/><polygon class="cls-4" points="16.66 22.98 9.82 19.26 13.51 18.74 20.34 22.46 16.66 22.98"/><polygon class="cls-5" points="16.66 22.98 20.34 22.46 21.67 25.37 23.48 29.38 21.56 29.65 16.66 22.98"/></g><g class="cls-2"><polygon points="16.66 22.98 9.82 19.26 6.91 15.3 13.75 19.02 16.66 22.98"/><polygon points="13.75 19.02 6.91 15.3 4.91 12.58 11.75 16.3 13.75 19.02"/><polygon points="11.75 16.3 4.91 12.58 10.36 11.81 17.2 15.53 11.75 16.3"/><polygon points="17.2 15.53 20.34 22.46 16.66 22.98 13.75 19.02 11.75 16.3 17.2 15.53"/></g><g class="cls-2"><g class="cls-2"><g class="cls-17"><g class="cls-2"><path class="cls-18" d="M13.21,9.58,6.37,5.86l.06,0L13.27,9.6l-.06,0"/><path class="cls-19" d="M13.27,9.6,6.43,5.88h0l6.84,3.72h0"/></g></g></g><g class="cls-2"><g class="cls-20"><g class="cls-2"><path class="cls-19" d="M13.28,9.61,6.44,5.89,6.56,6l6.84,3.72-.11-.06"/></g></g></g><g class="cls-2"><g class="cls-21"><g class="cls-2"><path class="cls-19" d="M13.39,9.67,6.56,6l.05,0L13.45,9.7l-.05,0"/></g></g></g><g class="cls-2"><g class="cls-22"><g class="cls-2"><path class="cls-18" d="M13.11,9.53,6.27,5.81l.1,0,6.84,3.72-.1,0"/></g></g></g><g class="cls-2"><g class="cls-23"><g class="cls-2"><path class="cls-18" d="M13,9.49,6.2,5.78l.08,0,6.84,3.72-.08,0"/></g></g></g><g class="cls-2"><g class="cls-24"><g class="cls-2"><path class="cls-18" d="M12.86,9.42,6,5.7l.08,0,.1,0L13,9.49l-.1,0-.08,0"/></g></g></g><g class="cls-2"><g class="cls-25"><g class="cls-2"><path class="cls-26" d="M10.85,9.06,4,5.34h.92l.09,0,.09,0,.09,0,.09,0,.08,0,6.84,3.72-.08,0-.09,0-.09,0-.09,0-.09,0h-.92"/><path class="cls-18" d="M12.21,9.21,5.38,5.49h0l.09,0,.09,0,.09,0,.09,0,.09,0,.09,0L6,5.7l6.84,3.72-.09,0-.09,0-.09,0-.09,0-.09,0-.09,0-.09,0h0"/></g></g></g><polygon class="cls-7" points="6.85 9.62 0.01 5.9 4.01 5.34 10.85 9.06 6.85 9.62"/><g class="cls-2"><g class="cls-27"><g class="cls-2"><path class="cls-28" d="M10.49,9.09,3.65,5.37l.18,0H4l6.84,3.72h-.18l-.18,0"/></g></g></g><polygon class="cls-29" points="11.75 16.3 4.91 12.58 0.01 5.9 6.85 9.62 11.75 16.3"/><path class="cls-8" d="M15.43,11.65l0,.05.08.16,1.66,3.66-5.45.77L6.85,9.62l4-.56h.92l.09,0,.09,0,.09,0,.09,0,.09,0,.09,0,.09,0,.09,0,.09,0,.09,0,.09,0,.09,0,.08,0,.1,0,.08,0,.1,0,.07,0,.11.06.06,0,.16.09,0,0,.11.07.06,0,.1.06L14,10l.09.07.06,0,.09.07.06,0,.08.07.06.05.08.07.06.06.08.08.06.06.07.08.05.06.07.08.05.06L15,11l0,.06.06.09,0,.06.06.09,0,.06.06.1,0,.06Z"/><polygon class="cls-12" points="6.85 9.62 0.01 5.9 0 5.88 6.84 9.61 6.85 9.62"/><polygon class="cls-10" points="6.84 9.61 0 5.88 3.65 5.37 10.49 9.09 6.84 9.61"/><path class="cls-11" d="M10.85,9.06l-4,.56v0l3.65-.51.18,0h.18Z"/></g><g class="cls-2"><polygon class="cls-30" points="35.44 35.07 28.6 31.35 28.93 29.89 35.77 33.61 35.44 35.07"/><polygon class="cls-30" points="35.77 33.61 28.93 29.89 29.45 27.55 36.29 31.27 35.77 33.61"/><polygon class="cls-14" points="36.29 31.27 29.45 27.55 34.11 26.89 40.95 30.61 36.29 31.27"/><polygon class="cls-15" points="39.51 34.5 35.44 35.07 35.77 33.61 36.29 31.27 40.95 30.61 40.57 31.64 39.51 34.5"/></g><g class="cls-2"><polygon class="cls-30" points="36.29 31.27 29.45 27.55 30.3 23.75 37.14 27.46 36.29 31.27"/><polygon class="cls-14" points="37.14 27.46 30.3 23.75 35.56 23.01 42.39 26.73 37.14 27.46"/><polygon class="cls-15" points="36.29 31.27 37.14 27.46 42.39 26.73 40.95 30.61 36.29 31.27"/></g><g class="cls-2"><g class="cls-2"><g class="cls-31"><g class="cls-2"><path class="cls-18" d="M49,3.93,42.16.21l0,0L49,3.94l0,0"/><path class="cls-19" d="M49,3.94,42.19.22l0,0L49.07,4l0,0"/></g></g></g><g class="cls-2"><g class="cls-32"><g class="cls-2"><polyline class="cls-19" points="49.07 3.96 42.23 0.24 42.23 0.24 49.07 3.96 49.07 3.96"/></g></g></g><g class="cls-2"><g class="cls-33"><g class="cls-2"><path class="cls-18" d="M48.84,3.86,42,.14l.06,0,.09,0L49,3.93l-.09,0-.06,0"/></g></g></g><g class="cls-2"><g class="cls-34"><g class="cls-2"><path class="cls-26" d="M48.51,3.77,41.67,0l.08,0h.05L48.64,3.8h-.05l-.08,0"/><path class="cls-18" d="M48.64,3.8,41.8.08h0l.07,0,.06,0,.06,0,6.84,3.72-.06,0-.06,0-.07,0h0"/></g></g></g><polygon class="cls-3" points="37.14 27.46 30.3 23.75 32 16.14 38.83 19.86 37.14 27.46"/><polygon class="cls-5" points="45.28 18.96 42.39 26.73 37.14 27.46 38.83 19.86 45.28 18.96"/><polygon class="cls-4" points="38.83 19.86 32 16.14 38.44 15.24 45.28 18.96 38.83 19.86"/><polygon points="48.17 11.18 45.28 18.96 38.83 19.86 40.53 12.25 48.17 11.18"/><polygon points="38.83 19.86 32 16.14 33.69 8.53 40.53 12.25 38.83 19.86"/><polygon points="40.53 12.25 33.69 8.53 41.33 7.46 48.17 11.18 40.53 12.25"/><polygon class="cls-6" points="40.53 12.25 33.69 8.53 34.81 3.52 41.65 7.25 40.53 12.25"/><path class="cls-8" d="M50,5.62s0,.06,0,.09v.06s0,.07,0,.1v.21l0,.16v0l0,.12v.06l0,.12,0,.06,0,.12,0,.05L49.73,7l-1.56,4.19-7.64,1.07,1.12-5,.58-2.6,6.28-.88.08,0,.07,0,.07,0,.06,0,.06,0,.06,0,.09,0,.07,0,.05,0,.05,0,.05,0,.05,0,0,0,0,0,0,0,.07.06,0,.05,0,.05,0,0,0,.05,0,0,0,.06,0,0,0,.07,0,0,0,.11,0,0,0,.08,0,.05,0,.08v.05l0,.09v0s0,.09,0,.14,0,.1,0,.14Z"/><polygon class="cls-6" points="41.65 7.25 34.81 3.52 35.39 0.93 42.23 4.65 41.65 7.25"/><polygon class="cls-7" points="42.23 4.65 35.39 0.93 41.67 0.05 48.51 3.77 42.23 4.65"/></g><g class="cls-2"><g class="cls-2"><g class="cls-35"><g class="cls-2"><path class="cls-28" d="M48.49,3.76,41.65,0h0l6.84,3.72h0"/></g></g></g><g class="cls-2"><g class="cls-36"><g class="cls-2"><path class="cls-28" d="M48,3.72,41.2,0h.27l.18,0,6.84,3.72-.18,0H48"/></g></g></g><g class="cls-2"><g class="cls-37"><g class="cls-2"><path class="cls-28" d="M47.56,3.75,40.72,0l.23,0h.25L48,3.72h-.25l-.23,0"/></g></g></g><polygon class="cls-9" points="42.23 4.65 35.39 0.93 35.41 0.81 42.25 4.53 42.23 4.65"/><polygon class="cls-10" points="42.26 4.5 35.42 0.78 40.72 0.03 47.55 3.75 42.26 4.5"/><polygon class="cls-9" points="42.25 4.53 35.41 0.81 35.42 0.78 42.26 4.5 42.25 4.53"/><path class="cls-11" d="M48.51,3.77l-6.28.88,0-.12v0l5.29-.74.23,0h.52l.18,0Z"/></g></g></g></svg>