<svg xmlns="http://www.w3.org/2000/svg" xmlns:xlink="http://www.w3.org/1999/xlink" viewBox="0 0 65.76 57"><defs><style>.cls-1{fill:none;}.cls-2{fill:#333;}.cls-3{fill:#666;}.cls-4{fill:#999;}.cls-5{fill:#ccc;}.cls-6{fill:url(#greybars);}</style><pattern id="greybars" data-name="greybars" width="104.75" height="76.71" patternUnits="userSpaceOnUse" viewBox="0 0 104.75 76.71"><rect class="cls-1" width="104.75" height="76.71"/><rect y="57.53" width="104.75" height="7.67"/><rect class="cls-2" y="65.2" width="104.75" height="7.67"/><rect class="cls-3" y="72.87" width="104.75" height="7.67"/><rect y="19.18" width="104.75" height="7.67"/><rect class="cls-2" y="26.85" width="104.75" height="7.67"/><rect class="cls-3" y="34.52" width="104.75" height="7.67"/><rect class="cls-4" y="42.19" width="104.75" height="7.67"/><rect class="cls-5" y="49.86" width="104.75" height="7.67"/><rect class="cls-3" y="-3.84" width="104.75" height="7.67"/><rect class="cls-4" y="3.84" width="104.75" height="7.67"/><rect class="cls-5" y="11.51" width="104.75" height="7.67"/></pattern></defs><title>wse</title><g id="Layer_2" data-name="Layer 2"><g id="Layer_1-2" data-name="Layer 1"><path class="cls-6" d="M29.08,33.65c1.48-1.65,1.37.35-.26,4.44L24.27,49.56c-1.62,4.09-2.08,3.94-1-.33l1.2-4.83C25.52,40.14,27.6,35.3,29.08,33.65Z"/><path class="cls-6" d="M41.6,36.91c1.44,1.81,1.25,0-.42-4.11L35.56,19.11c-1.67-4.07-2-3.95-.78.27l1.94,6.57C38,30.17,40.16,35.1,41.6,36.91Z"/><path class="cls-6" d="M0,0H3.46C5.36,0,7.9,2.51,9.11,5.58L19.28,31.4"/><path class="cls-6" d="M32.7,32.17"/><path class="cls-6" d="M45.68,57,65.28,5.61C66.46,2.52,65.39,0,62.91,0H58.41"/></g></g></svg>