<svg xmlns="http://www.w3.org/2000/svg" xmlns:xlink="http://www.w3.org/1999/xlink" viewBox="0 0 50.91 62.65"><defs><style>.cls-1{fill:none;}.cls-2{isolation:isolate;}.cls-3{fill:#1a1a1a;}.cls-4{fill:#2d2d2d;}.cls-5{fill:#242424;}.cls-6{fill:#666;}.cls-7{fill:#909090;}.cls-8{fill:#b2b2b2;}.cls-9{fill:#4d4d4d;}.cls-10{fill:#868686;}.cls-11{clip-path:url(#clip-path);}.cls-12{fill:#505050;}.cls-13{fill:#6c6c6c;}.cls-14{fill:#484848;}.cls-15{clip-path:url(#clip-path-2);}.cls-16{fill:#353535;}.cls-17{fill:#373737;}.cls-18{fill:#3e3e3e;}.cls-19{clip-path:url(#clip-path-3);}.cls-20{clip-path:url(#clip-path-4);}.cls-21{fill:#393939;}.cls-22{fill:#595959;}.cls-23{fill:#1f1f1f;}.cls-24{clip-path:url(#clip-path-5);}.cls-25{fill:#878787;}.cls-26{fill:#838383;}.cls-27{fill:#7e7e7e;}.cls-28{fill:#686868;}.cls-29{clip-path:url(#clip-path-6);}.cls-30{clip-path:url(#clip-path-7);}.cls-31{clip-path:url(#clip-path-8);}.cls-32{fill:#1b1b1b;}.cls-33{clip-path:url(#clip-path-9);}.cls-34{clip-path:url(#clip-path-10);}.cls-35{clip-path:url(#clip-path-11);}.cls-36{clip-path:url(#clip-path-12);}.cls-37{clip-path:url(#clip-path-13);}.cls-38{fill:#1c1c1c;}.cls-39{clip-path:url(#clip-path-14);}.cls-40{clip-path:url(#clip-path-15);}.cls-41{fill:#727272;}.cls-42{fill:#767676;}.cls-43{fill:#7a7a7a;}</style><clipPath id="clip-path"><path class="cls-1" d="M35.37,37.38l-6.84-3.72-.13-.22,0,0-.12-.23,0,0-.1-.25c0-.1-.07-.19-.1-.28a5.94,5.94,0,0,1-.2-.95c0-.11,0-.22,0-.33L34.65,35c0,.11,0,.22,0,.33a5.94,5.94,0,0,0,.2.95c0,.09.06.18.1.28l.1.25,0,0,.12.23,0,0Z"/></clipPath><clipPath id="clip-path-2"><path class="cls-1" d="M34.65,35l-6.84-3.72q0-.24,0-.47c0-.1,0-.17,0-.24v0q0-.11,0-.22c0-.18,0-.34,0-.5v0l0-.2v-.06l0-.17v-.07l0-.16v-.07l0-.18v0l.06-.22v0l.06-.18,0-.07.05-.14,0-.08.05-.13,0-.08.06-.14,6.84,3.72-.06.14,0,.08-.05.13,0,.08-.05.14,0,.07-.06.18v0l-.06.22v0l0,.18v.07l0,.16v.07l0,.17v.06l0,.2v0c0,.16,0,.32,0,.5s0,.14,0,.22v0c0,.07,0,.14,0,.24S34.64,34.87,34.65,35Z"/></clipPath><clipPath id="clip-path-3"><path class="cls-1" d="M35.26,31.51l-6.84-3.72,0-.07.1-.2,6.84,3.72-.1.2Z"/></clipPath><clipPath id="clip-path-4"><path class="cls-1" d="M35.39,31.24l-6.84-3.72.14-.24L35.53,31Z"/></clipPath><clipPath id="clip-path-5"><path class="cls-1" d="M43.46.2l6.84,3.72a2.32,2.32,0,0,0-1.43-.17L42,0A2.32,2.32,0,0,1,43.46.2Z"/></clipPath><clipPath id="clip-path-6"><path class="cls-1" d="M9.16,6.06,16,9.78l-.26-.13a7,7,0,0,0-1.15-.44A5.73,5.73,0,0,0,12.84,9h-.19l-.18,0L5.63,5.27l.18,0H6a5.73,5.73,0,0,1,1.75.24,7,7,0,0,1,1.15.44Z"/></clipPath><clipPath id="clip-path-7"><path class="cls-1" d="M18.72,41.22l6.84,3.72,0,0L18.68,41.2Z"/></clipPath><clipPath id="clip-path-8"><polygon class="cls-1" points="14.8 62.65 7.97 58.93 7.96 58.93 14.8 62.65 14.8 62.65"/></clipPath><clipPath id="clip-path-9"><path class="cls-1" d="M14.8,62.65,8,58.93H8l6.84,3.72Z"/></clipPath><clipPath id="clip-path-10"><path class="cls-1" d="M14.79,62.63,8,58.91v0l6.84,3.72Z"/></clipPath><clipPath id="clip-path-11"><polygon class="cls-1" points="14.78 62.62 7.95 58.9 7.94 58.89 14.78 62.61 14.78 62.62"/></clipPath><clipPath id="clip-path-12"><path class="cls-1" d="M14.78,62.61,7.94,58.89h0l6.84,3.72Z"/></clipPath><clipPath id="clip-path-13"><path class="cls-1" d="M14.78,62.6,7.94,58.88h0v0h0v-.41l0,0v0l0-.06v0l0-.06v0l0-.07v0l0-.08v0l0-.08v0l0-.08v0l0-.09v0l0-.1v0l0-.1v0l.05-.11.06-.14,6.84,3.72-.06.14-.05.11v0l0,.1v0l0,.1v0l0,.09v0l0,.08v0l0,.08v0l0,.08v0l0,.07v0l0,.06v0l0,.06v0l0,0v.41h0v0Z"/></clipPath><clipPath id="clip-path-14"><path class="cls-1" d="M15.4,60.86,8.56,57.14h0L8.62,57h0l.06-.14h0l.07-.15L9.07,56l6.84,3.72-.31.64-.07.15h0l-.06.14h0l-.06.13Z"/></clipPath><clipPath id="clip-path-15"><path class="cls-1" d="M19.93,51.84l-6.84-3.72c.34-.58.69-1.15,1-1.7l.62-.94.2-.29,0,0,.59-.83,0,0,.16-.22,0,0,.37-.49,0,0,.15-.19,0-.05.14-.17,0,0,.17-.2,0,0,.14-.17,0-.06.11-.13,0-.05.13-.14,0,0,.15-.16,0,0,.11-.11.05,0,.1-.09,0,0,.14-.12.14-.11,0,0,.08-.06,0,0,.08-.05,0,0,.08,0h0l.09,0h0l.06,0h.13l6.84,3.72h-.13l-.06,0h0l-.09,0h0l-.08,0,0,0-.08.05,0,0-.08.06,0,0-.14.11-.14.12,0,0-.1.09-.05,0-.11.11,0,0-.15.16,0,0-.13.14,0,.05-.11.13,0,.06-.14.17,0,0-.17.2,0,0-.14.17,0,.05-.15.19,0,0-.37.49,0,0-.16.22,0,0-.59.83,0,0-.2.29-.62.94C20.61,50.69,20.27,51.26,19.93,51.84Z"/></clipPath></defs><title>xse</title><g id="Layer_2" data-name="Layer 2"><g id="Layer_1-2" data-name="Layer 1"><g class="cls-2"><polygon class="cls-3" points="49.03 58.47 42.19 54.75 40.2 51.67 47.04 55.39 49.03 58.47"/><polygon class="cls-4" points="49.03 58.47 47.04 55.39 48.53 55.18 49.03 58.47"/><polygon class="cls-5" points="47.04 55.39 40.2 51.67 41.69 51.46 48.53 55.18 47.04 55.39"/><polygon points="42.66 48.64 35.83 44.92 40.59 44.25 47.43 47.97 42.66 48.64"/><polygon points="47.04 55.39 40.2 51.67 35.83 44.92 42.66 48.64 47.04 55.39"/><polygon points="47.04 55.39 42.66 48.64 47.43 47.97 48.53 55.18 47.04 55.39"/></g><g class="cls-2"><polygon class="cls-6" points="42.66 48.64 35.83 44.92 31.45 38.16 38.29 41.88 42.66 48.64"/><polygon class="cls-7" points="38.29 41.88 31.45 38.16 39.49 37.03 46.32 40.75 38.29 41.88"/><polygon class="cls-8" points="42.66 48.64 38.29 41.88 46.32 40.75 47.43 47.97 42.66 48.64"/></g><g class="cls-2"><polygon class="cls-9" points="38.29 41.88 31.45 38.16 28.53 33.66 35.37 37.38 38.29 41.88"/><path class="cls-10" d="M46.32,40.75l-8,1.13-2.92-4.51-.13-.22,0,0-.12-.23,0,0-.1-.25c0-.1-.07-.19-.1-.28a5.94,5.94,0,0,1-.2-.95c0-.11,0-.22,0-.33l10.57-1.49Z"/><g class="cls-2"><g class="cls-11"><g class="cls-2"><path class="cls-12" d="M35.37,37.38l-6.84-3.72-.13-.22,0,0-.12-.23,0,0-.1-.25c0-.1-.07-.19-.1-.28a5.94,5.94,0,0,1-.2-.95c0-.11,0-.22,0-.33L34.65,35c0,.11,0,.22,0,.33a5.94,5.94,0,0,0,.2.95c0,.09.06.18.1.28l.1.25,0,0,.12.23,0,0,.13.22"/></g></g></g><polygon class="cls-13" points="34.65 35.03 27.81 31.31 38.38 29.82 45.22 33.55 34.65 35.03"/><polygon class="cls-14" points="35.39 31.24 28.55 27.52 37.83 26.22 44.67 29.94 35.39 31.24"/><polygon class="cls-14" points="37.83 27.22 31 23.5 37.28 22.61 44.12 26.34 37.83 27.22"/><g class="cls-2"><g class="cls-15"><g class="cls-2"><path class="cls-16" d="M34.65,35l-6.84-3.72q0-.24,0-.47c0-.1,0-.17,0-.24v0q0-.11,0-.22c0-.18,0-.34,0-.5v0l0-.2v-.06l0-.17v-.07l0-.16v-.07l0-.18v0l.06-.22v0l.06-.18,0-.07,0-.08L35.06,32l0,.08,0,.07-.06.18v0l-.06.22v0l0,.18v.07l0,.16v.07l0,.17v.06l0,.2v0c0,.16,0,.32,0,.5s0,.14,0,.22v0c0,.07,0,.14,0,.24s0,.32,0,.47"/><path class="cls-17" d="M35.06,32l-6.84-3.72,0-.06,0-.08.05-.13,0-.08.06-.14,6.84,3.72-.06.14,0,.08-.05.13,0,.08,0,.06"/></g></g></g><polygon class="cls-18" points="35.53 31 28.69 27.28 31 23.5 37.83 27.22 35.53 31"/><g class="cls-2"><g class="cls-19"><g class="cls-2"><path class="cls-17" d="M35.26,31.51l-6.84-3.72,0-.07.1-.2,6.84,3.72-.1.2,0,.07"/></g></g></g><g class="cls-2"><g class="cls-20"><g class="cls-2"><path class="cls-21" d="M35.39,31.24l-6.84-3.72.14-.24L35.53,31l-.14.24"/></g></g></g><path class="cls-22" d="M35.26,31.51l0-.07.1-.2,9.28-1.3.55,3.6L34.65,35q0-.24,0-.47c0-.1,0-.17,0-.24v0q0-.11,0-.22c0-.18,0-.34,0-.5v0l0-.2v-.06l0-.17V33l0-.16v-.07l0-.18v0l.06-.22v0l.06-.18,0-.07.05-.14,0-.08.05-.13,0-.08Z"/><path class="cls-22" d="M37.83,27.22l6.29-.88.55,3.6-9.28,1.3.14-.24Z"/></g><g class="cls-2"><polygon class="cls-5" points="42.74 19.16 35.9 15.45 36.18 15.41 43.02 19.13 42.74 19.16"/><polygon class="cls-23" points="37.83 27.22 31 23.5 35.9 15.45 42.74 19.16 37.83 27.22"/><polygon class="cls-4" points="42.74 19.16 43.02 19.13 44.12 26.34 37.83 27.22 42.74 19.16"/></g><g class="cls-2"><polygon points="42.74 19.16 35.9 15.45 36.13 15.07 42.97 18.79 42.74 19.16"/><polygon points="42.74 19.16 42.97 18.79 43.01 19.09 43.02 19.13 42.74 19.16"/></g><g class="cls-2"><polygon points="42.97 18.79 36.13 15.07 35.77 12.74 42.61 16.46 42.97 18.79"/><polygon points="41.91 11.91 35.08 8.19 40.81 7.38 47.65 11.1 41.91 11.91"/><polygon points="42.61 16.46 35.77 12.74 35.08 8.19 41.91 11.91 42.61 16.46"/><polygon points="41.91 11.91 47.65 11.1 46.61 12.8 42.97 18.79 42.61 16.46 41.91 11.91"/></g><g class="cls-2"><g class="cls-2"><g class="cls-24"><g class="cls-2"><path class="cls-25" d="M48.87,3.76,42,0a2.78,2.78,0,0,1,1.08,0l6.84,3.72a2.78,2.78,0,0,0-1.08,0"/><path class="cls-26" d="M49.94,3.79,43.11.07a1.58,1.58,0,0,1,.3.11L50.25,3.9a1.58,1.58,0,0,0-.3-.11"/><path class="cls-27" d="M50.25,3.9,43.41.18l0,0,6.84,3.72,0,0"/></g></g></g><polygon class="cls-7" points="40.84 4.88 34 1.17 42.03 0.04 48.87 3.76 40.84 4.88"/><polygon class="cls-6" points="41.91 11.91 35.08 8.19 34 1.17 40.84 4.88 41.91 11.91"/><path class="cls-8" d="M50.77,4.4a1.33,1.33,0,0,1,.14.57s0,.09,0,.13a2.14,2.14,0,0,1,0,.28l0,.15a3.82,3.82,0,0,1-.4,1l-.1.17-2.7,4.43-5.73.81-1.07-7,8-1.13a2.3,2.3,0,0,1,1.44.17,1.15,1.15,0,0,1,.34.29A1.09,1.09,0,0,1,50.77,4.4Z"/></g><g class="cls-2"><polygon class="cls-5" points="22.08 22.07 15.24 18.35 17.92 17.97 24.76 21.69 22.08 22.07"/><polygon class="cls-3" points="28.47 27.26 21.63 23.55 15.24 18.35 22.08 22.07 28.47 27.26"/><polygon class="cls-4" points="22.08 22.07 24.76 21.69 28.47 27.26 22.08 22.07"/></g><g class="cls-2"><polygon points="22.08 22.07 15.24 18.35 11.83 15.58 18.67 19.3 22.08 22.07"/><polygon points="18.67 19.3 11.83 15.58 11.84 11.45 18.68 15.17 18.67 19.3"/><polygon points="18.68 15.17 11.84 11.45 13.43 11.23 20.27 14.95 18.68 15.17"/><polygon points="24.76 21.69 22.08 22.07 18.67 19.3 18.68 15.17 20.27 14.95 24.76 21.69"/><polygon points="14.35 15.78 7.51 12.06 11.84 11.45 18.68 15.17 14.35 15.78"/><polygon class="cls-28" points="18.68 15.17 11.84 11.45 11.85 8.85 18.68 12.57 18.68 15.17"/><polygon class="cls-8" points="18.68 12.57 20.27 14.95 18.68 15.17 18.68 12.57"/><polygon points="18.67 19.3 14.35 15.78 18.68 15.17 18.67 19.3"/><polygon points="18.67 19.3 11.83 15.58 7.51 12.06 14.35 15.78 18.67 19.3"/><g class="cls-2"><g class="cls-29"><g class="cls-2"><path class="cls-25" d="M12.47,9,5.63,5.27l.18,0H6a5.63,5.63,0,0,1,1.58.19l6.84,3.72A5.63,5.63,0,0,0,12.84,9h-.19l-.18,0"/><path class="cls-26" d="M14.43,9.16,7.59,5.44l.17,0a7,7,0,0,1,1.15.44h0l6.84,3.72h0a7,7,0,0,0-1.15-.44l-.17,0"/><path class="cls-27" d="M15.74,9.65,8.9,5.93l.25.13L16,9.78l-.25-.13"/></g></g></g><polygon class="cls-7" points="6.84 9.67 0 5.95 5.63 5.27 12.47 8.99 6.84 9.67"/><polygon class="cls-6" points="14.35 15.78 7.51 12.06 0 5.95 6.84 9.67 14.35 15.78"/><path class="cls-8" d="M17.87,11.35l.1.15.71,1.07v2.6l-4.33.61L6.84,9.67,12.47,9l.18,0h.19a5.73,5.73,0,0,1,1.75.24,7,7,0,0,1,1.15.44,6.71,6.71,0,0,1,1,.63l.16.12A5,5,0,0,1,17.87,11.35Z"/></g><g class="cls-2"><g class="cls-2"><g class="cls-30"><g class="cls-2"><polyline class="cls-25" points="25.52 44.92 18.68 41.2 18.68 41.2 25.52 44.92 25.52 44.92"/><path class="cls-26" d="M25.52,44.92,18.68,41.2h0l6.84,3.72h0"/><polyline class="cls-27" points="25.55 44.94 18.72 41.22 18.72 41.22 25.56 44.94 25.55 44.94"/></g></g></g><g class="cls-2"><g class="cls-31"><g class="cls-2"><polyline class="cls-32" points="14.8 62.65 7.97 58.93 7.96 58.93 14.8 62.65 14.8 62.65"/></g></g></g><g class="cls-2"><g class="cls-33"><g class="cls-2"><path class="cls-32" d="M14.8,62.65,8,58.93H8l6.84,3.72h0"/></g></g></g><g class="cls-2"><g class="cls-34"><g class="cls-2"><path class="cls-32" d="M14.79,62.63,8,58.91v0l6.84,3.72v0"/></g></g></g><g class="cls-2"><g class="cls-35"><g class="cls-2"><polyline class="cls-32" points="14.78 62.62 7.95 58.9 7.94 58.89 14.78 62.61 14.78 62.62"/></g></g></g><g class="cls-2"><g class="cls-36"><g class="cls-2"><path class="cls-32" d="M14.78,62.61,7.94,58.89h0l6.84,3.72h0"/></g></g></g><g class="cls-2"><g class="cls-37"><g class="cls-2"><path class="cls-32" d="M14.78,62.6,7.94,58.88h0v0h0v-.41l0,0v0l0-.06v-.05L14.94,62V62l0,.06v0l0,0v.41h0v0h0"/><path class="cls-38" d="M14.94,62,8.1,58.24v-.06l0-.07v0l0-.08v0l0-.08v0l0-.08v0l0-.09v0l0-.1v0l0-.1v0l.05-.11.06-.14,6.84,3.72-.06.14-.05.11v0l0,.1v0l0,.1v0l0,.09v0l0,.08v0l0,.08v0l0,.08v0l0,.07V62"/></g></g></g><g class="cls-2"><g class="cls-39"><g class="cls-2"><path class="cls-38" d="M15.4,60.86,8.56,57.14h0L8.62,57h0l.06-.14h0l.07-.15L9.07,56l6.84,3.72-.31.64-.07.15h0l-.06.14h0l-.06.13h0"/></g></g></g><polygon points="18.6 57.18 11.76 53.46 11.77 50.52 18.61 54.24 18.6 57.18"/><polygon points="16.01 59.55 9.17 55.83 11.35 51.35 18.19 55.07 16.01 59.55"/><polygon class="cls-5" points="15.91 59.77 9.07 56.05 10.22 55.88 17.06 59.6 15.91 59.77"/><path class="cls-4" d="M15.91,59.77l1.15-.16-.25.39-.19.3,0,0-.17.26,0,0-.16.24,0,0-.15.22,0,0-.13.2,0,0-.13.18,0,0-.12.17,0,0-.11.15v0l-.1.14h0l-.1.12v0l-.09.1h0l-.07.08h0l-.06.06h0l-.06,0h0l0,0,0,0h0v0h0v0h0v-.41l0,0v0l0-.06v0l0-.06v0l0-.07v0l0-.08v0l0-.08v0l0-.08v0l0-.09v0l0-.1v0l0-.1v0l.05-.11.06-.14h0l.06-.13h0l.06-.14h0l.07-.15Z"/><path d="M15.91,59.77,9.07,56l.1-.21L16,59.55Z"/><polygon points="19.93 51.84 13.09 48.12 15.37 47.8 22.21 51.52 19.93 51.84"/><g class="cls-2"><g class="cls-40"><g class="cls-2"><path class="cls-41" d="M19.93,51.84l-6.84-3.72c.34-.58.69-1.15,1-1.7l.62-.94.2-.29,0,0,.25-.36L22,48.52l-.25.36,0,0-.2.29-.62.94c-.35.55-.7,1.12-1,1.7"/><path class="cls-42" d="M22,48.52,15.21,44.8l.34-.47,0,0,.16-.22,0,0,.37-.49,0,0,.15-.19,0-.05.14-.17,0,0,.17-.2,0,0,.14-.17,0-.06h0l6.84,3.72h0l0,.06-.14.17,0,0-.17.2,0,0-.14.17,0,.05-.15.19,0,0-.37.49,0,0-.16.22,0,0-.34.47"/><path class="cls-43" d="M23.76,46.3l-6.84-3.72.11-.12,0-.05.13-.14,0,0,.15-.16,0,0,.11-.11.05,0,.1-.09,0,0,6.84,3.72,0,0-.1.09-.05,0-.11.11,0,0-.15.16,0,0-.13.14,0,.05-.11.12"/><path class="cls-27" d="M24.55,45.49l-6.84-3.72h0l.14-.12.14-.11,0,0,.08-.06,0,0h0L25,45.13h0l0,0-.08.06,0,0-.14.11-.14.12h0"/><path class="cls-26" d="M25,45.13l-6.84-3.72.07,0,0,0,.08,0h0l0,0L25.26,45l0,0h0l-.08,0,0,0-.07,0"/><path class="cls-25" d="M25.26,45l-6.84-3.72,0,0h0l.06,0h.13l6.84,3.72h-.13l-.06,0h0l0,0"/></g></g></g><path class="cls-8" d="M23.68,49.19l-.06.09-.2.31-1.22,1.92-2.28.32c.34-.58.69-1.15,1-1.7l.62-.94.2-.29,0,0,.59-.83,0,0,.16-.22,0,0,.37-.49,0,0,.15-.19,0-.05.14-.17,0,0,.17-.2,0,0,.14-.17,0-.06.11-.13,0-.05L24,46l0,0,.15-.16,0,0,.11-.11.05,0,.1-.09,0,0,.14-.12.14-.11,0,0,.08-.06,0,0,.08-.05,0,0,.08,0h0l.09,0h0l.06,0h.13l.06,0,0,0,0,.05v.07a.63.63,0,0,1,0,.1v.13l0,.08v0l0,.11v0l0,.14v0l0,.12,0,.05,0,.11,0,.05-.07.15v0l-.09.19,0,0-.07.15,0,.07-.08.15L25,47l-.1.19,0,0-.13.23,0,.08-.1.18-.05.09-.1.18,0,.09-.15.25v0l-.17.28-.05.09-.12.2-.07.11Z"/><path d="M18.19,55.07l-6.84-3.72.42-.84,6.84,3.72Z"/><path d="M16,59.55l2.18-4.48.42-.84v2.94L17.06,59.6l-1.15.16Z"/><path d="M19.93,51.84l2.28-.32L18.6,57.18V54.24l0-.07.22-.43.08-.16.25-.46.1-.17.25-.46.09-.16.22-.39Z"/><path d="M18.61,54.24l-6.84-3.72,0-.07L12,50l.08-.16.25-.46.1-.17.25-.46.09-.16.22-.39.06-.1,6.84,3.72-.06.1-.22.39-.09.16-.25.46-.1.17-.25.46-.08.16-.22.43Z"/></g></g></g></svg>