<svg xmlns="http://www.w3.org/2000/svg" xmlns:xlink="http://www.w3.org/1999/xlink" viewBox="0 0 49.15 60.71"><defs><style>.cls-1{fill:none;}.cls-2{isolation:isolate;}.cls-3{fill:#242424;}.cls-4{fill:#1a1a1a;}.cls-5{fill:#2d2d2d;}.cls-6{fill:#666;}.cls-7{fill:#909090;}.cls-8{fill:#b2b2b2;}.cls-9{clip-path:url(#clip-path);}.cls-10{fill:#626262;}.cls-11{fill:#5f5f5f;}.cls-12{clip-path:url(#clip-path-2);}.cls-13{clip-path:url(#clip-path-3);}.cls-14{clip-path:url(#clip-path-4);}.cls-15{clip-path:url(#clip-path-5);}.cls-16{clip-path:url(#clip-path-6);}.cls-17{clip-path:url(#clip-path-7);}.cls-18{fill:#656565;}.cls-19{fill:#4d4d4d;}.cls-20{fill:#868686;}.cls-21{fill:#6c6c6c;}.cls-22{clip-path:url(#clip-path-8);}.cls-23{fill:#1b1b1b;}.cls-24{clip-path:url(#clip-path-9);}.cls-25{clip-path:url(#clip-path-10);}.cls-26{clip-path:url(#clip-path-11);}.cls-27{clip-path:url(#clip-path-12);}.cls-28{fill:#717171;}.cls-29{fill:#555;}.cls-30{fill:#393939;}.cls-31{fill:#343434;}.cls-32{fill:#595959;}.cls-33{fill:#484848;}.cls-34{clip-path:url(#clip-path-13);}.cls-35{clip-path:url(#clip-path-14);}.cls-36{clip-path:url(#clip-path-15);}.cls-37{clip-path:url(#clip-path-16);}.cls-38{clip-path:url(#clip-path-17);}.cls-39{fill:#686868;}.cls-40{fill:#4e4e4e;}</style><clipPath id="clip-path"><path class="cls-1" d="M17.87,8.68,11,5l.12.06L18,8.74Z"/></clipPath><clipPath id="clip-path-2"><path class="cls-1" d="M18,8.74,11.15,5l.06,0L18,8.77Z"/></clipPath><clipPath id="clip-path-3"><path class="cls-1" d="M11.3,5.1l6.84,3.72-.09,0L11.21,5.05Z"/></clipPath><clipPath id="clip-path-4"><path class="cls-1" d="M17.81,8.65,11,4.93,11,5l6.84,3.72Z"/></clipPath><clipPath id="clip-path-5"><path class="cls-1" d="M17.62,8.57,10.79,4.85l.06,0,.12.05,6.84,3.72-.12-.05Z"/></clipPath><clipPath id="clip-path-6"><path class="cls-1" d="M17.44,8.5,10.6,4.78l.07,0,.12,0,6.84,3.72-.12,0Z"/></clipPath><clipPath id="clip-path-7"><path class="cls-1" d="M15.17,8.21,8.33,4.49l.19,0h1l.11,0h.08l.11,0,.07,0,.12,0,.07,0,.12,0,.07,0,.12,0,.07,0,.12,0L17.44,8.5l-.12,0-.07,0-.12,0-.07,0-.12,0-.07,0-.12,0-.07,0-.11,0H16.5l-.11,0h-1Z"/></clipPath><clipPath id="clip-path-8"><path class="cls-1" d="M29.89,60.45l-6.84-3.72h0l6.84,3.72Z"/></clipPath><clipPath id="clip-path-9"><path class="cls-1" d="M29.88,60.44,23,56.72l0,0,6.84,3.72Z"/></clipPath><clipPath id="clip-path-10"><path class="cls-1" d="M29.84,60.42,23,56.7l-.13-.08,6.84,3.72Z"/></clipPath><clipPath id="clip-path-11"><path class="cls-1" d="M29.71,60.34l-6.84-3.72,0,0-.14-.11,6.84,3.72.14.11Z"/></clipPath><clipPath id="clip-path-12"><path class="cls-1" d="M29.55,60.2l-6.84-3.72,0,0-.11-.11,0,0-.11-.14v0L22.34,56l0,0-.08-.17-.07-.18v0a2.43,2.43,0,0,1-.08-.39v0l6.84,3.72v0a2.43,2.43,0,0,0,.08.39v0l.07.18.08.17,0,0,.08.14v0l.11.14,0,0,.11.11Z"/></clipPath><clipPath id="clip-path-13"><path class="cls-1" d="M48.21,3.88,41.37.16l.07,0,6.84,3.72Z"/></clipPath><clipPath id="clip-path-14"><path class="cls-1" d="M48.28,3.91,41.44.19l.05,0,6.84,3.72Z"/></clipPath><clipPath id="clip-path-15"><path class="cls-1" d="M41.54.24,48.38,4l0,0L41.49.21Z"/></clipPath><clipPath id="clip-path-16"><path class="cls-1" d="M48.15,3.85,41.32.13l.06,0,6.84,3.72Z"/></clipPath><clipPath id="clip-path-17"><path class="cls-1" d="M46.89,3.75,40.05,0l.18,0H41l.08,0,.06,0,.08,0,.06,0,.07,0,6.84,3.72-.07,0-.06,0-.08,0-.06,0-.08,0h-.73Z"/></clipPath></defs><title>yse</title><g id="Layer_2" data-name="Layer 2"><g id="Layer_1-2" data-name="Layer 1"><g class="cls-2"><polygon class="cls-3" points="22.59 22.96 15.75 19.24 18.77 18.82 25.61 22.54 22.59 22.96"/><polygon class="cls-4" points="27.95 27.58 21.11 23.86 15.75 19.24 22.59 22.96 27.95 27.58"/><polygon class="cls-5" points="22.59 22.96 25.61 22.54 27.95 27.58 22.59 22.96"/></g><g class="cls-2"><polygon points="22.59 22.96 15.75 19.24 8.39 12.9 15.23 16.62 22.59 22.96"/><polygon points="15.23 16.62 8.39 12.9 15.56 11.89 22.39 15.62 15.23 16.62"/><polygon points="22.59 22.96 15.23 16.62 22.39 15.62 24.21 19.54 25.61 22.54 22.59 22.96"/></g><g class="cls-2"><polygon class="cls-6" points="15.23 16.62 8.39 12.9 5.58 10.47 12.42 14.2 15.23 16.62"/><polygon class="cls-6" points="12.42 14.2 5.58 10.47 1.05 6.57 7.89 10.29 12.42 14.2"/><polygon class="cls-7" points="7.89 10.29 1.05 6.57 11.34 5.12 18.18 8.84 7.89 10.29"/><path class="cls-8" d="M20.11,10.72l0,.09.08.16,2.15,4.64-7.16,1-2.81-2.43L7.89,10.29,18.18,8.84l.05,0,.1.06.07,0,.1.06.06,0,.1.07.06,0,.1.07.05,0,.1.08.05,0,.1.08,0,0,.09.09,0,0,.09.09,0,0,.09.09,0,0,.08.1,0,0,.08.1,0,.06.07.09,0,.07.06.09,0,.07.05.09Z"/></g><g class="cls-2"><g class="cls-2"><g class="cls-9"><g class="cls-2"><path class="cls-10" d="M17.87,8.68,11,5l.08,0,6.84,3.72-.08,0"/><path class="cls-11" d="M17.94,8.72,11.11,5l0,0L18,8.74l0,0"/></g></g></g><g class="cls-2"><g class="cls-12"><g class="cls-2"><path class="cls-11" d="M18,8.74,11.15,5l.06,0L18,8.77l-.06,0"/></g></g></g><g class="cls-2"><g class="cls-13"><g class="cls-2"><path class="cls-11" d="M18,8.77,11.21,5.05l.09,0,6.84,3.72-.09,0"/></g></g></g><g class="cls-2"><g class="cls-14"><g class="cls-2"><path class="cls-10" d="M17.81,8.65,11,4.93,11,5l6.84,3.72-.06,0"/></g></g></g><g class="cls-2"><g class="cls-15"><g class="cls-2"><path class="cls-10" d="M17.62,8.57,10.79,4.85l.06,0,.12.05,6.84,3.72-.12-.05-.06,0"/></g></g></g><g class="cls-2"><g class="cls-16"><g class="cls-2"><path class="cls-10" d="M17.44,8.5,10.6,4.78l.07,0,.12,0,6.84,3.72-.12,0-.07,0"/></g></g></g><g class="cls-2"><g class="cls-17"><g class="cls-2"><path class="cls-18" d="M15.17,8.21,8.33,4.49l.19,0h1l.11,0h.08l.11,0,.07,0,.12,0h0l6.84,3.72h0l-.12,0-.07,0-.11,0H16.5l-.11,0h-1l-.19,0"/><path class="cls-10" d="M16.88,8.32,10,4.6l.07,0,.12,0,.07,0,.12,0,.07,0,.12,0L17.44,8.5l-.12,0-.07,0-.12,0-.07,0-.12,0-.07,0"/></g></g></g><polygon class="cls-19" points="7.89 10.29 1.05 6.57 0 5.66 6.84 9.38 7.89 10.29"/><path class="cls-20" d="M18.16,8.83,7.89,10.29,6.84,9.38l8.33-1.17.19,0h1l.11,0h.08l.11,0,.07,0,.12,0,.07,0,.12,0,.07,0,.12,0,.07,0,.12,0,.07,0,.12,0,.06,0,.12.05.06,0,.12.06.06,0Z"/><polygon class="cls-21" points="6.84 9.38 0 5.66 8.33 4.49 15.17 8.21 6.84 9.38"/></g><g class="cls-2"><g class="cls-2"><g class="cls-22"><g class="cls-2"><path class="cls-23" d="M29.89,60.45l-6.84-3.72h0l6.84,3.72h0"/></g></g></g><g class="cls-2"><g class="cls-24"><g class="cls-2"><path class="cls-23" d="M29.88,60.44,23,56.72l0,0,6.84,3.72,0,0"/></g></g></g><g class="cls-2"><g class="cls-25"><g class="cls-2"><path class="cls-23" d="M29.84,60.42,23,56.7l-.13-.08,6.84,3.72.13.08"/></g></g></g><g class="cls-2"><g class="cls-26"><g class="cls-2"><path class="cls-23" d="M29.71,60.34l-6.84-3.72,0,0-.14-.11,6.84,3.72.14.11,0,0"/></g></g></g><g class="cls-2"><g class="cls-27"><g class="cls-2"><path class="cls-23" d="M29.55,60.2l-6.84-3.72,0,0-.11-.11,0,0-.11-.14v0L22.34,56l0,0-.08-.17-.07-.18v0a2.43,2.43,0,0,1-.08-.39v0l6.84,3.72v0a2.43,2.43,0,0,0,.08.39v0l.07.18.08.17,0,0,.08.14v0l.11.14,0,0,.11.11,0,0"/></g></g></g><polygon class="cls-3" points="28.92 58.9 22.08 55.18 29.92 54.08 36.76 57.8 28.92 58.9"/><path class="cls-5" d="M33.86,60.32H33.8l-.23,0-2.13.3-.23,0h-.55l-.18,0h0l-.19,0h0l-.15-.06h0l-.17-.08,0,0-.13-.08,0,0-.14-.11,0,0-.11-.11,0,0-.11-.14v0l-.08-.14,0,0-.08-.17L29,59.36v0a2.43,2.43,0,0,1-.08-.39v0l7.84-1.1v0l-.1.2,0,0-.12.22v0l-.12.19,0,0a4.68,4.68,0,0,1-.3.4l0,0-.14.16,0,0-.17.17,0,0-.15.13,0,0-.19.15h0l-.18.12-.05,0-.18.11h0l-.21.1-.06,0-.17.07-.05,0-.22.07h0Z"/></g><g class="cls-2"><path d="M28.92,58.9l-6.84-3.72V55s0-.06,0-.09,0-.05,0-.08,0-.06,0-.09v-.45l0-.1,0-.09,0-.12,0-.08.06-.2,6.84,3.72-.06.2,0,.08,0,.12,0,.09,0,.1v.45s0,.06,0,.09,0,.05,0,.08,0,.06,0,.09v.21Z"/><polygon points="31.09 51.23 24.25 47.51 30.31 46.66 37.15 50.38 31.09 51.23"/><polygon points="29.1 57.39 22.26 53.67 24.25 47.51 31.09 51.23 29.1 57.39"/><path d="M29.1,57.39l2-6.16,6.06-.85V56c0,.07,0,.14,0,.22v.07s0,.1,0,.15v.08l0,.14v.08l0,.14V57l0,.16v0q-.06.21-.14.42v0l-.07.17L28.92,58.9V58.7s0-.06,0-.09,0-.05,0-.08,0-.06,0-.09V58l0-.1,0-.09,0-.12,0-.08Z"/></g><g class="cls-2"><polygon class="cls-28" points="31.09 51.23 24.25 47.51 25.82 42.65 32.65 46.37 31.09 51.23"/><polygon class="cls-28" points="32.65 46.37 25.82 42.65 26.74 39.79 33.58 43.51 32.65 46.37"/><polygon class="cls-8" points="32.65 46.37 33.58 43.51 37.16 43.01 37.15 50.38 31.09 51.23 32.65 46.37"/><polygon class="cls-7" points="33.58 43.51 26.74 39.79 30.32 39.29 37.16 43.01 33.58 43.51"/><polygon class="cls-21" points="36.06 35.8 29.23 32.08 30.35 31.92 37.19 35.64 36.06 35.8"/><polygon class="cls-29" points="33.58 43.51 26.74 39.79 29.23 32.08 36.06 35.8 33.58 43.51"/><path class="cls-20" d="M37.18,35.91c0,.1,0,.19,0,.28V43l-3.58.5,2.49-7.71,1.12-.16C37.18,35.74,37.18,35.82,37.18,35.91Z"/></g><g class="cls-2"><polygon class="cls-30" points="36.06 35.8 29.23 32.08 30.34 28.62 37.18 32.34 36.06 35.8"/><polygon class="cls-31" points="37.18 32.34 30.34 28.62 30.34 28.24 37.18 31.96 37.18 32.34"/><path class="cls-32" d="M37.19,35.64l-1.12.16,1.12-3.46V32l.61-.09-.11.45v.06l-.09.44v.06l-.09.45c-.06.32-.11.64-.15.95v0q0,.23-.06.44v0c0,.3-.06.58-.07.85Z"/><polygon class="cls-33" points="37.18 31.96 30.34 28.24 30.95 28.15 37.79 31.87 37.18 31.96"/><polygon class="cls-31" points="37.18 31.96 30.34 28.24 30.35 24.55 37.19 28.27 37.18 31.96"/><polygon class="cls-33" points="37.19 28.27 30.35 24.55 32.33 24.27 39.17 28 37.19 28.27"/><path class="cls-32" d="M37.19,28.27l2-.28-.32.71c-.1.22-.2.45-.29.7a19.93,19.93,0,0,0-.65,2l-.11.44-.61.09Z"/></g><g class="cls-2"><polygon class="cls-4" points="37.19 28.27 30.35 24.55 30.36 17.19 37.2 20.91 37.19 28.27"/><polygon class="cls-3" points="37.2 20.91 30.36 17.19 35.92 16.41 42.76 20.13 37.2 20.91"/><polygon class="cls-5" points="40.22 25.69 39.17 28 37.19 28.27 37.2 20.91 42.76 20.13 40.22 25.69"/></g><g class="cls-2"><polygon points="37.2 20.91 30.36 17.19 30.38 9.81 37.21 13.53 37.2 20.91"/><polygon points="37.21 13.53 30.38 9.81 39.51 8.53 46.35 12.25 37.21 13.53"/><polygon points="46.35 12.25 42.76 20.13 37.2 20.91 37.21 13.53 46.35 12.25"/></g><g class="cls-2"><g class="cls-2"><g class="cls-34"><g class="cls-2"><path class="cls-10" d="M48.21,3.88,41.37.16l.07,0,6.84,3.72-.07,0"/></g></g></g><g class="cls-2"><g class="cls-35"><g class="cls-2"><polyline class="cls-10" points="48.28 3.91 41.44 0.19 41.45 0.19 48.29 3.91 48.28 3.91"/><path class="cls-11" d="M48.29,3.91,41.45.19l0,0,6.84,3.72,0,0"/></g></g></g><g class="cls-2"><g class="cls-36"><g class="cls-2"><path class="cls-11" d="M48.33,3.93,41.49.21l0,0L48.38,4l0,0"/></g></g></g><g class="cls-2"><g class="cls-37"><g class="cls-2"><path class="cls-10" d="M48.15,3.85,41.32.13l.06,0,6.84,3.72-.06,0"/></g></g></g><polygon class="cls-7" points="37.23 6.17 30.39 2.45 42.1 0.8 48.94 4.52 37.23 6.17"/><g class="cls-2"><g class="cls-38"><g class="cls-2"><path class="cls-18" d="M46.89,3.75,40.05,0l.18,0H41l.08,0,.06,0h0L48,3.8h0l-.06,0-.08,0h-.73l-.18,0"/><path class="cls-10" d="M48,3.8,41.15.08h0l.06,0,.07,0,6.84,3.72-.07,0-.06,0h0"/></g></g></g><path class="cls-8" d="M48.9,6.63l0,.08-.08.18-2.44,5.36-9.13,1.28V6.17L48.94,4.52l0,0,0,.06,0,.06,0,.06,0,.06,0,.06,0,.06,0,.07v.34s0,.05,0,.08,0,0,0,.07,0,.05,0,.08v.39l0,.09,0,.08,0,.09,0,.08,0,.09,0,.08,0,.09Z"/><polygon class="cls-39" points="37.21 13.53 30.38 9.81 30.39 2.45 37.23 6.17 37.21 13.53"/><polygon class="cls-40" points="37.23 6.17 30.39 2.45 30.39 1.39 37.23 5.11 37.23 6.17"/><path class="cls-20" d="M48.93,4.5,37.23,6.17V5.11l9.66-1.36.18,0h.73l.08,0,.06,0,.08,0,.06,0,.07,0,.06,0,.07,0,.05,0,.06,0,.05,0,.06,0,0,0,.05,0,0,0,.05,0,0,0,0,.05,0,0,0,.06,0,0Z"/><polygon class="cls-21" points="37.23 5.11 30.39 1.39 40.05 0.03 46.89 3.75 37.23 5.11"/></g></g></g></svg>