<svg xmlns="http://www.w3.org/2000/svg" xmlns:xlink="http://www.w3.org/1999/xlink" viewBox="0 0 49.96 64.23"><defs><style>.cls-1{fill:none;}.cls-2{isolation:isolate;}.cls-3{fill:#242424;}.cls-4{fill:#1a1a1a;}.cls-5{fill:#2d2d2d;}.cls-6{fill:#8f8f8f;}.cls-7{clip-path:url(#clip-path);}.cls-8{fill:#878787;}.cls-9{clip-path:url(#clip-path-2);}.cls-10{fill:#838383;}.cls-11{fill:#b2b2b2;}.cls-12{fill:#686868;}.cls-13{clip-path:url(#clip-path-3);}.cls-14{fill:#6a6a6a;}.cls-15{fill:#6e6e6e;}.cls-16{fill:#909090;}.cls-17{fill:#6c6c6c;}.cls-18{fill:#646464;}.cls-19{clip-path:url(#clip-path-4);}.cls-20{fill:#5c5c5c;}.cls-21{clip-path:url(#clip-path-5);}.cls-22{fill:#535353;}.cls-23{fill:#565656;}.cls-24{fill:#595959;}.cls-25{fill:#868686;}.cls-26{fill:#484848;}.cls-27{fill:#434343;}.cls-28{fill:#212121;}.cls-29{clip-path:url(#clip-path-6);}.cls-30{clip-path:url(#clip-path-7);}.cls-31{clip-path:url(#clip-path-8);}.cls-32{clip-path:url(#clip-path-9);}.cls-33{fill:#5f5f5f;}.cls-34{fill:#626262;}.cls-35{fill:#656565;}.cls-36{clip-path:url(#clip-path-10);}.cls-37{fill:#727272;}.cls-38{fill:#767676;}</style><clipPath id="clip-path"><path class="cls-1" d="M32.21,50.67l-6.84-3.72H26l6.84,3.72h-.58Z"/></clipPath><clipPath id="clip-path-2"><path class="cls-1" d="M20.82,53.1,14,49.38l.1-.06.11-.06,0,0,.08,0,.17-.08.21-.09.06,0,.22-.09.24-.09.06,0,.24-.09.27-.09.06,0,.26-.08.29-.09.07,0,.29-.08.31-.09.07,0,.3-.08.33-.08.07,0,.31-.08.34-.08.08,0,.31-.07.38-.08h.07l.32-.06h0l.34-.06.09,0,.34-.06.37-.06.1,0,.3,0h.06l.35-.05h.09l.19,0,.35,0,.14,0,.48-.06.48-.05h.14l.35,0H24l.47,0,.46,0H25l.33,0,6.84,3.72-.33,0h-.14l-.46,0-.47,0h-.14l-.35,0h-.14l-.48.05-.48.06-.14,0-.35,0-.19,0h-.09l-.35.05H28l-.3,0-.1,0-.37.06-.34.06-.09,0-.34.06h0l-.32.06h-.07l-.38.08-.31.07-.08,0-.34.08-.31.08-.07,0-.33.08-.3.08-.07,0-.31.09-.29.08-.07,0-.29.09-.26.08-.06,0-.27.09-.24.09-.06,0-.24.09-.22.09-.06,0-.21.09-.17.08-.08,0,0,0-.11.06Z"/></clipPath><clipPath id="clip-path-3"><path class="cls-1" d="M6.86,50.7,0,47c0-.06,0-.13,0-.19v-.06s0-.09,0-.14v-.48l0-.12V45.9l0-.12,0-.09,0-.13,0-.08,0-.21,0-.06,0-.15,0-.1,0-.11,0-.11,0-.11,0-.11,0-.11,0-.1,0-.11,0-.11,0-.1,0-.12L7.52,47.6l0,.12,0,.1,0,.11,0,.11,0,.1,0,.11,0,.11,0,.11,0,.11,0,.11,0,.1,0,.15,0,.06,0,.21,0,.08,0,.13,0,.09,0,.12v.08l0,.12v.48s0,.09,0,.14v.06C6.86,50.57,6.86,50.63,6.86,50.7Z"/></clipPath><clipPath id="clip-path-4"><path class="cls-1" d="M9.48,44.31,2.65,40.59l0-.05.15-.16L9.69,44.1l-.15.16Z"/></clipPath><clipPath id="clip-path-5"><path class="cls-1" d="M7.53,47.59.69,43.88l.09-.23,0-.07.07-.17,0-.08L1,43.16l0-.08.07-.15,0-.08.08-.15,0-.08.09-.16,0-.07.11-.2.14-.24,0,0,.1-.16,0-.08.09-.13L2,41.45,2,41.33l.06-.08.08-.11.06-.08L2.33,41l.06-.08.09-.1.06-.07.1-.11,6.84,3.72-.1.11-.06.07-.09.1-.06.08-.09.11L9,44.86,8.94,45,8.88,45l-.09.12-.05.08-.09.13,0,.08-.1.16,0,0-.14.24-.11.2,0,.07-.09.16,0,.08L8,46.57l0,.08-.07.15,0,.08L7.75,47l0,.08-.07.17,0,.07Z"/></clipPath><clipPath id="clip-path-6"><path class="cls-1" d="M6.93,13.31.09,9.59c0-.06,0-.12,0-.19l6.84,3.72C6.93,13.19,6.93,13.25,6.93,13.31Z"/></clipPath><clipPath id="clip-path-7"><path class="cls-1" d="M6.94,13.12.1,9.4c0-.11,0-.15,0-.19L7,12.94S6.94,13,6.94,13.12Z"/></clipPath><clipPath id="clip-path-8"><path class="cls-1" d="M7,12.94.11,9.22.13,9l0-.18L7,12.57l0,.18Z"/></clipPath><clipPath id="clip-path-9"><path class="cls-1" d="M7.78,10.73.94,7A4.39,4.39,0,0,1,2.49,5.64l.17-.08.18-.07L3,5.42l.19-.06.2,0,.25,0L10.5,9l-.25,0-.2,0-.19.06-.18.07-.18.07-.17.08A4.39,4.39,0,0,0,7.78,10.73Z"/></clipPath><clipPath id="clip-path-10"><path class="cls-1" d="M7,12.57.16,8.86l.06-.27,0-.18A4.73,4.73,0,0,1,.94,7l6.84,3.72a4.73,4.73,0,0,0-.67,1.39l0,.18Z"/></clipPath></defs><title>zse</title><g id="Layer_2" data-name="Layer 2"><g id="Layer_1-2" data-name="Layer 1"><g class="cls-2"><polygon points="6.92 18.21 0.09 14.49 5.17 13.78 12.01 17.5 6.92 18.21"/><polygon points="6.92 19.35 0.08 15.63 0.09 14.49 6.92 18.21 6.92 19.35"/><polygon points="6.92 18.21 12.01 17.5 6.92 19.35 6.92 18.21"/></g><g class="cls-2"><polygon class="cls-3" points="6.84 62.43 0 58.71 1.32 58.52 8.16 62.24 6.84 62.43"/><polygon class="cls-4" points="6.84 64.23 0 60.51 0 58.71 6.84 62.43 6.84 64.23"/><polygon class="cls-5" points="6.84 62.43 8.16 62.24 6.84 64.23 6.84 62.43"/></g><g class="cls-2"><path d="M38.83,46.83l6.84,3.72a10.73,10.73,0,0,0-2.86-.12L36,46.7A10.73,10.73,0,0,1,38.83,46.83Z"/><polygon points="39.3 50.5 32.47 46.78 35.98 46.7 42.81 50.42 39.3 50.5"/><polygon points="20.81 53.1 13.97 49.38 32.47 46.78 39.3 50.5 20.81 53.1"/><path d="M20.22,54l-6.84-3.72-.09-.06,6.84,3.72Z"/><path d="M20.14,53.89,13.3,50.17c0-.25,0-.29,0-.33l.06-.07.08-.07.1-.08.12-.08.14-.08.14-.08,6.84,3.72-.14.08-.14.08-.12.08-.1.08-.08.07-.06.07S20.11,53.65,20.14,53.89Z"/><path d="M42.81,50.42c3.89-.09,3.87.29,0,.84L24,53.89l-.31,0-.32,0-.3,0-.31,0-.28,0-.27,0H21.17l-.48,0-.13,0-.12,0-.1,0-.09,0-.12-.08c0-.25,0-.29,0-.33l.06-.07.08-.07.1-.08.12-.08.14-.08.14-.08,18.5-2.6Z"/></g><g class="cls-2"><polygon points="6.84 62.43 0 58.71 0.02 51.34 6.86 55.06 6.84 62.43"/><polygon points="6.86 55.06 0.02 51.34 6.72 50.4 13.56 54.12 6.86 55.06"/><polygon points="13.56 54.12 8.16 62.24 6.84 62.43 6.86 55.06 13.56 54.12"/></g><g class="cls-2"><polygon class="cls-6" points="32.79 50.65 25.96 46.93 32.47 46.78 39.3 50.5 32.79 50.65"/><g class="cls-2"><g class="cls-7"><g class="cls-2"><path class="cls-8" d="M32.21,50.67l-6.84-3.72H26l6.84,3.72h-.58"/></g></g></g><g class="cls-2"><g class="cls-9"><g class="cls-2"><path class="cls-10" d="M20.82,53.1,14,49.38l.1-.06.11-.06,0,0,.08,0,.11-.05,6.84,3.72-.11.05-.08,0,0,0-.11.06-.1.06"/><path class="cls-8" d="M21.26,52.87l-6.84-3.72.06,0,.21-.09.06,0,.22-.09.24-.09.06,0,.24-.09.27-.09.06,0,.26-.08.29-.09.07,0,.29-.08.31-.09.07,0,.3-.08.33-.08.07,0,.31-.08.34-.08.08,0,.31-.07.38-.08h.07l.32-.06h0l.34-.06.09,0,.34-.06.37-.06.1,0,.3,0h.06l.35-.05h.09l.19,0,.35,0,.14,0,.48-.06.48-.05h.14l.35,0H24l.47,0,.46,0H25l.33,0,6.84,3.72-.33,0h-.14l-.46,0-.47,0h-.14l-.35,0h-.14l-.48.05-.48.06-.14,0-.35,0-.19,0h-.09l-.35.05H28l-.3,0-.1,0-.37.06-.34.06-.09,0-.34.06h0l-.32.06h-.07l-.38.08-.31.07-.08,0-.34.08-.31.08-.07,0-.33.08-.3.08-.07,0-.31.09-.29.08-.07,0-.29.09-.26.08-.06,0-.27.09-.24.09-.06,0-.24.09-.22.09-.06,0-.21.09-.06,0"/></g></g></g><path class="cls-11" d="M32.21,50.67h.58l6.51-.15L20.82,53.1l.1-.06L21,53l0,0,.08,0,.17-.08.21-.09.06,0,.22-.09.24-.09.06,0,.24-.09.27-.09.06,0,.26-.08.29-.09.07,0,.29-.08.31-.09.07,0,.3-.08.33-.08.07,0,.31-.08.34-.08.08,0,.31-.07.38-.08h.07l.32-.06h0l.34-.06.09,0,.34-.06.37-.06.1,0,.3,0h.06l.35-.05h.09l.19,0,.35,0,.14,0,.48-.06.48-.05h.14l.35,0h.14l.47,0,.46,0h.14Z"/></g><g class="cls-2"><polygon class="cls-12" points="6.86 55.06 0.02 51.34 0.03 46.98 6.86 50.7 6.86 55.06"/><g class="cls-2"><g class="cls-13"><g class="cls-2"><path class="cls-14" d="M6.86,50.7,0,47c0-.06,0-.13,0-.19v-.06s0-.09,0-.14v-.48l0-.12V45.9l0-.12,0-.09,0-.13,0-.08,0-.21,0-.06,0-.15,0-.1,0-.11,0-.11,0-.11,0-.11,0-.11,0-.1,0-.11,0-.11v0l6.84,3.72v0l0,.11,0,.11,0,.1,0,.11,0,.11,0,.11,0,.11,0,.11,0,.1,0,.15,0,.06,0,.21,0,.08,0,.13,0,.09,0,.12v.08l0,.12v.48s0,.09,0,.14v.06c0,.06,0,.13,0,.19"/><path class="cls-15" d="M7.45,47.79.61,44.07l0-.07,0-.12L7.52,47.6l0,.12,0,.07"/></g></g></g><polygon class="cls-16" points="7.52 47.6 0.68 43.88 12.13 42.27 18.97 45.99 7.52 47.6"/><path class="cls-11" d="M14.54,52.64l-1,1.48-6.7.94V50.7c0-.06,0-.13,0-.19v-.06s0-.09,0-.14v-.48l0-.12v-.08l0-.12,0-.09,0-.13,0-.08,0-.21,0-.06,0-.15,0-.1,0-.11,0-.11,0-.11,0-.11,0-.11,0-.1,0-.11,0-.11,0-.1,0-.12L19,46Z"/></g><g class="cls-2"><polygon class="cls-17" points="14.69 39.22 7.85 35.5 17.53 34.14 24.37 37.86 14.69 39.22"/><polygon class="cls-18" points="9.69 44.1 2.85 40.38 7.85 35.5 14.69 39.22 9.69 44.1"/><g class="cls-2"><g class="cls-19"><g class="cls-2"><path class="cls-20" d="M9.48,44.31,2.65,40.59l0-.05.15-.16L9.69,44.1l-.15.16,0,.05"/></g></g></g><g class="cls-2"><g class="cls-21"><g class="cls-2"><path class="cls-22" d="M7.53,47.59.69,43.88l.09-.23,0-.07.07-.17,0-.08L1,43.16l0-.08.07-.15,0-.08.08-.15,0-.08.06-.11,6.84,3.72-.06.11,0,.08L8,46.57l0,.08-.07.15,0,.08L7.75,47l0,.08-.07.17,0,.07-.09.23"/><path class="cls-23" d="M8.15,46.23,1.31,42.51l0-.05h0l6.84,3.72h0l0,.05"/><path class="cls-22" d="M8.19,46.16,1.35,42.44l0,0L8.2,46.13l0,0"/><path class="cls-23" d="M8.2,46.13,1.36,42.41l0,0,.11-.2.14-.24,0,0,.1-.16,0-.08.09-.13L2,41.45l0,0,6.84,3.72,0,0-.05.08-.09.13,0,.08-.1.16,0,0-.14.24-.11.2,0,0"/><path class="cls-24" d="M8.82,45.14,2,41.42,2,41.33l.06-.08.08-.11.06-.08L2.33,41l.06-.08.09-.1.06-.07,6.84,3.72-.06.07-.09.1-.06.08-.09.11L9,44.86,8.94,45,8.88,45l-.06.09"/><path class="cls-20" d="M9.38,44.43,2.54,40.71h0l.1-.11,6.84,3.72-.1.11h0"/></g></g></g><path class="cls-25" d="M9.48,44.31l0-.05.15-.16,5-4.88,9.68-1.36-1.71,2.58L19,46,7.53,47.59l.09-.23,0-.07.07-.17,0-.08.07-.16,0-.08.07-.15,0-.08.08-.15,0-.08.09-.16,0-.07.11-.2.14-.24,0,0,.1-.16,0-.08.09-.13.05-.08L8.88,45,8.94,45,9,44.86l.06-.08.09-.11.06-.08.09-.1.06-.07Z"/></g><g class="cls-2"><polygon class="cls-26" points="19.1 34.92 12.26 31.2 20.23 30.08 27.07 33.8 19.1 34.92"/><polygon class="cls-27" points="14.69 39.22 7.85 35.5 12.26 31.2 19.1 34.92 14.69 39.22"/><polygon class="cls-24" points="24.37 37.86 14.69 39.22 19.1 34.92 27.07 33.8 25.32 36.44 24.37 37.86"/></g><g class="cls-2"><polygon class="cls-26" points="23.51 30.62 16.67 26.9 22.93 26.02 29.77 29.74 23.51 30.62"/><polygon class="cls-27" points="19.1 34.92 12.26 31.2 16.67 26.9 23.51 30.62 19.1 34.92"/><polygon class="cls-24" points="29.77 29.74 29.67 29.89 27.07 33.8 19.1 34.92 23.51 30.62 29.77 29.74"/></g><g class="cls-2"><polygon class="cls-3" points="32.33 22.02 25.49 18.3 28.33 17.9 35.17 21.62 32.33 22.02"/><polygon class="cls-28" points="23.51 30.62 16.67 26.9 25.49 18.3 32.33 22.02 23.51 30.62"/><polygon class="cls-5" points="29.77 29.74 23.51 30.62 32.33 22.02 35.17 21.62 29.99 29.41 29.77 29.74"/></g><g class="cls-2"><polygon points="32.33 22.02 25.49 18.3 32.82 11.15 39.66 14.87 32.33 22.02"/><polygon points="35.17 21.62 32.33 22.02 39.66 14.87 35.17 21.62"/></g><g class="cls-2"><polygon class="cls-16" points="7.78 10.73 0.94 7.01 38.27 1.76 45.11 5.48 7.78 10.73"/><polygon class="cls-17" points="10.75 8.96 3.91 5.24 43.13 0 49.96 3.72 10.75 8.96"/><polygon class="cls-17" points="10.5 8.99 3.66 5.27 3.91 5.24 10.75 8.96 10.5 8.99"/><polygon class="cls-12" points="6.92 18.21 0.09 14.49 0.1 9.59 6.93 13.31 6.92 18.21"/><g class="cls-2"><g class="cls-29"><g class="cls-2"><path class="cls-14" d="M6.93,13.31.09,9.59c0-.06,0-.12,0-.19l6.84,3.72c0,.06,0,.12,0,.19"/></g></g></g><g class="cls-2"><g class="cls-30"><g class="cls-2"><path class="cls-14" d="M6.94,13.12.1,9.4c0-.11,0-.15,0-.19L7,12.94s0,.08,0,.19"/></g></g></g><g class="cls-2"><g class="cls-31"><g class="cls-2"><path class="cls-14" d="M7,12.94.11,9.22.13,9l0-.18L7,12.57l0,.18,0,.18"/></g></g></g><path class="cls-25" d="M10.75,9,50,3.72,45.11,5.48,7.78,10.73A4.39,4.39,0,0,1,9.33,9.36l.17-.08.18-.07.18-.07.19-.06.2,0,.25,0Z"/><g class="cls-2"><g class="cls-32"><g class="cls-2"><path class="cls-24" d="M7.78,10.73.94,7a4.66,4.66,0,0,1,.31-.39l6.84,3.72a4.66,4.66,0,0,0-.31.39"/><path class="cls-20" d="M8.08,10.34,1.25,6.62a4.53,4.53,0,0,1,.36-.37L8.45,10a4.53,4.53,0,0,0-.36.37"/><path class="cls-33" d="M8.45,10,1.61,6.25A4.31,4.31,0,0,1,2,5.91L8.88,9.63a4.31,4.31,0,0,0-.43.34"/><path class="cls-34" d="M8.88,9.63,2,5.91a4,4,0,0,1,.45-.27l.11-.06L9.45,9.31l-.11.06a4,4,0,0,0-.45.27"/><path class="cls-35" d="M9.45,9.31,2.61,5.59l.06,0,.18-.07L3,5.42l.19-.06.2,0,.25,0L10.5,9l-.25,0-.2,0-.19.06-.18.07-.18.07-.06,0"/></g></g></g><g class="cls-2"><g class="cls-36"><g class="cls-2"><path class="cls-14" d="M7,12.57.16,8.86l.06-.27,0-.18.1-.29L7.2,11.83l-.1.29,0,.18L7,12.57"/><path class="cls-15" d="M7.2,11.83.37,8.11a4.76,4.76,0,0,1,.28-.61l6.84,3.72a4.76,4.76,0,0,0-.28.61"/><path class="cls-37" d="M7.48,11.21.64,7.49A4.59,4.59,0,0,1,.93,7l6.84,3.72a4.59,4.59,0,0,0-.28.46"/><path class="cls-38" d="M7.76,10.75.93,7l0,0,6.84,3.72,0,0"/></g></g></g><path class="cls-11" d="M14.57,16.57,12,17.5l-5.09.71v-4.9c0-.06,0-.12,0-.19s0-.15,0-.19l0-.18,0-.18.06-.27,0-.18a4.73,4.73,0,0,1,.67-1.39L45.11,5.48Z"/></g></g></g></svg>